<?xml version="1.0" encoding="UTF-8" standalone="no"?>
<svg
   xmlns:dc="http://purl.org/dc/elements/1.1/"
   xmlns:cc="http://creativecommons.org/ns#"
   xmlns:rdf="http://www.w3.org/1999/02/22-rdf-syntax-ns#"
   xmlns:svg="http://www.w3.org/2000/svg"
   xmlns="http://www.w3.org/2000/svg"
   xmlns:sodipodi="http://sodipodi.sourceforge.net/DTD/sodipodi-0.dtd"
   xmlns:inkscape="http://www.inkscape.org/namespaces/inkscape"
   width="128"
   height="128"
   viewBox="0 0 128 128"
   id="svg2"
   version="1.1"
   inkscape:version="0.91 r13725"
   sodipodi:docname="bugfixes.svg">
  <metadata
     id="metadata43">
    <rdf:RDF>
      <cc:Work
         rdf:about="">
        <dc:format>image/svg+xml</dc:format>
        <dc:type
           rdf:resource="http://purl.org/dc/dcmitype/StillImage" />
      </cc:Work>
    </rdf:RDF>
  </metadata>
  <defs
     id="defs41" />
  <sodipodi:namedview
     pagecolor="#ffffff"
     bordercolor="#666666"
     borderopacity="1"
     objecttolerance="10"
     gridtolerance="10"
     guidetolerance="10"
     inkscape:pageopacity="0"
     inkscape:pageshadow="2"
     inkscape:window-width="1280"
     inkscape:window-height="751"
     id="namedview39"
     showgrid="false"
     inkscape:zoom="1.84375"
     inkscape:cx="-27.118644"
     inkscape:cy="64"
     inkscape:window-x="0"
     inkscape:window-y="1"
     inkscape:window-maximized="1"
     inkscape:current-layer="svg2" />
  <title
     id="title4">features-nextgen</title>
  <g
     transform="matrix(0.2129641,0,0,0.2129641,17.08474,16.915252)"
     id="g8126">
    <path
       d="M 348.027,208.161 C 337.487,181.353 320.53,158.345 299.313,141.566 320.704,133.681 336,113.094 336,89 c 0,-4.418 -3.582,-8 -8,-8 -4.418,0 -8,3.582 -8,8 0,19.422 -13.917,35.649 -32.301,39.249 0.197,-1.785 0.301,-3.58 0.301,-5.377 C 288,92.77 260.221,67.888 224.526,64.427 228.236,37.119 251.691,16 280,16 c 4.418,0 8,-3.582 8,-8 0,-4.418 -3.582,-8 -8,-8 C 252.158,0 227.974,15.896 216,39.079 204.026,15.896 179.842,0 152,0 c -4.418,0 -8,3.582 -8,8 0,4.418 3.582,8 8,8 28.309,0 51.764,21.119 55.474,48.427 C 171.779,67.888 144,92.77 144,122.872 c 0,1.798 0.119,3.593 0.316,5.38 C 125.925,124.658 112,108.428 112,89 c 0,-4.418 -3.582,-8 -8,-8 -4.418,0 -8,3.582 -8,8 0,24.094 15.296,44.681 36.687,52.565 C 111.47,158.344 94.513,181.352 83.973,208.16 54.969,210.234 32,234.477 32,264 c 0,4.418 3.582,8 8,8 4.418,0 8,-3.582 8,-8 0,-18.708 12.912,-34.452 30.291,-38.802 C 74.205,240.008 72,255.723 72,272 c 0,23.241 4.6,45.897 13.099,66.529 -22.889,13.392 -32.127,44.438 -20.49,72.533 1.276,3.081 4.255,4.94 7.394,4.94 1.021,0 2.058,-0.196 3.059,-0.611 4.082,-1.691 6.021,-6.371 4.33,-10.453 -8.323,-20.094 -2.642,-42.018 12.526,-51.841 9.68,18.301 22.648,34.508 38.34,47.451 -1.499,1.666 -3.015,3.278 -4.548,4.83 -3.105,3.144 -3.073,8.209 0.07,11.313 1.559,1.54 3.591,2.308 5.621,2.308 2.064,0 4.127,-0.794 5.692,-2.378 25.81,-26.134 47.595,-67.412 63,-119.37 6.669,-22.495 11.985,-46.552 15.904,-71.638 4.002,25.618 9.467,50.157 16.338,73.069 12.022,40.087 27.837,73.689 46.363,98.82 C 260.155,409.272 238.764,416 216,416 c -14.754,0 -29.215,-2.8 -42.979,-8.323 -4.101,-1.644 -8.758,0.345 -10.404,4.446 -1.645,4.101 0.345,8.758 4.446,10.404 15.667,6.286 32.132,9.473 48.937,9.473 26.527,0 51.396,-8.02 72.761,-21.979 2.502,2.84 5.045,5.539 7.629,8.082 1.559,1.534 3.585,2.298 5.611,2.298 2.069,0 4.137,-0.797 5.702,-2.388 3.099,-3.149 3.059,-8.214 -0.09,-11.313 -2,-1.968 -3.968,-4.044 -5.911,-6.203 15.535,-12.826 28.67,-29.043 38.519,-47.656 15.474,9.692 21.335,31.824 12.938,52.098 -1.691,4.082 0.248,8.762 4.33,10.453 1.001,0.415 2.038,0.611 3.059,0.611 3.139,0 6.118,-1.86 7.394,-4.94 11.705,-28.26 2.292,-59.512 -20.894,-72.772 C 355.36,318.081 360,295.632 360,272 c 0,-16.277 -2.205,-31.992 -6.291,-46.802 17.379,4.35 30.291,20.094 30.291,38.802 0,4.418 3.582,8 8,8 4.418,0 8,-3.582 8,-8 0,-29.523 -22.969,-53.766 -51.973,-55.839 z M 216,80 c 30.878,0 56,19.232 56,42.872 0,0.566 -0.029,1.131 -0.058,1.696 C 254.735,116.477 235.829,112 216,112 c -19.831,0 -38.738,4.478 -55.946,12.57 C 160.025,124.004 160,123.438 160,122.872 160,99.232 185.122,80 216,80 Z M 140.348,388.134 C 107.532,361.021 88,317.811 88,272 88,195.642 141.105,132.987 207.945,128.293 206.674,235.375 180.868,333.34 140.348,388.134 Z M 291.61,388.115 C 251.075,333.356 225.321,235.638 224.055,128.293 290.895,132.987 344,195.642 344,272 c 0,47.607 -20.647,89.884 -52.39,116.115 z"
       id="path5"
       inkscape:connector-curvature="0"
       style="fill:#2cd4d9" />
    <path
       d="m 136,312 c -8.822,0 -16,7.178 -16,16 0,8.822 7.178,16 16,16 8.822,0 16,-7.178 16,-16 0,-8.822 -7.178,-16 -16,-16 z"
       id="path7-2"
       inkscape:connector-curvature="0"
       style="fill:#5333ed;fill-opacity:1" />
    <path
       d="m 160,264 c -8.822,0 -16,7.178 -16,16 0,8.822 7.178,16 16,16 8.822,0 16,-7.178 16,-16 0,-8.822 -7.178,-16 -16,-16 z"
       id="path9"
       inkscape:connector-curvature="0"
       style="fill:#5333ed;fill-opacity:1" />
    <path
       d="m 144,240 c 0,-8.822 -7.178,-16 -16,-16 -8.822,0 -16,7.178 -16,16 0,8.822 7.178,16 16,16 8.822,0 16,-7.178 16,-16 z"
       id="path11"
       inkscape:connector-curvature="0"
       style="fill:#5333ed;fill-opacity:1" />
    <path
       d="m 160,216 c 8.822,0 16,-7.178 16,-16 0,-8.822 -7.178,-16 -16,-16 -8.822,0 -16,7.178 -16,16 0,8.822 7.178,16 16,16 z"
       id="path13-4"
       inkscape:connector-curvature="0"
       style="fill:#5333ed;fill-opacity:1" />
    <path
       d="m 296,312 c -8.822,0 -16,7.178 -16,16 0,8.822 7.178,16 16,16 8.822,0 16,-7.178 16,-16 0,-8.822 -7.178,-16 -16,-16 z"
       id="path15"
       inkscape:connector-curvature="0"
       style="fill:#5333ed;fill-opacity:1" />
    <path
       d="m 288,280 c 0,-8.822 -7.178,-16 -16,-16 -8.822,0 -16,7.178 -16,16 0,8.822 7.178,16 16,16 8.822,0 16,-7.178 16,-16 z"
       id="path17"
       inkscape:connector-curvature="0"
       style="fill:#5333ed;fill-opacity:1" />
    <path
       d="m 304,224 c -8.822,0 -16,7.178 -16,16 0,8.822 7.178,16 16,16 8.822,0 16,-7.178 16,-16 0,-8.822 -7.178,-16 -16,-16 z"
       id="path19"
       inkscape:connector-curvature="0"
       style="fill:#5333ed;fill-opacity:1" />
    <path
       d="m 272,216 c 8.822,0 16,-7.178 16,-16 0,-8.822 -7.178,-16 -16,-16 -8.822,0 -16,7.178 -16,16 0,8.822 7.178,16 16,16 z"
       id="path21"
       inkscape:connector-curvature="0"
       style="fill:#5333ed;fill-opacity:1" />
  </g>
</svg>
