<?xml version="1.0" encoding="UTF-8" standalone="no"?>
<svg
   xmlns:dc="http://purl.org/dc/elements/1.1/"
   xmlns:cc="http://creativecommons.org/ns#"
   xmlns:rdf="http://www.w3.org/1999/02/22-rdf-syntax-ns#"
   xmlns:svg="http://www.w3.org/2000/svg"
   xmlns="http://www.w3.org/2000/svg"
   xmlns:sodipodi="http://sodipodi.sourceforge.net/DTD/sodipodi-0.dtd"
   xmlns:inkscape="http://www.inkscape.org/namespaces/inkscape"
   width="128"
   height="128"
   viewBox="0 0 128 128"
   id="svg2"
   version="1.1"
   inkscape:version="0.91 r13725"
   sodipodi:docname="corelibraries.svg">
  <metadata
     id="metadata43">
    <rdf:RDF>
      <cc:Work
         rdf:about="">
        <dc:format>image/svg+xml</dc:format>
        <dc:type
           rdf:resource="http://purl.org/dc/dcmitype/StillImage" />
      </cc:Work>
    </rdf:RDF>
  </metadata>
  <defs
     id="defs41" />
  <sodipodi:namedview
     pagecolor="#ffffff"
     bordercolor="#666666"
     borderopacity="1"
     objecttolerance="10"
     gridtolerance="10"
     guidetolerance="10"
     inkscape:pageopacity="0"
     inkscape:pageshadow="2"
     inkscape:window-width="1280"
     inkscape:window-height="755"
     id="namedview39"
     showgrid="false"
     inkscape:zoom="1.84375"
     inkscape:cx="-122.84746"
     inkscape:cy="64"
     inkscape:window-x="0"
     inkscape:window-y="1"
     inkscape:window-maximized="1"
     inkscape:current-layer="svg2" />
  <title
     id="title4">features-nextgen</title>
  <g
     id="g3"
     style="fill:#5333ed;fill-opacity:1"
     transform="matrix(0.1796875,0,0,0.1796875,24.372883,18.711863)">
    <g
       id="g5"
       style="fill:#5333ed;fill-opacity:1">
      <path
         d="m 285,302 c -24.813,0 -45,20.187 -45,45 0,24.813 20.187,45 45,45 24.813,0 45,-20.187 45,-45 0,-24.813 -20.187,-45 -45,-45 z m 0,60 c -8.271,0 -15,-6.729 -15,-15 0,-8.271 6.729,-15 15,-15 8.271,0 15,6.729 15,15 0,8.271 -6.729,15 -15,15 z"
         id="path7"
         style="fill:#5333ed;fill-opacity:1"
         inkscape:connector-curvature="0" />
    </g>
  </g>
  <path
     d="m 109.22468,56.707941 c 0.0163,-0.500789 -0.10835,-0.991875 -0.35201,-1.420609 -0.5635,-2.136125 -1.28297,-4.23775 -2.1611,-6.295891 -2.18967,-5.131336 -5.2564,-9.783086 -9.123632,-13.843484 -0.129555,-0.370696 -0.33925,-0.719469 -0.635555,-1.015594 -0.296125,-0.296305 -0.645078,-0.506 -1.015594,-0.635555 C 91.876391,29.629574 87.22482,26.562847 82.093305,24.373176 76.399906,21.943621 70.37732,20.711863 64.193196,20.711863 c -12.223063,0 -23.733485,4.833773 -32.410774,13.611148 -8.647281,8.746829 -13.409539,20.313133 -13.409539,32.568539 0,12.238516 4.765672,23.744626 13.419422,32.398735 3.59e-4,3.59e-4 7.19e-4,7.19e-4 0.0011,0.0013 3.59e-4,5.39e-4 8.98e-4,7.18e-4 0.0013,0.0011 8.65393,8.653565 20.160039,13.419235 32.398555,13.419235 12.255406,0 23.82171,-4.76225 32.568718,-13.409532 6.135962,-6.06625 10.341552,-13.517891 12.319012,-21.628805 0.0541,-0.158304 0.0933,-0.321461 0.11734,-0.487851 0.77463,-3.339493 1.17461,-6.787157 1.17461,-10.294118 0,-3.454851 -0.38525,-6.858851 -1.1482,-10.183609 z M 23.763508,66.89155 c 0,-22.491125 18.136758,-40.789062 40.429688,-40.789062 10.277765,0 19.678296,3.822492 26.858968,10.118563 l -3.878914,3.878734 c -6.380703,-5.566539 -14.450648,-8.606672 -22.980054,-8.606672 -9.332071,0 -18.132446,3.717375 -24.780344,10.467336 -6.615555,6.716719 -10.258719,15.57082 -10.258719,24.931101 0,8.443876 2.97868,16.437813 8.439383,22.788149 l -3.816383,3.816383 C 27.54593,86.380996 23.763508,77.070129 23.763508,66.89155 Z M 64.193196,53.055613 c -3.595547,0 -6.978704,1.40282 -9.526313,3.95025 -2.473398,2.473758 -3.95025,6.169211 -3.95025,9.885687 0,2.681297 0.781102,5.244001 2.234234,7.430618 l -3.863101,3.863101 C 46.64707,74.938855 45.326008,71.01448 45.326008,66.89155 c 0,-10.421875 8.640094,-19.226562 18.867188,-19.226562 4.209718,0 8.212257,1.377125 11.497664,3.917367 l -3.854657,3.854656 C 69.603586,53.8908 66.96236,53.055613 64.193196,53.055613 Z m 3.724203,6.300203 -11.021133,11.021133 c -0.516063,-1.07525 -0.789008,-2.25975 -0.789008,-3.485399 0,-2.249148 0.930961,-4.633242 2.371336,-6.073796 1.5295,-1.529321 3.558891,-2.371516 5.714602,-2.371516 1.317289,0 2.586601,0.315891 3.724203,0.909578 z M 64.193196,42.274363 c -6.460125,0 -12.557102,2.597383 -17.167165,7.313641 -4.572507,4.677625 -7.090648,10.822937 -7.090648,17.303546 0,5.565102 1.870188,10.847375 5.311383,15.134899 l -3.827703,3.827703 C 36.969102,80.532347 34.544758,73.894691 34.544758,66.89155 c 0,-16.546343 13.300289,-30.007812 29.648438,-30.007812 7.088851,0 13.803414,2.484 19.157562,7.038719 l -3.823211,3.823211 c -4.322383,-3.543977 -9.68282,-5.471305 -15.334351,-5.471305 z m 0,65.046877 c -2.510594,0 -4.967821,-0.23198 -7.353172,-0.67203 1.286023,-2.80439 4.122211,-4.7186 7.353172,-4.7186 3.235453,0 6.074874,1.91942 7.358203,4.72992 -2.387508,0.43304 -4.846352,0.66071 -7.358203,0.66071 z m 12.639937,-1.98968 c -1.918164,-5.17536 -6.907906,-8.791572 -12.639937,-8.791572 -5.719993,0 -10.700391,3.601292 -12.62736,8.759402 -5.20357,-1.71511 -9.943367,-4.45912 -13.976992,-7.991777 L 58.478235,76.418402 c 1.79e-4,-1.8e-4 3.59e-4,-3.59e-4 5.39e-4,-5.39e-4 1.79e-4,-1.8e-4 3.59e-4,-3.59e-4 5.39e-4,-5.39e-4 L 94.863875,40.032761 c 3.3235,3.790508 5.957175,8.199321 7.703385,13.02986 -0.0934,-0.0018 -0.18634,-0.007 -0.28013,-0.007 -3.601661,0 -7.000989,1.480984 -9.571778,4.170187 -2.518141,2.63404 -3.904969,6.06679 -3.904969,9.66575 0,7.430977 6.045586,13.476563 13.476567,13.476563 0.12236,0 0.24365,-0.0059 0.36548,-0.0092 C 98.438399,92.146988 88.856742,101.43773 76.833133,105.33156 Z M 104.20673,74.747129 c -0.62352,0.151836 -1.26518,0.230359 -1.91978,0.230359 -4.45859,0 -8.085942,-3.627352 -8.085942,-8.085938 0,-4.577898 3.70282,-8.445312 8.085942,-8.445312 0.63411,0 1.25601,0.07421 1.86102,0.216703 0.54679,2.658656 0.83429,5.41057 0.83429,8.228609 0,2.687407 -0.26846,5.31354 -0.77553,7.855579 z"
     id="path13"
     inkscape:connector-curvature="0"
     style="fill:#2cd4d9" />
</svg>
