<?xml version="1.0" encoding="UTF-8" standalone="no"?>
<svg
   xmlns:dc="http://purl.org/dc/elements/1.1/"
   xmlns:cc="http://creativecommons.org/ns#"
   xmlns:rdf="http://www.w3.org/1999/02/22-rdf-syntax-ns#"
   xmlns:svg="http://www.w3.org/2000/svg"
   xmlns="http://www.w3.org/2000/svg"
   xmlns:sodipodi="http://sodipodi.sourceforge.net/DTD/sodipodi-0.dtd"
   xmlns:inkscape="http://www.inkscape.org/namespaces/inkscape"
   width="128"
   height="128"
   viewBox="0 0 128 128"
   id="svg2"
   version="1.1"
   inkscape:version="0.91 r13725"
   sodipodi:docname="dashboard.svg">
  <metadata
     id="metadata43">
    <rdf:RDF>
      <cc:Work
         rdf:about="">
        <dc:format>image/svg+xml</dc:format>
        <dc:type
           rdf:resource="http://purl.org/dc/dcmitype/StillImage" />
      </cc:Work>
    </rdf:RDF>
  </metadata>
  <defs
     id="defs41" />
  <sodipodi:namedview
     pagecolor="#ffffff"
     bordercolor="#666666"
     borderopacity="1"
     objecttolerance="10"
     gridtolerance="10"
     guidetolerance="10"
     inkscape:pageopacity="0"
     inkscape:pageshadow="2"
     inkscape:window-width="1280"
     inkscape:window-height="751"
     id="namedview39"
     showgrid="false"
     inkscape:zoom="1.84375"
     inkscape:cx="-33.898305"
     inkscape:cy="64"
     inkscape:window-x="-18"
     inkscape:window-y="5"
     inkscape:window-maximized="0"
     inkscape:current-layer="svg2" />
  <title
     id="title4">features-nextgen</title>
  <g
     transform="matrix(0.21875,0,0,0.21875,9.0847425,8.5425968)"
     id="g8116">
    <path
       d="m 337.067,209.92 -40.96,24.747 c -14.507,8.533 -29.867,16.213 -44.373,23.04 -4.267,1.707 -9.387,4.267 -14.507,6.827 -17.92,9.387 -27.307,29.013 -23.04,48.64 3.413,15.36 16.213,28.16 31.573,31.573 3.413,0.853 6.827,0.853 10.24,0.853 16.213,0 30.72,-9.387 38.4,-23.893 1.707,-4.267 4.267,-9.387 6.827,-14.507 7.68,-14.507 14.507,-29.867 23.04,-44.373 l 24.747,-40.96 c 1.707,-3.413 0.853,-6.827 -1.707,-10.24 -2.56,-3.414 -6.827,-3.414 -10.24,-1.707 z m -27.307,43.52 c -9.387,15.36 -17.067,30.72 -23.893,46.08 -1.707,5.12 -4.267,9.387 -6.827,14.507 -5.12,11.093 -17.067,16.213 -29.013,13.653 -9.387,-1.707 -17.067,-9.387 -18.773,-18.773 -2.56,-11.947 2.56,-23.893 13.653,-29.013 4.267,-2.56 9.387,-4.267 14.507,-6.827 15.36,-7.68 31.573,-15.36 46.08,-23.893 l 11.093,-6.827 -6.827,11.093 z"
       id="path9-5"
       inkscape:connector-curvature="0"
       style="fill:#5333ed;fill-opacity:1" />
    <path
       d="m 493.719,208.208 c -0.108,-0.575 -0.27,-1.146 -0.492,-1.702 -0.223,-0.558 -0.507,-1.069 -0.837,-1.537 -12.787,-30.616 -31.365,-58.265 -54.348,-81.565 -0.324,-0.482 -0.701,-0.944 -1.135,-1.378 -0.434,-0.434 -0.896,-0.811 -1.378,-1.135 C 389.233,75.226 325.764,46.933 256,46.933 c -33.418,0 -65.389,6.5 -94.725,18.281 -0.575,0.108 -1.146,0.27 -1.701,0.492 -0.557,0.223 -1.069,0.507 -1.537,0.837 -30.616,12.787 -58.265,31.365 -81.565,54.348 -0.482,0.324 -0.944,0.701 -1.378,1.135 -0.434,0.434 -0.812,0.896 -1.135,1.378 C 28.293,169.7 0,233.169 0,302.933 c 0,58.027 18.773,113.493 55.467,158.72 1.707,2.56 4.267,3.413 6.827,3.413 l 387.413,0 c 2.56,0 5.12,-0.853 6.827,-3.413 C 493.227,416.427 512,360.96 512,302.933 c 0,-33.418 -6.5,-65.389 -18.281,-94.725 z M 446.293,448 66.56,448 C 55.021,433.12 45.438,417.156 37.865,400.384 L 61.44,390.827 C 65.707,389.12 67.413,384 65.707,379.734 64,375.467 58.88,373.761 54.614,375.467 l -23.11,9.369 C 22.93,361.494 18.11,336.815 17.226,311.467 l 59.574,0 c 5.12,0 8.533,-3.413 8.533,-8.533 0,-5.12 -3.413,-8.534 -8.533,-8.534 l -59.563,0 c 0.957,-26.907 6.416,-52.715 15.648,-76.694 L 56.32,227.84 c 0.853,0.853 2.56,0.853 3.413,0.853 3.413,0 5.973,-1.707 7.68,-5.12 1.707,-4.267 0,-9.387 -4.267,-11.093 L 39.474,202.243 C 50.173,179.412 64.38,158.522 81.396,140.276 l 17.59,17.59 c 1.707,1.707 3.413,2.56 5.973,2.56 2.56,0 4.267,-0.853 5.973,-2.56 3.413,-3.413 3.413,-8.533 0,-11.947 l -17.59,-17.59 c 19.117,-17.828 41.131,-32.581 65.244,-43.438 l 9.52,23.482 c 0.853,3.413 4.267,5.12 7.68,5.12 0.853,0 1.707,0 3.413,-0.853 4.267,-1.707 5.973,-6.827 4.267,-11.093 l -9.329,-23.012 c 23.021,-8.463 47.679,-13.452 73.329,-14.364 l 0,59.563 c 0,5.12 3.413,8.533 8.533,8.533 5.12,0 8.533,-3.413 8.533,-8.533 l 0,-59.564 c 26.907,0.957 52.715,6.416 76.694,15.648 l -10.134,23.436 c -1.707,4.267 0,9.387 4.267,11.093 0.853,0.853 2.56,0.853 3.413,0.853 3.413,0 6.827,-2.56 7.68,-5.12 l 10.237,-23.672 c 22.831,10.699 43.721,24.906 61.967,41.922 l -17.59,17.59 c -3.413,3.413 -3.413,8.533 0,11.947 1.707,1.707 3.413,2.56 5.973,2.56 1.707,0 4.267,-0.853 5.973,-2.56 l 17.59,-17.59 c 17.828,19.117 32.581,41.131 43.438,65.244 l -23.482,9.52 c -4.267,1.707 -5.973,6.827 -4.267,11.093 0.853,3.413 4.267,5.12 7.68,5.12 0.853,0 1.707,-0.853 3.413,-0.853 l 23.013,-9.329 c 8.463,23.021 13.452,47.679 14.364,73.329 l -59.561,0 c -5.12,0 -8.533,3.413 -8.533,8.533 0,5.12 3.413,8.533 8.533,8.533 l 59.575,0 c -0.927,26.593 -6.172,52.45 -15.418,76.799 L 455.68,378.027 c -4.267,-1.707 -9.387,0 -11.093,4.267 -1.707,4.267 0,9.387 4.267,11.093 l 23.981,10.37 c -7.191,15.541 -16.062,30.364 -26.542,44.243 z"
       id="path11-4"
       inkscape:connector-curvature="0"
       style="fill:#2cd4d9" />
  </g>
</svg>
