<?xml version="1.0" encoding="UTF-8" standalone="no"?>
<svg
   xmlns:dc="http://purl.org/dc/elements/1.1/"
   xmlns:cc="http://creativecommons.org/ns#"
   xmlns:rdf="http://www.w3.org/1999/02/22-rdf-syntax-ns#"
   xmlns:svg="http://www.w3.org/2000/svg"
   xmlns="http://www.w3.org/2000/svg"
   xmlns:sodipodi="http://sodipodi.sourceforge.net/DTD/sodipodi-0.dtd"
   xmlns:inkscape="http://www.inkscape.org/namespaces/inkscape"
   width="128"
   height="128"
   viewBox="0 0 128 128"
   id="svg2"
   version="1.1"
   inkscape:version="0.91 r13725"
   sodipodi:docname="etaconcepts.svg">
  <metadata
     id="metadata43">
    <rdf:RDF>
      <cc:Work
         rdf:about="">
        <dc:format>image/svg+xml</dc:format>
        <dc:type
           rdf:resource="http://purl.org/dc/dcmitype/StillImage" />
      </cc:Work>
    </rdf:RDF>
  </metadata>
  <defs
     id="defs41" />
  <sodipodi:namedview
     pagecolor="#ffffff"
     bordercolor="#666666"
     borderopacity="1"
     objecttolerance="10"
     gridtolerance="10"
     guidetolerance="10"
     inkscape:pageopacity="0"
     inkscape:pageshadow="2"
     inkscape:window-width="1280"
     inkscape:window-height="751"
     id="namedview39"
     showgrid="false"
     inkscape:zoom="1.84375"
     inkscape:cx="-31.249673"
     inkscape:cy="64"
     inkscape:window-x="0"
     inkscape:window-y="1"
     inkscape:window-maximized="1"
     inkscape:current-layer="svg2" />
  <title
     id="title4">features-nextgen</title>
  <g
     id="g3"
     style="fill:#5333ed;fill-opacity:1;stroke:none;stroke-opacity:1"
     transform="matrix(0.12921862,0,0,0.12921862,29.292908,31.462462)">
    <g
       id="g5"
       style="fill:#5333ed;fill-opacity:1;stroke:none;stroke-opacity:1">
      <path
         d="m 183.445,81.304 c 9.436,0 18.301,4.587 23.713,12.27 1.882,2.672 5.279,3.817 8.393,2.831 3.116,-0.987 5.233,-3.879 5.233,-7.147 l 0,-81.761 C 220.784,3.357 217.428,0 213.287,0 L 7.848,0 C 3.707,0 0.351,3.357 0.351,7.497 l 0,51.638 c 0,4.14 3.356,7.497 7.497,7.497 4.141,0 7.497,-3.357 7.497,-7.497 l 0,-44.141 190.444,0 0,57.403 c -6.679,-3.929 -14.378,-6.087 -22.345,-6.087 -24.182,0 -43.853,19.672 -43.853,43.853 0,24.181 19.672,43.854 43.853,43.854 7.967,0 15.666,-2.159 22.345,-6.087 l 0,57.403 -74.787,0 c -3.288,0 -6.192,2.142 -7.163,5.283 -0.971,3.142 0.219,6.548 2.933,8.404 7.892,5.394 12.603,14.307 12.603,23.844 0,15.914 -12.946,28.86 -28.86,28.86 -15.913,0 -28.859,-12.946 -28.859,-28.86 0,-9.536 4.711,-18.451 12.602,-23.844 2.714,-1.855 3.903,-5.262 2.933,-8.404 -0.972,-3.141 -3.876,-5.283 -7.163,-5.283 l -74.682,0 0,-121.207 c 0,-4.14 -3.356,-7.497 -7.497,-7.497 -4.141,0 -7.497,3.357 -7.497,7.497 l 0,128.703 c 0,4.14 3.356,7.497 7.497,7.497 l 65.048,0 c -4.023,6.713 -6.236,14.478 -6.236,22.536 0,24.182 19.672,43.854 43.853,43.854 24.181,0 43.854,-19.672 43.854,-43.854 0,-8.058 -2.212,-15.823 -6.236,-22.536 l 65.154,0 c 4.141,0 7.497,-3.357 7.497,-7.497 l 0,-81.76 c 0,-3.269 -2.117,-6.16 -5.232,-7.147 -3.114,-0.986 -6.513,0.158 -8.394,2.83 -5.412,7.684 -14.276,12.27 -23.713,12.27 -15.913,0 -28.859,-12.946 -28.859,-28.86 0.002,-15.912 12.948,-28.858 28.86,-28.858 z"
         id="path7"
         style="fill:#5333ed;fill-opacity:1;stroke:none;stroke-opacity:1"
         inkscape:connector-curvature="0" />
    </g>
  </g>
  <path
     d="m 94.438604,55.450607 c 0.535095,0 0.968752,-0.433787 0.968752,-0.968752 l 0,-10.346018 c 0,-0.534965 -0.433657,-0.968752 -0.968752,-0.968752 l -26.272471,0 c -0.534965,0 -0.968752,0.433787 -0.968752,0.968752 l 0,8.299195 c -0.853489,-0.508605 -1.838006,-0.788105 -2.858574,-0.788105 -3.097887,0 -5.618167,2.52028 -5.618167,5.618167 0,3.097888 2.52028,5.618168 5.618167,5.618168 1.020439,0 2.004827,-0.2795 2.858574,-0.788105 l 0,7.330443 -9.500799,0 c -0.422416,0 -0.795987,0.273556 -0.923396,0.676201 -0.127668,0.402646 0.02029,0.841472 0.365559,1.084662 0.980124,0.690285 1.565096,1.815909 1.565096,3.010793 0,2.029508 -1.651155,3.680664 -3.680663,3.680664 -2.029508,0 -3.680663,-1.651156 -3.680663,-3.680664 0,-1.194884 0.584973,-2.320508 1.565096,-3.010793 0.345272,-0.24319 0.493227,-0.682016 0.365559,-1.084662 C 53.145632,69.699156 52.77206,69.4256 52.349774,69.4256 l -10.455983,0 c -0.535094,0 -0.968752,0.433787 -0.968752,0.968752 l 0,15.29871 c 0,0.534965 0.433658,0.968752 0.968752,0.968752 0.535094,0 0.968752,-0.433787 0.968752,-0.968752 l 0,-14.329699 7.311706,0 c -0.496587,0.849095 -0.769367,1.825342 -0.769367,2.834023 0,3.097887 2.52028,5.618167 5.618167,5.618167 3.097887,0 5.618167,-2.52028 5.618167,-5.618167 0,-1.00881 -0.272781,-1.984928 -0.769368,-2.834023 l 7.325275,0 0,9.487231 0,0.0535 c 0,0.424871 0.276786,0.800122 0.682662,0.925464 0.406005,0.125601 0.845994,-0.02817 1.085953,-0.378998 0.686926,-1.005062 1.816555,-1.605541 3.022553,-1.607092 2.026665,0.0032 3.67459,1.652965 3.67459,3.680534 0,2.02744 -1.647925,3.677174 -3.67459,3.680405 -1.205998,-0.0017 -2.335627,-0.60203 -3.022682,-1.607092 -0.239572,-0.3507 -0.679819,-0.50447 -1.085824,-0.378869 -0.406005,0.125471 -0.682662,0.500722 -0.682662,0.925593 l 0,0.0535 0,9.487231 -24.33458,0 0,-6.762269 c 0,-0.534965 -0.433658,-0.968752 -0.968752,-0.968752 -0.535094,0 -0.968752,0.433787 -0.968752,0.968752 l 0,7.731021 c 0,0.534965 0.433658,0.968752 0.968752,0.968752 l 26.272342,0 26.272601,0 c 0.535094,0 0.968752,-0.433787 0.968752,-0.968752 l 0,-26.258774 0,-12.683712 c 0,-0.534965 -0.433658,-0.968752 -0.968752,-0.968752 -0.535095,0 -0.968752,0.433787 -0.968752,0.968752 l 0,11.71496 -7.311836,0 c 0.496587,-0.849096 0.769368,-1.825342 0.769368,-2.834023 0,-0.0072 -5.17e-4,-0.01447 -5.17e-4,-0.02184 0,-0.0054 5.17e-4,-0.01085 5.17e-4,-0.01628 0,-3.097887 -2.52028,-5.618167 -5.618038,-5.618167 -3.097887,0 -5.618167,2.520409 -5.618167,5.618167 0,0.0054 5.17e-4,0.01085 5.17e-4,0.01628 -1.3e-4,0.0072 -5.17e-4,0.01447 -5.17e-4,0.02184 0,1.00881 0.27278,1.984927 0.769367,2.834023 l -7.325403,0 0,-9.540728 c 0,-0.42487 -0.276657,-0.800121 -0.682662,-0.925593 -0.406005,-0.1256 -0.846253,0.02817 -1.085953,0.378999 -0.687702,1.006484 -1.819528,1.607221 -3.027464,1.607221 -2.029507,0 -3.680663,-1.651156 -3.680663,-3.680663 0,-2.029508 1.651156,-3.680663 3.680663,-3.680663 1.207936,0 2.339633,0.600737 3.027464,1.607092 0.239571,0.350699 0.679689,0.504727 1.085953,0.378998 0.406005,-0.125472 0.682662,-0.500722 0.682662,-0.925593 l 0,-9.540728 24.335096,0 0,9.377137 c -5.17e-4,0.535353 0.43327,0.96914 0.968235,0.96914 z m -25.303719,15.912756 9.500799,0 0,1.29e-4 0.0535,0 c 0.42487,0 0.800121,-0.276786 0.925463,-0.682662 0.125601,-0.406005 -0.02817,-0.846123 -0.378869,-1.085953 -1.001702,-0.6846 -1.601148,-1.8141 -1.606704,-3.023845 0.01137,-2.019946 1.657617,-3.659859 3.680146,-3.659859 2.02253,0 3.668646,1.639913 3.680017,3.659859 -0.0057,1.209745 -0.605001,2.339245 -1.606704,3.023845 -0.350699,0.2397 -0.504211,0.679948 -0.378869,1.085953 0.125471,0.405876 0.500722,0.682662 0.925464,0.682662 l 0.0535,0 9.487231,0 0,24.321399 -24.334967,0 0,-7.313515 c 0.852068,0.497621 1.833095,0.771048 2.84772,0.771048 0.0021,0 0.0043,-1.3e-4 0.0063,-1.3e-4 0.0015,0 0.0031,1.3e-4 0.0047,1.3e-4 3.097887,0 5.618167,-2.52041 5.618167,-5.618168 0,-3.097887 -2.52028,-5.618167 -5.618167,-5.618167 -0.0016,0 -0.0031,1.29e-4 -0.0047,1.29e-4 -0.0021,0 -0.0043,-1.29e-4 -0.0063,-1.29e-4 -1.014495,0 -1.995523,0.273427 -2.84772,0.771048 l 0,-7.313774 z"
     id="path13"
     inkscape:connector-curvature="0"
     style="fill:#2cd4d9;fill-opacity:1" />
</svg>
