<?xml version="1.0" encoding="UTF-8" standalone="no"?>
<svg
   xmlns:dc="http://purl.org/dc/elements/1.1/"
   xmlns:cc="http://creativecommons.org/ns#"
   xmlns:rdf="http://www.w3.org/1999/02/22-rdf-syntax-ns#"
   xmlns:svg="http://www.w3.org/2000/svg"
   xmlns="http://www.w3.org/2000/svg"
   xmlns:sodipodi="http://sodipodi.sourceforge.net/DTD/sodipodi-0.dtd"
   xmlns:inkscape="http://www.inkscape.org/namespaces/inkscape"
   width="128"
   height="128"
   viewBox="0 0 128 128"
   id="svg2"
   version="1.1"
   inkscape:version="0.91 r13725"
   sodipodi:docname="faq.svg">
  <metadata
     id="metadata43">
    <rdf:RDF>
      <cc:Work
         rdf:about="">
        <dc:format>image/svg+xml</dc:format>
        <dc:type
           rdf:resource="http://purl.org/dc/dcmitype/StillImage" />
      </cc:Work>
    </rdf:RDF>
  </metadata>
  <defs
     id="defs41" />
  <sodipodi:namedview
     pagecolor="#ffffff"
     bordercolor="#666666"
     borderopacity="1"
     objecttolerance="10"
     gridtolerance="10"
     guidetolerance="10"
     inkscape:pageopacity="0"
     inkscape:pageshadow="2"
     inkscape:window-width="1280"
     inkscape:window-height="751"
     id="namedview39"
     showgrid="false"
     inkscape:zoom="1.84375"
     inkscape:cx="-45.930814"
     inkscape:cy="64"
     inkscape:window-x="0"
     inkscape:window-y="1"
     inkscape:window-maximized="1"
     inkscape:current-layer="svg2" />
  <title
     id="title4">features-nextgen</title>
  <path
     style="fill:#2cd4d9;fill-opacity:1"
     d="m 66.032739,108.80018 0,0 c -3.401918,0 -6.159918,-2.75801 -6.159918,-6.15992 l 0,0 c 0,-3.40192 2.758,-6.159921 6.159918,-6.159921 l 0,0 c 3.401917,0 6.159918,2.758001 6.159918,6.159921 l 0,0 c 0,3.40191 -2.758001,6.15992 -6.159918,6.15992 z"
     id="path7-1"
     inkscape:connector-curvature="0" />
  <path
     style="fill:#2cd4d9;fill-opacity:1"
     d="m 42.933211,53.360913 0,1.540144 12.319836,0 0,0 c 0,-3.401917 2.758,-6.159918 6.159918,-6.159918 l 9.239877,0 c 3.401917,0 6.159918,2.758001 6.159918,6.159918 l 0,4.620103 c 0,3.401917 -2.758001,6.159918 -6.159918,6.159918 l -4.620103,0 c -3.401918,0 -6.159918,2.758 -6.159918,6.159918 l 0,12.319836 c 0,3.401917 2.758,6.159918 6.159918,6.159918 l 0,0 c 3.401917,0 6.159918,-2.758001 6.159918,-6.159918 l 0,-6.159918 0,0 c 9.355519,0 16.939939,-7.58442 16.939939,-16.939939 l 0,-7.700062 c 0,-9.355519 -7.58442,-16.939938 -16.939939,-16.939938 l -12.319836,0 c -9.355191,3.28e-4 -16.93961,7.584748 -16.93961,16.939938 z"
     id="path9-5"
     inkscape:connector-curvature="0" />
  <path
     style="fill:#5333ed;fill-opacity:1;stroke-width:1;stroke-miterlimit:4;stroke-dasharray:none;stroke:#5333ed;stroke-opacity:1"
     d="m 83.145155,97.558571 -1.221142,-2.82732 c 1.797054,-0.777628 3.558954,-1.700137 5.231167,-2.739603 l 1.627861,2.613448 c -1.801982,1.122255 -3.699236,2.115726 -5.637886,2.953475 z m -34.34606,-0.05256 c -1.935692,-0.845305 -3.828348,-1.843376 -5.628687,-2.972202 l 1.63706,-2.610162 c 1.670899,1.048664 3.429514,1.975773 5.223611,2.758 l -1.231984,2.824364 z m 45.125753,-6.649426 -1.994171,-2.348325 c 1.501377,-1.272065 2.918322,-2.667327 4.213384,-4.144065 l 2.316129,2.029652 c -1.395263,1.589095 -2.92128,3.092115 -4.535342,4.462738 z M 38.042071,90.77182 c -1.609134,-1.373579 -3.130881,-2.879885 -4.5245,-4.475221 l 2.322371,-2.02341 c 1.293747,1.482979 2.707407,2.881199 4.202542,4.156548 l -2.000413,2.342083 z m 64.251069,-9.455392 -2.587168,-1.669256 c 1.067058,-1.655457 2.018808,-3.400274 2.827318,-5.188129 l 2.80597,1.269107 c -0.86995,1.926166 -1.89561,3.806337 -3.04612,5.588278 z m -72.591433,-0.1094 C 28.55744,79.42213 27.539658,77.537359 26.67267,75.60758 L 29.481592,74.348 c 0.803911,1.79114 1.75106,3.540557 2.81188,5.196014 l -2.591765,1.663014 z m 77.822923,-11.451205 -2.963,-0.839392 c 0.53452,-1.889699 0.93171,-3.83459 1.1827,-5.785723 l 3.05532,0.391277 c -0.26808,2.100286 -0.69911,4.197944 -1.27502,6.233838 z M 24.504379,69.623097 C 23.934709,67.58556 23.51255,65.486589 23.250712,63.386303 l 3.055319,-0.381751 c 0.24344,1.951134 0.636032,3.897668 1.164307,5.791966 l -2.965959,0.826579 z M 106.06465,57.226385 c -0.0368,-1.971174 -0.22011,-3.949904 -0.54207,-5.884282 l 3.03823,-0.504949 c 0.34791,2.080574 0.54372,4.210427 0.5838,6.332396 l -3.07996,0.05683 z M 26.002799,57.101544 22.92284,57.035181 c 0.04632,-2.123611 0.249354,-4.253464 0.602194,-6.332396 l 3.038236,0.517434 c -0.331158,1.929779 -0.519076,3.908837 -0.560471,5.881325 z M 104.12436,45.605659 c -0.6068,-1.866373 -1.35814,-3.70515 -2.23597,-5.468365 l 2.75504,-1.375222 c 0.94715,1.897255 1.75862,3.880913 2.41009,5.891838 l -2.92916,0.951749 z M 27.981529,45.488702 25.05565,44.526113 c 0.662315,-2.014212 1.47838,-3.991627 2.427172,-5.879683 l 2.752087,1.379821 c -0.8798,1.754016 -1.639031,3.591479 -2.25338,5.462451 z M 98.865266,35.056922 C 97.739397,33.447787 96.48146,31.906001 95.130877,30.473943 l 2.237611,-2.114412 c 1.453741,1.540144 2.805962,3.198558 4.019222,4.930891 l -2.522444,1.7665 z M 33.26986,34.96132 30.749057,33.190221 c 1.2149,-1.727734 2.573367,-3.381877 4.03335,-4.918736 l 2.231369,2.123611 c -1.357153,1.42483 -2.616733,2.961689 -3.743916,4.566224 z m 57.499795,-8.468162 c -1.541457,-1.211943 -3.189359,-2.323685 -4.900338,-3.304673 l 1.530617,-2.670283 c 1.838776,1.053264 3.614475,2.249766 5.27289,3.554355 l -1.903169,2.420601 z m -49.382502,-0.07096 -1.894298,-2.427172 c 1.672541,-1.307546 3.451197,-2.497806 5.288331,-3.540557 l 1.518461,2.679482 c -1.704737,0.965875 -3.357238,2.073347 -4.912494,3.288247 z M 80.542549,20.65027 c -1.830892,-0.711593 -3.731432,-1.292104 -5.648727,-1.724777 l 0.679069,-3.004397 c 2.065133,0.468154 4.111869,1.093344 6.084357,1.860131 l -1.114699,2.869043 z m -28.902335,-0.04599 -1.107143,-2.872 c 1.974131,-0.762187 4.025465,-1.381464 6.095198,-1.841733 l 0.671513,3.004397 c -1.921894,0.428073 -3.825391,1.003985 -5.659568,1.709336 z M 69.05422,18.052263 c -1.952776,-0.144881 -3.954832,-0.147838 -5.910565,-0.0092 l -0.220114,-3.070761 c 2.101928,-0.152437 4.253464,-0.147838 6.358678,0.0092 l -0.227999,3.07076 z"
     id="path13"
     inkscape:connector-curvature="0" />
</svg>
