<?xml version="1.0" encoding="UTF-8" standalone="no"?>
<svg
   xmlns:dc="http://purl.org/dc/elements/1.1/"
   xmlns:cc="http://creativecommons.org/ns#"
   xmlns:rdf="http://www.w3.org/1999/02/22-rdf-syntax-ns#"
   xmlns:svg="http://www.w3.org/2000/svg"
   xmlns="http://www.w3.org/2000/svg"
   xmlns:sodipodi="http://sodipodi.sourceforge.net/DTD/sodipodi-0.dtd"
   xmlns:inkscape="http://www.inkscape.org/namespaces/inkscape"
   width="128"
   height="128"
   viewBox="0 0 128 128"
   id="svg2"
   version="1.1"
   inkscape:version="0.91 r13725"
   sodipodi:docname="tuts copy.svg">
  <metadata
     id="metadata43">
    <rdf:RDF>
      <cc:Work
         rdf:about="">
        <dc:format>image/svg+xml</dc:format>
        <dc:type
           rdf:resource="http://purl.org/dc/dcmitype/StillImage" />
      </cc:Work>
    </rdf:RDF>
  </metadata>
  <defs
     id="defs41" />
  <sodipodi:namedview
     pagecolor="#ffffff"
     bordercolor="#666666"
     borderopacity="1"
     objecttolerance="10"
     gridtolerance="10"
     guidetolerance="10"
     inkscape:pageopacity="0"
     inkscape:pageshadow="2"
     inkscape:window-width="1280"
     inkscape:window-height="751"
     id="namedview39"
     showgrid="false"
     inkscape:zoom="1.84375"
     inkscape:cx="-39.093991"
     inkscape:cy="64"
     inkscape:window-x="1"
     inkscape:window-y="10"
     inkscape:window-maximized="0"
     inkscape:current-layer="svg2" />
  <title
     id="title4">features-nextgen</title>
  <g
     transform="matrix(2.874649,0,0,2.874649,21.420731,19.624119)"
     id="g8106">
    <g
       style="fill:#2cd4d9;fill-opacity:1"
       id="g3">
      <g
         style="fill:#2cd4d9;fill-opacity:1"
         id="Map">
        <g
           style="fill:#2cd4d9;fill-opacity:1"
           id="g6">
          <path
             inkscape:connector-curvature="0"
             style="fill:#2cd4d9;fill-opacity:1"
             id="path8"
             d="M 31.812,1.562 C 31.81,1.557 31.812,1.553 31.81,1.549 31.808,1.546 31.806,1.544 31.806,1.541 31.677,1.234 31.493,0.958 31.259,0.728 31.239,0.708 31.216,0.695 31.197,0.676 30.753,0.261 30.158,0 29.501,0 29.482,0 29.47,0.009 29.454,0.009 29.144,0.015 28.837,0.071 28.533,0.196 L 21.72,3.127 C 21.459,3.212 21.223,3.341 21.01,3.501 20.815,3.352 20.596,3.233 20.364,3.158 L 13.454,0.19 C 13.153,0.067 12.843,0.011 12.536,0.007 12.524,0.007 12.514,0 12.502,0 c -0.007,0 -0.014,0.002 -0.021,0.002 -0.012,0 -0.023,0.003 -0.035,0.004 -0.543,0.012 -1.04,0.2 -1.445,0.508 C 10.582,0.196 10.065,0 9.5,0 9.483,0 9.47,0.009 9.453,0.009 9.147,0.015 8.836,0.071 8.534,0.195 L 1.719,3.126 C 0.746,3.445 0.057,4.348 0.002,5.423 l 0,24.079 c 0,0.331 0.068,0.646 0.186,0.938 0.002,0.006 0.001,0.011 0.003,0.016 0.001,0.002 0.003,0.004 0.004,0.006 0.087,0.208 0.208,0.396 0.345,0.573 0.032,0.041 0.064,0.081 0.1,0.118 0.145,0.164 0.304,0.312 0.486,0.435 0.002,0.002 0.004,0.002 0.007,0.004 0.183,0.12 0.386,0.209 0.599,0.279 0.034,0.011 0.066,0.021 0.102,0.03 0.215,0.062 0.437,0.104 0.67,0.104 0.013,0 0.022,-0.006 0.034,-0.007 0.311,-0.004 0.627,-0.062 0.932,-0.188 l 6.814,-2.931 c 0.26,-0.085 0.496,-0.214 0.709,-0.373 0.196,0.147 0.414,0.269 0.646,0.343 l 6.91,2.967 c 0.309,0.127 0.627,0.188 0.941,0.188 0.004,0 0.008,0.002 0.012,0.002 0.229,0 0.445,-0.041 0.658,-0.099 0.041,-0.012 0.078,-0.024 0.119,-0.038 0.205,-0.067 0.402,-0.154 0.58,-0.271 0.008,-0.006 0.014,-0.008 0.02,-0.012 0.043,-0.027 0.082,-0.062 0.123,-0.098 0.043,0.031 0.08,0.066 0.125,0.098 0.002,0.002 0.004,0.002 0.006,0.004 0.184,0.12 0.387,0.209 0.6,0.279 0.033,0.011 0.066,0.021 0.103,0.029 0.215,0.062 0.438,0.104 0.67,0.104 0.015,0 0.021,-0.006 0.035,-0.007 0.312,-0.004 0.627,-0.062 0.933,-0.188 l 6.813,-2.932 c 0.973,-0.318 1.661,-1.221 1.717,-2.297 l 0,-24.078 C 32,2.168 31.932,1.853 31.812,1.562 Z M 9.576,27.007 2.692,29.963 C 2.439,30.067 2.145,29.945 2.04,29.692 2.017,29.633 2.002,29.569 2.002,29.503 L 2.001,5.476 C 2.01,5.305 2.119,5.1 2.426,4.995 L 9.31,2.039 C 9.563,1.936 9.857,2.056 9.961,2.311 9.984,2.369 9.999,2.433 9.999,2.5 L 10,26.525 C 9.989,26.734 9.856,26.911 9.576,27.007 Z M 20,29.502 c 0,0.066 -0.016,0.132 -0.039,0.189 -0.055,0.134 -0.16,0.228 -0.283,0.272 -0.055,0.021 -0.113,0.035 -0.176,0.036 -0.062,0 -0.121,-0.01 -0.18,-0.033 l -6.98,-2.992 c -0.197,-0.063 -0.331,-0.24 -0.341,-0.396 l 0,-24.078 c 0,-0.067 0.015,-0.131 0.038,-0.189 C 12.096,2.173 12.208,2.08 12.336,2.034 12.388,2.016 12.441,2.002 12.499,2.002 12.56,2 12.62,2.01 12.678,2.033 l 6.98,2.993 C 19.883,5.099 19.992,5.304 20,5.422 l 0,24.08 z m 9.576,-2.495 -6.885,2.956 c -0.254,0.104 -0.547,-0.018 -0.652,-0.271 -0.023,-0.059 -0.037,-0.123 -0.037,-0.189 L 22,5.476 C 22.01,5.305 22.119,5.1 22.426,4.996 L 29.309,2.04 C 29.563,1.936 29.858,2.057 29.961,2.311 29.984,2.37 30,2.433 30,2.5 l 0,24.025 c -0.012,0.209 -0.145,0.386 -0.424,0.482 z" />
        </g>
      </g>
    </g>
    <path
       sodipodi:nodetypes="cc"
       inkscape:connector-curvature="0"
       id="path8104"
       d="M 16.070808,6.1026485 15.935193,24.953052"
       style="fill:none;fill-rule:evenodd;stroke:#5333ed;stroke-width:1px;stroke-linecap:round;stroke-linejoin:round;stroke-opacity:1" />
  </g>
</svg>
