<?xml version="1.0" encoding="UTF-8" standalone="no"?>
<!-- Generator: Adobe Illustrator 19.0.0, SVG Export Plug-In . SVG Version: 6.00 Build 0)  -->

<svg
   xmlns:dc="http://purl.org/dc/elements/1.1/"
   xmlns:cc="http://creativecommons.org/ns#"
   xmlns:rdf="http://www.w3.org/1999/02/22-rdf-syntax-ns#"
   xmlns:svg="http://www.w3.org/2000/svg"
   xmlns="http://www.w3.org/2000/svg"
   xmlns:sodipodi="http://sodipodi.sourceforge.net/DTD/sodipodi-0.dtd"
   xmlns:inkscape="http://www.inkscape.org/namespaces/inkscape"
   version="1.1"
   id="Layer_1"
   x="0px"
   y="0px"
   viewBox="0 0 464 449.45419"
   xml:space="preserve"
   inkscape:version="0.91 r13725"
   sodipodi:docname="hashtag.svg"
   width="464"
   height="449.45419"><metadata
     id="metadata39"><rdf:RDF><cc:Work
         rdf:about=""><dc:format>image/svg+xml</dc:format><dc:type
           rdf:resource="http://purl.org/dc/dcmitype/StillImage" /><dc:title></dc:title></cc:Work></rdf:RDF></metadata><defs
     id="defs37" /><sodipodi:namedview
     pagecolor="#ffffff"
     bordercolor="#666666"
     borderopacity="1"
     objecttolerance="10"
     gridtolerance="10"
     guidetolerance="10"
     inkscape:pageopacity="0"
     inkscape:pageshadow="2"
     inkscape:window-width="1280"
     inkscape:window-height="755"
     id="namedview35"
     showgrid="false"
     inkscape:zoom="0.50862069"
     inkscape:cx="-29.491525"
     inkscape:cy="224.72709"
     inkscape:window-x="0"
     inkscape:window-y="1"
     inkscape:window-maximized="1"
     inkscape:current-layer="Layer_1"
     fit-margin-top="0"
     fit-margin-left="0"
     fit-margin-right="0"
     fit-margin-bottom="0" /><path
     style="fill:#5333ed;fill-opacity:1"
     d="m 436,120.72712 -56.504,0 19.744,-85.055999 c 3.504,-15.096 -5.44,-30.2879996 -20.344,-34.5439996 -15.992,-4.568 -32.56,5.184 -36.32,21.3839996 l -22.792,98.215999 -130.792,0 19.744,-85.055999 c 3.504,-15.096 -5.44,-30.2879996 -20.344,-34.5439996 -15.992,-4.568 -32.56,5.184 -36.32,21.3839996 l -22.792,98.215999 -65.28,0 c -15.464,0 -28,12.536 -28,28 0,15.464 12.536,28 28,28 l 52.28,0 -22.288,96 -65.992,0 c -15.464,0 -28,12.536 -28,28 0,15.464 12.536,28 28,28 l 52.992,0 -19.744,85.056 c -3.504,15.096 5.44,30.288 20.344,34.544 15.992,4.568 32.56,-5.184 36.32,-21.392 l 22.792,-98.208 130.792,0 -19.744,85.056 c -3.504,15.096 5.44,30.288 20.344,34.544 15.992,4.568 32.56,-5.184 36.32,-21.392 l 22.792,-98.208 64.792,0 c 15.464,0 28,-12.536 28,-28 0,-15.464 -12.536,-28 -28,-28 l -51.792,0 22.288,-96 69.504,0 c 15.464,0 28,-12.536 28,-28 0,-15.464 -12.536,-28 -28,-28 z m -151.504,152 -130.792,0 22.288,-96 130.792,0 -22.288,96 z"
     id="path3"
     inkscape:connector-curvature="0" /><g
     id="g5"
     transform="translate(0,-7.2728786)" /><g
     id="g7"
     transform="translate(0,-7.2728786)" /><g
     id="g9"
     transform="translate(0,-7.2728786)" /><g
     id="g11"
     transform="translate(0,-7.2728786)" /><g
     id="g13"
     transform="translate(0,-7.2728786)" /><g
     id="g15"
     transform="translate(0,-7.2728786)" /><g
     id="g17"
     transform="translate(0,-7.2728786)" /><g
     id="g19"
     transform="translate(0,-7.2728786)" /><g
     id="g21"
     transform="translate(0,-7.2728786)" /><g
     id="g23"
     transform="translate(0,-7.2728786)" /><g
     id="g25"
     transform="translate(0,-7.2728786)" /><g
     id="g27"
     transform="translate(0,-7.2728786)" /><g
     id="g29"
     transform="translate(0,-7.2728786)" /><g
     id="g31"
     transform="translate(0,-7.2728786)" /><g
     id="g33"
     transform="translate(0,-7.2728786)" /></svg>