<?xml version="1.0" encoding="UTF-8" standalone="no"?>
<svg
   xmlns:dc="http://purl.org/dc/elements/1.1/"
   xmlns:cc="http://creativecommons.org/ns#"
   xmlns:rdf="http://www.w3.org/1999/02/22-rdf-syntax-ns#"
   xmlns:svg="http://www.w3.org/2000/svg"
   xmlns="http://www.w3.org/2000/svg"
   xmlns:sodipodi="http://sodipodi.sourceforge.net/DTD/sodipodi-0.dtd"
   xmlns:inkscape="http://www.inkscape.org/namespaces/inkscape"
   width="128"
   height="128"
   viewBox="0 0 128 128"
   id="svg2"
   version="1.1"
   inkscape:version="0.91 r13725"
   sodipodi:docname="tuts copy.svg">
  <metadata
     id="metadata43">
    <rdf:RDF>
      <cc:Work
         rdf:about="">
        <dc:format>image/svg+xml</dc:format>
        <dc:type
           rdf:resource="http://purl.org/dc/dcmitype/StillImage" />
      </cc:Work>
    </rdf:RDF>
  </metadata>
  <defs
     id="defs41" />
  <sodipodi:namedview
     pagecolor="#ffffff"
     bordercolor="#666666"
     borderopacity="1"
     objecttolerance="10"
     gridtolerance="10"
     guidetolerance="10"
     inkscape:pageopacity="0"
     inkscape:pageshadow="2"
     inkscape:window-width="1280"
     inkscape:window-height="751"
     id="namedview39"
     showgrid="false"
     inkscape:zoom="1.84375"
     inkscape:cx="-29.836131"
     inkscape:cy="64"
     inkscape:window-x="0"
     inkscape:window-y="1"
     inkscape:window-maximized="1"
     inkscape:current-layer="svg2" />
  <title
     id="title4">features-nextgen</title>
  <g
     transform="matrix(0.156252,0,0,0.156252,28.338467,25.626807)"
     id="g8118">
    <g
       id="g3">
      <g
         id="g5">
        <path
           style="fill:#2cd4d9"
           inkscape:connector-curvature="0"
           id="path7-7"
           d="M 437.018,74.981 C 388.666,26.629 324.379,0 255.999,0 187.619,0 123.333,26.629 74.981,74.981 26.628,123.332 0,187.62 0,255.999 c 0,68.379 26.628,132.668 74.981,181.019 48.352,48.351 112.639,74.981 181.019,74.981 68.38,0 132.667,-26.628 181.019,-74.981 C 485.371,388.666 512,324.379 512,255.999 512,187.619 485.371,123.333 437.018,74.981 Z M 255.999,478.935 c -122.927,0 -222.936,-100.009 -222.936,-222.936 0,-122.927 100.009,-222.935 222.936,-222.935 122.927,0 222.936,100.009 222.936,222.936 0,122.927 -100.008,222.935 -222.936,222.935 z" />
      </g>
    </g>
    <g
       style="fill:#5333ed;fill-opacity:1"
       id="g9">
      <g
         style="fill:#5333ed;fill-opacity:1"
         id="g11">
        <path
           inkscape:connector-curvature="0"
           style="fill:#5333ed;fill-opacity:1"
           id="path13"
           d="m 255.999,59.872 c -108.146,0 -196.129,87.983 -196.129,196.129 0,108.146 87.984,196.129 196.129,196.129 108.145,0 196.129,-87.983 196.129,-196.129 0,-108.146 -87.983,-196.129 -196.129,-196.129 z m 0,359.193 C 166.085,419.065 92.934,345.914 92.934,256 c 0,-89.914 73.151,-163.065 163.065,-163.065 89.914,0 163.065,73.151 163.065,163.065 0,89.914 -73.15,163.065 -163.065,163.065 z" />
      </g>
    </g>
    <path
       style="fill:#2cd4d9"
       inkscape:connector-curvature="0"
       id="path19"
       d="m 344.738,225.55 c -6.137,0 -11.844,1.822 -16.624,4.944 L 217.87,181.37 c -2.256,-14.59 -14.868,-25.76 -30.09,-25.76 -16.817,0 -30.451,13.633 -30.451,30.451 0,16.818 13.633,30.451 30.451,30.451 6.135,0 11.843,-1.821 16.624,-4.943 l 99.715,44.433 -99.715,44.433 c -4.781,-3.122 -10.488,-4.943 -16.624,-4.943 -16.817,0 -30.451,13.633 -30.451,30.451 0,16.818 13.633,30.451 30.451,30.451 15.222,0 27.834,-11.17 30.09,-25.76 L 328.113,281.51 c 4.781,3.122 10.489,4.944 16.624,4.944 16.817,0 30.45,-13.633 30.45,-30.451 0,-16.818 -13.632,-30.453 -30.449,-30.453 z" />
  </g>
</svg>
