<?xml version="1.0" encoding="UTF-8" standalone="no"?>
<svg
   xmlns:dc="http://purl.org/dc/elements/1.1/"
   xmlns:cc="http://creativecommons.org/ns#"
   xmlns:rdf="http://www.w3.org/1999/02/22-rdf-syntax-ns#"
   xmlns:svg="http://www.w3.org/2000/svg"
   xmlns="http://www.w3.org/2000/svg"
   xmlns:sodipodi="http://sodipodi.sourceforge.net/DTD/sodipodi-0.dtd"
   xmlns:inkscape="http://www.inkscape.org/namespaces/inkscape"
   width="128"
   height="128"
   viewBox="0 0 128 128"
   id="svg2"
   version="1.1"
   inkscape:version="0.91 r13725"
   sodipodi:docname="stack-traces.svg">
  <metadata
     id="metadata43">
    <rdf:RDF>
      <cc:Work
         rdf:about="">
        <dc:format>image/svg+xml</dc:format>
        <dc:type
           rdf:resource="http://purl.org/dc/dcmitype/StillImage" />
      </cc:Work>
    </rdf:RDF>
  </metadata>
  <defs
     id="defs41" />
  <sodipodi:namedview
     pagecolor="#ffffff"
     bordercolor="#666666"
     borderopacity="1"
     objecttolerance="10"
     gridtolerance="10"
     guidetolerance="10"
     inkscape:pageopacity="0"
     inkscape:pageshadow="2"
     inkscape:window-width="1280"
     inkscape:window-height="755"
     id="namedview39"
     showgrid="false"
     inkscape:zoom="1.84375"
     inkscape:cx="-49.414453"
     inkscape:cy="64"
     inkscape:window-x="0"
     inkscape:window-y="1"
     inkscape:window-maximized="1"
     inkscape:current-layer="svg2"
     showguides="false" />
  <title
     id="title4">features-nextgen</title>
  <g
     id="g8190"
     transform="matrix(0.19827652,0,0,0.19827652,19.254238,16.915255)">
    <polygon
       id="polygon3"
       points="0,312 88,352 176,312 88,272 "
       style="fill:#201f2d" />
    <polygon
       id="polygon5"
       points="0,424 88,464 176,424 176,312 88,352 0,312 "
       style="fill:#2cd4d9;fill-opacity:1" />
    <polygon
       id="polygon7"
       points="88,352 176,312 88,272 0,312 "
       style="fill:#5333ed;fill-opacity:1" />
    <polygon
       id="polygon9"
       points="288,312 376,352 464,312 376,272 "
       style="fill:#201f2d" />
    <polygon
       id="polygon11"
       points="288,424 376,464 464,424 464,312 376,352 288,312 "
       style="fill:#2cd4d9;fill-opacity:1" />
    <polygon
       style="fill:#5333ed;fill-opacity:1"
       points="376,272 288,312 376,352 464,312 "
       id="polygon15" />
    <polygon
       style="fill:#201f2d"
       points="320,40 232,0 144,40 232,80 "
       id="polygon17" />
    <polygon
       id="polygon19"
       points="144,152 232,192 320,152 320,40 232,80 144,40 "
       style="fill:#2cd4d9;fill-opacity:1" />
    <polygon
       id="polygon21"
       points="232,80 320,40 232,0 144,40 "
       style="fill:#5333ed;fill-opacity:1" />
    <rect
       x="376"
       y="72"
       style="fill:#5333ed;fill-opacity:1"
       width="16"
       height="16"
       id="rect25" />
    <rect
       x="344"
       y="72"
       style="fill:#5333ed;fill-opacity:1"
       width="16"
       height="16"
       id="rect27" />
    <rect
       x="408"
       y="72"
       style="fill:#5333ed;fill-opacity:1"
       width="16"
       height="16"
       id="rect29" />
    <rect
       x="440"
       y="72"
       style="fill:#5333ed;fill-opacity:1"
       width="16"
       height="16"
       id="rect31" />
    <rect
       x="440"
       y="104"
       style="fill:#5333ed;fill-opacity:1"
       width="16"
       height="16"
       id="rect33" />
    <rect
       x="440"
       y="136"
       style="fill:#5333ed;fill-opacity:1"
       width="16"
       height="16"
       id="rect35" />
    <rect
       x="440"
       y="168"
       style="fill:#5333ed;fill-opacity:1"
       width="16"
       height="16"
       id="rect37" />
    <rect
       x="440"
       y="200"
       style="fill:#5333ed;fill-opacity:1"
       width="16"
       height="16"
       id="rect39" />
    <rect
       x="440"
       y="232"
       style="fill:#5333ed;fill-opacity:1"
       width="16"
       height="16"
       id="rect41" />
    <rect
       x="440"
       y="264"
       style="fill:#5333ed;fill-opacity:1"
       width="16"
       height="16"
       id="rect43" />
    <rect
       x="72"
       y="72"
       style="fill:#5333ed;fill-opacity:1"
       width="16"
       height="16"
       id="rect45" />
    <rect
       x="104"
       y="72"
       style="fill:#5333ed;fill-opacity:1"
       width="16"
       height="16"
       id="rect47" />
    <rect
       x="40"
       y="72"
       style="fill:#5333ed;fill-opacity:1"
       width="16"
       height="16"
       id="rect49" />
    <rect
       x="8"
       y="72"
       style="fill:#5333ed;fill-opacity:1"
       width="16"
       height="16"
       id="rect51" />
    <rect
       x="8"
       y="104"
       style="fill:#5333ed;fill-opacity:1"
       width="16"
       height="16"
       id="rect53" />
    <rect
       x="8"
       y="136"
       style="fill:#5333ed;fill-opacity:1"
       width="16"
       height="16"
       id="rect55" />
    <rect
       x="8"
       y="168"
       style="fill:#5333ed;fill-opacity:1"
       width="16"
       height="16"
       id="rect57" />
    <rect
       x="8"
       y="200"
       style="fill:#5333ed;fill-opacity:1"
       width="16"
       height="16"
       id="rect59" />
    <rect
       x="8"
       y="232"
       style="fill:#5333ed;fill-opacity:1"
       width="16"
       height="16"
       id="rect61" />
    <rect
       x="8"
       y="264"
       style="fill:#5333ed;fill-opacity:1"
       width="16"
       height="16"
       id="rect63" />
    <rect
       x="192"
       y="440"
       style="fill:#5333ed;fill-opacity:1"
       width="16"
       height="16"
       id="rect65" />
    <rect
       x="224"
       y="440"
       style="fill:#5333ed;fill-opacity:1"
       width="16"
       height="16"
       id="rect67" />
    <rect
       x="256"
       y="440"
       style="fill:#5333ed;fill-opacity:1"
       width="16"
       height="16"
       id="rect69" />
  </g>
</svg>
