<?xml version="1.0" encoding="UTF-8" standalone="no"?>
<svg
   xmlns:dc="http://purl.org/dc/elements/1.1/"
   xmlns:cc="http://creativecommons.org/ns#"
   xmlns:rdf="http://www.w3.org/1999/02/22-rdf-syntax-ns#"
   xmlns:svg="http://www.w3.org/2000/svg"
   xmlns="http://www.w3.org/2000/svg"
   xmlns:sodipodi="http://sodipodi.sourceforge.net/DTD/sodipodi-0.dtd"
   xmlns:inkscape="http://www.inkscape.org/namespaces/inkscape"
   width="128"
   height="128"
   viewBox="0 0 128 128"
   id="svg2"
   version="1.1"
   inkscape:version="0.91 r13725"
   sodipodi:docname="faq copy.svg">
  <metadata
     id="metadata43">
    <rdf:RDF>
      <cc:Work
         rdf:about="">
        <dc:format>image/svg+xml</dc:format>
        <dc:type
           rdf:resource="http://purl.org/dc/dcmitype/StillImage" />
      </cc:Work>
    </rdf:RDF>
  </metadata>
  <defs
     id="defs41" />
  <sodipodi:namedview
     pagecolor="#ffffff"
     bordercolor="#666666"
     borderopacity="1"
     objecttolerance="10"
     gridtolerance="10"
     guidetolerance="10"
     inkscape:pageopacity="0"
     inkscape:pageshadow="2"
     inkscape:window-width="1280"
     inkscape:window-height="751"
     id="namedview39"
     showgrid="false"
     inkscape:zoom="1.84375"
     inkscape:cx="-54.966281"
     inkscape:cy="64"
     inkscape:window-x="0"
     inkscape:window-y="1"
     inkscape:window-maximized="1"
     inkscape:current-layer="svg2" />
  <title
     id="title4">features-nextgen</title>
  <g
     transform="matrix(0.1796875,0,0,0.1796875,19.457382,18.745759)"
     id="g8201">
    <path
       style="fill:#5333ed;fill-opacity:1"
       d="M 478.515,170.897 C 495.182,137.811 512,97.375 512,77.017 512.012,34.561 477.656,0.108 435.2,0 c -42.456,0.107 -76.812,34.561 -76.8,77.017 0,20.358 16.819,60.797 33.485,93.88 -15.405,5.749 -27.323,18.244 -32.339,33.903 l -1.146,0 c -4.713,0 -8.533,3.821 -8.533,8.533 0,4.713 3.82,8.533 8.533,8.533 l 1.109,0 c 5.941,24.498 37.007,42.667 75.691,42.667 43.067,0 76.8,-22.492 76.8,-51.2 0,-17.328 -12.607,-33.02 -33.485,-42.436 z M 375.467,77.017 c -0.022,-33.034 26.7,-59.852 59.733,-59.95 33.034,0.098 59.755,26.916 59.733,59.95 0,23.604 -31.883,91.387 -52.567,123.825 -1.622,2.364 -4.305,3.777 -7.172,3.776 -2.867,-0.001 -5.549,-1.415 -7.17,-3.78 C 407.351,168.404 375.467,100.621 375.467,77.017 Z m 59.734,170.45 c -32.375,0 -59.733,-15.629 -59.733,-34.133 0,-10.469 9.353,-20.751 24.324,-27.274 5.063,9.393 9.862,17.703 13.843,23.949 4.683,7.383 12.818,11.858 21.561,11.858 8.743,0.001 16.879,-4.472 21.564,-11.854 3.983,-6.247 8.784,-14.56 13.848,-23.954 14.973,6.523 24.327,16.805 24.327,27.275 -10e-4,18.504 -27.359,34.133 -59.734,34.133 z"
       id="path9"
       inkscape:connector-curvature="0" />
    <path
       style="fill:#2cd4d9;fill-opacity:1"
       d="m 477.867,76.8 c 0,-23.564 -19.103,-42.667 -42.667,-42.667 -23.564,0 -42.666,19.103 -42.666,42.667 0,23.564 19.103,42.667 42.667,42.667 23.552,-0.028 42.639,-19.114 42.666,-42.667 z m -68.266,0 c 0,-14.138 11.461,-25.6 25.6,-25.6 14.139,0 25.6,11.461 25.6,25.6 0,14.139 -11.462,25.6 -25.6,25.6 -14.133,-0.015 -25.585,-11.468 -25.6,-25.6 z"
       id="path11"
       inkscape:connector-curvature="0" />
    <path
       style="fill:#5333ed;fill-opacity:1"
       d="m 179.201,247.467 c 0,-37.703 -30.564,-68.267 -68.267,-68.267 -37.703,0 -68.267,30.564 -68.267,68.267 0,37.703 30.564,68.267 68.267,68.267 37.685,-0.044 68.223,-30.582 68.267,-68.267 z m -119.467,0 c 0,-28.277 22.923,-51.2 51.2,-51.2 28.277,0 51.2,22.923 51.2,51.2 0,28.277 -22.923,51.2 -51.2,51.2 -28.264,-0.031 -51.169,-22.936 -51.2,-51.2 z"
       id="path13-3"
       inkscape:connector-curvature="0" />
    <path
       style="fill:#2cd4d9;fill-opacity:1"
       d="m 221.867,452.267 -0.934,0 c -4.59,-18.283 -27.172,-33.277 -61.774,-40.792 28.147,-51.78 62.708,-128.414 62.708,-163.683 0.121,-39.713 -20.997,-76.461 -55.369,-96.352 -34.372,-19.891 -76.756,-19.891 -111.128,0 -34.372,19.891 -55.49,56.639 -55.369,96.352 0,35.269 34.561,111.903 62.709,163.683 -38.914,8.452 -62.709,26.349 -62.709,47.759 0,30.083 47.691,52.766 110.933,52.766 55.93,0 99.632,-17.755 109.004,-42.667 l 1.929,0 c 4.713,0 8.533,-3.82 8.533,-8.533 0,-4.713 -3.82,-8.533 -8.533,-8.533 z M 17.067,247.792 c -0.031,-51.907 41.96,-94.043 93.867,-94.192 51.906,0.148 93.898,42.285 93.867,94.192 0,36.129 -48.233,138.971 -79.508,188.025 -3.11,4.928 -8.531,7.917 -14.358,7.917 -5.828,0 -11.248,-2.989 -14.358,-7.917 C 65.3,386.763 17.067,283.921 17.067,247.792 Z m 93.867,247.142 c -53.725,0 -93.867,-18.846 -93.867,-35.7 0,-11.054 18.773,-25.338 54.415,-32.043 3.834,6.659 7.464,12.71 10.71,17.801 6.241,9.844 17.086,15.808 28.742,15.808 11.655,0 22.5,-5.965 28.742,-15.808 3.246,-5.091 6.876,-11.142 10.71,-17.801 35.642,6.705 54.415,20.989 54.415,32.043 0,16.854 -40.142,35.7 -93.867,35.7 z"
       id="path15"
       inkscape:connector-curvature="0" />
    <path
       style="fill:#5333ed;fill-opacity:1"
       d="m 303.117,290.134 c 0,-4.713 -3.82,-8.533 -8.533,-8.533 l -8.717,0 c -2.098,10e-4 -4.189,-0.217 -6.242,-0.65 -2.214,-0.475 -4.527,-0.05 -6.427,1.183 -1.9,1.233 -3.231,3.172 -3.698,5.388 -0.976,4.61 1.967,9.139 6.575,10.121 3.219,0.683 6.501,1.026 9.792,1.025 l 8.717,0 c 4.713,-0.001 8.533,-3.822 8.533,-8.534 z"
       id="path17"
       inkscape:connector-curvature="0" />
    <path
       style="fill:#5333ed;fill-opacity:1"
       d="m 453.258,297.283 c 1.5,-4.435 -0.854,-9.25 -5.275,-10.791 l 0,0 c -5.845,-1.975 -11.872,-3.362 -17.992,-4.142 -3.028,-0.39 -6.033,0.867 -7.882,3.296 -1.849,2.429 -2.259,5.661 -1.076,8.475 1.183,2.814 3.779,4.783 6.808,5.162 4.991,0.636 9.907,1.766 14.675,3.375 4.45,1.459 9.243,-0.94 10.742,-5.375 z"
       id="path19"
       inkscape:connector-curvature="0" />
    <path
       style="fill:#5333ed;fill-opacity:1"
       d="m 486.811,331.923 c 3.029,-0.405 5.609,-2.4 6.765,-5.228 1.156,-2.828 0.711,-6.059 -1.167,-8.47 -3.763,-4.87 -7.991,-9.362 -12.625,-13.412 -3.549,-3.093 -8.933,-2.727 -12.031,0.817 -3.098,3.544 -2.741,8.928 0.798,12.033 3.803,3.319 7.272,7.002 10.358,10.996 1.859,2.424 4.873,3.67 7.902,3.264 z"
       id="path21"
       inkscape:connector-curvature="0" />
    <path
       style="fill:#5333ed;fill-opacity:1"
       d="m 353.509,290.134 c 0,-4.713 -3.82,-8.533 -8.533,-8.533 l -16.8,0 c -4.713,0 -8.533,3.82 -8.533,8.533 0,4.713 3.82,8.533 8.533,8.533 l 16.8,0 c 4.712,0 8.533,-3.821 8.533,-8.533 z"
       id="path23"
       inkscape:connector-curvature="0" />
    <path
       style="fill:#5333ed;fill-opacity:1"
       d="m 508.767,351.079 c -0.792,-2.946 -3.098,-5.245 -6.046,-6.028 -2.948,-0.784 -6.091,0.067 -8.241,2.231 -2.15,2.164 -2.981,5.312 -2.179,8.255 1.31,4.862 2.137,9.842 2.467,14.867 0.297,4.482 4.017,7.967 8.508,7.971 0.192,0 0.383,-0.004 0.575,-0.017 4.701,-0.314 8.26,-4.377 7.95,-9.079 -0.407,-6.152 -1.423,-12.248 -3.034,-18.2 z"
       id="path25"
       inkscape:connector-curvature="0" />
    <path
       style="fill:#5333ed;fill-opacity:1"
       d="m 501.68,394.846 c -4.455,-1.53 -9.307,0.841 -10.837,5.296 -1.64,4.77 -3.745,9.367 -6.283,13.725 -2.363,4.072 -0.982,9.288 3.087,11.658 4.068,2.37 9.287,0.998 11.663,-3.066 3.101,-5.326 5.669,-10.945 7.667,-16.775 1.529,-4.455 -0.842,-9.308 -5.297,-10.838 z"
       id="path27"
       inkscape:connector-curvature="0" />
    <path
       style="fill:#5333ed;fill-opacity:1"
       d="m 272.251,452.267 -16.792,0 c -4.713,0 -8.533,3.821 -8.533,8.533 0,4.712 3.82,8.533 8.533,8.533 l 16.792,0 c 4.713,0 8.533,-3.82 8.533,-8.533 0,-4.713 -3.821,-8.533 -8.533,-8.533 z"
       id="path29"
       inkscape:connector-curvature="0" />
    <path
       style="fill:#5333ed;fill-opacity:1"
       d="m 422.884,452.121 c -1.575,0.096 -3.159,0.144 -4.75,0.146 l -11.517,0 c -4.713,0 -8.533,3.821 -8.533,8.533 0,4.712 3.82,8.533 8.533,8.533 l 11.517,0 c 1.942,0 3.875,-0.06 5.8,-0.179 3.047,-0.182 5.765,-1.977 7.128,-4.709 1.363,-2.732 1.162,-5.983 -0.525,-8.526 -1.689,-2.543 -4.606,-3.992 -7.653,-3.798 z"
       id="path31"
       inkscape:connector-curvature="0" />
    <path
       style="fill:#5333ed;fill-opacity:1"
       d="m 403.892,290.134 c 0,-4.713 -3.82,-8.533 -8.533,-8.533 l -16.8,0 c -4.713,0 -8.533,3.82 -8.533,8.533 0,4.713 3.821,8.533 8.533,8.533 l 16.8,0 c 4.713,0 8.533,-3.821 8.533,-8.533 z"
       id="path33"
       inkscape:connector-curvature="0" />
    <path
       style="fill:#5333ed;fill-opacity:1"
       d="m 464.692,436.43 c -4.004,3.071 -8.3,5.742 -12.825,7.975 -4.227,2.085 -5.964,7.202 -3.879,11.429 2.085,4.227 7.202,5.964 11.429,3.879 5.525,-2.728 10.77,-5.991 15.659,-9.742 3.739,-2.867 4.446,-8.223 1.579,-11.963 -2.867,-3.738 -8.223,-4.445 -11.963,-1.578 z"
       id="path35"
       inkscape:connector-curvature="0" />
    <path
       style="fill:#5333ed;fill-opacity:1"
       d="m 322.642,452.267 -16.8,0 c -4.713,0 -8.533,3.821 -8.533,8.533 0,4.712 3.82,8.533 8.533,8.533 l 16.8,0 c 4.713,0 8.533,-3.82 8.533,-8.533 0,-4.713 -3.82,-8.533 -8.533,-8.533 z"
       id="path37"
       inkscape:connector-curvature="0" />
    <path
       style="fill:#5333ed;fill-opacity:1"
       d="m 373.026,452.267 -16.8,0 c -2.263,-10e-4 -4.434,0.898 -6.035,2.499 -1.6,1.6 -2.499,3.771 -2.499,6.035 -0.001,2.263 0.898,4.434 2.499,6.035 1.6,1.6 3.771,2.499 6.035,2.499 l 16.8,0 c 4.713,0 8.533,-3.82 8.533,-8.533 0,-4.713 -3.821,-8.535 -8.533,-8.535 z"
       id="path39"
       inkscape:connector-curvature="0" />
    <path
       style="fill:#5333ed;fill-opacity:1"
       d="m 259.826,232.046 c 2.148,0.003 4.217,-0.807 5.792,-2.267 3.212,-2.962 7.031,-5.188 11.192,-6.521 2.904,-0.926 5.094,-3.331 5.744,-6.309 0.65,-2.978 -0.338,-6.077 -2.592,-8.129 -2.254,-2.052 -5.432,-2.746 -8.336,-1.82 -6.54,2.094 -12.544,5.591 -17.592,10.246 -2.579,2.384 -3.435,6.105 -2.155,9.376 1.28,3.271 4.434,5.424 7.947,5.424 z"
       id="path41"
       inkscape:connector-curvature="0" />
    <path
       style="fill:#5333ed;fill-opacity:1"
       d="m 307.617,221.867 16.792,0 c 4.713,0 8.533,-3.821 8.533,-8.533 0,-4.713 -3.821,-8.533 -8.533,-8.533 l -16.792,0 c -4.713,0 -8.533,3.821 -8.533,8.533 0,4.712 3.82,8.533 8.533,8.533 z"
       id="path43"
       inkscape:connector-curvature="0" />
    <path
       style="fill:#5333ed;fill-opacity:1"
       d="m 259.221,274.074 c 1.542,-2.563 1.629,-5.746 0.23,-8.39 -2.046,-3.861 -3.212,-8.127 -3.417,-12.492 -0.278,-4.685 -4.252,-8.288 -8.942,-8.108 -4.707,0.233 -8.335,4.234 -8.108,8.942 0.322,6.864 2.161,13.572 5.383,19.642 1.481,2.796 4.386,4.544 7.55,4.542 2.991,-0.004 5.762,-1.573 7.304,-4.136 z"
       id="path45"
       inkscape:connector-curvature="0" />
  </g>
</svg>
