<?xml version="1.0" encoding="UTF-8" standalone="no"?>
<svg
   xmlns:dc="http://purl.org/dc/elements/1.1/"
   xmlns:cc="http://creativecommons.org/ns#"
   xmlns:rdf="http://www.w3.org/1999/02/22-rdf-syntax-ns#"
   xmlns:svg="http://www.w3.org/2000/svg"
   xmlns="http://www.w3.org/2000/svg"
   xmlns:sodipodi="http://sodipodi.sourceforge.net/DTD/sodipodi-0.dtd"
   xmlns:inkscape="http://www.inkscape.org/namespaces/inkscape"
   width="128"
   height="128"
   viewBox="0 0 128 128"
   id="svg2"
   version="1.1"
   inkscape:version="0.91 r13725"
   sodipodi:docname="android-user-guide.svg">
  <metadata
     id="metadata43">
    <rdf:RDF>
      <cc:Work
         rdf:about="">
        <dc:format>image/svg+xml</dc:format>
        <dc:type
           rdf:resource="http://purl.org/dc/dcmitype/StillImage" />
      </cc:Work>
    </rdf:RDF>
  </metadata>
  <defs
     id="defs41" />
  <sodipodi:namedview
     pagecolor="#ffffff"
     bordercolor="#666666"
     borderopacity="1"
     objecttolerance="10"
     gridtolerance="10"
     guidetolerance="10"
     inkscape:pageopacity="0"
     inkscape:pageshadow="2"
     inkscape:window-width="1280"
     inkscape:window-height="755"
     id="namedview39"
     showgrid="false"
     inkscape:zoom="1.84375"
     inkscape:cx="-122.53502"
     inkscape:cy="64"
     inkscape:window-x="0"
     inkscape:window-y="1"
     inkscape:window-maximized="1"
     inkscape:current-layer="svg2" />
  <title
     id="title4">features-nextgen</title>
  <g
     id="g8089">
    <path
       style="fill:#2cd4d9;fill-opacity:1"
       inkscape:connector-curvature="0"
       id="path7"
       d="m 100.87933,41.011919 -56.94754,0 c -5.276843,0 -9.590758,-4.294657 -9.590758,-9.590758 0,-5.276843 4.294657,-9.590758 9.590758,-9.590758 l 56.96679,0 c 1.42514,0 2.56139,-1.155513 2.56139,-2.561388 0,-1.425132 -1.15551,-2.561387 -2.56139,-2.561387 l -56.96679,0 c -8.10785,0 -14.713533,6.605683 -14.713533,14.713533 l 0,64.073199 c 0,8.10785 6.605683,14.71353 14.713533,14.71353 l 56.96679,0 c 1.42514,0 2.56139,-1.15551 2.56139,-2.56138 l 0,-64.073203 c -0.0193,-1.405875 -1.15551,-2.561388 -2.58064,-2.561388 z m -2.56139,64.073201 -54.38615,0 c -5.276843,0 -9.590758,-4.29466 -9.590758,-9.59076 l 0,-52.903239 c 2.580646,2.214733 5.931634,3.562831 9.590758,3.562831 l 54.38615,0 0,58.931168 0,0 z" />
    <path
       style="fill:#5333ed;fill-opacity:1"
       inkscape:connector-curvature="0"
       id="path9"
       d="m 44.74065,29.090876 c -1.425133,0 -2.561388,1.155513 -2.561388,2.561388 0,1.405874 1.155513,2.561387 2.561388,2.561387 l 48.10786,0 c 1.425133,0 2.561387,-1.155513 2.561387,-2.561387 0,-1.405875 -1.155513,-2.561388 -2.561387,-2.561388 l -48.10786,0 z" />
    <g
       id="text8069"
       style="font-style:normal;font-variant:normal;font-weight:normal;font-stretch:normal;font-size:15px;line-height:125%;font-family:'Brandon Text';-inkscape-font-specification:'Brandon Text, Normal';text-align:start;letter-spacing:0px;word-spacing:0px;writing-mode:lr-tb;text-anchor:start;fill:#5333ed;fill-opacity:1;stroke:none;stroke-width:1px;stroke-linecap:butt;stroke-linejoin:miter;stroke-opacity:1">
      <path
         id="path8075"
         style=""
         d="m 43.104575,77.086432 c 0,1.395 0.93,2.265 2.145,2.265 1.065,0 1.785,-0.525 2.145,-0.885 l 0.135,0.465 c 0.045,0.15 0.105,0.255 0.285,0.255 l 0.285,0 c 0.18,0 0.33,-0.15 0.33,-0.33 l 0,-3.84 c 0,-2.04 -0.375,-2.91 -2.145,-2.91 -1.14,0 -2.04,0.3 -2.385,0.45 -0.165,0.075 -0.27,0.165 -0.21,0.375 l 0.15,0.405 c 0.06,0.165 0.15,0.255 0.33,0.18 0.315,-0.105 1.11,-0.405 2.055,-0.405 0.99,0 1.155,0.63 1.14,1.905 0,0 -0.75,-0.225 -1.485,-0.225 -1.785,0 -2.775,0.975 -2.775,2.295 z m 1.095,0 c 0,-0.885 0.72,-1.35 1.68,-1.35 0.69,0 1.245,0.15 1.47,0.27 l 0,1.41 c -0.3,0.45 -1.05,0.93 -1.905,0.93 -0.765,0 -1.245,-0.555 -1.245,-1.26 z" />
      <path
         id="path8077"
         style=""
         d="m 50.705122,78.856432 c 0,0.18 0.15,0.33 0.33,0.33 l 0.45,0 c 0.165,0 0.33,-0.15 0.33,-0.33 l 0,-4.785 c 0,0 0.825,-0.96 2.13,-0.96 1.02,0 1.47,0.615 1.47,1.935 l 0,3.81 c 0,0.18 0.15,0.33 0.33,0.33 l 0.45,0 c 0.165,0 0.33,-0.15 0.33,-0.33 l 0,-3.66 c 0,-1.785 -0.495,-3.09 -2.505,-3.09 -1.44,0 -2.325,0.885 -2.325,0.885 l -0.15,-0.525 c -0.03,-0.15 -0.12,-0.21 -0.27,-0.21 l -0.24,0 c -0.18,0 -0.33,0.165 -0.33,0.33 l 0,6.27 z" />
      <path
         id="path8079"
         style=""
         d="m 58.356059,75.706432 c 0,1.98 1.35,3.645 3.105,3.645 1.305,0 2.19,-0.9 2.19,-0.9 l 0.09,0.45 c 0.06,0.165 0.15,0.285 0.3,0.285 l 0.27,0 c 0.18,0 0.345,-0.15 0.345,-0.33 l 0,-9.84 c 0,-0.165 -0.165,-0.33 -0.345,-0.33 l -0.42,0 c -0.18,0 -0.33,0.165 -0.33,0.33 l 0,3.525 c 0,0 -0.78,-0.435 -1.92,-0.435 -2.085,0 -3.285,1.575 -3.285,3.6 z m 1.125,0.015 c 0,-1.38 0.825,-2.61 2.31,-2.61 0.96,0 1.77,0.39 1.77,0.39 l 0,3.735 c 0,0 -0.72,1.11 -1.965,1.11 -1.26,0 -2.115,-1.275 -2.115,-2.625 z" />
      <path
         id="path8081"
         style=""
         d="m 66.994184,78.856432 c 0,0.18 0.15,0.33 0.33,0.33 l 0.45,0 c 0.165,0 0.33,-0.15 0.33,-0.33 l 0,-4.8 c 0,0 0.54,-0.885 1.875,-0.885 0.33,0 0.585,0.12 0.75,0.195 0.165,0.075 0.33,0.06 0.405,-0.165 l 0.195,-0.54 c 0.165,-0.48 -0.69,-0.555 -1.215,-0.555 -1.44,0 -2.13,0.885 -2.13,0.885 l -0.12,-0.495 c -0.045,-0.165 -0.165,-0.24 -0.3,-0.24 l -0.24,0 c -0.18,0 -0.33,0.165 -0.33,0.33 l 0,6.27 z" />
      <path
         id="path8083"
         style=""
         d="m 72.081294,75.706432 c 0,1.98 1.56,3.645 3.48,3.645 1.92,0 3.48,-1.665 3.48,-3.645 0,-1.95 -1.56,-3.6 -3.48,-3.6 -1.92,0 -3.48,1.65 -3.48,3.6 z m 1.095,0 c 0,-1.41 1.02,-2.595 2.385,-2.595 1.365,0 2.37,1.185 2.37,2.595 0,1.44 -1.005,2.64 -2.37,2.64 -1.365,0 -2.385,-1.2 -2.385,-2.64 z" />
      <path
         id="path8085"
         style=""
         d="m 81.464497,70.471432 c 0.465,0 0.825,-0.375 0.825,-0.81 0,-0.48 -0.36,-0.84 -0.825,-0.84 -0.45,0 -0.81,0.36 -0.81,0.84 0,0.435 0.36,0.81 0.81,0.81 z m -0.525,8.385 c 0,0.18 0.15,0.33 0.33,0.33 l 0.45,0 c 0.165,0 0.33,-0.15 0.33,-0.33 l 0,-6.27 c 0,-0.165 -0.165,-0.33 -0.33,-0.33 l -0.45,0 c -0.18,0 -0.33,0.165 -0.33,0.33 l 0,6.27 z" />
      <path
         id="path8087"
         style=""
         d="m 83.961528,75.706432 c 0,1.98 1.35,3.645 3.105,3.645 1.305,0 2.19,-0.9 2.19,-0.9 l 0.09,0.45 c 0.06,0.165 0.15,0.285 0.3,0.285 l 0.27,0 c 0.18,0 0.345,-0.15 0.345,-0.33 l 0,-9.84 c 0,-0.165 -0.165,-0.33 -0.345,-0.33 l -0.42,0 c -0.18,0 -0.33,0.165 -0.33,0.33 l 0,3.525 c 0,0 -0.78,-0.435 -1.92,-0.435 -2.085,0 -3.285,1.575 -3.285,3.6 z m 1.125,0.015 c 0,-1.38 0.825,-2.61 2.31,-2.61 0.96,0 1.77,0.39 1.77,0.39 l 0,3.735 c 0,0 -0.72,1.11 -1.965,1.11 -1.26,0 -2.115,-1.275 -2.115,-2.625 z" />
    </g>
  </g>
</svg>
