<?xml version="1.0" encoding="UTF-8" standalone="no"?>
<svg
   xmlns:dc="http://purl.org/dc/elements/1.1/"
   xmlns:cc="http://creativecommons.org/ns#"
   xmlns:rdf="http://www.w3.org/1999/02/22-rdf-syntax-ns#"
   xmlns:svg="http://www.w3.org/2000/svg"
   xmlns="http://www.w3.org/2000/svg"
   xmlns:sodipodi="http://sodipodi.sourceforge.net/DTD/sodipodi-0.dtd"
   xmlns:inkscape="http://www.inkscape.org/namespaces/inkscape"
   width="128"
   height="128"
   viewBox="0 0 128 128"
   id="svg2"
   version="1.1"
   inkscape:version="0.91 r13725"
   sodipodi:docname="api.svg">
  <metadata
     id="metadata43">
    <rdf:RDF>
      <cc:Work
         rdf:about="">
        <dc:format>image/svg+xml</dc:format>
        <dc:type
           rdf:resource="http://purl.org/dc/dcmitype/StillImage" />
      </cc:Work>
    </rdf:RDF>
  </metadata>
  <defs
     id="defs41" />
  <sodipodi:namedview
     pagecolor="#ffffff"
     bordercolor="#666666"
     borderopacity="1"
     objecttolerance="10"
     gridtolerance="10"
     guidetolerance="10"
     inkscape:pageopacity="0"
     inkscape:pageshadow="2"
     inkscape:window-width="1280"
     inkscape:window-height="751"
     id="namedview39"
     showgrid="false"
     inkscape:zoom="1.84375"
     inkscape:cx="-125.83051"
     inkscape:cy="64"
     inkscape:window-x="0"
     inkscape:window-y="1"
     inkscape:window-maximized="1"
     inkscape:current-layer="svg2" />
  <title
     id="title4">features-nextgen</title>
  <path
     inkscape:connector-curvature="0"
     id="path5"
     d="m 108.19222,74.418712 -3.20788,-1.852183 c 0.53871,-2.679542 0.81134,-5.362723 0.81134,-7.990031 0,-2.665528 -0.26826,-5.351257 -0.79787,-7.998039 l 3.19441,-1.844357 c 0.98934,-0.571107 1.69712,-1.493467 1.99268,-2.596915 0.29557,-1.103448 0.14396,-2.256035 -0.42732,-3.24537 l -8.73586,-15.131046 c -0.57129,-0.989336 -1.493466,-1.697122 -2.596914,-1.992685 -1.103629,-0.295563 -2.256034,-0.14396 -3.245552,0.427329 l -3.196958,1.845813 c -4.038331,-3.552763 -8.791,-6.302373 -13.850152,-8.013144 l 0,-3.674883 c 0,-2.358317 -1.918612,-4.276929 -4.276929,-4.276929 l -17.471709,0 c -2.358316,0 -4.276929,1.918612 -4.276929,4.276929 l 0,3.675065 c -5.032216,1.703855 -9.778333,4.457105 -13.831587,8.023882 l -3.215705,-1.856733 c -0.989517,-0.571289 -2.142104,-0.723074 -3.245552,-0.427329 -1.103447,0.295745 -2.025626,1.003349 -2.596914,1.992685 l -8.735855,15.131046 c -0.571288,0.989335 -0.722892,2.141922 -0.427329,3.24537 0.295563,1.103448 1.003349,2.025808 1.992685,2.596915 l 3.207879,1.852183 c -0.538348,2.679541 -0.811161,5.362723 -0.811161,7.990213 0,2.665163 0.268264,5.350893 0.797875,7.997857 l -3.194411,1.844357 c -2.04237,1.179158 -2.744514,3.799915 -1.565538,5.842467 l 8.735855,15.131046 c 1.179158,2.042188 3.799914,2.744514 5.842466,1.565356 l 3.196777,-1.845814 c 4.038513,3.552763 8.791,6.302373 13.850515,8.013323 l 0,3.6747 c 0,2.35832 1.918613,4.27693 4.276929,4.27693 l 17.471709,0 c 2.358317,0 4.276929,-1.91861 4.276929,-4.27693 l 0,-3.67506 c 5.032398,-1.70386 9.778515,-4.457106 13.83177,-8.0237 l 3.215522,1.856551 c 2.042188,1.179158 4.663309,0.476832 5.842464,-1.565356 l 8.73586,-15.131046 c 1.17897,-2.042552 0.47683,-4.663309 -1.56554,-5.842467 z m -0.79878,4.477489 -8.73586,15.130865 c -0.426418,0.738907 -1.374441,0.992793 -2.113166,0.566192 l -4.075277,-2.352857 c -0.517781,-0.299021 -1.17024,-0.22604 -1.609217,0.179995 -4.166456,3.853422 -9.179381,6.760824 -14.496604,8.408074 -0.571471,0.17709 -0.961126,0.70561 -0.961126,1.30383 l 0,4.66749 c 0,0.85302 -0.693955,1.54698 -1.546975,1.54698 l -17.471709,0 c -0.85302,0 -1.546974,-0.69396 -1.546974,-1.54698 l 0,-4.66731 c 0,-0.59822 -0.389655,-1.12674 -0.960944,-1.30382 -5.349983,-1.65745 -10.369095,-4.561212 -14.515168,-8.397162 -0.258618,-0.239326 -0.59149,-0.363084 -0.927275,-0.363084 -0.234048,0 -0.46937,0.06006 -0.682125,0.182907 l -4.056712,2.341937 C 32.9554,95.019677 32.00756,94.765791 31.581141,94.027066 L 22.845287,78.896201 c -0.426419,-0.738725 -0.172351,-1.686747 0.566192,-2.113348 l 4.053437,-2.340299 c 0.517599,-0.298839 0.780585,-0.899429 0.649001,-1.482548 -0.624432,-2.767628 -0.940924,-5.588399 -0.940924,-8.383508 0,-2.748154 0.321224,-5.566195 0.954938,-8.375865 0.131402,-0.582936 -0.131584,-1.183708 -0.649002,-1.482365 l -4.06745,-2.348307 c -0.357806,-0.206567 -0.613694,-0.540167 -0.720708,-0.939286 -0.106832,-0.39912 -0.05205,-0.816075 0.154516,-1.173881 l 8.735854,-15.131046 c 0.206567,-0.357806 0.540167,-0.613876 0.939469,-0.720708 0.398937,-0.107014 0.816074,-0.05205 1.17388,0.154516 l 4.075276,2.352856 c 0.517964,0.299203 1.170241,0.226041 1.609217,-0.179995 4.166639,-3.853421 9.179382,-6.760823 14.496605,-8.408078 0.571471,-0.177083 0.961126,-0.705602 0.961126,-1.303826 l 0,-4.667312 c 0,-0.85302 0.693954,-1.546974 1.546974,-1.546974 l 17.471709,0 c 0.85302,0 1.546975,0.693954 1.546975,1.546974 l 0,4.667312 c 0,0.598224 0.389655,1.126743 0.960944,1.303826 5.349801,1.657265 10.368913,4.561026 14.515168,8.397159 0.438977,0.406217 1.091436,0.479198 1.609399,0.180177 l 4.056713,-2.342119 c 0.357988,-0.206567 0.774943,-0.26153 1.17388,-0.154516 0.399119,0.107014 0.73272,0.362902 0.939468,0.720708 l 8.735856,15.131046 c 0.20657,0.357806 0.26153,0.774761 0.15451,1.173881 -0.10701,0.399119 -0.3629,0.732719 -0.7207,0.939286 l -4.05344,2.340299 c -0.5176,0.298839 -0.78059,0.899611 -0.649,1.482547 0.62443,2.767446 0.94092,5.588035 0.94092,8.383691 0,2.748154 -0.32122,5.566195 -0.95494,8.375682 -0.1314,0.582937 0.13159,1.183527 0.64901,1.482366 l 4.06745,2.348307 c 0.73836,0.426601 0.99243,1.374623 0.56583,2.113348 z"
     style="fill:#2cd4d9;fill-opacity:1" />
  <path
     inkscape:connector-curvature="0"
     id="path7"
     d="m 65.119361,37.003957 c -15.203663,0 -27.572541,12.36906 -27.572541,27.572541 0,15.203481 12.368878,27.572541 27.572541,27.572541 15.203663,0 27.572541,-12.36906 27.572541,-27.572541 0,-15.203481 -12.368878,-27.572541 -27.572541,-27.572541 z m 0,52.415127 c -13.698184,0 -24.842587,-11.144402 -24.842587,-24.842586 0,-13.698184 11.144403,-24.842587 24.842587,-24.842587 13.698184,0 24.842586,11.144403 24.842586,24.842587 0,13.698184 -11.144402,24.842586 -24.842586,24.842586 z"
     style="fill:#2cd4d9;fill-opacity:1" />
  <path
     inkscape:connector-curvature="0"
     id="path9"
     d="m 70.215276,57.387618 -5.095915,0 c -0.753832,0 -1.364977,0.611145 -1.364977,1.364977 l 0,11.647806 c 0,0.753831 0.611145,1.364977 1.364977,1.364977 0.753831,0 1.364977,-0.611146 1.364977,-1.364977 l 0,-3.00295 3.730938,0 c 2.759802,0 5.004917,-2.245115 5.004917,-5.004917 0,-2.759802 -2.245115,-5.004916 -5.004917,-5.004916 z m 0,7.279878 -3.730938,0 0,-4.549924 3.730938,0 c 1.254505,0 2.274962,1.020457 2.274962,2.274962 0,1.254505 -1.020457,2.274962 -2.274962,2.274962 z"
     style="fill:#5333ed;fill-opacity:1" />
  <path
     inkscape:connector-curvature="0"
     id="path11"
     d="m 57.661489,58.273397 c -0.199833,-0.532705 -0.70906,-0.885779 -1.277983,-0.885779 l -1.455975,0 c -0.568923,0 -1.078333,0.352892 -1.277983,0.885779 l -4.367927,11.647806 c -0.264806,0.705784 0.093,1.492557 0.798784,1.757363 0.705784,0.264805 1.492557,-0.093 1.757363,-0.798785 l 0.759655,-2.026354 6.116008,0 0.759838,2.026172 c 0.205474,0.547993 0.725622,0.886143 1.278165,0.886143 0.159247,0 0.321224,-0.02803 0.479016,-0.08718 0.705784,-0.264624 1.06359,-1.051579 0.798784,-1.757363 L 57.661489,58.273397 Z m -4.040333,7.850075 2.034362,-5.424784 2.034363,5.424784 -4.068725,0 z"
     style="fill:#5333ed;fill-opacity:1" />
  <path
     inkscape:connector-curvature="0"
     id="path13-2"
     d="m 78.223143,57.387618 c -0.753832,0 -1.364978,0.611145 -1.364978,1.364977 l 0,11.647806 c 0,0.753831 0.611146,1.364977 1.364978,1.364977 0.753831,0 1.364977,-0.611146 1.364977,-1.364977 l 0,-11.647806 c 0,-0.753832 -0.611146,-1.364977 -1.364977,-1.364977 z"
     style="fill:#5333ed;fill-opacity:1" />
  <path
     inkscape:connector-curvature="0"
     id="path15"
     d="m 74.883862,33.964607 c 0.947294,0.301933 1.891677,0.652642 2.806576,1.042115 0.174353,0.07425 0.355622,0.10938 0.533979,0.10938 0.530703,0 1.035562,-0.311579 1.256507,-0.830634 0.295199,-0.69359 -0.02766,-1.495287 -0.721254,-1.790486 -0.99334,-0.422779 -2.018347,-0.803517 -3.046994,-1.131293 -0.717978,-0.228952 -1.486005,0.167801 -1.714957,0.885961 -0.22877,0.71816 0.167983,1.486005 0.886143,1.714957 z"
     style="fill:#5333ed;fill-opacity:1" />
  <path
     inkscape:connector-curvature="0"
     id="path17"
     d="m 36.900731,79.93777 c -0.361082,-0.661741 -1.190443,-0.905617 -1.852002,-0.544535 -0.661741,0.361082 -0.905616,1.19026 -0.544534,1.852001 0.566374,1.038111 1.193354,2.059296 1.863467,3.035164 0.264623,0.385287 0.69177,0.5924 1.126379,0.5924 0.266261,0 0.535253,-0.07771 0.771485,-0.239872 0.62152,-0.426783 0.779311,-1.276527 0.352528,-1.897864 -0.617516,-0.89943 -1.195356,-1.840536 -1.717323,-2.797294 z"
     style="fill:#5333ed;fill-opacity:1" />
  <path
     inkscape:connector-curvature="0"
     id="path19"
     d="m 62.323887,96.579027 c -7.314276,-0.630255 -14.257096,-3.799915 -19.549386,-8.925313 -0.541623,-0.524516 -1.405745,-0.510502 -1.930078,0.03094 -0.524333,0.541623 -0.510684,1.405745 0.03094,1.930078 5.742005,5.560917 13.276133,9.000114 21.214113,9.684059 0.03986,0.0035 0.07935,0.0051 0.118662,0.0051 0.700871,0 1.297093,-0.536709 1.358426,-1.247772 0.06461,-0.750919 -0.491756,-1.412296 -1.242676,-1.477087 z"
     style="fill:#5333ed;fill-opacity:1" />
  <path
     inkscape:connector-curvature="0"
     id="path21"
     d="m 84.761384,35.782211 c -0.62243,-0.425327 -1.47181,-0.265533 -1.897137,0.356714 -0.425327,0.62243 -0.265533,1.47181 0.356714,1.897137 6.341503,4.333894 10.928737,10.782956 12.916689,18.158929 0.164162,0.608962 0.715249,1.010084 1.317112,1.010084 0.117571,0 0.237143,-0.01529 0.355987,-0.04732 0.727987,-0.196192 1.158956,-0.945292 0.962764,-1.673098 C 96.616484,47.48043 91.640141,40.483375 84.761384,35.782211 Z"
     style="fill:#5333ed;fill-opacity:1" />
</svg>
