<?xml version="1.0" encoding="UTF-8" standalone="no"?>
<svg
   xmlns:dc="http://purl.org/dc/elements/1.1/"
   xmlns:cc="http://creativecommons.org/ns#"
   xmlns:rdf="http://www.w3.org/1999/02/22-rdf-syntax-ns#"
   xmlns:svg="http://www.w3.org/2000/svg"
   xmlns="http://www.w3.org/2000/svg"
   xmlns:xlink="http://www.w3.org/1999/xlink"
   xmlns:sodipodi="http://sodipodi.sourceforge.net/DTD/sodipodi-0.dtd"
   xmlns:inkscape="http://www.inkscape.org/namespaces/inkscape"
   id="Layer_1"
   viewBox="0 0 41.203527 29.632441"
   width="840.88831"
   height="604.67358"
   version="1.1"
   inkscape:version="0.91 r13725"
   sodipodi:docname="docker-1.svg">
  <metadata
     id="metadata20">
    <rdf:RDF>
      <cc:Work
         rdf:about="">
        <dc:format>image/svg+xml</dc:format>
        <dc:type
           rdf:resource="http://purl.org/dc/dcmitype/StillImage" />
        <dc:title>Group 3</dc:title>
      </cc:Work>
    </rdf:RDF>
  </metadata>
  <sodipodi:namedview
     pagecolor="#ffffff"
     bordercolor="#666666"
     borderopacity="1"
     objecttolerance="10"
     gridtolerance="10"
     guidetolerance="10"
     inkscape:pageopacity="0"
     inkscape:pageshadow="2"
     inkscape:window-width="1280"
     inkscape:window-height="755"
     id="namedview18"
     showgrid="false"
     fit-margin-top="0"
     fit-margin-left="0"
     fit-margin-right="0"
     fit-margin-bottom="0"
     inkscape:zoom="0.124"
     inkscape:cx="184.18917"
     inkscape:cy="266.62656"
     inkscape:window-x="0"
     inkscape:window-y="1"
     inkscape:window-maximized="1"
     inkscape:current-layer="Layer_1" />
  <style
     id="style3">.st0{fill:#061d2f}.st1{clip-path:url(#SVGID_4_)}</style>
  <title
     id="title5">Group 3</title>
  <path
     id="SVGID_1_"
     class="st0"
     d="m 8.2691169,23.876501 c -1.1725088,0 -2.238424,-0.959306 -2.238424,-2.13182 0,-1.172514 0.9593242,-2.131846 2.238424,-2.131846 1.2790972,0 2.2384341,0.959332 2.2384341,2.131846 0,1.172514 -1.0659279,2.13182 -2.2384341,2.13182 z M 35.769735,12.258017 C 35.556553,10.552561 34.490643,9.1668694 33.104947,8.1009598 L 32.571979,7.6745932 32.145615,8.2075508 c -0.852728,0.9593186 -1.172488,2.6647962 -1.06591,3.9438882 0.106604,0.959332 0.426364,1.918638 0.959332,2.664788 -0.426364,0.213182 -0.959332,0.426364 -1.385696,0.639546 -0.959332,0.319786 -1.918638,0.426364 -2.87797,0.426364 l -27.60721285,0 -0.10659162,0.639546 c -0.21318304,2.025242 0.10659162,4.157088 0.95932357,6.075726 l 0.4263664,0.74615 0,0.106578 c 2.558197,4.263666 7.1416334,6.182304 12.1514465,6.182304 9.593242,0 17.481002,-4.157062 21.2117,-13.110758 2.451606,0.106604 4.903212,-0.532942 6.075726,-2.87797 l 0.319786,-0.532942 -0.532968,-0.319786 c -1.385696,-0.852728 -3.304334,-0.959332 -4.903212,-0.532968 z m -13.750304,-1.705456 -4.157062,0 0,4.157062 4.157062,0 0,-4.157062 z m 0,-5.2229828 -4.157062,0 0,4.1570724 4.157062,0 0,-4.1570724 z m 0,-5.3295782 -4.157062,0 0,4.157072 4.157062,0 0,-4.157072 z m 5.116394,10.552561 -4.157062,0 0,4.157062 4.157062,0 0,-4.157062 z m -15.455786,0 -4.1570643,0 0,4.157062 4.1570643,0 0,-4.157062 z m 5.222998,0 -4.157088,0 0,4.157062 4.157088,0 0,-4.157062 z m -10.3393865,0 -4.1570698,0 0,4.157062 4.1570698,0 0,-4.157062 z m 10.3393865,-5.2229828 -4.157088,0 0,4.1570724 4.157088,0 0,-4.1570724 z m -5.222998,0 -4.1570643,0 0,4.1570724 4.1570643,0 0,-4.1570724 z"
     style="fill:#ffffff;fill-opacity:1"
     inkscape:connector-curvature="0" />
  <defs
     id="defs8">
    <path
       id="SVGID_2_"
       d="m 8.7,24 c -1.1,0 -2.1,-0.9 -2.1,-2 0,-1.1 0.9,-2 2.1,-2 1.2,0 2.1,0.9 2.1,2 0,1.1 -1,2 -2.1,2 z M 34.5,13.1 C 34.3,11.5 33.3,10.2 32,9.2 L 31.5,8.8 31.1,9.3 c -0.8,0.9 -1.1,2.5 -1,3.7 0.1,0.9 0.4,1.8 0.9,2.5 -0.4,0.2 -0.9,0.4 -1.3,0.6 -0.9,0.3 -1.8,0.4 -2.7,0.4 L 1.1,16.5 1,17.1 C 0.8,19 1.1,21 1.9,22.8 l 0.4,0.7 0,0.1 c 2.4,4 6.7,5.8 11.4,5.8 9,0 16.4,-3.9 19.9,-12.3 2.3,0.1 4.6,-0.5 5.7,-2.7 l 0.3,-0.5 -0.5,-0.3 C 37.8,12.8 36,12.7 34.5,13.1 Z m -12.9,-1.6 -3.9,0 0,3.9 3.9,0 0,-3.9 z m 0,-4.9 -3.9,0 0,3.9 3.9,0 0,-3.9 z m 0,-5 -3.9,0 0,3.9 3.9,0 0,-3.9 z m 4.8,9.9 -3.9,0 0,3.9 3.9,0 0,-3.9 z m -14.5,0 -3.9,0 0,3.9 3.9,0 0,-3.9 z m 4.9,0 -3.9,0 0,3.9 3.9,0 0,-3.9 z m -9.7,0 -3.9,0 0,3.9 3.9,0 0,-3.9 z m 9.7,-4.9 -3.9,0 0,3.9 3.9,0 0,-3.9 z m -4.9,0 -3.9,0 0,3.9 3.9,0 0,-3.9 z"
       inkscape:connector-curvature="0" />
  </defs>
  <clipPath
     id="SVGID_4_">
    <use
       xlink:href="#SVGID_2_"
       overflow="visible"
       id="use12"
       style="overflow:visible"
       x="0"
       y="0"
       width="100%"
       height="100%" />
  </clipPath>
</svg>
