<?xml version="1.0" encoding="UTF-8" standalone="no"?>
<svg
   xmlns:dc="http://purl.org/dc/elements/1.1/"
   xmlns:cc="http://creativecommons.org/ns#"
   xmlns:rdf="http://www.w3.org/1999/02/22-rdf-syntax-ns#"
   xmlns:svg="http://www.w3.org/2000/svg"
   xmlns="http://www.w3.org/2000/svg"
   xmlns:sodipodi="http://sodipodi.sourceforge.net/DTD/sodipodi-0.dtd"
   xmlns:inkscape="http://www.inkscape.org/namespaces/inkscape"
   width="128"
   height="128"
   viewBox="0 0 128 128"
   id="svg2"
   version="1.1"
   inkscape:version="0.91 r13725"
   sodipodi:docname="eta-repl-user-guide copy.svg">
  <metadata
     id="metadata43">
    <rdf:RDF>
      <cc:Work
         rdf:about="">
        <dc:format>image/svg+xml</dc:format>
        <dc:type
           rdf:resource="http://purl.org/dc/dcmitype/StillImage" />
      </cc:Work>
    </rdf:RDF>
  </metadata>
  <defs
     id="defs41" />
  <sodipodi:namedview
     pagecolor="#ffffff"
     bordercolor="#666666"
     borderopacity="1"
     objecttolerance="10"
     gridtolerance="10"
     guidetolerance="10"
     inkscape:pageopacity="0"
     inkscape:pageshadow="2"
     inkscape:window-width="1280"
     inkscape:window-height="755"
     id="namedview39"
     showgrid="false"
     inkscape:zoom="1.84375"
     inkscape:cx="-110.64407"
     inkscape:cy="64"
     inkscape:window-x="0"
     inkscape:window-y="1"
     inkscape:window-maximized="1"
     inkscape:current-layer="svg2" />
  <title
     id="title4">features-nextgen</title>
  <g
     id="g8105">
    <g
       id="text8084"
       style="font-style:normal;font-variant:normal;font-weight:normal;font-stretch:normal;font-size:12.8012886px;line-height:125%;font-family:'Brandon Text';-inkscape-font-specification:'Brandon Text, Normal';text-align:start;letter-spacing:0px;word-spacing:0px;writing-mode:lr-tb;text-anchor:start;fill:#5333ed;fill-opacity:1;stroke:none;stroke-width:1px;stroke-linecap:butt;stroke-linejoin:miter;stroke-opacity:1">
      <path
         id="path8089"
         style=""
         d="m 45.848256,74.633036 c 0,1.68977 1.075308,3.097912 2.867489,3.097912 1.024103,0 1.804982,-0.39684 2.163418,-0.678468 0.217622,-0.166417 0.166416,-0.230424 0.05121,-0.409642 l -0.153616,-0.217622 c -0.153615,-0.230423 -0.243224,-0.179218 -0.448045,-0.0384 -0.332833,0.217621 -0.819282,0.486449 -1.600161,0.486449 -1.075308,0 -1.907392,-1.036905 -1.932994,-2.022604 l 4.301233,0 c 0.128012,0 0.256025,-0.10241 0.268827,-0.256026 0.0128,-0.10241 0.0256,-0.256026 0.0256,-0.358436 0,-1.548956 -1.126513,-2.688271 -2.675469,-2.688271 -1.792181,0 -2.867489,1.420943 -2.867489,3.085111 z m 0.960097,-0.537654 c 0.115211,-0.921693 0.908891,-1.68977 1.907392,-1.68977 1.011302,0 1.702571,0.819282 1.728174,1.68977 l -3.635566,0 z" />
      <path
         id="path8091"
         style=""
         d="m 53.304207,72.495221 0,3.597162 c 0,0.921693 0.230423,1.638565 1.356936,1.638565 0.79368,0 1.408142,-0.29443 1.664168,-0.473648 0.153615,-0.10241 0.179218,-0.192019 0.10241,-0.384038 L 56.31251,76.604434 c -0.06401,-0.140814 -0.140815,-0.256025 -0.371238,-0.115211 -0.243224,0.153615 -0.614462,0.384039 -1.164917,0.384039 -0.332834,0 -0.524853,-0.230424 -0.524853,-0.844886 l 0,-3.533155 1.740975,0 c 0.166417,0 0.29443,-0.128013 0.29443,-0.281629 l 0,-0.256025 c 0,-0.166417 -0.128013,-0.281629 -0.29443,-0.281629 l -1.740975,0 0,-1.664167 c 0,-0.153616 -0.115211,-0.29443 -0.268827,-0.281629 l -0.39684,0.0256 c -0.140814,0.0128 -0.281628,0.128013 -0.281628,0.281628 l 0,1.638565 -0.780879,0 c -0.179218,0 -0.294429,0.115212 -0.294429,0.281629 l 0,0.256025 c 0,0.153616 0.115211,0.281629 0.294429,0.281629 l 0.780879,0 z" />
      <path
         id="path8093"
         style=""
         d="m 57.284807,75.797953 c 0,1.19052 0.79368,1.932995 1.830585,1.932995 0.908891,0 1.523353,-0.448045 1.830584,-0.755276 l 0.115212,0.39684 c 0.0384,0.128013 0.08961,0.217622 0.243224,0.217622 l 0.243225,0 c 0.153615,0 0.281628,-0.128013 0.281628,-0.281629 l 0,-3.27713 c 0,-1.740975 -0.320032,-2.48345 -1.830584,-2.48345 -0.972898,0 -1.740976,0.256026 -2.035405,0.384039 -0.140814,0.06401 -0.230423,0.140814 -0.179218,0.320032 l 0.128013,0.345635 c 0.05121,0.140814 0.128012,0.217622 0.281628,0.153616 0.268827,-0.08961 0.947295,-0.345635 1.753776,-0.345635 0.844885,0 0.9857,0.537654 0.972898,1.625763 0,0 -0.640064,-0.192019 -1.267327,-0.192019 -1.523354,0 -2.368239,0.832084 -2.368239,1.958597 z m 0.934494,0 c 0,-0.755276 0.614462,-1.152116 1.433745,-1.152116 0.588859,0 1.062507,0.128013 1.254526,0.230423 l 0,1.203322 c -0.256026,0.384038 -0.89609,0.79368 -1.625764,0.79368 -0.652865,0 -1.062507,-0.473648 -1.062507,-1.075309 z" />
      <path
         id="path8095"
         style=""
         d="m 63.886472,74.77385 2.67547,0 c 0.140814,0 0.243224,-0.10241 0.243224,-0.230423 l 0,-0.243225 c 0,-0.140814 -0.10241,-0.243224 -0.243224,-0.243224 l -2.67547,0 c -0.140814,0 -0.243224,0.10241 -0.243224,0.243224 l 0,0.243225 c 0,0.128013 0.10241,0.230423 0.243224,0.230423 z" />
      <path
         id="path8097"
         style=""
         d="m 68.671753,77.308505 c 0,0.153616 0.128013,0.281629 0.281628,0.281629 l 0.384039,0 c 0.140814,0 0.281628,-0.128013 0.281628,-0.281629 l 0,-4.096412 c 0,0 0.460846,-0.755276 1.600161,-0.755276 0.281628,0 0.49925,0.10241 0.640064,0.166417 0.140815,0.06401 0.281629,0.05121 0.345635,-0.140814 l 0.166417,-0.460847 c 0.140814,-0.409641 -0.588859,-0.473648 -1.036904,-0.473648 -1.228924,0 -1.817783,0.755276 -1.817783,0.755276 l -0.102411,-0.422442 c -0.0384,-0.140814 -0.140814,-0.204821 -0.256025,-0.204821 l -0.204821,0 c -0.153615,0 -0.281628,0.140815 -0.281628,0.281629 l 0,5.350938 z" />
      <path
         id="path8099"
         style=""
         d="m 73.025992,74.633036 c 0,1.68977 1.075309,3.097912 2.867489,3.097912 1.024103,0 1.804982,-0.39684 2.163418,-0.678468 0.217622,-0.166417 0.166417,-0.230424 0.0512,-0.409642 l -0.153615,-0.217622 c -0.153616,-0.230423 -0.243225,-0.179218 -0.448046,-0.0384 -0.332833,0.217621 -0.819282,0.486449 -1.600161,0.486449 -1.075308,0 -1.907392,-1.036905 -1.932994,-2.022604 l 4.301233,0 c 0.128013,0 0.256026,-0.10241 0.268827,-0.256026 0.0128,-0.10241 0.0256,-0.256026 0.0256,-0.358436 0,-1.548956 -1.126513,-2.688271 -2.675469,-2.688271 -1.79218,0 -2.867489,1.420943 -2.867489,3.085111 z m 0.960097,-0.537654 c 0.115212,-0.921693 0.908892,-1.68977 1.907392,-1.68977 1.011302,0 1.702571,0.819282 1.728174,1.68977 l -3.635566,0 z" />
      <path
         id="path8101"
         style=""
         d="m 81.032398,77.244499 c 0,0 0.652866,0.486449 1.638565,0.486449 1.625764,0 2.790681,-1.369738 2.790681,-3.097912 0,-1.68977 -1.139315,-3.085111 -2.752277,-3.085111 -1.062507,0 -1.779379,0.601661 -1.779379,0.601661 l -0.08961,-0.281628 c -0.06401,-0.153616 -0.102411,-0.19202 -0.243225,-0.19202 l -0.217622,0 c -0.153615,0 -0.281628,0.140815 -0.281628,0.281629 l 0,8.397645 c 0,0.153615 0.128013,0.281628 0.281628,0.281628 l 0.371238,0 c 0.140814,0 0.281628,-0.128013 0.281628,-0.281628 l 0,-3.110713 z m 0,-0.883289 0,-3.238726 c 0,0 0.614462,-0.716872 1.561757,-0.716872 1.19052,0 1.907392,1.062507 1.907392,2.214623 0,1.29293 -0.832084,2.253027 -1.971398,2.253027 -0.819283,0 -1.497751,-0.512052 -1.497751,-0.512052 z" />
      <path
         id="path8103"
         style=""
         d="m 87.137611,77.308505 c 0,0.153616 0.128013,0.281629 0.281628,0.281629 l 0.384039,0 c 0.140814,0 0.281628,-0.128013 0.281628,-0.281629 l 0,-8.397645 c 0,-0.140814 -0.140814,-0.281628 -0.281628,-0.281628 l -0.384039,0 c -0.153615,0 -0.281628,0.140814 -0.281628,0.281628 l 0,8.397645 z" />
    </g>
    <path
       style="fill:#2cd4d9;fill-opacity:1"
       inkscape:connector-curvature="0"
       id="path7"
       d="m 100.87933,41.011919 -56.94754,0 c -5.276843,0 -9.590758,-4.294657 -9.590758,-9.590758 0,-5.276843 4.294657,-9.590758 9.590758,-9.590758 l 56.96679,0 c 1.42514,0 2.56139,-1.155513 2.56139,-2.561388 0,-1.425132 -1.15551,-2.561387 -2.56139,-2.561387 l -56.96679,0 c -8.10785,0 -14.713533,6.605683 -14.713533,14.713533 l 0,64.073199 c 0,8.10785 6.605683,14.71353 14.713533,14.71353 l 56.96679,0 c 1.42514,0 2.56139,-1.15551 2.56139,-2.56138 l 0,-64.073203 c -0.0193,-1.405875 -1.15551,-2.561388 -2.58064,-2.561388 z m -2.56139,64.073201 -54.38615,0 c -5.276843,0 -9.590758,-4.29466 -9.590758,-9.59076 l 0,-52.903239 c 2.580646,2.214733 5.931634,3.562831 9.590758,3.562831 l 54.38615,0 0,58.931168 0,0 z" />
  </g>
  <path
     d="m 44.74065,29.090876 c -1.425133,0 -2.561388,1.155513 -2.561388,2.561388 0,1.405874 1.155513,2.561387 2.561388,2.561387 l 48.10786,0 c 1.425133,0 2.561387,-1.155513 2.561387,-2.561387 0,-1.405875 -1.155513,-2.561388 -2.561387,-2.561388 l -48.10786,0 z"
     id="path9"
     inkscape:connector-curvature="0"
     style="fill:#5333ed;fill-opacity:1" />
</svg>
