<?xml version="1.0" encoding="UTF-8" standalone="no"?>
<!-- Created with Inkscape (http://www.inkscape.org/) -->

<svg
   xmlns:dc="http://purl.org/dc/elements/1.1/"
   xmlns:cc="http://creativecommons.org/ns#"
   xmlns:rdf="http://www.w3.org/1999/02/22-rdf-syntax-ns#"
   xmlns:svg="http://www.w3.org/2000/svg"
   xmlns="http://www.w3.org/2000/svg"
   xmlns:sodipodi="http://sodipodi.sourceforge.net/DTD/sodipodi-0.dtd"
   xmlns:inkscape="http://www.inkscape.org/namespaces/inkscape"
   width="283.38785mm"
   height="124.76482mm"
   viewBox="0 0 1004.1301 442.08005"
   id="svg2"
   version="1.1"
   inkscape:version="0.91 r13725"
   sodipodi:docname="eta-logo.svg">
  <defs
     id="defs4">
    <linearGradient
       id="783558c2-5088-44ab-8a03-29b84b614d0f"
       x1="2384.7109"
       y1="1641.2742"
       x2="1039.9078"
       y2="766.62933"
       gradientUnits="userSpaceOnUse"
       gradientTransform="scale(1.1134699,0.44526033)">
      <stop
         offset="0"
         stop-color="#150773"
         id="stop7" />
      <stop
         offset="0.51"
         stop-color="#5333ed"
         id="stop9" />
      <stop
         offset="1"
         stop-color="#2cd4d9"
         id="stop11" />
    </linearGradient>
  </defs>
  <sodipodi:namedview
     id="base"
     pagecolor="#ffffff"
     bordercolor="#666666"
     borderopacity="1.0"
     inkscape:pageopacity="0.0"
     inkscape:pageshadow="2"
     inkscape:zoom="0.35"
     inkscape:cx="420.71827"
     inkscape:cy="-28.007078"
     inkscape:document-units="px"
     inkscape:current-layer="layer1"
     showgrid="false"
     fit-margin-top="0"
     fit-margin-left="0"
     fit-margin-right="0"
     fit-margin-bottom="0"
     inkscape:window-width="1280"
     inkscape:window-height="751"
     inkscape:window-x="0"
     inkscape:window-y="1"
     inkscape:window-maximized="1" />
  <metadata
     id="metadata7">
    <rdf:RDF>
      <cc:Work
         rdf:about="">
        <dc:format>image/svg+xml</dc:format>
        <dc:type
           rdf:resource="http://purl.org/dc/dcmitype/StillImage" />
        <dc:title />
      </cc:Work>
    </rdf:RDF>
  </metadata>
  <g
     inkscape:label="Layer 1"
     inkscape:groupmode="layer"
     id="layer1"
     transform="translate(808.57541,-62.275083)">
    <g
       style="font-style:normal;font-variant:normal;font-weight:100;font-stretch:normal;font-size:720px;line-height:125%;font-family:Bauhaus;-inkscape-font-specification:'Bauhaus, Thin';text-align:start;letter-spacing:0px;word-spacing:0px;writing-mode:lr-tb;text-anchor:start;fill:#ffffff;fill-opacity:1;stroke:none;stroke-width:1px;stroke-linecap:butt;stroke-linejoin:miter;stroke-opacity:1"
       id="text8130">
      <path
         d="m -723.61541,334.43508 169.92,-96.48 q -1.44,-0.72 -2.88,-1.44 -1.44,-1.44 -2.88,-3.6 -1.44,-1.44 -3.6,-3.6 -1.44,-2.16 -3.6,-4.32 -2.16,-1.44 -5.04,-2.88 -2.16,-2.16 -4.32,-4.32 -2.88,-1.44 -5.76,-2.88 -2.88,-2.16 -6.48,-3.6 -7.2,-3.6 -17.28,-5.04 -9.36,-1.44 -21.6,-1.44 -28.08,0 -49.68,10.08 -20.88,10.08 -35.28,29.52 -14.4,19.44 -21.6,41.04 -7.2,21.6 -7.2,44.64 0,0.72 0,1.44 0,0 0,0 0,0 0,0 0,0 0,0 0,0.72 0,0.72 0,0 0,0 0,20.88 7.2,40.32 7.92,18.72 22.32,36 14.4,17.28 35.28,25.92 21.6,8.64 48.96,8.64 29.52,0 48.96,-6.48 20.16,-7.2 30.24,-20.88 10.08,-14.4 18,-33.84 8.64,-19.44 15.12,-43.92 0,0 0,0 0,0 0,-0.72 0,0 0,0 0,0 0,0 0,0 0,0 0,0 0.72,-0.72 0,0 0,0 0,-0.72 0,-0.72 l 62.64,3.6 q 0,1.44 0,2.88 0,0.72 0.72,1.44 0,1.44 0,2.16 0,0.72 0,2.16 0,0.72 0,2.16 0,0.72 0.72,1.44 0,1.44 0,2.16 0,0.72 0,1.44 0,5.76 -0.72,12.24 -0.72,5.76 -2.16,12.24 -0.72,2.88 -2.16,6.48 -0.72,3.6 -1.44,6.48 -1.44,3.6 -2.88,7.2 -0.72,2.88 -2.16,6.48 -8.64,18 -23.04,35.28 -14.4,17.28 -35.28,32.4 -20.16,15.12 -47.52,22.32 -26.64,7.92 -59.76,7.92 -38.16,0 -70.56,-11.52 -32.4,-12.24 -58.32,-36.72 -26.64,-25.2 -39.6,-56.16 -12.96,-31.68 -12.96,-69.84 0,-40.32 10.8,-71.28 10.8,-30.96 32.4,-53.28 21.6,-22.32 45.36,-36.72 23.76,-14.4 49.68,-20.88 2.88,-0.72 5.04,-0.72 2.88,-0.72 5.76,-1.44 2.88,0 5.04,0 2.88,-0.72 5.76,-1.44 5.76,-0.72 10.8,-0.72 5.76,-0.72 10.8,-0.72 29.52,0 54.72,8.64 25.92,7.92 47.52,24.48 20.88,16.56 37.44,36.72 17.28,20.16 30.24,43.2 l -238.32,128.88 -28.08,-50.4 0,0 0,0 z"
         style=""
         id="path8072" />
      <path
         d="m -378.30791,379.79508 0,-317.519997 67.68,0 0,84.959997 131.04,0 0,61.92 -131.04,0 0,175.68 q 0,10.08 1.44,18 1.44,7.92 4.32,15.12 2.88,7.2 12.24,10.8 10.08,2.88 27.36,2.88 l 79.92,-1.44 0,62.64 -84.96,0 q -0.72,0 -1.44,0 -0.72,0 -1.44,0 -0.72,0 -1.44,0 0,0 -0.72,0.72 -0.72,0 -1.44,0 -0.72,0 -1.44,0 -0.72,0 -1.44,0 0,0 -0.72,0 -24.48,0 -42.48,-7.2 -18,-7.2 -29.52,-22.32 -11.52,-15.12 -18,-32.4 -5.76,-17.28 -7.2,-36 -0.72,-1.44 -0.72,-2.88 0,-2.16 0,-4.32 0,-1.44 0,-2.88 0,-2.16 0,-4.32 l 0,-1.44 0,0 z"
         style=""
         id="path8074" />
      <path
         d="m 127.15459,492.83508 0,-198.72 q 0,-15.84 -6.48,-30.96 -5.76,-15.84 -18,-29.52 -12.239998,-14.4 -34.559998,-21.6 -22.32,-7.2 -54,-7.2 -5.0399997,0 -10.7999997,0.72 -5.04,0.72 -11.52,2.16 -6.4800003,0.72 -12.9600003,2.88 -6.48,2.16 -12.96,5.76 -11.52,5.04 -22.32,14.4 -10.8,8.64 -20.88,20.88 -9.36,11.52 -15.12,28.8 -5.76,16.56 -7.2,38.16 0,28.8 7.92,50.4 7.92,20.88 23.76,35.28 16.56,13.68 33.84,22.32 18,7.92 37.4400003,10.08 0.72,0 1.44,0 1.44,0 2.16,0 1.44,0.72 2.16,0.72 1.4399997,0 2.1599997,0 1.44,0 2.16,0 0.72,0 2.16,0 0.72,0 1.44,0 1.44,0 2.16,0 8.64,0 15.84,-0.72 7.92,-1.44 15.12,-4.32 3.6,-1.44 6.48,-2.88 3.6,-1.44 7.2,-2.88 2.88,-2.16 6.48,-4.32 3.6,-2.16 6.48,-5.04 3.6,-2.16 6.48,-5.04 3.6,-3.6 7.2,-6.48 3.6,-3.6 7.2,-6.48 3.599998,-3.6 7.199998,-7.2 l 0,78.48 q -0.72,1.44 -1.44,2.16 0,0 0,0 0,0 0,0 0,0 0,0 0,0.72 0,0.72 0,0 0,0 -8.639998,5.76 -17.999998,10.8 -9.36,4.32 -19.44,7.92 -10.08,2.88 -24.48,4.32 -14.4,2.16 -33.1199997,2.16 -0.72,0 -1.44,0 0,0 -0.72,0 -0.72,0 -1.44,0 -0.72,0 -0.72,0 -0.72,0 -1.44,0 -0.72,0 -1.44,0 -0.72000001,0 -1.44000001,0 0,0 -0.71999999,0 -33.1200003,0 -61.9200003,-11.52 -28.08,-12.24 -51.840002,-36.72 -23.76,-25.2 -36,-57.6 -11.52,-33.12 -11.52,-74.16 0,-36 11.52,-66.96 11.52,-30.96 34.56,-56.88 23.040002,-25.92 56.880002,-38.88 33.84,-12.96 78.48,-12.96 42.48,0 75.6,11.52 33.119998,11.52 55.439998,34.56 23.04,23.04 33.84,48.96 11.52,25.2 11.52,52.56 l 0,202.32 -68.4,0 0,0 0,0 z"
         style=""
         id="path8076" />
    </g>
  </g>
</svg>
