<?xml version="1.0" encoding="UTF-8" standalone="no"?>
<svg
   xmlns:dc="http://purl.org/dc/elements/1.1/"
   xmlns:cc="http://creativecommons.org/ns#"
   xmlns:rdf="http://www.w3.org/1999/02/22-rdf-syntax-ns#"
   xmlns:svg="http://www.w3.org/2000/svg"
   xmlns="http://www.w3.org/2000/svg"
   xmlns:xlink="http://www.w3.org/1999/xlink"
   xmlns:sodipodi="http://sodipodi.sourceforge.net/DTD/sodipodi-0.dtd"
   xmlns:inkscape="http://www.inkscape.org/namespaces/inkscape"
   width="1893.5"
   height="1792.0367"
   viewBox="0 0 1893.5 1792.0368"
   id="svg2"
   version="1.1"
   inkscape:version="0.91 r13725"
   sodipodi:docname="etlas-store.svg">
  <metadata
     id="metadata974">
    <rdf:RDF>
      <cc:Work
         rdf:about="">
        <dc:format>image/svg+xml</dc:format>
        <dc:type
           rdf:resource="http://purl.org/dc/dcmitype/StillImage" />
        <dc:title>contact-hero</dc:title>
      </cc:Work>
    </rdf:RDF>
  </metadata>
  <sodipodi:namedview
     pagecolor="#ffffff"
     bordercolor="#666666"
     borderopacity="1"
     objecttolerance="10"
     gridtolerance="10"
     guidetolerance="10"
     inkscape:pageopacity="0"
     inkscape:pageshadow="2"
     inkscape:window-width="1280"
     inkscape:window-height="755"
     id="namedview972"
     showgrid="false"
     inkscape:zoom="0.3"
     inkscape:cx="997.89876"
     inkscape:cy="895.95576"
     inkscape:window-x="0"
     inkscape:window-y="1"
     inkscape:window-maximized="1"
     inkscape:current-layer="svg2"
     fit-margin-top="0"
     fit-margin-left="0"
     fit-margin-right="0"
     fit-margin-bottom="0" />
  <defs
     id="defs4">
    <linearGradient
       id="783558c2-5088-44ab-8a03-29b84b614d0f"
       x1="2384.7109"
       y1="1641.2742"
       x2="1039.9078"
       y2="766.62933"
       gradientUnits="userSpaceOnUse"
       gradientTransform="matrix(1.3861638,0,0,1.9209929,-6.3720705e-7,-2.3315252e-5)">
      <stop
         offset="0"
         stop-color="#150773"
         id="stop7" />
      <stop
         offset="0.51"
         stop-color="#5333ed"
         id="stop9" />
      <stop
         offset="1"
         stop-color="#2cd4d9"
         id="stop11" />
    </linearGradient>
    <linearGradient
       id="4220868d-7a51-437f-b69f-6c001f7bfc7a"
       x1="805.34998"
       y1="523.52002"
       x2="983.20001"
       y2="523.52002"
       gradientUnits="userSpaceOnUse">
      <stop
         offset="0"
         stop-color="#2cd4d9"
         stop-opacity="0.3"
         id="stop14" />
      <stop
         offset="0"
         stop-color="#2cd4d9"
         stop-opacity="0.31"
         id="stop16" />
      <stop
         offset="0.25"
         stop-color="#2cd4d9"
         stop-opacity="0.57"
         id="stop18" />
      <stop
         offset="0.43"
         stop-color="#2cd4d9"
         stop-opacity="0.74"
         id="stop20" />
      <stop
         offset="0.53"
         stop-color="#2cd4d9"
         stop-opacity="0.8"
         id="stop22" />
      <stop
         offset="0.7"
         stop-color="#2cd4d9"
         stop-opacity="0.47"
         id="stop24" />
      <stop
         offset="0.84"
         stop-color="#2cd4d9"
         stop-opacity="0.22"
         id="stop26" />
      <stop
         offset="0.94"
         stop-color="#2cd4d9"
         stop-opacity="0.06"
         id="stop28" />
      <stop
         offset="1"
         stop-color="#2cd4d9"
         stop-opacity="0"
         id="stop30" />
    </linearGradient>
    <linearGradient
       id="a231ec7a-45bc-4c87-848e-0d939df91782"
       x1="729.75"
       y1="542.64001"
       x2="974.46002"
       y2="542.64001"
       gradientUnits="userSpaceOnUse">
      <stop
         offset="0"
         stop-color="#2cd4d9"
         stop-opacity="0"
         id="stop33" />
      <stop
         offset="0.17"
         stop-color="#2cd4d9"
         stop-opacity="0.3"
         id="stop35" />
      <stop
         offset="0.34"
         stop-color="#2cd4d9"
         stop-opacity="0.57"
         id="stop37" />
      <stop
         offset="0.47"
         stop-color="#2cd4d9"
         stop-opacity="0.74"
         id="stop39" />
      <stop
         offset="0.53"
         stop-color="#2cd4d9"
         stop-opacity="0.8"
         id="stop41" />
      <stop
         offset="0.7"
         stop-color="#2cd4d9"
         stop-opacity="0.47"
         id="stop43" />
      <stop
         offset="0.84"
         stop-color="#2cd4d9"
         stop-opacity="0.22"
         id="stop45" />
      <stop
         offset="0.94"
         stop-color="#2cd4d9"
         stop-opacity="0.06"
         id="stop47" />
      <stop
         offset="1"
         stop-color="#2cd4d9"
         stop-opacity="0"
         id="stop49" />
    </linearGradient>
    <linearGradient
       id="61fba8bd-3cee-4016-b1b8-1038075a15ac"
       x1="721.23999"
       y1="537.44"
       x2="965.95001"
       y2="537.44"
       gradientUnits="userSpaceOnUse">
      <stop
         offset="0"
         stop-color="#5333ed"
         stop-opacity="0"
         id="stop52" />
      <stop
         offset="0"
         stop-color="#5333ed"
         stop-opacity="0.01"
         id="stop54" />
      <stop
         offset="0.2"
         stop-color="#5333ed"
         stop-opacity="0.34"
         id="stop56" />
      <stop
         offset="0.35"
         stop-color="#5333ed"
         stop-opacity="0.59"
         id="stop58" />
      <stop
         offset="0.47"
         stop-color="#5333ed"
         stop-opacity="0.74"
         id="stop60" />
      <stop
         offset="0.53"
         stop-color="#5333ed"
         stop-opacity="0.8"
         id="stop62" />
      <stop
         offset="0.56"
         stop-color="#5333ed"
         stop-opacity="0.75"
         id="stop64" />
      <stop
         offset="0.72"
         stop-color="#5333ed"
         stop-opacity="0.43"
         id="stop66" />
      <stop
         offset="0.85"
         stop-color="#5333ed"
         stop-opacity="0.2"
         id="stop68" />
      <stop
         offset="0.95"
         stop-color="#5333ed"
         stop-opacity="0.05"
         id="stop70" />
      <stop
         offset="1"
         stop-color="#5333ed"
         stop-opacity="0"
         id="stop72" />
    </linearGradient>
    <linearGradient
       id="263df3b0-cd8c-4cd0-850a-8fb64671c4f3"
       x1="738.53998"
       y1="628.64001"
       x2="931.16998"
       y2="436.01001"
       xlink:href="#a231ec7a-45bc-4c87-848e-0d939df91782" />
    <linearGradient
       id="9ac0a8ff-985d-411b-b62e-f35a71463410"
       x1="2239.3999"
       y1="556.53003"
       x2="2484.1101"
       y2="556.53003"
       gradientTransform="matrix(-1,0,0,1,3510.81,-14.31)"
       xlink:href="#a231ec7a-45bc-4c87-848e-0d939df91782" />
    <linearGradient
       id="865d1a52-e988-431a-8fac-7b1139e28e7f"
       x1="2233.3799"
       y1="544.98999"
       x2="2466.3799"
       y2="544.98999"
       gradientTransform="matrix(-1,0,0,1,3510.81,-14.31)"
       xlink:href="#61fba8bd-3cee-4016-b1b8-1038075a15ac" />
    <linearGradient
       id="fd3c401a-b4f3-42c1-b515-ab5007c5166d"
       x1="1905.48"
       y1="55.470001"
       x2="2098.1001"
       y2="-137.14999"
       gradientTransform="matrix(-0.5,-0.87,0.87,-0.5,2204.11,2253.33)"
       gradientUnits="userSpaceOnUse">
      <stop
         offset="0"
         stop-color="#2cd4d9"
         stop-opacity="0.2"
         id="stop78" />
      <stop
         offset="0.08"
         stop-color="#2cd4d9"
         stop-opacity="0.31"
         id="stop80" />
      <stop
         offset="0.29"
         stop-color="#2cd4d9"
         stop-opacity="0.57"
         id="stop82" />
      <stop
         offset="0.45"
         stop-color="#2cd4d9"
         stop-opacity="0.74"
         id="stop84" />
      <stop
         offset="0.53"
         stop-color="#2cd4d9"
         stop-opacity="0.8"
         id="stop86" />
      <stop
         offset="0.62"
         stop-color="#2cd4d9"
         stop-opacity="0.67"
         id="stop88" />
      <stop
         offset="0.8"
         stop-color="#2cd4d9"
         stop-opacity="0.42"
         id="stop90" />
      <stop
         offset="0.93"
         stop-color="#2cd4d9"
         stop-opacity="0.26"
         id="stop92" />
      <stop
         offset="1"
         stop-color="#2cd4d9"
         stop-opacity="0.2"
         id="stop94" />
    </linearGradient>
    <linearGradient
       id="3e2edf01-68a6-4acd-bcdb-f4fea9b98074"
       x1="833.96997"
       y1="468.64999"
       x2="1171.64"
       y2="468.64999"
       gradientUnits="userSpaceOnUse">
      <stop
         offset="0"
         stop-color="#5333ed"
         stop-opacity="0"
         id="stop97" />
      <stop
         offset="0.06"
         stop-color="#5333ed"
         stop-opacity="0.23"
         id="stop99" />
      <stop
         offset="0.13"
         stop-color="#5333ed"
         stop-opacity="0.43"
         id="stop101" />
      <stop
         offset="0.19"
         stop-color="#5333ed"
         stop-opacity="0.61"
         id="stop103" />
      <stop
         offset="0.26"
         stop-color="#5333ed"
         stop-opacity="0.75"
         id="stop105" />
      <stop
         offset="0.33"
         stop-color="#5333ed"
         stop-opacity="0.86"
         id="stop107" />
      <stop
         offset="0.39"
         stop-color="#5333ed"
         stop-opacity="0.94"
         id="stop109" />
      <stop
         offset="0.47"
         stop-color="#5333ed"
         stop-opacity="0.98"
         id="stop111" />
      <stop
         offset="0.55"
         stop-color="#5333ed"
         id="stop113" />
      <stop
         offset="0.6"
         stop-color="#5333ed"
         stop-opacity="0.98"
         id="stop115" />
      <stop
         offset="0.66"
         stop-color="#5333ed"
         stop-opacity="0.93"
         id="stop117" />
      <stop
         offset="0.72"
         stop-color="#5333ed"
         stop-opacity="0.84"
         id="stop119" />
      <stop
         offset="0.78"
         stop-color="#5333ed"
         stop-opacity="0.72"
         id="stop121" />
      <stop
         offset="0.84"
         stop-color="#5333ed"
         stop-opacity="0.56"
         id="stop123" />
      <stop
         offset="0.9"
         stop-color="#5333ed"
         stop-opacity="0.37"
         id="stop125" />
      <stop
         offset="0.96"
         stop-color="#5333ed"
         stop-opacity="0.15"
         id="stop127" />
      <stop
         offset="1"
         stop-color="#5333ed"
         stop-opacity="0"
         id="stop129" />
    </linearGradient>
    <linearGradient
       id="4a4caeff-cb52-4958-aba9-41147a537e68"
       x1="833.96997"
       y1="468.64999"
       x2="1171.64"
       y2="468.64999"
       gradientUnits="userSpaceOnUse">
      <stop
         offset="0"
         stop-color="#5333ed"
         stop-opacity="0"
         id="stop132" />
      <stop
         offset="0.16"
         stop-color="#150773"
         stop-opacity="0.47"
         id="stop134" />
      <stop
         offset="0.34"
         stop-color="#5333ed"
         stop-opacity="0.47"
         id="stop136" />
      <stop
         offset="0.5"
         stop-color="#150773"
         stop-opacity="0.47"
         id="stop138" />
      <stop
         offset="0.69"
         stop-color="#5333ed"
         stop-opacity="0.47"
         id="stop140" />
      <stop
         offset="0.82"
         stop-color="#150773"
         stop-opacity="0.47"
         id="stop142" />
      <stop
         offset="1"
         stop-color="#5333ed"
         stop-opacity="0"
         id="stop144" />
    </linearGradient>
    <linearGradient
       id="1b998b28-d660-4d76-b82f-44bb8268feae"
       x1="1001.57"
       y1="478.95001"
       x2="1001.57"
       y2="699.91998"
       gradientUnits="userSpaceOnUse">
      <stop
         offset="0"
         stop-color="#dfe9f8"
         stop-opacity="0.6"
         id="stop147" />
      <stop
         offset="0.02"
         stop-color="#dfe9f8"
         stop-opacity="0.58"
         id="stop149" />
      <stop
         offset="0.18"
         stop-color="#dfe9f8"
         stop-opacity="0.4"
         id="stop151" />
      <stop
         offset="0.34"
         stop-color="#dfe9f8"
         stop-opacity="0.26"
         id="stop153" />
      <stop
         offset="0.51"
         stop-color="#dfe9f8"
         stop-opacity="0.14"
         id="stop155" />
      <stop
         offset="0.67"
         stop-color="#dfe9f8"
         stop-opacity="0.06"
         id="stop157" />
      <stop
         offset="0.83"
         stop-color="#dfe9f8"
         stop-opacity="0.02"
         id="stop159" />
      <stop
         offset="1"
         stop-color="#dfe9f8"
         stop-opacity="0"
         id="stop161" />
    </linearGradient>
    <linearGradient
       id="208889ed-5a7e-41de-ab35-39492d5e925a"
       x1="833.64001"
       y1="646.33002"
       x2="1171.61"
       y2="646.33002"
       gradientUnits="userSpaceOnUse">
      <stop
         offset="0"
         stop-color="#2cd4d9"
         stop-opacity="0"
         id="stop164" />
      <stop
         offset="0.01"
         stop-color="#2cd4d9"
         stop-opacity="0.08"
         id="stop166" />
      <stop
         offset="0.04"
         stop-color="#2cd4d9"
         stop-opacity="0.25"
         id="stop168" />
      <stop
         offset="0.07"
         stop-color="#2cd4d9"
         stop-opacity="0.4"
         id="stop170" />
      <stop
         offset="0.1"
         stop-color="#2cd4d9"
         stop-opacity="0.53"
         id="stop172" />
      <stop
         offset="0.14"
         stop-color="#2cd4d9"
         stop-opacity="0.63"
         id="stop174" />
      <stop
         offset="0.19"
         stop-color="#2cd4d9"
         stop-opacity="0.71"
         id="stop176" />
      <stop
         offset="0.24"
         stop-color="#2cd4d9"
         stop-opacity="0.76"
         id="stop178" />
      <stop
         offset="0.32"
         stop-color="#2cd4d9"
         stop-opacity="0.79"
         id="stop180" />
      <stop
         offset="0.53"
         stop-color="#2cd4d9"
         stop-opacity="0.8"
         id="stop182" />
      <stop
         offset="0.6"
         stop-color="#2cd4d9"
         stop-opacity="0.78"
         id="stop184" />
      <stop
         offset="0.67"
         stop-color="#2cd4d9"
         stop-opacity="0.72"
         id="stop186" />
      <stop
         offset="0.74"
         stop-color="#2cd4d9"
         stop-opacity="0.62"
         id="stop188" />
      <stop
         offset="0.82"
         stop-color="#2cd4d9"
         stop-opacity="0.48"
         id="stop190" />
      <stop
         offset="0.89"
         stop-color="#2cd4d9"
         stop-opacity="0.31"
         id="stop192" />
      <stop
         offset="0.97"
         stop-color="#2cd4d9"
         stop-opacity="0.09"
         id="stop194" />
      <stop
         offset="1"
         stop-color="#2cd4d9"
         stop-opacity="0"
         id="stop196" />
    </linearGradient>
    <linearGradient
       id="9f8f9579-f05d-4e5a-a990-672db1ca4b78"
       x1="864.23999"
       y1="648.71002"
       x2="1141.33"
       y2="648.71002"
       gradientUnits="userSpaceOnUse">
      <stop
         offset="0"
         stop-color="#2cd4d9"
         stop-opacity="0"
         id="stop199" />
      <stop
         offset="0.01"
         stop-color="#2cd4d9"
         stop-opacity="0.03"
         id="stop201" />
      <stop
         offset="0.06"
         stop-color="#2cd4d9"
         stop-opacity="0.13"
         id="stop203" />
      <stop
         offset="0.11"
         stop-color="#2cd4d9"
         stop-opacity="0.21"
         id="stop205" />
      <stop
         offset="0.18"
         stop-color="#2cd4d9"
         stop-opacity="0.26"
         id="stop207" />
      <stop
         offset="0.27"
         stop-color="#2cd4d9"
         stop-opacity="0.29"
         id="stop209" />
      <stop
         offset="0.54"
         stop-color="#2cd4d9"
         stop-opacity="0.3"
         id="stop211" />
      <stop
         offset="0.65"
         stop-color="#2cd4d9"
         stop-opacity="0.28"
         id="stop213" />
      <stop
         offset="0.77"
         stop-color="#2cd4d9"
         stop-opacity="0.22"
         id="stop215" />
      <stop
         offset="0.89"
         stop-color="#2cd4d9"
         stop-opacity="0.12"
         id="stop217" />
      <stop
         offset="1"
         stop-color="#2cd4d9"
         stop-opacity="0"
         id="stop219" />
    </linearGradient>
    <linearGradient
       id="4f16aaff-69f4-423e-aba0-c5dbd7b371bd"
       x1="788.87"
       y1="495.60001"
       x2="1287.99"
       y2="495.60001"
       gradientUnits="userSpaceOnUse">
      <stop
         offset="0"
         stop-color="#5333ed"
         stop-opacity="0"
         id="stop222" />
      <stop
         offset="0.02"
         stop-color="#5333ed"
         stop-opacity="0.11"
         id="stop224" />
      <stop
         offset="0.08"
         stop-color="#5333ed"
         stop-opacity="0.32"
         id="stop226" />
      <stop
         offset="0.13"
         stop-color="#5333ed"
         stop-opacity="0.5"
         id="stop228" />
      <stop
         offset="0.18"
         stop-color="#5333ed"
         stop-opacity="0.66"
         id="stop230" />
      <stop
         offset="0.24"
         stop-color="#5333ed"
         stop-opacity="0.78"
         id="stop232" />
      <stop
         offset="0.3"
         stop-color="#5333ed"
         stop-opacity="0.88"
         id="stop234" />
      <stop
         offset="0.37"
         stop-color="#5333ed"
         stop-opacity="0.95"
         id="stop236" />
      <stop
         offset="0.44"
         stop-color="#5333ed"
         stop-opacity="0.99"
         id="stop238" />
      <stop
         offset="0.54"
         stop-color="#5333ed"
         id="stop240" />
      <stop
         offset="0.58"
         stop-color="#5333ed"
         stop-opacity="0.97"
         id="stop242" />
      <stop
         offset="0.64"
         stop-color="#5333ed"
         stop-opacity="0.88"
         id="stop244" />
      <stop
         offset="0.72"
         stop-color="#5333ed"
         stop-opacity="0.73"
         id="stop246" />
      <stop
         offset="0.81"
         stop-color="#5333ed"
         stop-opacity="0.52"
         id="stop248" />
      <stop
         offset="0.91"
         stop-color="#5333ed"
         stop-opacity="0.27"
         id="stop250" />
      <stop
         offset="1"
         stop-color="#5333ed"
         stop-opacity="0"
         id="stop252" />
    </linearGradient>
    <linearGradient
       id="0a608e25-636c-4d7b-824b-6c0bc83db7f5"
       x1="717.56"
       y1="482.14999"
       x2="1208.96"
       y2="482.14999"
       gradientUnits="userSpaceOnUse">
      <stop
         offset="0"
         stop-color="#5333ed"
         stop-opacity="0"
         id="stop255" />
      <stop
         offset="0.01"
         stop-color="#5333ed"
         stop-opacity="0.07"
         id="stop257" />
      <stop
         offset="0.04"
         stop-color="#5333ed"
         stop-opacity="0.26"
         id="stop259" />
      <stop
         offset="0.08"
         stop-color="#5333ed"
         stop-opacity="0.44"
         id="stop261" />
      <stop
         offset="0.11"
         stop-color="#5333ed"
         stop-opacity="0.59"
         id="stop263" />
      <stop
         offset="0.15"
         stop-color="#5333ed"
         stop-opacity="0.72"
         id="stop265" />
      <stop
         offset="0.2"
         stop-color="#5333ed"
         stop-opacity="0.82"
         id="stop267" />
      <stop
         offset="0.24"
         stop-color="#5333ed"
         stop-opacity="0.9"
         id="stop269" />
      <stop
         offset="0.3"
         stop-color="#5333ed"
         stop-opacity="0.96"
         id="stop271" />
      <stop
         offset="0.37"
         stop-color="#5333ed"
         stop-opacity="0.99"
         id="stop273" />
      <stop
         offset="0.51"
         stop-color="#5333ed"
         id="stop275" />
      <stop
         offset="0.62"
         stop-color="#5333ed"
         stop-opacity="0.99"
         id="stop277" />
      <stop
         offset="0.68"
         stop-color="#5333ed"
         stop-opacity="0.95"
         id="stop279" />
      <stop
         offset="0.74"
         stop-color="#5333ed"
         stop-opacity="0.89"
         id="stop281" />
      <stop
         offset="0.79"
         stop-color="#5333ed"
         stop-opacity="0.8"
         id="stop283" />
      <stop
         offset="0.84"
         stop-color="#5333ed"
         stop-opacity="0.68"
         id="stop285" />
      <stop
         offset="0.88"
         stop-color="#5333ed"
         stop-opacity="0.54"
         id="stop287" />
      <stop
         offset="0.93"
         stop-color="#5333ed"
         stop-opacity="0.37"
         id="stop289" />
      <stop
         offset="0.97"
         stop-color="#5333ed"
         stop-opacity="0.19"
         id="stop291" />
      <stop
         offset="1"
         stop-color="#5333ed"
         stop-opacity="0"
         id="stop293" />
    </linearGradient>
    <linearGradient
       id="59c4c127-634a-4d5b-b74d-e2c1fffc4fb8"
       x1="907.59003"
       y1="222.7"
       x2="961.35999"
       y2="423.20999"
       gradientUnits="userSpaceOnUse">
      <stop
         offset="0"
         stop-color="#150773"
         stop-opacity="0"
         id="stop296" />
      <stop
         offset="0.53"
         stop-color="#5333ed"
         stop-opacity="0.47"
         id="stop298" />
      <stop
         offset="1"
         stop-color="#2cd4d9"
         id="stop300" />
    </linearGradient>
    <linearGradient
       id="3efda09b-0dc4-4c11-a977-8ff6b49cfcc2"
       x1="896.90002"
       y1="245.10001"
       x2="949.71997"
       y2="433.75"
       xlink:href="#59c4c127-634a-4d5b-b74d-e2c1fffc4fb8" />
    <linearGradient
       id="18e225f8-424e-46e5-9883-26b56dd3db56"
       x1="882.01001"
       y1="237.48"
       x2="935.78998"
       y2="437.98999"
       xlink:href="#59c4c127-634a-4d5b-b74d-e2c1fffc4fb8" />
    <linearGradient
       id="68f261a3-d456-45b5-bb9a-8f47f1180d64"
       x1="871.32001"
       y1="259.88"
       x2="924.15002"
       y2="448.53"
       xlink:href="#59c4c127-634a-4d5b-b74d-e2c1fffc4fb8" />
    <linearGradient
       id="7f1991cc-6930-4e40-9742-2bad76c9d902"
       x1="856.20001"
       y1="252.5"
       x2="909.96997"
       y2="453.01001"
       xlink:href="#59c4c127-634a-4d5b-b74d-e2c1fffc4fb8" />
    <linearGradient
       id="69a4dc55-cf52-423c-a1f9-c1d60e56dd0c"
       x1="845.51001"
       y1="274.89999"
       x2="898.33002"
       y2="463.54999"
       xlink:href="#59c4c127-634a-4d5b-b74d-e2c1fffc4fb8" />
    <linearGradient
       id="e1005f26-489d-4565-9123-da026088fcc0"
       x1="832.57001"
       y1="282.28"
       x2="885.39001"
       y2="470.92999"
       xlink:href="#59c4c127-634a-4d5b-b74d-e2c1fffc4fb8" />
    <linearGradient
       id="dc8ab3e3-f835-4319-aed5-596f3ebcdb64"
       x1="817.69"
       y1="274.66"
       x2="871.46002"
       y2="475.17001"
       xlink:href="#59c4c127-634a-4d5b-b74d-e2c1fffc4fb8" />
    <linearGradient
       id="80d86309-cc35-4697-9cee-c5541fb9aff9"
       x1="807"
       y1="297.06"
       x2="859.82001"
       y2="485.70999"
       xlink:href="#59c4c127-634a-4d5b-b74d-e2c1fffc4fb8" />
    <linearGradient
       id="b783d45a-a8f0-4cd8-9c3d-dfe912e41c41"
       x1="1942.8"
       y1="222.63"
       x2="1996.5699"
       y2="423.14001"
       gradientTransform="matrix(-1,0,0,1,3036.78,0)"
       xlink:href="#59c4c127-634a-4d5b-b74d-e2c1fffc4fb8" />
    <linearGradient
       id="17f9fe53-da38-4664-84d4-96cadbd04698"
       x1="1932.11"
       y1="245.03"
       x2="1984.9399"
       y2="433.67999"
       gradientTransform="matrix(-1,0,0,1,3036.78,0)"
       xlink:href="#59c4c127-634a-4d5b-b74d-e2c1fffc4fb8" />
    <linearGradient
       id="b57249e9-b6d8-457b-a8dc-9515062bc26a"
       x1="1917.23"
       y1="237.41"
       x2="1971"
       y2="437.92001"
       gradientTransform="matrix(-1,0,0,1,3036.78,0)"
       xlink:href="#59c4c127-634a-4d5b-b74d-e2c1fffc4fb8" />
    <linearGradient
       id="a43accdf-db9f-4f90-a8e3-3e971b4ea536"
       x1="1906.54"
       y1="259.81"
       x2="1959.36"
       y2="448.45999"
       gradientTransform="matrix(-1,0,0,1,3036.78,0)"
       xlink:href="#59c4c127-634a-4d5b-b74d-e2c1fffc4fb8" />
    <linearGradient
       id="12690011-a8c8-4b8d-a1e8-0da115479eaa"
       x1="1891.42"
       y1="252.42999"
       x2="1945.1899"
       y2="452.94"
       gradientTransform="matrix(-1,0,0,1,3036.78,0)"
       xlink:href="#59c4c127-634a-4d5b-b74d-e2c1fffc4fb8" />
    <linearGradient
       id="c6f5fe0d-b10e-4bda-83ee-931c338849f8"
       x1="1880.73"
       y1="274.82999"
       x2="1933.55"
       y2="463.47"
       gradientTransform="matrix(-1,0,0,1,3036.78,0)"
       xlink:href="#59c4c127-634a-4d5b-b74d-e2c1fffc4fb8" />
    <linearGradient
       id="942daa1b-d352-4c54-82ae-9acfd23430d8"
       x1="1867.79"
       y1="282.20999"
       x2="1920.61"
       y2="470.85999"
       gradientTransform="matrix(-1,0,0,1,3036.78,0)"
       xlink:href="#59c4c127-634a-4d5b-b74d-e2c1fffc4fb8" />
    <linearGradient
       id="581a4553-84a2-410d-8ff8-d1cfb4022ec7"
       x1="1852.9"
       y1="274.59"
       x2="1906.67"
       y2="475.10001"
       gradientTransform="matrix(-1,0,0,1,3036.78,0)"
       xlink:href="#59c4c127-634a-4d5b-b74d-e2c1fffc4fb8" />
    <linearGradient
       id="6e5fce43-86d4-440d-8a15-c0a6d9c698bc"
       x1="1842.21"
       y1="296.98999"
       x2="1895.04"
       y2="485.64001"
       gradientTransform="matrix(-1,0,0,1,3036.78,0)"
       xlink:href="#59c4c127-634a-4d5b-b74d-e2c1fffc4fb8" />
    <linearGradient
       id="237f02ce-de26-44d9-9864-ceeef917c3e5"
       x1="788.87"
       y1="495.60001"
       x2="1287.99"
       y2="495.60001"
       gradientUnits="userSpaceOnUse">
      <stop
         offset="0"
         stop-color="#5333ed"
         stop-opacity="0"
         id="stop320" />
      <stop
         offset="0.17"
         stop-color="#150773"
         stop-opacity="0.47"
         id="stop322" />
      <stop
         offset="0.28"
         stop-color="#5333ed"
         stop-opacity="0.47"
         id="stop324" />
      <stop
         offset="0.41"
         stop-color="#150773"
         stop-opacity="0.47"
         id="stop326" />
      <stop
         offset="0.51"
         stop-color="#5333ed"
         stop-opacity="0.47"
         id="stop328" />
      <stop
         offset="0.62"
         stop-color="#150773"
         stop-opacity="0.47"
         id="stop330" />
      <stop
         offset="0.76"
         stop-color="#5333ed"
         stop-opacity="0.47"
         id="stop332" />
      <stop
         offset="0.89"
         stop-color="#150773"
         stop-opacity="0.3"
         id="stop334" />
      <stop
         offset="1"
         stop-color="#5333ed"
         stop-opacity="0"
         id="stop336" />
    </linearGradient>
    <linearGradient
       id="e9006b66-3da2-4c8d-bf94-37deb63643ad"
       x1="717.56"
       y1="482.14999"
       x2="1208.96"
       y2="482.14999"
       gradientUnits="userSpaceOnUse">
      <stop
         offset="0"
         stop-color="#5333ed"
         stop-opacity="0"
         id="stop339" />
      <stop
         offset="0.11"
         stop-color="#150773"
         stop-opacity="0.2"
         id="stop341" />
      <stop
         offset="0.24"
         stop-color="#5333ed"
         stop-opacity="0.3"
         id="stop343" />
      <stop
         offset="0.35"
         stop-color="#150773"
         stop-opacity="0.47"
         id="stop345" />
      <stop
         offset="0.51"
         stop-color="#5333ed"
         stop-opacity="0.47"
         id="stop347" />
      <stop
         offset="0.59"
         stop-color="#150773"
         stop-opacity="0.47"
         id="stop349" />
      <stop
         offset="0.76"
         stop-color="#5333ed"
         stop-opacity="0.47"
         id="stop351" />
      <stop
         offset="0.83"
         stop-color="#150773"
         stop-opacity="0.3"
         id="stop353" />
      <stop
         offset="1"
         stop-color="#5333ed"
         stop-opacity="0"
         id="stop355" />
    </linearGradient>
    <linearGradient
       id="1c9b9277-a6b5-43be-8e6e-c1909f0e176b"
       x1="1003.57"
       y1="444.48999"
       x2="1005.92"
       y2="444.48999"
       gradientUnits="userSpaceOnUse">
      <stop
         offset="0"
         stop-color="#5333ed"
         id="stop358" />
      <stop
         offset="1"
         stop-color="#2cd4d9"
         id="stop360" />
    </linearGradient>
    <linearGradient
       id="9604a38f-27c0-4ddc-9f4a-effc76bd07b0"
       x1="1001.07"
       y1="445.95001"
       x2="1004.67"
       y2="445.95001"
       xlink:href="#1c9b9277-a6b5-43be-8e6e-c1909f0e176b" />
    <linearGradient
       id="4c9b3da3-2a3a-4674-b259-37e02c1a5852"
       x1="917.98999"
       y1="554.76001"
       x2="917.08002"
       y2="489.26001"
       gradientUnits="userSpaceOnUse">
      <stop
         offset="0"
         stop-color="#5333ed"
         id="stop364" />
      <stop
         offset="0.05"
         stop-color="#5f43ee"
         id="stop366" />
      <stop
         offset="0.22"
         stop-color="#8675f1"
         id="stop368" />
      <stop
         offset="0.4"
         stop-color="#a69ff4"
         id="stop370" />
      <stop
         offset="0.56"
         stop-color="#bfbff5"
         id="stop372" />
      <stop
         offset="0.72"
         stop-color="#d1d6f7"
         id="stop374" />
      <stop
         offset="0.87"
         stop-color="#dbe4f8"
         id="stop376" />
      <stop
         offset="1"
         stop-color="#dfe9f8"
         id="stop378" />
    </linearGradient>
    <linearGradient
       id="0c50a2c4-c458-45a2-a37c-25eacf9be61c"
       x1="1046.13"
       y1="477.42001"
       x2="1084.6"
       y2="477.42001"
       gradientUnits="userSpaceOnUse">
      <stop
         offset="0"
         stop-color="#dfe9f8"
         id="stop381" />
      <stop
         offset="1"
         stop-color="#dfe9f8"
         stop-opacity="0"
         id="stop383" />
    </linearGradient>
    <linearGradient
       id="697ac31a-cbf3-4ac8-8b0b-9b9e11db0d6e"
       x1="2456.8701"
       y1="475.67001"
       x2="2512.9399"
       y2="475.67001"
       gradientTransform="matrix(-1,0,0,1,3442.56,0)"
       xlink:href="#0c50a2c4-c458-45a2-a37c-25eacf9be61c" />
  </defs>
  <title
     id="title386">contact-hero</title>
  <g
     id="g8608">
    <rect
       y="-4.1071232e-13"
       x="0"
       id="rect391"
       style="isolation:isolate;fill:url(#783558c2-5088-44ab-8a03-29b84b614d0f)"
       height="1792.0367"
       width="1893.5" />
    <g
       id="text8352"
       style="font-style:normal;font-variant:normal;font-weight:normal;font-stretch:normal;font-size:90px;line-height:125%;font-family:'Brandon Text';-inkscape-font-specification:'Brandon Text, Normal';text-align:start;letter-spacing:0px;word-spacing:0px;writing-mode:lr-tb;text-anchor:start;fill:#ffffff;fill-opacity:1;stroke:none;stroke-width:1px;stroke-linecap:butt;stroke-linejoin:miter;stroke-opacity:1">
      <path
         id="path8588"
         style=""
         d="m 743.75499,224.57012 c 0,0.9 0.72,1.71 1.71,1.71 l 35.46,0 c 0.99,0 1.71,-0.81 1.71,-1.71 l 0,-2.61 c 0,-0.9 -0.72,-1.71 -1.71,-1.71 l -30.24,0 0,-22.95 25.83,0 c 0.9,0 1.71,-0.72 1.71,-1.71 l 0,-2.61 c 0,-0.9 -0.81,-1.71 -1.71,-1.71 l -25.83,0 0,-21.96 30.24,0 c 0.99,0 1.71,-0.81 1.71,-1.71 l 0,-2.61 c 0,-0.9 -0.72,-1.71 -1.71,-1.71 l -35.46,0 c -0.99,0 -1.71,0.81 -1.71,1.71 l 0,59.58 z" />
      <path
         id="path8590"
         style=""
         d="m 795.63577,190.46012 0,25.29 c 0,6.48 1.62,11.52 9.54,11.52 5.58,0 9.9,-2.07 11.7,-3.33 1.08,-0.72 1.26,-1.35 0.72,-2.7 l -0.81,-1.89 c -0.45,-0.99 -0.99,-1.8 -2.61,-0.81 -1.71,1.08 -4.32,2.7 -8.19,2.7 -2.34,0 -3.69,-1.62 -3.69,-5.94 l 0,-24.84 12.24,0 c 1.17,0 2.07,-0.9 2.07,-1.98 l 0,-1.8 c 0,-1.17 -0.9,-1.98 -2.07,-1.98 l -12.24,0 0,-11.7 c 0,-1.08 -0.81,-2.07 -1.89,-1.98 l -2.79,0.18 c -0.99,0.09 -1.98,0.9 -1.98,1.98 l 0,11.52 -5.49,0 c -1.26,0 -2.07,0.81 -2.07,1.98 l 0,1.8 c 0,1.08 0.81,1.98 2.07,1.98 l 5.49,0 z" />
      <path
         id="path8592"
         style=""
         d="m 827.31155,224.30012 c 0,1.08 0.9,1.98 1.98,1.98 l 2.7,0 c 0.99,0 1.98,-0.9 1.98,-1.98 l 0,-59.04 c 0,-0.99 -0.99,-1.98 -1.98,-1.98 l -2.7,0 c -1.08,0 -1.98,0.99 -1.98,1.98 l 0,59.04 z" />
      <path
         id="path8594"
         style=""
         d="m 845.06687,213.68012 c 0,8.37 5.58,13.59 12.87,13.59 6.39,0 10.71,-3.15 12.87,-5.31 l 0.81,2.79 c 0.27,0.9 0.63,1.53 1.71,1.53 l 1.71,0 c 1.08,0 1.98,-0.9 1.98,-1.98 l 0,-23.04 c 0,-12.24 -2.25,-17.46 -12.87,-17.46 -6.84,0 -12.24,1.8 -14.31,2.7 -0.99,0.45 -1.62,0.99 -1.26,2.25 l 0.9,2.43 c 0.36,0.99 0.9,1.53 1.98,1.08 1.89,-0.63 6.66,-2.43 12.33,-2.43 5.94,0 6.93,3.78 6.84,11.43 0,0 -4.5,-1.35 -8.91,-1.35 -10.71,0 -16.65,5.85 -16.65,13.77 z m 6.57,0 c 0,-5.31 4.32,-8.1 10.08,-8.1 4.14,0 7.47,0.9 8.82,1.62 l 0,8.46 c -1.8,2.7 -6.3,5.58 -11.43,5.58 -4.59,0 -7.47,-3.33 -7.47,-7.56 z" />
      <path
         id="path8596"
         style=""
         d="m 902.28015,227.27012 c 8.46,0 14.13,-5.31 14.13,-11.88 0,-7.56 -6.21,-10.26 -13.41,-13.59 -5.04,-2.34 -7.92,-3.69 -7.92,-7.38 0,-1.98 1.53,-4.59 6.12,-4.59 3.87,0 6.75,1.35 8.55,2.43 0.9,0.54 2.25,0.45 2.88,-0.72 l 0.9,-1.71 c 0.63,-1.17 0.45,-2.07 -0.45,-2.79 -1.98,-1.44 -6.48,-3.24 -11.88,-3.24 -9.63,0 -12.87,6.57 -12.87,10.89 0,7.11 6.3,10.08 11.79,12.78 6.03,2.97 9.27,4.59 9.27,8.55 0,3.24 -2.88,5.22 -7.11,5.22 -5.31,0 -8.91,-2.61 -10.35,-3.69 -1.17,-0.81 -1.89,-0.45 -2.43,0.54 l -1.26,2.34 c -0.36,0.72 -0.18,1.35 0.27,1.8 2.16,1.98 6.84,5.04 13.77,5.04 z" />
      <path
         id="path8598"
         style=""
         d="m 947.67952,219.89012 c 1.17,1.08 8.37,7.29 18.99,7.29 10.53,0 19.44,-7.2 19.44,-16.56 0,-10.44 -7.83,-15.03 -19.98,-19.98 -7.56,-3.15 -12.15,-5.94 -12.15,-12.33 0,-3.78 2.88,-9.9 12.42,-9.9 5.04,0 8.19,1.35 11.97,3.6 1.44,0.81 2.43,0.81 3.15,-0.45 l 0.9,-1.53 c 0.99,-1.71 0,-2.79 -0.54,-3.06 0,0 -6.57,-4.59 -15.39,-4.59 -14.31,0 -19.17,9.9 -19.17,16.02 0,10.26 5.94,14.04 15.84,18.27 10.35,4.41 15.75,8.01 15.75,14.22 0,5.67 -4.77,10.26 -12.06,10.26 -8.01,0 -14.85,-6.03 -15.48,-6.57 -1.26,-1.08 -1.98,-0.63 -2.88,0.54 l -1.35,1.71 c -1.26,1.62 -0.18,2.43 0.54,3.06 z" />
      <path
         id="path8600"
         style=""
         d="m 998.48733,190.46012 0,25.29 c 0,6.48 1.61997,11.52 9.53997,11.52 5.58,0 9.9,-2.07 11.7,-3.33 1.08,-0.72 1.26,-1.35 0.72,-2.7 l -0.81,-1.89 c -0.45,-0.99 -0.99,-1.8 -2.61,-0.81 -1.71,1.08 -4.32,2.7 -8.19,2.7 -2.34,0 -3.69,-1.62 -3.69,-5.94 l 0,-24.84 12.24,0 c 1.17,0 2.07,-0.9 2.07,-1.98 l 0,-1.8 c 0,-1.17 -0.9,-1.98 -2.07,-1.98 l -12.24,0 0,-11.7 c 0,-1.08 -0.81,-2.07 -1.89,-1.98 l -2.79,0.18 c -0.98997,0.09 -1.97997,0.9 -1.97997,1.98 l 0,11.52 -5.49,0 c -1.26,0 -2.07,0.81 -2.07,1.98 l 0,1.8 c 0,1.08 0.81,1.98 2.07,1.98 l 5.49,0 z" />
      <path
         id="path8602"
         style=""
         d="m 1027.0131,205.40012 c 0,11.88 9.36,21.87 20.88,21.87 11.52,0 20.88,-9.99 20.88,-21.87 0,-11.7 -9.36,-21.6 -20.88,-21.6 -11.52,0 -20.88,9.9 -20.88,21.6 z m 6.57,0 c 0,-8.46 6.12,-15.57 14.31,-15.57 8.19,0 14.22,7.11 14.22,15.57 0,8.64 -6.03,15.84 -14.22,15.84 -8.19,0 -14.31,-7.2 -14.31,-15.84 z" />
      <path
         id="path8604"
         style=""
         d="m 1080.1623,224.30012 c 0,1.08 0.9,1.98 1.98,1.98 l 2.7,0 c 0.99,0 1.98,-0.9 1.98,-1.98 l 0,-28.8 c 0,0 3.24,-5.31 11.25,-5.31 1.98,0 3.51,0.72 4.5,1.17 0.99,0.45 1.98,0.36 2.43,-0.99 l 1.17,-3.24 c 0.99,-2.88 -4.14,-3.33 -7.29,-3.33 -8.64,0 -12.78,5.31 -12.78,5.31 l -0.72,-2.97 c -0.27,-0.99 -0.99,-1.44 -1.8,-1.44 l -1.44,0 c -1.08,0 -1.98,0.99 -1.98,1.98 l 0,37.62 z" />
      <path
         id="path8606"
         style=""
         d="m 1110.775,205.49012 c 0,11.88 7.56,21.78 20.16,21.78 7.2,0 12.69,-2.79 15.21,-4.77 1.53,-1.17 1.17,-1.62 0.36,-2.88 l -1.08,-1.53 c -1.08,-1.62 -1.71,-1.26 -3.15,-0.27 -2.34,1.53 -5.76,3.42 -11.25,3.42 -7.56,0 -13.41,-7.29 -13.59,-14.22 l 30.24,0 c 0.9,0 1.8,-0.72 1.89,-1.8 0.09,-0.72 0.18,-1.8 0.18,-2.52 0,-10.89 -7.92,-18.9 -18.81,-18.9 -12.6,0 -20.16,9.99 -20.16,21.69 z m 6.75,-3.78 c 0.81,-6.48 6.39,-11.88 13.41,-11.88 7.11,0 11.97,5.76 12.15,11.88 l -25.56,0 z" />
    </g>
    <rect
       ry="71.607109"
       y="400.4776"
       x="101.7688"
       height="1151.8949"
       width="1689.9624"
       id="rect8434"
       style="opacity:1;fill:none;fill-opacity:1;fill-rule:nonzero;stroke:#5333ed;stroke-width:4.16783333;stroke-linecap:round;stroke-linejoin:round;stroke-miterlimit:4;stroke-dasharray:none;stroke-dashoffset:40;stroke-opacity:1" />
    <rect
       style="opacity:1;fill:none;fill-opacity:1;fill-rule:nonzero;stroke:#5333ed;stroke-width:1.7411741;stroke-linecap:round;stroke-linejoin:round;stroke-miterlimit:4;stroke-dasharray:none;stroke-dashoffset:40;stroke-opacity:1"
       id="rect8536"
       width="588.7594"
       height="249.32239"
       x="247.37024"
       y="496.76382"
       ry="15.499042" />
    <g
       id="text8538"
       style="font-style:normal;font-variant:normal;font-weight:normal;font-stretch:normal;font-size:43.75px;line-height:125%;font-family:'Brandon Text';-inkscape-font-specification:'Brandon Text, Normal';text-align:start;letter-spacing:0px;word-spacing:0px;writing-mode:lr-tb;text-anchor:start;fill:#ffffff;fill-opacity:1;stroke:none;stroke-width:1px;stroke-linecap:butt;stroke-linejoin:miter;stroke-opacity:1">
      <path
         id="path8541"
         style=""
         d="m 346.22615,636.67189 c 0.0875,0.2625 0.39375,0.525 0.83125,0.525 l 0.2625,0 c 0.48125,0 0.74375,-0.2625 0.83125,-0.525 l 8.70625,-19.03125 c 0.2625,-0.6125 0,-1.1375 -0.7875,-1.1375 l -1.4,0 c -0.35,0 -0.65625,0.21875 -0.7875,0.56875 l -6.65,14.875 -0.0875,0 -6.25625,-14.875 c -0.13125,-0.35 -0.4375,-0.56875 -0.91875,-0.56875 l -1.53125,0 c -0.74375,0 -1.05,0.525 -0.74375,1.1375 l 8.53125,19.03125 z" />
      <path
         id="path8543"
         style=""
         d="m 359.63621,626.60939 c 0,5.775 3.675,10.5875 9.8,10.5875 3.5,0 6.16875,-1.35625 7.39375,-2.31875 0.74375,-0.56875 0.56875,-0.7875 0.175,-1.4 l -0.525,-0.74375 c -0.525,-0.7875 -0.83125,-0.6125 -1.53125,-0.13125 -1.1375,0.74375 -2.8,1.6625 -5.46875,1.6625 -3.675,0 -6.51875,-3.54375 -6.60625,-6.9125 l 14.7,0 c 0.4375,0 0.875,-0.35 0.91875,-0.875 0.0437,-0.35 0.0875,-0.875 0.0875,-1.225 0,-5.29375 -3.85,-9.1875 -9.14375,-9.1875 -6.125,0 -9.8,4.85625 -9.8,10.54375 z m 3.28125,-1.8375 c 0.39375,-3.15 3.10625,-5.775 6.51875,-5.775 3.45625,0 5.81875,2.8 5.90625,5.775 l -12.425,0 z" />
      <path
         id="path8545"
         style=""
         d="m 382.49285,626.65314 c 0,6.08125 4.2,10.54375 10.19375,10.54375 3.36875,0 6.08125,-1.8375 7.6125,-4.06875 0.35,-0.525 0.175,-0.9625 -0.2625,-1.4 l -0.2625,-0.2625 c -0.56875,-0.56875 -1.1375,-0.74375 -1.70625,-0.0875 -1.1375,1.3125 -2.45,2.8875 -5.5125,2.8875 -3.7625,0 -6.78125,-3.36875 -6.78125,-7.65625 0,-4.2 3.0625,-7.6125 6.9125,-7.6125 2.05625,0 3.675,0.6125 5.075,2.1875 0.39375,0.4375 0.7875,0.875 1.44375,0.30625 l 0.7,-0.65625 c 0.48125,-0.39375 0.56875,-0.9625 0.175,-1.44375 -1.88125,-2.14375 -4.33125,-3.325 -7.35,-3.325 -5.8625,0 -10.2375,4.6375 -10.2375,10.5875 z" />
      <path
         id="path8547"
         style=""
         d="m 406.99285,619.30314 0,12.29375 c 0,3.15 0.7875,5.6 4.6375,5.6 2.7125,0 4.8125,-1.00625 5.6875,-1.61875 0.525,-0.35 0.6125,-0.65625 0.35,-1.3125 l -0.39375,-0.91875 c -0.21875,-0.48125 -0.48125,-0.875 -1.26875,-0.39375 -0.83125,0.525 -2.1,1.3125 -3.98125,1.3125 -1.1375,0 -1.79375,-0.7875 -1.79375,-2.8875 l 0,-12.075 5.95,0 c 0.56875,0 1.00625,-0.4375 1.00625,-0.9625 l 0,-0.875 c 0,-0.56875 -0.4375,-0.9625 -1.00625,-0.9625 l -5.95,0 0,-5.6875 c 0,-0.525 -0.39375,-1.00625 -0.91875,-0.9625 l -1.35625,0.0875 c -0.48125,0.0437 -0.9625,0.4375 -0.9625,0.9625 l 0,5.6 -2.66875,0 c -0.6125,0 -1.00625,0.39375 -1.00625,0.9625 l 0,0.875 c 0,0.525 0.39375,0.9625 1.00625,0.9625 l 2.66875,0 z" />
      <path
         id="path8549"
         style=""
         d="m 420.85955,626.56564 c 0,5.775 4.55,10.63125 10.15,10.63125 5.6,0 10.15,-4.85625 10.15,-10.63125 0,-5.6875 -4.55,-10.5 -10.15,-10.5 -5.6,0 -10.15,4.8125 -10.15,10.5 z m 3.19375,0 c 0,-4.1125 2.975,-7.56875 6.95625,-7.56875 3.98125,0 6.9125,3.45625 6.9125,7.56875 0,4.2 -2.93125,7.7 -6.9125,7.7 -3.98125,0 -6.95625,-3.5 -6.95625,-7.7 z" />
      <path
         id="path8551"
         style=""
         d="m 446.69598,635.75314 c 0,0.525 0.4375,0.9625 0.9625,0.9625 l 1.3125,0 c 0.48125,0 0.9625,-0.4375 0.9625,-0.9625 l 0,-14 c 0,0 1.575,-2.58125 5.46875,-2.58125 0.9625,0 1.70625,0.35 2.1875,0.56875 0.48125,0.21875 0.9625,0.175 1.18125,-0.48125 l 0.56875,-1.575 c 0.48125,-1.4 -2.0125,-1.61875 -3.54375,-1.61875 -4.2,0 -6.2125,2.58125 -6.2125,2.58125 l -0.35,-1.44375 c -0.13125,-0.48125 -0.48125,-0.7 -0.875,-0.7 l -0.7,0 c -0.525,0 -0.9625,0.48125 -0.9625,0.9625 l 0,18.2875 z" />
      <path
         id="path8553"
         style=""
         d="m 461.4452,627.09064 9.14375,0 c 0.48125,0 0.83125,-0.35 0.83125,-0.7875 l 0,-0.83125 c 0,-0.48125 -0.35,-0.83125 -0.83125,-0.83125 l -9.14375,0 c -0.48125,0 -0.83125,0.35 -0.83125,0.83125 l 0,0.83125 c 0,0.4375 0.35,0.7875 0.83125,0.7875 z" />
      <path
         id="path8555"
         style=""
         d="m 488.38699,637.15314 c 7,0 10.98125,-5.90625 10.98125,-15.75 0,-9.8875 -3.98125,-15.75 -10.98125,-15.75 -6.95625,0 -10.9375,5.8625 -10.9375,15.75 0,9.84375 3.98125,15.75 10.9375,15.75 z m 0,-3.0625 c -4.94375,0 -7.525,-4.4625 -7.525,-12.6875 0,-8.18125 2.58125,-12.6875 7.525,-12.6875 4.9875,0 7.56875,4.50625 7.56875,12.6875 0,8.225 -2.58125,12.6875 -7.56875,12.6875 z" />
      <path
         id="path8557"
         style=""
         d="m 504.94979,634.26564 c 0,1.575 1.26875,2.93125 2.84375,2.93125 1.61875,0 2.8875,-1.35625 2.8875,-2.93125 0,-1.575 -1.26875,-2.84375 -2.8875,-2.84375 -1.575,0 -2.84375,1.26875 -2.84375,2.84375 z" />
      <path
         id="path8559"
         style=""
         d="m 519.27859,611.69064 0,24.15 c 0,0.48125 0.39375,0.875 0.875,0.875 l 1.61875,0 c 0.4375,0 0.83125,-0.39375 0.83125,-0.875 l 0,-28.91875 c 0,-0.4375 -0.39375,-0.83125 -0.83125,-0.83125 l -0.7875,0 c -0.30625,0 -0.525,0.0875 -0.74375,0.30625 l -5.99375,5.81875 c -0.21875,0.21875 -0.39375,0.6125 -0.0875,0.9625 l 0.875,0.9625 c 0.30625,0.35 0.65625,0.30625 1.00625,0.0438 l 3.19375,-2.49375 0.0438,0 z" />
      <path
         id="path8561"
         style=""
         d="m 534.28211,633.69689 8.575,-9.14375 c 3.10625,-3.325 5.64375,-6.25625 5.64375,-10.2375 0,-4.59375 -3.28125,-8.6625 -9.75625,-8.6625 -5.3375,0 -8.53125,4.41875 -8.53125,4.41875 -0.30625,0.35 -0.21875,0.875 0.0438,1.18125 l 0.875,0.875 c 0.39375,0.35 0.875,0.35 1.225,0 1.4,-1.4875 3.63125,-3.4125 6.3875,-3.4125 4.68125,0 6.34375,3.10625 6.34375,5.6875 0,2.14375 -1.4875,4.8125 -4.55,8.18125 -3.54375,3.71875 -7,7.56875 -10.5,11.33125 -0.56875,0.6125 -0.56875,0.83125 -0.56875,1.3125 l 0,0.6125 c 0,0.48125 0.35,0.875 0.875,0.875 l 17.10625,0 c 0.48125,0 0.875,-0.39375 0.875,-0.875 l 0,-1.18125 c 0,-0.48125 -0.39375,-0.875 -0.875,-0.875 l -13.16875,0 0,-0.0875 z" />
      <path
         id="path8563"
         style=""
         d="m 553.91219,634.26564 c 0,1.575 1.26875,2.93125 2.84375,2.93125 1.61875,0 2.8875,-1.35625 2.8875,-2.93125 0,-1.575 -1.26875,-2.84375 -2.8875,-2.84375 -1.575,0 -2.84375,1.26875 -2.84375,2.84375 z" />
      <path
         id="path8565"
         style=""
         d="m 576.14334,637.15314 c 7,0 10.98125,-5.90625 10.98125,-15.75 0,-9.8875 -3.98125,-15.75 -10.98125,-15.75 -6.95625,0 -10.9375,5.8625 -10.9375,15.75 0,9.84375 3.98125,15.75 10.9375,15.75 z m 0,-3.0625 c -4.94375,0 -7.525,-4.4625 -7.525,-12.6875 0,-8.18125 2.58125,-12.6875 7.525,-12.6875 4.9875,0 7.56875,4.50625 7.56875,12.6875 0,8.225 -2.58125,12.6875 -7.56875,12.6875 z" />
      <path
         id="path8567"
         style=""
         d="m 592.70613,634.26564 c 0,1.575 1.26875,2.93125 2.84375,2.93125 1.61875,0 2.8875,-1.35625 2.8875,-2.93125 0,-1.575 -1.26875,-2.84375 -2.8875,-2.84375 -1.575,0 -2.84375,1.26875 -2.84375,2.84375 z" />
      <path
         id="path8569"
         style=""
         d="m 607.03494,611.69064 0,24.15 c 0,0.48125 0.39375,0.875 0.875,0.875 l 1.61875,0 c 0.4375,0 0.83125,-0.39375 0.83125,-0.875 l 0,-28.91875 c 0,-0.4375 -0.39375,-0.83125 -0.83125,-0.83125 l -0.7875,0 c -0.30625,0 -0.525,0.0875 -0.74375,0.30625 l -5.99375,5.81875 c -0.21875,0.21875 -0.39375,0.6125 -0.0875,0.9625 l 0.875,0.9625 c 0.30625,0.35 0.65625,0.30625 1.00625,0.0438 l 3.19375,-2.49375 0.0438,0 z" />
      <path
         id="path8571"
         style=""
         d="m 618.75721,627.09064 9.14375,0 c 0.48125,0 0.83125,-0.35 0.83125,-0.7875 l 0,-0.83125 c 0,-0.48125 -0.35,-0.83125 -0.83125,-0.83125 l -9.14375,0 c -0.48125,0 -0.83125,0.35 -0.83125,0.83125 l 0,0.83125 c 0,0.4375 0.35,0.7875 0.83125,0.7875 z" />
      <path
         id="path8573"
         style=""
         d="m 637.79666,611.69064 0,24.15 c 0,0.48125 0.39375,0.875 0.875,0.875 l 1.61875,0 c 0.4375,0 0.83125,-0.39375 0.83125,-0.875 l 0,-28.91875 c 0,-0.4375 -0.39375,-0.83125 -0.83125,-0.83125 l -0.7875,0 c -0.30625,0 -0.525,0.0875 -0.74375,0.30625 l -5.99375,5.81875 c -0.21875,0.21875 -0.39375,0.6125 -0.0875,0.9625 l 0.875,0.9625 c 0.30625,0.35 0.65625,0.30625 1.00625,0.0438 l 3.19375,-2.49375 0.0437,0 z" />
      <path
         id="path8575"
         style=""
         d="m 647.85643,626.56564 c 0,5.775 3.9375,10.63125 9.05625,10.63125 3.80625,0 6.3875,-2.625 6.3875,-2.625 l 0.2625,1.3125 c 0.175,0.48125 0.4375,0.83125 0.875,0.83125 l 0.7875,0 c 0.525,0 1.00625,-0.4375 1.00625,-0.9625 l 0,-28.7 c 0,-0.48125 -0.48125,-0.9625 -1.00625,-0.9625 l -1.225,0 c -0.525,0 -0.9625,0.48125 -0.9625,0.9625 l 0,10.28125 c 0,0 -2.275,-1.26875 -5.6,-1.26875 -6.08125,0 -9.58125,4.59375 -9.58125,10.5 z m 3.28125,0.0437 c 0,-4.025 2.40625,-7.6125 6.7375,-7.6125 2.8,0 5.1625,1.1375 5.1625,1.1375 l 0,10.89375 c 0,0 -2.1,3.2375 -5.73125,3.2375 -3.675,0 -6.16875,-3.71875 -6.16875,-7.65625 z" />
      <path
         id="path8577"
         style=""
         d="m 686.61346,609.19689 -12.20625,25.55 c -0.21875,0.4375 -0.30625,0.74375 -0.30625,1.09375 0,0.48125 0.39375,0.875 0.83125,0.875 l 1.3125,0 c 0.875,0 1.3125,-0.7875 1.4875,-1.18125 l 12.95,-27.86875 c 0.21875,-0.4375 0.21875,-0.6125 0.21875,-0.74375 0,-0.56875 -0.39375,-0.83125 -0.875,-0.83125 l -18.1125,0 c -0.4375,0 -0.83125,0.39375 -0.83125,0.83125 l 0,1.3125 c 0,0.4375 0.39375,0.875 0.83125,0.875 l 14.7,0 0,0.0875 z" />
      <path
         id="path8579"
         style=""
         d="m 694.96766,633.43439 c 1.1375,1.35625 3.675,3.71875 8.70625,3.71875 6.08125,0 10.45625,-4.68125 10.45625,-10.325 0,-5.8625 -3.63125,-9.45 -10.4125,-9.45 l -5.25,0 0,-8.26875 11.4625,0 c 0.48125,0 0.875,-0.4375 0.875,-0.875 l 0,-1.3125 c 0,-0.4375 -0.39375,-0.83125 -0.875,-0.83125 l -13.60625,0 c -0.48125,0 -0.875,0.39375 -0.875,0.83125 l 0,11.9 c 0,0.74375 0.525,1.575 1.4,1.575 l 6.86875,0 c 4.8125,0 7.0875,2.975 7.0875,6.475 0,3.5875 -2.75625,7.39375 -7.0875,7.39375 -3.85,0 -5.73125,-2.1875 -6.69375,-3.325 -0.35,-0.48125 -0.7,-0.39375 -1.09375,-0.0438 -0.39375,0.30625 -0.7,0.7 -1.05,1.00625 -0.525,0.525 -0.48125,0.83125 0.0875,1.53125 z" />
      <path
         id="path8581"
         style=""
         d="m 718.82918,634.26564 c 0,1.575 1.26875,2.93125 2.84375,2.93125 1.61875,0 2.8875,-1.35625 2.8875,-2.93125 0,-1.575 -1.26875,-2.84375 -2.8875,-2.84375 -1.575,0 -2.84375,1.26875 -2.84375,2.84375 z" />
      <path
         id="path8583"
         style=""
         d="m 729.51033,634.26564 c 0,1.575 1.26875,2.93125 2.84375,2.93125 1.61875,0 2.8875,-1.35625 2.8875,-2.93125 0,-1.575 -1.26875,-2.84375 -2.8875,-2.84375 -1.575,0 -2.84375,1.26875 -2.84375,2.84375 z" />
      <path
         id="path8585"
         style=""
         d="m 740.19149,634.26564 c 0,1.575 1.26875,2.93125 2.84375,2.93125 1.61875,0 2.8875,-1.35625 2.8875,-2.93125 0,-1.575 -1.26875,-2.84375 -2.8875,-2.84375 -1.575,0 -2.84375,1.26875 -2.84375,2.84375 z" />
    </g>
    <rect
       ry="15.499042"
       y="500.09717"
       x="1057.3702"
       height="249.32239"
       width="588.7594"
       id="rect8345"
       style="opacity:1;fill:none;fill-opacity:1;fill-rule:nonzero;stroke:#5333ed;stroke-width:1.7411741;stroke-linecap:round;stroke-linejoin:round;stroke-miterlimit:4;stroke-dasharray:none;stroke-dashoffset:40;stroke-opacity:1" />
    <g
       id="text8347"
       style="font-style:normal;font-variant:normal;font-weight:normal;font-stretch:normal;font-size:43.75px;line-height:125%;font-family:'Brandon Text';-inkscape-font-specification:'Brandon Text, Normal';text-align:start;letter-spacing:0px;word-spacing:0px;writing-mode:lr-tb;text-anchor:start;fill:#ffffff;fill-opacity:1;stroke:none;stroke-width:1px;stroke-linecap:butt;stroke-linejoin:miter;stroke-opacity:1">
      <path
         id="path8494"
         style=""
         d="m 1156.2261,640.0052 c 0.087,0.2625 0.3938,0.525 0.8313,0.525 l 0.2625,0 c 0.4812,0 0.7437,-0.2625 0.8312,-0.525 l 8.7063,-19.03125 c 0.2625,-0.6125 0,-1.1375 -0.7875,-1.1375 l -1.4,0 c -0.35,0 -0.6563,0.21875 -0.7875,0.56875 l -6.65,14.875 -0.088,0 -6.2563,-14.875 c -0.1312,-0.35 -0.4375,-0.56875 -0.9187,-0.56875 l -1.5313,0 c -0.7437,0 -1.05,0.525 -0.7437,1.1375 l 8.5312,19.03125 z" />
      <path
         id="path8496"
         style=""
         d="m 1169.6362,629.9427 c 0,5.775 3.675,10.5875 9.8,10.5875 3.5,0 6.1687,-1.35625 7.3937,-2.31875 0.7438,-0.56875 0.5688,-0.7875 0.175,-1.4 l -0.525,-0.74375 c -0.525,-0.7875 -0.8312,-0.6125 -1.5312,-0.13125 -1.1375,0.74375 -2.8,1.6625 -5.4688,1.6625 -3.675,0 -6.5187,-3.54375 -6.6062,-6.9125 l 14.7,0 c 0.4375,0 0.875,-0.35 0.9187,-0.875 0.044,-0.35 0.087,-0.875 0.087,-1.225 0,-5.29375 -3.85,-9.1875 -9.1437,-9.1875 -6.125,0 -9.8,4.85625 -9.8,10.54375 z m 3.2812,-1.8375 c 0.3938,-3.15 3.1063,-5.775 6.5188,-5.775 3.4562,0 5.8187,2.8 5.9062,5.775 l -12.425,0 z" />
      <path
         id="path8498"
         style=""
         d="m 1192.4928,629.98645 c 0,6.08125 4.2,10.54375 10.1938,10.54375 3.3687,0 6.0812,-1.8375 7.6125,-4.06875 0.35,-0.525 0.175,-0.9625 -0.2625,-1.4 l -0.2625,-0.2625 c -0.5688,-0.56875 -1.1375,-0.74375 -1.7063,-0.0875 -1.1375,1.3125 -2.45,2.8875 -5.5125,2.8875 -3.7625,0 -6.7812,-3.36875 -6.7812,-7.65625 0,-4.2 3.0625,-7.6125 6.9125,-7.6125 2.0562,0 3.675,0.6125 5.075,2.1875 0.3937,0.4375 0.7875,0.875 1.4437,0.30625 l 0.7,-0.65625 c 0.4813,-0.39375 0.5688,-0.9625 0.175,-1.44375 -1.8812,-2.14375 -4.3312,-3.325 -7.35,-3.325 -5.8625,0 -10.2375,4.6375 -10.2375,10.5875 z" />
      <path
         id="path8500"
         style=""
         d="m 1216.9928,622.63645 0,12.29375 c 0,3.15 0.7875,5.6 4.6375,5.6 2.7125,0 4.8125,-1.00625 5.6875,-1.61875 0.525,-0.35 0.6125,-0.65625 0.35,-1.3125 l -0.3937,-0.91875 c -0.2188,-0.48125 -0.4813,-0.875 -1.2688,-0.39375 -0.8312,0.525 -2.1,1.3125 -3.9812,1.3125 -1.1375,0 -1.7938,-0.7875 -1.7938,-2.8875 l 0,-12.075 5.95,0 c 0.5688,0 1.0063,-0.4375 1.0063,-0.9625 l 0,-0.875 c 0,-0.56875 -0.4375,-0.9625 -1.0063,-0.9625 l -5.95,0 0,-5.6875 c 0,-0.525 -0.3937,-1.00625 -0.9187,-0.9625 l -1.3563,0.0875 c -0.4812,0.0437 -0.9625,0.4375 -0.9625,0.9625 l 0,5.6 -2.6687,0 c -0.6125,0 -1.0063,0.39375 -1.0063,0.9625 l 0,0.875 c 0,0.525 0.3938,0.9625 1.0063,0.9625 l 2.6687,0 z" />
      <path
         id="path8502"
         style=""
         d="m 1230.8595,629.89895 c 0,5.775 4.55,10.63125 10.15,10.63125 5.6,0 10.15,-4.85625 10.15,-10.63125 0,-5.6875 -4.55,-10.5 -10.15,-10.5 -5.6,0 -10.15,4.8125 -10.15,10.5 z m 3.1938,0 c 0,-4.1125 2.975,-7.56875 6.9562,-7.56875 3.9813,0 6.9125,3.45625 6.9125,7.56875 0,4.2 -2.9312,7.7 -6.9125,7.7 -3.9812,0 -6.9562,-3.5 -6.9562,-7.7 z" />
      <path
         id="path8504"
         style=""
         d="m 1256.6959,639.08645 c 0,0.525 0.4375,0.9625 0.9625,0.9625 l 1.3125,0 c 0.4813,0 0.9625,-0.4375 0.9625,-0.9625 l 0,-14 c 0,0 1.575,-2.58125 5.4688,-2.58125 0.9625,0 1.7062,0.35 2.1875,0.56875 0.4812,0.21875 0.9625,0.175 1.1812,-0.48125 l 0.5688,-1.575 c 0.4812,-1.4 -2.0125,-1.61875 -3.5438,-1.61875 -4.2,0 -6.2125,2.58125 -6.2125,2.58125 l -0.35,-1.44375 c -0.1312,-0.48125 -0.4812,-0.7 -0.875,-0.7 l -0.7,0 c -0.525,0 -0.9625,0.48125 -0.9625,0.9625 l 0,18.2875 z" />
      <path
         id="path8506"
         style=""
         d="m 1271.4452,630.42395 9.1437,0 c 0.4813,0 0.8313,-0.35 0.8313,-0.7875 l 0,-0.83125 c 0,-0.48125 -0.35,-0.83125 -0.8313,-0.83125 l -9.1437,0 c -0.4813,0 -0.8313,0.35 -0.8313,0.83125 l 0,0.83125 c 0,0.4375 0.35,0.7875 0.8313,0.7875 z" />
      <path
         id="path8508"
         style=""
         d="m 1298.387,640.48645 c 7,0 10.9812,-5.90625 10.9812,-15.75 0,-9.8875 -3.9812,-15.75 -10.9812,-15.75 -6.9563,0 -10.9375,5.8625 -10.9375,15.75 0,9.84375 3.9812,15.75 10.9375,15.75 z m 0,-3.0625 c -4.9438,0 -7.525,-4.4625 -7.525,-12.6875 0,-8.18125 2.5812,-12.6875 7.525,-12.6875 4.9875,0 7.5687,4.50625 7.5687,12.6875 0,8.225 -2.5812,12.6875 -7.5687,12.6875 z" />
      <path
         id="path8510"
         style=""
         d="m 1314.9498,637.59895 c 0,1.575 1.2687,2.93125 2.8437,2.93125 1.6188,0 2.8875,-1.35625 2.8875,-2.93125 0,-1.575 -1.2687,-2.84375 -2.8875,-2.84375 -1.575,0 -2.8437,1.26875 -2.8437,2.84375 z" />
      <path
         id="path8512"
         style=""
         d="m 1329.2786,615.02395 0,24.15 c 0,0.48125 0.3937,0.875 0.875,0.875 l 1.6187,0 c 0.4375,0 0.8313,-0.39375 0.8313,-0.875 l 0,-28.91875 c 0,-0.4375 -0.3938,-0.83125 -0.8313,-0.83125 l -0.7875,0 c -0.3062,0 -0.525,0.0875 -0.7437,0.30625 l -5.9938,5.81875 c -0.2187,0.21875 -0.3937,0.6125 -0.088,0.9625 l 0.875,0.9625 c 0.3063,0.35 0.6563,0.30625 1.0063,0.0438 l 3.1937,-2.49375 0.044,0 z" />
      <path
         id="path8514"
         style=""
         d="m 1344.2821,637.0302 8.575,-9.14375 c 3.1062,-3.325 5.6437,-6.25625 5.6437,-10.2375 0,-4.59375 -3.2812,-8.6625 -9.7562,-8.6625 -5.3375,0 -8.5313,4.41875 -8.5313,4.41875 -0.3062,0.35 -0.2187,0.875 0.044,1.18125 l 0.875,0.875 c 0.3937,0.35 0.875,0.35 1.225,0 1.4,-1.4875 3.6312,-3.4125 6.3875,-3.4125 4.6812,0 6.3437,3.10625 6.3437,5.6875 0,2.14375 -1.4875,4.8125 -4.55,8.18125 -3.5437,3.71875 -7,7.56875 -10.5,11.33125 -0.5687,0.6125 -0.5687,0.83125 -0.5687,1.3125 l 0,0.6125 c 0,0.48125 0.35,0.875 0.875,0.875 l 17.1062,0 c 0.4813,0 0.875,-0.39375 0.875,-0.875 l 0,-1.18125 c 0,-0.48125 -0.3937,-0.875 -0.875,-0.875 l -13.1687,0 0,-0.0875 z" />
      <path
         id="path8516"
         style=""
         d="m 1363.9122,637.59895 c 0,1.575 1.2687,2.93125 2.8437,2.93125 1.6188,0 2.8875,-1.35625 2.8875,-2.93125 0,-1.575 -1.2687,-2.84375 -2.8875,-2.84375 -1.575,0 -2.8437,1.26875 -2.8437,2.84375 z" />
      <path
         id="path8518"
         style=""
         d="m 1386.1433,640.48645 c 7,0 10.9813,-5.90625 10.9813,-15.75 0,-9.8875 -3.9813,-15.75 -10.9813,-15.75 -6.9562,0 -10.9375,5.8625 -10.9375,15.75 0,9.84375 3.9813,15.75 10.9375,15.75 z m 0,-3.0625 c -4.9437,0 -7.525,-4.4625 -7.525,-12.6875 0,-8.18125 2.5813,-12.6875 7.525,-12.6875 4.9875,0 7.5688,4.50625 7.5688,12.6875 0,8.225 -2.5813,12.6875 -7.5688,12.6875 z" />
      <path
         id="path8520"
         style=""
         d="m 1402.7061,637.59895 c 0,1.575 1.2688,2.93125 2.8438,2.93125 1.6187,0 2.8875,-1.35625 2.8875,-2.93125 0,-1.575 -1.2688,-2.84375 -2.8875,-2.84375 -1.575,0 -2.8438,1.26875 -2.8438,2.84375 z" />
      <path
         id="path8522"
         style=""
         d="m 1417.0349,615.02395 0,24.15 c 0,0.48125 0.3938,0.875 0.875,0.875 l 1.6188,0 c 0.4375,0 0.8312,-0.39375 0.8312,-0.875 l 0,-28.91875 c 0,-0.4375 -0.3937,-0.83125 -0.8312,-0.83125 l -0.7875,0 c -0.3063,0 -0.525,0.0875 -0.7438,0.30625 l -5.9937,5.81875 c -0.2188,0.21875 -0.3938,0.6125 -0.088,0.9625 l 0.875,0.9625 c 0.3062,0.35 0.6562,0.30625 1.0062,0.0438 l 3.1938,-2.49375 0.044,0 z" />
      <path
         id="path8524"
         style=""
         d="m 1428.7572,630.42395 9.1437,0 c 0.4813,0 0.8313,-0.35 0.8313,-0.7875 l 0,-0.83125 c 0,-0.48125 -0.35,-0.83125 -0.8313,-0.83125 l -9.1437,0 c -0.4813,0 -0.8313,0.35 -0.8313,0.83125 l 0,0.83125 c 0,0.4375 0.35,0.7875 0.8313,0.7875 z" />
      <path
         id="path8526"
         style=""
         d="m 1444.3841,636.7677 c 1.1375,1.35625 3.675,3.71875 8.7063,3.71875 6.0812,0 10.4562,-4.68125 10.4562,-10.325 0,-5.8625 -3.6312,-9.45 -10.4125,-9.45 l -5.25,0 0,-8.26875 11.4625,0 c 0.4813,0 0.875,-0.4375 0.875,-0.875 l 0,-1.3125 c 0,-0.4375 -0.3937,-0.83125 -0.875,-0.83125 l -13.6062,0 c -0.4813,0 -0.875,0.39375 -0.875,0.83125 l 0,11.9 c 0,0.74375 0.525,1.575 1.4,1.575 l 6.8687,0 c 4.8125,0 7.0875,2.975 7.0875,6.475 0,3.5875 -2.7562,7.39375 -7.0875,7.39375 -3.85,0 -5.7312,-2.1875 -6.6937,-3.325 -0.35,-0.48125 -0.7,-0.39375 -1.0938,-0.0438 -0.3937,0.30625 -0.7,0.7 -1.05,1.00625 -0.525,0.525 -0.4812,0.83125 0.088,1.53125 z" />
      <path
         id="path8528"
         style=""
         d="m 1479.7957,640.48645 c 7,0 10.9812,-5.90625 10.9812,-15.75 0,-9.8875 -3.9812,-15.75 -10.9812,-15.75 -6.9563,0 -10.9375,5.8625 -10.9375,15.75 0,9.84375 3.9812,15.75 10.9375,15.75 z m 0,-3.0625 c -4.9438,0 -7.525,-4.4625 -7.525,-12.6875 0,-8.18125 2.5812,-12.6875 7.525,-12.6875 4.9875,0 7.5687,4.50625 7.5687,12.6875 0,8.225 -2.5812,12.6875 -7.5687,12.6875 z" />
      <path
         id="path8530"
         style=""
         d="m 1496.4459,636.5052 c 1.0063,1.09375 3.5438,3.98125 9.0563,3.98125 6.2562,0 10.0187,-3.71875 10.0187,-8.8375 0,-4.025 -3.2812,-6.3 -5.425,-7.175 l 0,-0.13125 c 2.0563,-0.9625 4.6813,-3.675 4.6813,-7.13125 0,-5.075 -3.85,-8.225 -9.3188,-8.225 -4.9,0 -8.1375,3.98125 -8.1375,3.98125 -0.3062,0.30625 -0.35,0.875 0,1.18125 l 1.0938,0.83125 c 0.4375,0.4375 0.875,0.21875 1.1375,-0.0875 1.0062,-1.1375 2.8437,-2.93125 5.9062,-2.93125 3.2375,0 5.9063,2.14375 5.9063,5.6875 0,2.975 -2.3188,5.46875 -7.1313,5.46875 l -2.4937,0 c -0.7438,0 -0.9625,0.2625 -0.9625,0.9625 l 0,1.09375 c 0,0.74375 0.3937,1.00625 0.875,1.00625 l 2.5375,0 c 5.5562,0 7.9625,2.45 7.9625,5.81875 0,3.675 -3.0625,5.6875 -6.475,5.6875 -3.8938,0 -6.3438,-2.58125 -6.7375,-3.10625 -0.35,-0.48125 -0.7,-0.56875 -1.225,-0.21875 l -1.225,1.05 c -0.35,0.2625 -0.3063,0.74375 -0.044,1.09375 z" />
      <path
         id="path8532"
         style=""
         d="m 1520.9699,636.5052 c 1.0062,1.09375 3.5437,3.98125 9.0562,3.98125 6.2563,0 10.0188,-3.71875 10.0188,-8.8375 0,-4.025 -3.2813,-6.3 -5.425,-7.175 l 0,-0.13125 c 2.0562,-0.9625 4.6812,-3.675 4.6812,-7.13125 0,-5.075 -3.85,-8.225 -9.3187,-8.225 -4.9,0 -8.1375,3.98125 -8.1375,3.98125 -0.3063,0.30625 -0.35,0.875 0,1.18125 l 1.0937,0.83125 c 0.4375,0.4375 0.875,0.21875 1.1375,-0.0875 1.0063,-1.1375 2.8438,-2.93125 5.9063,-2.93125 3.2375,0 5.9062,2.14375 5.9062,5.6875 0,2.975 -2.3187,5.46875 -7.1312,5.46875 l -2.4938,0 c -0.7437,0 -0.9625,0.2625 -0.9625,0.9625 l 0,1.09375 c 0,0.74375 0.3938,1.00625 0.875,1.00625 l 2.5375,0 c 5.5563,0 7.9625,2.45 7.9625,5.81875 0,3.675 -3.0625,5.6875 -6.475,5.6875 -3.8937,0 -6.3437,-2.58125 -6.7375,-3.10625 -0.35,-0.48125 -0.7,-0.56875 -1.225,-0.21875 l -1.225,1.05 c -0.35,0.2625 -0.3062,0.74375 -0.044,1.09375 z" />
      <path
         id="path8534"
         style=""
         d="m 1545.4063,637.59895 c 0,1.575 1.2687,2.93125 2.8437,2.93125 1.6188,0 2.8875,-1.35625 2.8875,-2.93125 0,-1.575 -1.2687,-2.84375 -2.8875,-2.84375 -1.575,0 -2.8437,1.26875 -2.8437,2.84375 z" />
      <path
         id="path8536"
         style=""
         d="m 1556.0875,637.59895 c 0,1.575 1.2687,2.93125 2.8437,2.93125 1.6188,0 2.8875,-1.35625 2.8875,-2.93125 0,-1.575 -1.2687,-2.84375 -2.8875,-2.84375 -1.575,0 -2.8437,1.26875 -2.8437,2.84375 z" />
      <path
         id="path8538"
         style=""
         d="m 1566.7686,637.59895 c 0,1.575 1.2688,2.93125 2.8438,2.93125 1.6187,0 2.8875,-1.35625 2.8875,-2.93125 0,-1.575 -1.2688,-2.84375 -2.8875,-2.84375 -1.575,0 -2.8438,1.26875 -2.8438,2.84375 z" />
    </g>
    <rect
       ry="15.475425"
       y="840.28711"
       x="509.22693"
       height="248.94247"
       width="875.04614"
       id="rect8353"
       style="opacity:1;fill:none;fill-opacity:1;fill-rule:nonzero;stroke:#5333ed;stroke-width:2.12108278;stroke-linecap:round;stroke-linejoin:round;stroke-miterlimit:4;stroke-dasharray:none;stroke-dashoffset:40;stroke-opacity:1" />
    <g
       id="text8355"
       style="font-style:normal;font-variant:normal;font-weight:normal;font-stretch:normal;font-size:43.75px;line-height:125%;font-family:'Brandon Text';-inkscape-font-specification:'Brandon Text, Normal';text-align:start;letter-spacing:0px;word-spacing:0px;writing-mode:lr-tb;text-anchor:start;fill:#ffffff;fill-opacity:1;stroke:none;stroke-width:1px;stroke-linecap:butt;stroke-linejoin:miter;stroke-opacity:1">
      <path
         id="path8421"
         style=""
         d="m 601.41787,971.6927 c 0,5.3375 1.4,8.8375 7.21875,8.8375 3.63125,0 5.5125,-1.8375 6.25625,-2.625 l 0.39375,1.26875 c 0.13125,0.525 0.35,0.875 0.91875,0.875 l 0.7,0 c 0.48125,0 0.91875,-0.4375 0.91875,-0.9625 l 0,-18.2875 c 0,-0.48125 -0.4375,-0.9625 -0.91875,-0.9625 l -1.35625,0 c -0.525,0 -0.91875,0.48125 -0.91875,0.9625 l 0,13.86875 c -0.91875,1.05 -2.7125,2.93125 -5.73125,2.93125 -2.93125,0 -4.24375,-1.8375 -4.24375,-5.8625 l 0,-10.9375 c 0,-0.48125 -0.4375,-0.9625 -0.9625,-0.9625 l -1.3125,0 c -0.56875,0 -0.9625,0.48125 -0.9625,0.9625 l 0,10.89375 z" />
      <path
         id="path8423"
         style=""
         d="m 624.62246,979.08645 c 0,0.525 0.4375,0.9625 0.9625,0.9625 l 1.3125,0 c 0.48125,0 0.9625,-0.4375 0.9625,-0.9625 l 0,-13.95625 c 0,0 2.40625,-2.8 6.2125,-2.8 2.975,0 4.2875,1.79375 4.2875,5.64375 l 0,11.1125 c 0,0.525 0.4375,0.9625 0.9625,0.9625 l 1.3125,0 c 0.48125,0 0.9625,-0.4375 0.9625,-0.9625 l 0,-10.675 c 0,-5.20625 -1.44375,-9.0125 -7.30625,-9.0125 -4.2,0 -6.78125,2.58125 -6.78125,2.58125 l -0.4375,-1.53125 c -0.0875,-0.4375 -0.35,-0.6125 -0.7875,-0.6125 l -0.7,0 c -0.525,0 -0.9625,0.48125 -0.9625,0.9625 l 0,18.2875 z" />
      <path
         id="path8425"
         style=""
         d="m 646.89395,969.89895 c 0,5.775 4.55,10.63125 10.15,10.63125 5.6,0 10.15,-4.85625 10.15,-10.63125 0,-5.6875 -4.55,-10.5 -10.15,-10.5 -5.6,0 -10.15,4.8125 -10.15,10.5 z m 3.19375,0 c 0,-4.1125 2.975,-7.56875 6.95625,-7.56875 3.98125,0 6.9125,3.45625 6.9125,7.56875 0,4.2 -2.93125,7.7 -6.9125,7.7 -3.98125,0 -6.95625,-3.5 -6.95625,-7.7 z" />
      <path
         id="path8427"
         style=""
         d="m 672.73037,979.08645 c 0,0.525 0.4375,0.9625 0.9625,0.9625 l 1.3125,0 c 0.48125,0 0.9625,-0.4375 0.9625,-0.9625 l 0,-14 c 0,0 1.575,-2.58125 5.46875,-2.58125 0.9625,0 1.70625,0.35 2.1875,0.56875 0.48125,0.21875 0.9625,0.175 1.18125,-0.48125 l 0.56875,-1.575 c 0.48125,-1.4 -2.0125,-1.61875 -3.54375,-1.61875 -4.2,0 -6.2125,2.58125 -6.2125,2.58125 l -0.35,-1.44375 c -0.13125,-0.48125 -0.48125,-0.7 -0.875,-0.7 l -0.7,0 c -0.525,0 -0.9625,0.48125 -0.9625,0.9625 l 0,18.2875 z" />
      <path
         id="path8429"
         style=""
         d="m 687.61152,969.89895 c 0,5.775 3.9375,10.63125 9.05625,10.63125 3.80625,0 6.3875,-2.625 6.3875,-2.625 l 0.2625,1.3125 c 0.175,0.48125 0.4375,0.83125 0.875,0.83125 l 0.7875,0 c 0.525,0 1.00625,-0.4375 1.00625,-0.9625 l 0,-28.7 c 0,-0.48125 -0.48125,-0.9625 -1.00625,-0.9625 l -1.225,0 c -0.525,0 -0.9625,0.48125 -0.9625,0.9625 l 0,10.28125 c 0,0 -2.275,-1.26875 -5.6,-1.26875 -6.08125,0 -9.58125,4.59375 -9.58125,10.5 z m 3.28125,0.0437 c 0,-4.025 2.40625,-7.6125 6.7375,-7.6125 2.8,0 5.1625,1.1375 5.1625,1.1375 l 0,10.89375 c 0,0 -2.1,3.2375 -5.73125,3.2375 -3.675,0 -6.16875,-3.71875 -6.16875,-7.65625 z" />
      <path
         id="path8431"
         style=""
         d="m 711.5373,969.9427 c 0,5.775 3.675,10.5875 9.8,10.5875 3.5,0 6.16875,-1.35625 7.39375,-2.31875 0.74375,-0.56875 0.56875,-0.7875 0.175,-1.4 l -0.525,-0.74375 c -0.525,-0.7875 -0.83125,-0.6125 -1.53125,-0.13125 -1.1375,0.74375 -2.8,1.6625 -5.46875,1.6625 -3.675,0 -6.51875,-3.54375 -6.60625,-6.9125 l 14.7,0 c 0.4375,0 0.875,-0.35 0.91875,-0.875 0.0438,-0.35 0.0875,-0.875 0.0875,-1.225 0,-5.29375 -3.85,-9.1875 -9.14375,-9.1875 -6.125,0 -9.8,4.85625 -9.8,10.54375 z m 3.28125,-1.8375 c 0.39375,-3.15 3.10625,-5.775 6.51875,-5.775 3.45625,0 5.81875,2.8 5.90625,5.775 l -12.425,0 z" />
      <path
         id="path8433"
         style=""
         d="m 735.70645,979.08645 c 0,0.525 0.4375,0.9625 0.9625,0.9625 l 1.3125,0 c 0.48125,0 0.9625,-0.4375 0.9625,-0.9625 l 0,-14 c 0,0 1.575,-2.58125 5.46875,-2.58125 0.9625,0 1.70625,0.35 2.1875,0.56875 0.48125,0.21875 0.9625,0.175 1.18125,-0.48125 l 0.56875,-1.575 c 0.48125,-1.4 -2.0125,-1.61875 -3.54375,-1.61875 -4.2,0 -6.2125,2.58125 -6.2125,2.58125 l -0.35,-1.44375 c -0.13125,-0.48125 -0.48125,-0.7 -0.875,-0.7 l -0.7,0 c -0.525,0 -0.9625,0.48125 -0.9625,0.9625 l 0,18.2875 z" />
      <path
         id="path8435"
         style=""
         d="m 750.5876,969.9427 c 0,5.775 3.675,10.5875 9.8,10.5875 3.5,0 6.16875,-1.35625 7.39375,-2.31875 0.74375,-0.56875 0.56875,-0.7875 0.175,-1.4 l -0.525,-0.74375 c -0.525,-0.7875 -0.83125,-0.6125 -1.53125,-0.13125 -1.1375,0.74375 -2.8,1.6625 -5.46875,1.6625 -3.675,0 -6.51875,-3.54375 -6.60625,-6.9125 l 14.7,0 c 0.4375,0 0.875,-0.35 0.91875,-0.875 0.0438,-0.35 0.0875,-0.875 0.0875,-1.225 0,-5.29375 -3.85,-9.1875 -9.14375,-9.1875 -6.125,0 -9.8,4.85625 -9.8,10.54375 z m 3.28125,-1.8375 c 0.39375,-3.15 3.10625,-5.775 6.51875,-5.775 3.45625,0 5.81875,2.8 5.90625,5.775 l -12.425,0 z" />
      <path
         id="path8437"
         style=""
         d="m 773.48799,969.89895 c 0,5.775 3.9375,10.63125 9.05625,10.63125 3.80625,0 6.3875,-2.625 6.3875,-2.625 l 0.2625,1.3125 c 0.175,0.48125 0.4375,0.83125 0.875,0.83125 l 0.7875,0 c 0.525,0 1.00625,-0.4375 1.00625,-0.9625 l 0,-28.7 c 0,-0.48125 -0.48125,-0.9625 -1.00625,-0.9625 l -1.225,0 c -0.525,0 -0.9625,0.48125 -0.9625,0.9625 l 0,10.28125 c 0,0 -2.275,-1.26875 -5.6,-1.26875 -6.08125,0 -9.58125,4.59375 -9.58125,10.5 z m 3.28125,0.0437 c 0,-4.025 2.40625,-7.6125 6.7375,-7.6125 2.8,0 5.1625,1.1375 5.1625,1.1375 l 0,10.89375 c 0,0 -2.1,3.2375 -5.73125,3.2375 -3.675,0 -6.16875,-3.71875 -6.16875,-7.65625 z" />
      <path
         id="path8439"
         style=""
         d="m 799.07627,970.42395 9.14375,0 c 0.48125,0 0.83125,-0.35 0.83125,-0.7875 l 0,-0.83125 c 0,-0.48125 -0.35,-0.83125 -0.83125,-0.83125 l -9.14375,0 c -0.48125,0 -0.83125,0.35 -0.83125,0.83125 l 0,0.83125 c 0,0.4375 0.35,0.7875 0.83125,0.7875 z" />
      <path
         id="path8441"
         style=""
         d="m 814.11807,969.98645 c 0,6.08125 4.2,10.54375 10.19375,10.54375 3.36875,0 6.08125,-1.8375 7.6125,-4.06875 0.35,-0.525 0.175,-0.9625 -0.2625,-1.4 l -0.2625,-0.2625 c -0.56875,-0.56875 -1.1375,-0.74375 -1.70625,-0.0875 -1.1375,1.3125 -2.45,2.8875 -5.5125,2.8875 -3.7625,0 -6.78125,-3.36875 -6.78125,-7.65625 0,-4.2 3.0625,-7.6125 6.9125,-7.6125 2.05625,0 3.675,0.6125 5.075,2.1875 0.39375,0.4375 0.7875,0.875 1.44375,0.30625 l 0.7,-0.65625 c 0.48125,-0.39375 0.56875,-0.9625 0.175,-1.44375 -1.88125,-2.14375 -4.33125,-3.325 -7.35,-3.325 -5.8625,0 -10.2375,4.6375 -10.2375,10.5875 z" />
      <path
         id="path8443"
         style=""
         d="m 835.73672,969.89895 c 0,5.775 4.55,10.63125 10.15,10.63125 5.6,0 10.15,-4.85625 10.15,-10.63125 0,-5.6875 -4.55,-10.5 -10.15,-10.5 -5.6,0 -10.15,4.8125 -10.15,10.5 z m 3.19375,0 c 0,-4.1125 2.975,-7.56875 6.95625,-7.56875 3.98125,0 6.9125,3.45625 6.9125,7.56875 0,4.2 -2.93125,7.7 -6.9125,7.7 -3.98125,0 -6.95625,-3.5 -6.95625,-7.7 z" />
      <path
         id="path8445"
         style=""
         d="m 861.57314,979.08645 c 0,0.525 0.4375,0.9625 0.9625,0.9625 l 1.3125,0 c 0.48125,0 0.9625,-0.4375 0.9625,-0.9625 l 0,-13.95625 c 0,0 2.40625,-2.8 6.2125,-2.8 2.975,0 4.2875,1.79375 4.2875,5.64375 l 0,11.1125 c 0,0.525 0.4375,0.9625 0.9625,0.9625 l 1.3125,0 c 0.48125,0 0.9625,-0.4375 0.9625,-0.9625 l 0,-10.675 c 0,-5.20625 -1.44375,-9.0125 -7.30625,-9.0125 -4.2,0 -6.78125,2.58125 -6.78125,2.58125 l -0.4375,-1.53125 c -0.0875,-0.4375 -0.35,-0.6125 -0.7875,-0.6125 l -0.7,0 c -0.525,0 -0.9625,0.48125 -0.9625,0.9625 l 0,18.2875 z" />
      <path
         id="path8447"
         style=""
         d="m 886.21328,962.63645 0,12.29375 c 0,3.15 0.7875,5.6 4.6375,5.6 2.7125,0 4.8125,-1.00625 5.6875,-1.61875 0.525,-0.35 0.6125,-0.65625 0.35,-1.3125 l -0.39375,-0.91875 c -0.21875,-0.48125 -0.48125,-0.875 -1.26875,-0.39375 -0.83125,0.525 -2.1,1.3125 -3.98125,1.3125 -1.1375,0 -1.79375,-0.7875 -1.79375,-2.8875 l 0,-12.075 5.95,0 c 0.56875,0 1.00625,-0.4375 1.00625,-0.9625 l 0,-0.875 c 0,-0.56875 -0.4375,-0.9625 -1.00625,-0.9625 l -5.95,0 0,-5.6875 c 0,-0.525 -0.39375,-1.00625 -0.91875,-0.9625 l -1.35625,0.0875 c -0.48125,0.0437 -0.9625,0.4375 -0.9625,0.9625 l 0,5.6 -2.66875,0 c -0.6125,0 -1.00625,0.39375 -1.00625,0.9625 l 0,0.875 c 0,0.525 0.39375,0.9625 1.00625,0.9625 l 2.66875,0 z" />
      <path
         id="path8449"
         style=""
         d="m 899.81748,973.92395 c 0,4.06875 2.7125,6.60625 6.25625,6.60625 3.10625,0 5.20625,-1.53125 6.25625,-2.58125 l 0.39375,1.35625 c 0.13125,0.4375 0.30625,0.74375 0.83125,0.74375 l 0.83125,0 c 0.525,0 0.9625,-0.4375 0.9625,-0.9625 l 0,-11.2 c 0,-5.95 -1.09375,-8.4875 -6.25625,-8.4875 -3.325,0 -5.95,0.875 -6.95625,1.3125 -0.48125,0.21875 -0.7875,0.48125 -0.6125,1.09375 l 0.4375,1.18125 c 0.175,0.48125 0.4375,0.74375 0.9625,0.525 0.91875,-0.30625 3.2375,-1.18125 5.99375,-1.18125 2.8875,0 3.36875,1.8375 3.325,5.55625 0,0 -2.1875,-0.65625 -4.33125,-0.65625 -5.20625,0 -8.09375,2.84375 -8.09375,6.69375 z m 3.19375,0 c 0,-2.58125 2.1,-3.9375 4.9,-3.9375 2.0125,0 3.63125,0.4375 4.2875,0.7875 l 0,4.1125 c -0.875,1.3125 -3.0625,2.7125 -5.55625,2.7125 -2.23125,0 -3.63125,-1.61875 -3.63125,-3.675 z" />
      <path
         id="path8451"
         style=""
         d="m 923.51699,954.6302 c 1.35625,0 2.40625,-1.09375 2.40625,-2.3625 0,-1.4 -1.05,-2.45 -2.40625,-2.45 -1.3125,0 -2.3625,1.05 -2.3625,2.45 0,1.26875 1.05,2.3625 2.3625,2.3625 z m -1.53125,24.45625 c 0,0.525 0.4375,0.9625 0.9625,0.9625 l 1.3125,0 c 0.48125,0 0.9625,-0.4375 0.9625,-0.9625 l 0,-18.2875 c 0,-0.48125 -0.48125,-0.9625 -0.9625,-0.9625 l -1.3125,0 c -0.525,0 -0.9625,0.48125 -0.9625,0.9625 l 0,18.2875 z" />
      <path
         id="path8453"
         style=""
         d="m 932.06875,979.08645 c 0,0.525 0.4375,0.9625 0.9625,0.9625 l 1.3125,0 c 0.48125,0 0.9625,-0.4375 0.9625,-0.9625 l 0,-13.95625 c 0,0 2.40625,-2.8 6.2125,-2.8 2.975,0 4.2875,1.79375 4.2875,5.64375 l 0,11.1125 c 0,0.525 0.4375,0.9625 0.9625,0.9625 l 1.3125,0 c 0.48125,0 0.9625,-0.4375 0.9625,-0.9625 l 0,-10.675 c 0,-5.20625 -1.44375,-9.0125 -7.30625,-9.0125 -4.2,0 -6.78125,2.58125 -6.78125,2.58125 l -0.4375,-1.53125 c -0.0875,-0.4375 -0.35,-0.6125 -0.7875,-0.6125 l -0.7,0 c -0.525,0 -0.9625,0.48125 -0.9625,0.9625 l 0,18.2875 z" />
      <path
         id="path8455"
         style=""
         d="m 954.38398,969.9427 c 0,5.775 3.675,10.5875 9.8,10.5875 3.5,0 6.16875,-1.35625 7.39375,-2.31875 0.74375,-0.56875 0.56875,-0.7875 0.175,-1.4 l -0.525,-0.74375 c -0.525,-0.7875 -0.83125,-0.6125 -1.53125,-0.13125 -1.1375,0.74375 -2.8,1.6625 -5.46875,1.6625 -3.675,0 -6.51875,-3.54375 -6.60625,-6.9125 l 14.7,0 c 0.4375,0 0.875,-0.35 0.91875,-0.875 0.0438,-0.35 0.0875,-0.875 0.0875,-1.225 0,-5.29375 -3.85,-9.1875 -9.14375,-9.1875 -6.125,0 -9.8,4.85625 -9.8,10.54375 z m 3.28125,-1.8375 c 0.39375,-3.15 3.10625,-5.775 6.51875,-5.775 3.45625,0 5.81875,2.8 5.90625,5.775 l -12.425,0 z" />
      <path
         id="path8457"
         style=""
         d="m 978.55313,979.08645 c 0,0.525 0.4375,0.9625 0.96249,0.9625 l 1.3125,0 c 0.48126,0 0.9625,-0.4375 0.9625,-0.9625 l 0,-14 c 0,0 1.57501,-2.58125 5.46875,-2.58125 0.9625,0 1.70626,0.35 2.1875,0.56875 0.48126,0.21875 0.9625,0.175 1.18125,-0.48125 l 0.56875,-1.575 c 0.48126,-1.4 -2.01249,-1.61875 -3.54374,-1.61875 -4.20001,0 -6.21251,2.58125 -6.21251,2.58125 l -0.34999,-1.44375 c -0.13125,-0.48125 -0.48126,-0.7 -0.875,-0.7 l -0.70001,0 c -0.52499,0 -0.96249,0.48125 -0.96249,0.9625 l 0,18.2875 z" />
      <path
         id="path8459"
         style=""
         d="m 1001.0304,980.5302 c 4.1125,0 6.8687,-2.58125 6.8687,-5.775 0,-3.675 -3.0187,-4.9875 -6.5187,-6.60625 -2.45003,-1.1375 -3.85003,-1.79375 -3.85003,-3.5875 0,-0.9625 0.74375,-2.23125 2.97503,-2.23125 1.8812,0 3.2812,0.65625 4.1562,1.18125 0.4375,0.2625 1.0938,0.21875 1.4,-0.35 l 0.4375,-0.83125 c 0.3063,-0.56875 0.2188,-1.00625 -0.2187,-1.35625 -0.9625,-0.7 -3.15,-1.575 -5.775,-1.575 -4.68128,0 -6.25628,3.19375 -6.25628,5.29375 0,3.45625 3.0625,4.9 5.73125,6.2125 2.93123,1.44375 4.50623,2.23125 4.50623,4.15625 0,1.575 -1.4,2.5375 -3.4562,2.5375 -2.58128,0 -4.33128,-1.26875 -5.03128,-1.79375 -0.56875,-0.39375 -0.91875,-0.21875 -1.18125,0.2625 l -0.6125,1.1375 c -0.175,0.35 -0.0875,0.65625 0.13125,0.875 1.05,0.9625 3.325,2.45 6.69378,2.45 z" />
      <path
         id="path8461"
         style=""
         d="m 1013.212,970.42395 9.1438,0 c 0.4812,0 0.8312,-0.35 0.8312,-0.7875 l 0,-0.83125 c 0,-0.48125 -0.35,-0.83125 -0.8312,-0.83125 l -9.1438,0 c -0.4812,0 -0.8312,0.35 -0.8312,0.83125 l 0,0.83125 c 0,0.4375 0.35,0.7875 0.8312,0.7875 z" />
      <path
         id="path8463"
         style=""
         d="m 1040.1538,980.48645 c 7,0 10.9813,-5.90625 10.9813,-15.75 0,-9.8875 -3.9813,-15.75 -10.9813,-15.75 -6.9562,0 -10.9375,5.8625 -10.9375,15.75 0,9.84375 3.9813,15.75 10.9375,15.75 z m 0,-3.0625 c -4.9437,0 -7.525,-4.4625 -7.525,-12.6875 0,-8.18125 2.5813,-12.6875 7.525,-12.6875 4.9875,0 7.5688,4.50625 7.5688,12.6875 0,8.225 -2.5813,12.6875 -7.5688,12.6875 z" />
      <path
         id="path8465"
         style=""
         d="m 1056.7166,977.59895 c 0,1.575 1.2688,2.93125 2.8438,2.93125 1.6187,0 2.8875,-1.35625 2.8875,-2.93125 0,-1.575 -1.2688,-2.84375 -2.8875,-2.84375 -1.575,0 -2.8438,1.26875 -2.8438,2.84375 z" />
      <path
         id="path8467"
         style=""
         d="m 1072.0353,977.0302 8.575,-9.14375 c 3.1062,-3.325 5.6437,-6.25625 5.6437,-10.2375 0,-4.59375 -3.2812,-8.6625 -9.7562,-8.6625 -5.3375,0 -8.5313,4.41875 -8.5313,4.41875 -0.3062,0.35 -0.2187,0.875 0.044,1.18125 l 0.875,0.875 c 0.3937,0.35 0.875,0.35 1.225,0 1.4,-1.4875 3.6312,-3.4125 6.3875,-3.4125 4.6812,0 6.3437,3.10625 6.3437,5.6875 0,2.14375 -1.4875,4.8125 -4.55,8.18125 -3.5437,3.71875 -7,7.56875 -10.5,11.33125 -0.5687,0.6125 -0.5687,0.83125 -0.5687,1.3125 l 0,0.6125 c 0,0.48125 0.35,0.875 0.875,0.875 l 17.1062,0 c 0.4813,0 0.875,-0.39375 0.875,-0.875 l 0,-1.18125 c 0,-0.48125 -0.3937,-0.875 -0.875,-0.875 l -13.1687,0 0,-0.0875 z" />
      <path
         id="path8469"
         style=""
         d="m 1091.6653,977.59895 c 0,1.575 1.2688,2.93125 2.8438,2.93125 1.6187,0 2.8875,-1.35625 2.8875,-2.93125 0,-1.575 -1.2688,-2.84375 -2.8875,-2.84375 -1.575,0 -2.8438,1.26875 -2.8438,2.84375 z" />
      <path
         id="path8471"
         style=""
         d="m 1102.8715,971.7802 c 0,4.9 3.6312,8.70625 10.0625,8.70625 6.6062,0 10.1937,-3.80625 10.1937,-8.70625 0,-3.89375 -3.325,-6.60625 -5.425,-7.48125 l 0,-0.175 c 2.0125,-0.91875 4.6375,-3.5 4.6375,-6.95625 0,-4.9875 -3.9375,-8.18125 -9.3625,-8.18125 -5.3812,0 -9.3187,3.19375 -9.3187,8.18125 0,3.45625 2.625,6.0375 4.6375,6.95625 l 0,0.175 c -2.1,0.875 -5.425,3.5875 -5.425,7.48125 z m 10.15,-9.1 c -4.2,-0.39375 -5.9938,-2.58125 -5.9938,-5.38125 0,-3.36875 2.5375,-5.6 5.9938,-5.6 3.3687,0 5.9937,2.23125 5.9937,5.6 0,2.8 -1.8812,4.9875 -5.9937,5.38125 z m -6.7813,9.40625 c 0,-2.8 2.45,-5.6 6.7813,-6.0375 4.2437,0.4375 6.7375,3.2375 6.7375,6.0375 0,3.54375 -2.8,5.73125 -6.825,5.73125 -4.0688,0 -6.6938,-2.275 -6.6938,-5.73125 z" />
      <path
         id="path8473"
         style=""
         d="m 1128.5794,977.59895 c 0,1.575 1.2687,2.93125 2.8437,2.93125 1.6188,0 2.8875,-1.35625 2.8875,-2.93125 0,-1.575 -1.2687,-2.84375 -2.8875,-2.84375 -1.575,0 -2.8437,1.26875 -2.8437,2.84375 z" />
      <path
         id="path8475"
         style=""
         d="m 1150.8105,980.48645 c 7,0 10.9813,-5.90625 10.9813,-15.75 0,-9.8875 -3.9813,-15.75 -10.9813,-15.75 -6.9562,0 -10.9375,5.8625 -10.9375,15.75 0,9.84375 3.9813,15.75 10.9375,15.75 z m 0,-3.0625 c -4.9437,0 -7.525,-4.4625 -7.525,-12.6875 0,-8.18125 2.5813,-12.6875 7.525,-12.6875 4.9875,0 7.5688,4.50625 7.5688,12.6875 0,8.225 -2.5813,12.6875 -7.5688,12.6875 z" />
      <path
         id="path8477"
         style=""
         d="m 1168.7296,970.42395 9.1437,0 c 0.4813,0 0.8313,-0.35 0.8313,-0.7875 l 0,-0.83125 c 0,-0.48125 -0.35,-0.83125 -0.8313,-0.83125 l -9.1437,0 c -0.4813,0 -0.8313,0.35 -0.8313,0.83125 l 0,0.83125 c 0,0.4375 0.35,0.7875 0.8313,0.7875 z" />
      <path
         id="path8479"
         style=""
         d="m 1183.8151,969.9427 c 0,5.775 3.675,10.5875 9.8,10.5875 3.5,0 6.1688,-1.35625 7.3938,-2.31875 0.7437,-0.56875 0.5687,-0.7875 0.175,-1.4 l -0.525,-0.74375 c -0.525,-0.7875 -0.8313,-0.6125 -1.5313,-0.13125 -1.1375,0.74375 -2.8,1.6625 -5.4687,1.6625 -3.675,0 -6.5188,-3.54375 -6.6063,-6.9125 l 14.7,0 c 0.4375,0 0.875,-0.35 0.9188,-0.875 0.044,-0.35 0.088,-0.875 0.088,-1.225 0,-5.29375 -3.85,-9.1875 -9.1438,-9.1875 -6.125,0 -9.8,4.85625 -9.8,10.54375 z m 3.2813,-1.8375 c 0.3937,-3.15 3.1062,-5.775 6.5187,-5.775 3.4563,0 5.8188,2.8 5.9063,5.775 l -12.425,0 z" />
      <path
         id="path8481"
         style=""
         d="m 1206.7155,969.9427 c 0,5.775 3.675,10.5875 9.8,10.5875 3.5,0 6.1688,-1.35625 7.3938,-2.31875 0.7437,-0.56875 0.5687,-0.7875 0.175,-1.4 l -0.525,-0.74375 c -0.525,-0.7875 -0.8313,-0.6125 -1.5313,-0.13125 -1.1375,0.74375 -2.8,1.6625 -5.4687,1.6625 -3.675,0 -6.5188,-3.54375 -6.6063,-6.9125 l 14.7,0 c 0.4375,0 0.875,-0.35 0.9188,-0.875 0.044,-0.35 0.088,-0.875 0.088,-1.225 0,-5.29375 -3.85,-9.1875 -9.1438,-9.1875 -6.125,0 -9.8,4.85625 -9.8,10.54375 z m 3.2813,-1.8375 c 0.3937,-3.15 3.1062,-5.775 6.5187,-5.775 3.4563,0 5.8188,2.8 5.9063,5.775 l -12.425,0 z" />
      <path
         id="path8483"
         style=""
         d="m 1234.5597,977.0302 8.575,-9.14375 c 3.1062,-3.325 5.6437,-6.25625 5.6437,-10.2375 0,-4.59375 -3.2812,-8.6625 -9.7562,-8.6625 -5.3375,0 -8.5313,4.41875 -8.5313,4.41875 -0.3062,0.35 -0.2187,0.875 0.044,1.18125 l 0.875,0.875 c 0.3937,0.35 0.875,0.35 1.225,0 1.4,-1.4875 3.6312,-3.4125 6.3875,-3.4125 4.6812,0 6.3437,3.10625 6.3437,5.6875 0,2.14375 -1.4875,4.8125 -4.55,8.18125 -3.5437,3.71875 -7,7.56875 -10.5,11.33125 -0.5687,0.6125 -0.5687,0.83125 -0.5687,1.3125 l 0,0.6125 c 0,0.48125 0.35,0.875 0.875,0.875 l 17.1062,0 c 0.4813,0 0.875,-0.39375 0.875,-0.875 l 0,-1.18125 c 0,-0.48125 -0.3937,-0.875 -0.875,-0.875 l -13.1687,0 0,-0.0875 z" />
      <path
         id="path8485"
         style=""
         d="m 1254.5397,967.6677 c 0,7.175 3.1938,12.81875 10.5,12.81875 5.3813,0 9.9313,-4.6375 9.9313,-10.325 0,-5.99375 -4.5938,-9.75625 -9.6688,-9.75625 -3.8937,0 -6.8687,2.0125 -6.8687,2.0125 1.575,-6.08125 8.8812,-9.75625 11.5937,-10.89375 0.7875,-0.35 1.05,-0.7875 0.7875,-1.3125 l -0.4812,-1.09375 c -0.175,-0.39375 -0.525,-0.6125 -1.0063,-0.4375 -4.55,1.79375 -14.7875,7 -14.7875,18.9875 z m 10.5,9.84375 c -5.2937,0 -7.35,-4.9 -7.35,-9.14375 0,-0.74375 0.044,-1.44375 0.175,-2.1 0,0 2.9313,-2.93125 7.1313,-2.93125 3.7625,0 6.7812,3.10625 6.7812,7.04375 0,3.85 -2.975,7.13125 -6.7375,7.13125 z" />
      <path
         id="path8487"
         style=""
         d="m 1279.4827,977.59895 c 0,1.575 1.2688,2.93125 2.8438,2.93125 1.6187,0 2.8875,-1.35625 2.8875,-2.93125 0,-1.575 -1.2688,-2.84375 -2.8875,-2.84375 -1.575,0 -2.8438,1.26875 -2.8438,2.84375 z" />
      <path
         id="path8489"
         style=""
         d="m 1290.1639,977.59895 c 0,1.575 1.2687,2.93125 2.8437,2.93125 1.6188,0 2.8875,-1.35625 2.8875,-2.93125 0,-1.575 -1.2687,-2.84375 -2.8875,-2.84375 -1.575,0 -2.8437,1.26875 -2.8437,2.84375 z" />
      <path
         id="path8491"
         style=""
         d="m 1300.845,977.59895 c 0,1.575 1.2688,2.93125 2.8438,2.93125 1.6187,0 2.8875,-1.35625 2.8875,-2.93125 0,-1.575 -1.2688,-2.84375 -2.8875,-2.84375 -1.575,0 -2.8438,1.26875 -2.8438,2.84375 z" />
    </g>
    <rect
       style="opacity:1;fill:none;fill-opacity:1;fill-rule:nonzero;stroke:#5333ed;stroke-width:2.12108278;stroke-linecap:round;stroke-linejoin:round;stroke-miterlimit:4;stroke-dasharray:none;stroke-dashoffset:40;stroke-opacity:1"
       id="rect8369"
       width="875.04614"
       height="248.94247"
       x="509.22693"
       y="1168.9537"
       ry="15.475425" />
    <g
       id="text8371"
       style="font-style:normal;font-variant:normal;font-weight:normal;font-stretch:normal;font-size:43.75px;line-height:125%;font-family:'Brandon Text';-inkscape-font-specification:'Brandon Text, Normal';text-align:start;letter-spacing:0px;word-spacing:0px;writing-mode:lr-tb;text-anchor:start;fill:#ffffff;fill-opacity:1;stroke:none;stroke-width:1px;stroke-linecap:butt;stroke-linejoin:miter;stroke-opacity:1">
      <path
         id="path8348"
         style=""
         d="m 601.41787,1300.3593 c 0,5.3375 1.4,8.8375 7.21875,8.8375 3.63125,0 5.5125,-1.8375 6.25625,-2.625 l 0.39375,1.2688 c 0.13125,0.525 0.35,0.875 0.91875,0.875 l 0.7,0 c 0.48125,0 0.91875,-0.4375 0.91875,-0.9625 l 0,-18.2875 c 0,-0.4813 -0.4375,-0.9625 -0.91875,-0.9625 l -1.35625,0 c -0.525,0 -0.91875,0.4812 -0.91875,0.9625 l 0,13.8687 c -0.91875,1.05 -2.7125,2.9313 -5.73125,2.9313 -2.93125,0 -4.24375,-1.8375 -4.24375,-5.8625 l 0,-10.9375 c 0,-0.4813 -0.4375,-0.9625 -0.9625,-0.9625 l -1.3125,0 c -0.56875,0 -0.9625,0.4812 -0.9625,0.9625 l 0,10.8937 z" />
      <path
         id="path8350"
         style=""
         d="m 624.62246,1307.7531 c 0,0.525 0.4375,0.9625 0.9625,0.9625 l 1.3125,0 c 0.48125,0 0.9625,-0.4375 0.9625,-0.9625 l 0,-13.9563 c 0,0 2.40625,-2.8 6.2125,-2.8 2.975,0 4.2875,1.7938 4.2875,5.6438 l 0,11.1125 c 0,0.525 0.4375,0.9625 0.9625,0.9625 l 1.3125,0 c 0.48125,0 0.9625,-0.4375 0.9625,-0.9625 l 0,-10.675 c 0,-5.2063 -1.44375,-9.0125 -7.30625,-9.0125 -4.2,0 -6.78125,2.5812 -6.78125,2.5812 l -0.4375,-1.5312 c -0.0875,-0.4375 -0.35,-0.6125 -0.7875,-0.6125 l -0.7,0 c -0.525,0 -0.9625,0.4812 -0.9625,0.9625 l 0,18.2875 z" />
      <path
         id="path8352"
         style=""
         d="m 646.89395,1298.5656 c 0,5.775 4.55,10.6312 10.15,10.6312 5.6,0 10.15,-4.8562 10.15,-10.6312 0,-5.6875 -4.55,-10.5 -10.15,-10.5 -5.6,0 -10.15,4.8125 -10.15,10.5 z m 3.19375,0 c 0,-4.1125 2.975,-7.5688 6.95625,-7.5688 3.98125,0 6.9125,3.4563 6.9125,7.5688 0,4.2 -2.93125,7.7 -6.9125,7.7 -3.98125,0 -6.95625,-3.5 -6.95625,-7.7 z" />
      <path
         id="path8354"
         style=""
         d="m 672.73037,1307.7531 c 0,0.525 0.4375,0.9625 0.9625,0.9625 l 1.3125,0 c 0.48125,0 0.9625,-0.4375 0.9625,-0.9625 l 0,-14 c 0,0 1.575,-2.5813 5.46875,-2.5813 0.9625,0 1.70625,0.35 2.1875,0.5688 0.48125,0.2187 0.9625,0.175 1.18125,-0.4813 l 0.56875,-1.575 c 0.48125,-1.4 -2.0125,-1.6187 -3.54375,-1.6187 -4.2,0 -6.2125,2.5812 -6.2125,2.5812 l -0.35,-1.4437 c -0.13125,-0.4813 -0.48125,-0.7 -0.875,-0.7 l -0.7,0 c -0.525,0 -0.9625,0.4812 -0.9625,0.9625 l 0,18.2875 z" />
      <path
         id="path8356"
         style=""
         d="m 687.61152,1298.5656 c 0,5.775 3.9375,10.6312 9.05625,10.6312 3.80625,0 6.3875,-2.625 6.3875,-2.625 l 0.2625,1.3125 c 0.175,0.4813 0.4375,0.8313 0.875,0.8313 l 0.7875,0 c 0.525,0 1.00625,-0.4375 1.00625,-0.9625 l 0,-28.7 c 0,-0.4813 -0.48125,-0.9625 -1.00625,-0.9625 l -1.225,0 c -0.525,0 -0.9625,0.4812 -0.9625,0.9625 l 0,10.2812 c 0,0 -2.275,-1.2687 -5.6,-1.2687 -6.08125,0 -9.58125,4.5937 -9.58125,10.5 z m 3.28125,0.044 c 0,-4.025 2.40625,-7.6125 6.7375,-7.6125 2.8,0 5.1625,1.1375 5.1625,1.1375 l 0,10.8938 c 0,0 -2.1,3.2375 -5.73125,3.2375 -3.675,0 -6.16875,-3.7188 -6.16875,-7.6563 z" />
      <path
         id="path8358"
         style=""
         d="m 711.5373,1298.6093 c 0,5.775 3.675,10.5875 9.8,10.5875 3.5,0 6.16875,-1.3562 7.39375,-2.3187 0.74375,-0.5688 0.56875,-0.7875 0.175,-1.4 l -0.525,-0.7438 c -0.525,-0.7875 -0.83125,-0.6125 -1.53125,-0.1312 -1.1375,0.7437 -2.8,1.6625 -5.46875,1.6625 -3.675,0 -6.51875,-3.5438 -6.60625,-6.9125 l 14.7,0 c 0.4375,0 0.875,-0.35 0.91875,-0.875 0.0438,-0.35 0.0875,-0.875 0.0875,-1.225 0,-5.2938 -3.85,-9.1875 -9.14375,-9.1875 -6.125,0 -9.8,4.8562 -9.8,10.5437 z m 3.28125,-1.8375 c 0.39375,-3.15 3.10625,-5.775 6.51875,-5.775 3.45625,0 5.81875,2.8 5.90625,5.775 l -12.425,0 z" />
      <path
         id="path8360"
         style=""
         d="m 735.70645,1307.7531 c 0,0.525 0.4375,0.9625 0.9625,0.9625 l 1.3125,0 c 0.48125,0 0.9625,-0.4375 0.9625,-0.9625 l 0,-14 c 0,0 1.575,-2.5813 5.46875,-2.5813 0.9625,0 1.70625,0.35 2.1875,0.5688 0.48125,0.2187 0.9625,0.175 1.18125,-0.4813 l 0.56875,-1.575 c 0.48125,-1.4 -2.0125,-1.6187 -3.54375,-1.6187 -4.2,0 -6.2125,2.5812 -6.2125,2.5812 l -0.35,-1.4437 c -0.13125,-0.4813 -0.48125,-0.7 -0.875,-0.7 l -0.7,0 c -0.525,0 -0.9625,0.4812 -0.9625,0.9625 l 0,18.2875 z" />
      <path
         id="path8362"
         style=""
         d="m 750.5876,1298.6093 c 0,5.775 3.675,10.5875 9.8,10.5875 3.5,0 6.16875,-1.3562 7.39375,-2.3187 0.74375,-0.5688 0.56875,-0.7875 0.175,-1.4 l -0.525,-0.7438 c -0.525,-0.7875 -0.83125,-0.6125 -1.53125,-0.1312 -1.1375,0.7437 -2.8,1.6625 -5.46875,1.6625 -3.675,0 -6.51875,-3.5438 -6.60625,-6.9125 l 14.7,0 c 0.4375,0 0.875,-0.35 0.91875,-0.875 0.0438,-0.35 0.0875,-0.875 0.0875,-1.225 0,-5.2938 -3.85,-9.1875 -9.14375,-9.1875 -6.125,0 -9.8,4.8562 -9.8,10.5437 z m 3.28125,-1.8375 c 0.39375,-3.15 3.10625,-5.775 6.51875,-5.775 3.45625,0 5.81875,2.8 5.90625,5.775 l -12.425,0 z" />
      <path
         id="path8364"
         style=""
         d="m 773.48799,1298.5656 c 0,5.775 3.9375,10.6312 9.05625,10.6312 3.80625,0 6.3875,-2.625 6.3875,-2.625 l 0.2625,1.3125 c 0.175,0.4813 0.4375,0.8313 0.875,0.8313 l 0.7875,0 c 0.525,0 1.00625,-0.4375 1.00625,-0.9625 l 0,-28.7 c 0,-0.4813 -0.48125,-0.9625 -1.00625,-0.9625 l -1.225,0 c -0.525,0 -0.9625,0.4812 -0.9625,0.9625 l 0,10.2812 c 0,0 -2.275,-1.2687 -5.6,-1.2687 -6.08125,0 -9.58125,4.5937 -9.58125,10.5 z m 3.28125,0.044 c 0,-4.025 2.40625,-7.6125 6.7375,-7.6125 2.8,0 5.1625,1.1375 5.1625,1.1375 l 0,10.8938 c 0,0 -2.1,3.2375 -5.73125,3.2375 -3.675,0 -6.16875,-3.7188 -6.16875,-7.6563 z" />
      <path
         id="path8366"
         style=""
         d="m 799.07627,1299.0906 9.14375,0 c 0.48125,0 0.83125,-0.35 0.83125,-0.7875 l 0,-0.8313 c 0,-0.4812 -0.35,-0.8312 -0.83125,-0.8312 l -9.14375,0 c -0.48125,0 -0.83125,0.35 -0.83125,0.8312 l 0,0.8313 c 0,0.4375 0.35,0.7875 0.83125,0.7875 z" />
      <path
         id="path8368"
         style=""
         d="m 814.11807,1298.6531 c 0,6.0812 4.2,10.5437 10.19375,10.5437 3.36875,0 6.08125,-1.8375 7.6125,-4.0687 0.35,-0.525 0.175,-0.9625 -0.2625,-1.4 l -0.2625,-0.2625 c -0.56875,-0.5688 -1.1375,-0.7438 -1.70625,-0.088 -1.1375,1.3125 -2.45,2.8875 -5.5125,2.8875 -3.7625,0 -6.78125,-3.3688 -6.78125,-7.6563 0,-4.2 3.0625,-7.6125 6.9125,-7.6125 2.05625,0 3.675,0.6125 5.075,2.1875 0.39375,0.4375 0.7875,0.875 1.44375,0.3063 l 0.7,-0.6563 c 0.48125,-0.3937 0.56875,-0.9625 0.175,-1.4437 -1.88125,-2.1438 -4.33125,-3.325 -7.35,-3.325 -5.8625,0 -10.2375,4.6375 -10.2375,10.5875 z" />
      <path
         id="path8370"
         style=""
         d="m 835.73672,1298.5656 c 0,5.775 4.55,10.6312 10.15,10.6312 5.6,0 10.15,-4.8562 10.15,-10.6312 0,-5.6875 -4.55,-10.5 -10.15,-10.5 -5.6,0 -10.15,4.8125 -10.15,10.5 z m 3.19375,0 c 0,-4.1125 2.975,-7.5688 6.95625,-7.5688 3.98125,0 6.9125,3.4563 6.9125,7.5688 0,4.2 -2.93125,7.7 -6.9125,7.7 -3.98125,0 -6.95625,-3.5 -6.95625,-7.7 z" />
      <path
         id="path8372"
         style=""
         d="m 861.57314,1307.7531 c 0,0.525 0.4375,0.9625 0.9625,0.9625 l 1.3125,0 c 0.48125,0 0.9625,-0.4375 0.9625,-0.9625 l 0,-13.9563 c 0,0 2.40625,-2.8 6.2125,-2.8 2.975,0 4.2875,1.7938 4.2875,5.6438 l 0,11.1125 c 0,0.525 0.4375,0.9625 0.9625,0.9625 l 1.3125,0 c 0.48125,0 0.9625,-0.4375 0.9625,-0.9625 l 0,-10.675 c 0,-5.2063 -1.44375,-9.0125 -7.30625,-9.0125 -4.2,0 -6.78125,2.5812 -6.78125,2.5812 l -0.4375,-1.5312 c -0.0875,-0.4375 -0.35,-0.6125 -0.7875,-0.6125 l -0.7,0 c -0.525,0 -0.9625,0.4812 -0.9625,0.9625 l 0,18.2875 z" />
      <path
         id="path8374"
         style=""
         d="m 886.21328,1291.3031 0,12.2937 c 0,3.15 0.7875,5.6 4.6375,5.6 2.7125,0 4.8125,-1.0062 5.6875,-1.6187 0.525,-0.35 0.6125,-0.6563 0.35,-1.3125 l -0.39375,-0.9188 c -0.21875,-0.4812 -0.48125,-0.875 -1.26875,-0.3937 -0.83125,0.525 -2.1,1.3125 -3.98125,1.3125 -1.1375,0 -1.79375,-0.7875 -1.79375,-2.8875 l 0,-12.075 5.95,0 c 0.56875,0 1.00625,-0.4375 1.00625,-0.9625 l 0,-0.875 c 0,-0.5688 -0.4375,-0.9625 -1.00625,-0.9625 l -5.95,0 0,-5.6875 c 0,-0.525 -0.39375,-1.0063 -0.91875,-0.9625 l -1.35625,0.087 c -0.48125,0.044 -0.9625,0.4375 -0.9625,0.9625 l 0,5.6 -2.66875,0 c -0.6125,0 -1.00625,0.3937 -1.00625,0.9625 l 0,0.875 c 0,0.525 0.39375,0.9625 1.00625,0.9625 l 2.66875,0 z" />
      <path
         id="path8376"
         style=""
         d="m 899.81748,1302.5906 c 0,4.0687 2.7125,6.6062 6.25625,6.6062 3.10625,0 5.20625,-1.5312 6.25625,-2.5812 l 0.39375,1.3562 c 0.13125,0.4375 0.30625,0.7438 0.83125,0.7438 l 0.83125,0 c 0.525,0 0.9625,-0.4375 0.9625,-0.9625 l 0,-11.2 c 0,-5.95 -1.09375,-8.4875 -6.25625,-8.4875 -3.325,0 -5.95,0.875 -6.95625,1.3125 -0.48125,0.2187 -0.7875,0.4812 -0.6125,1.0937 l 0.4375,1.1813 c 0.175,0.4812 0.4375,0.7437 0.9625,0.525 0.91875,-0.3063 3.2375,-1.1813 5.99375,-1.1813 2.8875,0 3.36875,1.8375 3.325,5.5563 0,0 -2.1875,-0.6563 -4.33125,-0.6563 -5.20625,0 -8.09375,2.8438 -8.09375,6.6938 z m 3.19375,0 c 0,-2.5813 2.1,-3.9375 4.9,-3.9375 2.0125,0 3.63125,0.4375 4.2875,0.7875 l 0,4.1125 c -0.875,1.3125 -3.0625,2.7125 -5.55625,2.7125 -2.23125,0 -3.63125,-1.6188 -3.63125,-3.675 z" />
      <path
         id="path8378"
         style=""
         d="m 923.51699,1283.2968 c 1.35625,0 2.40625,-1.0937 2.40625,-2.3625 0,-1.4 -1.05,-2.45 -2.40625,-2.45 -1.3125,0 -2.3625,1.05 -2.3625,2.45 0,1.2688 1.05,2.3625 2.3625,2.3625 z m -1.53125,24.4563 c 0,0.525 0.4375,0.9625 0.9625,0.9625 l 1.3125,0 c 0.48125,0 0.9625,-0.4375 0.9625,-0.9625 l 0,-18.2875 c 0,-0.4813 -0.48125,-0.9625 -0.9625,-0.9625 l -1.3125,0 c -0.525,0 -0.9625,0.4812 -0.9625,0.9625 l 0,18.2875 z" />
      <path
         id="path8380"
         style=""
         d="m 932.06875,1307.7531 c 0,0.525 0.4375,0.9625 0.9625,0.9625 l 1.3125,0 c 0.48125,0 0.9625,-0.4375 0.9625,-0.9625 l 0,-13.9563 c 0,0 2.40625,-2.8 6.2125,-2.8 2.975,0 4.2875,1.7938 4.2875,5.6438 l 0,11.1125 c 0,0.525 0.4375,0.9625 0.9625,0.9625 l 1.3125,0 c 0.48125,0 0.9625,-0.4375 0.9625,-0.9625 l 0,-10.675 c 0,-5.2063 -1.44375,-9.0125 -7.30625,-9.0125 -4.2,0 -6.78125,2.5812 -6.78125,2.5812 l -0.4375,-1.5312 c -0.0875,-0.4375 -0.35,-0.6125 -0.7875,-0.6125 l -0.7,0 c -0.525,0 -0.9625,0.4812 -0.9625,0.9625 l 0,18.2875 z" />
      <path
         id="path8382"
         style=""
         d="m 954.38398,1298.6093 c 0,5.775 3.675,10.5875 9.8,10.5875 3.5,0 6.16875,-1.3562 7.39375,-2.3187 0.74375,-0.5688 0.56875,-0.7875 0.175,-1.4 l -0.525,-0.7438 c -0.525,-0.7875 -0.83125,-0.6125 -1.53125,-0.1312 -1.1375,0.7437 -2.8,1.6625 -5.46875,1.6625 -3.675,0 -6.51875,-3.5438 -6.60625,-6.9125 l 14.7,0 c 0.4375,0 0.875,-0.35 0.91875,-0.875 0.0438,-0.35 0.0875,-0.875 0.0875,-1.225 0,-5.2938 -3.85,-9.1875 -9.14375,-9.1875 -6.125,0 -9.8,4.8562 -9.8,10.5437 z m 3.28125,-1.8375 c 0.39375,-3.15 3.10625,-5.775 6.51875,-5.775 3.45625,0 5.81875,2.8 5.90625,5.775 l -12.425,0 z" />
      <path
         id="path8384"
         style=""
         d="m 978.55313,1307.7531 c 0,0.525 0.4375,0.9625 0.96249,0.9625 l 1.3125,0 c 0.48126,0 0.9625,-0.4375 0.9625,-0.9625 l 0,-14 c 0,0 1.57501,-2.5813 5.46875,-2.5813 0.9625,0 1.70626,0.35 2.1875,0.5688 0.48126,0.2187 0.9625,0.175 1.18125,-0.4813 l 0.56875,-1.575 c 0.48126,-1.4 -2.01249,-1.6187 -3.54374,-1.6187 -4.20001,0 -6.21251,2.5812 -6.21251,2.5812 l -0.34999,-1.4437 c -0.13125,-0.4813 -0.48126,-0.7 -0.875,-0.7 l -0.70001,0 c -0.52499,0 -0.96249,0.4812 -0.96249,0.9625 l 0,18.2875 z" />
      <path
         id="path8386"
         style=""
         d="m 1001.0304,1309.1968 c 4.1125,0 6.8687,-2.5812 6.8687,-5.775 0,-3.675 -3.0187,-4.9875 -6.5187,-6.6062 -2.45003,-1.1375 -3.85003,-1.7938 -3.85003,-3.5875 0,-0.9625 0.74375,-2.2313 2.97503,-2.2313 1.8812,0 3.2812,0.6563 4.1562,1.1813 0.4375,0.2625 1.0938,0.2187 1.4,-0.35 l 0.4375,-0.8313 c 0.3063,-0.5687 0.2188,-1.0062 -0.2187,-1.3562 -0.9625,-0.7 -3.15,-1.575 -5.775,-1.575 -4.68128,0 -6.25628,3.1937 -6.25628,5.2937 0,3.4563 3.0625,4.9 5.73125,6.2125 2.93123,1.4438 4.50623,2.2313 4.50623,4.1563 0,1.575 -1.4,2.5375 -3.4562,2.5375 -2.58128,0 -4.33128,-1.2688 -5.03128,-1.7938 -0.56875,-0.3937 -0.91875,-0.2187 -1.18125,0.2625 l -0.6125,1.1375 c -0.175,0.35 -0.0875,0.6563 0.13125,0.875 1.05,0.9625 3.325,2.45 6.69378,2.45 z" />
      <path
         id="path8388"
         style=""
         d="m 1013.212,1299.0906 9.1438,0 c 0.4812,0 0.8312,-0.35 0.8312,-0.7875 l 0,-0.8313 c 0,-0.4812 -0.35,-0.8312 -0.8312,-0.8312 l -9.1438,0 c -0.4812,0 -0.8312,0.35 -0.8312,0.8312 l 0,0.8313 c 0,0.4375 0.35,0.7875 0.8312,0.7875 z" />
      <path
         id="path8390"
         style=""
         d="m 1040.1538,1309.1531 c 7,0 10.9813,-5.9063 10.9813,-15.75 0,-9.8875 -3.9813,-15.75 -10.9813,-15.75 -6.9562,0 -10.9375,5.8625 -10.9375,15.75 0,9.8437 3.9813,15.75 10.9375,15.75 z m 0,-3.0625 c -4.9437,0 -7.525,-4.4625 -7.525,-12.6875 0,-8.1813 2.5813,-12.6875 7.525,-12.6875 4.9875,0 7.5688,4.5062 7.5688,12.6875 0,8.225 -2.5813,12.6875 -7.5688,12.6875 z" />
      <path
         id="path8392"
         style=""
         d="m 1056.7166,1306.2656 c 0,1.575 1.2688,2.9312 2.8438,2.9312 1.6187,0 2.8875,-1.3562 2.8875,-2.9312 0,-1.575 -1.2688,-2.8438 -2.8875,-2.8438 -1.575,0 -2.8438,1.2688 -2.8438,2.8438 z" />
      <path
         id="path8394"
         style=""
         d="m 1072.0353,1305.6968 8.575,-9.1437 c 3.1062,-3.325 5.6437,-6.2563 5.6437,-10.2375 0,-4.5938 -3.2812,-8.6625 -9.7562,-8.6625 -5.3375,0 -8.5313,4.4187 -8.5313,4.4187 -0.3062,0.35 -0.2187,0.875 0.044,1.1813 l 0.875,0.875 c 0.3937,0.35 0.875,0.35 1.225,0 1.4,-1.4875 3.6312,-3.4125 6.3875,-3.4125 4.6812,0 6.3437,3.1062 6.3437,5.6875 0,2.1437 -1.4875,4.8125 -4.55,8.1812 -3.5437,3.7188 -7,7.5688 -10.5,11.3313 -0.5687,0.6125 -0.5687,0.8312 -0.5687,1.3125 l 0,0.6125 c 0,0.4812 0.35,0.875 0.875,0.875 l 17.1062,0 c 0.4813,0 0.875,-0.3938 0.875,-0.875 l 0,-1.1813 c 0,-0.4812 -0.3937,-0.875 -0.875,-0.875 l -13.1687,0 0,-0.088 z" />
      <path
         id="path8396"
         style=""
         d="m 1091.6653,1306.2656 c 0,1.575 1.2688,2.9312 2.8438,2.9312 1.6187,0 2.8875,-1.3562 2.8875,-2.9312 0,-1.575 -1.2688,-2.8438 -2.8875,-2.8438 -1.575,0 -2.8438,1.2688 -2.8438,2.8438 z" />
      <path
         id="path8398"
         style=""
         d="m 1105.3816,1307.8406 0.525,1.1812 c 0.175,0.3938 0.5688,0.6563 1.0063,0.4813 4.55,-1.8375 14.8312,-7 14.8312,-18.9875 0,-7.175 -3.1937,-12.8625 -10.5,-12.8625 -5.425,0 -9.975,4.6375 -9.975,10.325 0,5.9937 4.5938,9.8 9.7125,9.8 3.85,0 6.825,-2.0563 6.825,-2.0563 -1.575,6.0813 -9.5812,10.15 -11.6375,10.85 -0.8312,0.2625 -1.0062,0.7438 -0.7875,1.2688 z m 5.9063,-12.9938 c -3.8063,0 -6.825,-3.15 -6.825,-7.0437 0,-3.8938 2.975,-7.175 6.7812,-7.175 5.25,0 7.3063,4.9437 7.3063,9.1875 0,0.7437 -0.044,1.4437 -0.175,2.1 0,0 -2.8875,2.9312 -7.0875,2.9312 z" />
      <path
         id="path8400"
         style=""
         d="m 1125.7596,1306.2656 c 0,1.575 1.2687,2.9312 2.8437,2.9312 1.6188,0 2.8875,-1.3562 2.8875,-2.9312 0,-1.575 -1.2687,-2.8438 -2.8875,-2.8438 -1.575,0 -2.8437,1.2688 -2.8437,2.8438 z" />
      <path
         id="path8402"
         style=""
         d="m 1147.9907,1309.1531 c 7,0 10.9813,-5.9063 10.9813,-15.75 0,-9.8875 -3.9813,-15.75 -10.9813,-15.75 -6.9562,0 -10.9375,5.8625 -10.9375,15.75 0,9.8437 3.9813,15.75 10.9375,15.75 z m 0,-3.0625 c -4.9437,0 -7.525,-4.4625 -7.525,-12.6875 0,-8.1813 2.5813,-12.6875 7.525,-12.6875 4.9875,0 7.5688,4.5062 7.5688,12.6875 0,8.225 -2.5813,12.6875 -7.5688,12.6875 z" />
      <path
         id="path8404"
         style=""
         d="m 1165.9098,1299.0906 9.1437,0 c 0.4813,0 0.8313,-0.35 0.8313,-0.7875 l 0,-0.8313 c 0,-0.4812 -0.35,-0.8312 -0.8313,-0.8312 l -9.1437,0 c -0.4813,0 -0.8313,0.35 -0.8313,0.8312 l 0,0.8313 c 0,0.4375 0.35,0.7875 0.8313,0.7875 z" />
      <path
         id="path8406"
         style=""
         d="m 1182.2641,1307.7531 c 0,0.525 0.4375,0.9625 0.9625,0.9625 l 0.7875,0 c 0.4812,0 0.7875,-0.35 0.875,-0.8313 l 0.2625,-1.3125 c 0,0 2.275,2.625 6.3875,2.625 5.1625,0 9.0562,-4.8562 9.0562,-10.6312 0,-5.9063 -3.5,-10.5 -9.5375,-10.5 -3.3687,0 -5.6,1.2687 -5.6,1.2687 l 0,-10.2812 c 0,-0.4813 -0.4812,-0.9625 -0.9625,-0.9625 l -1.3125,0 c -0.525,0 -0.9187,0.4812 -0.9187,0.9625 l 0,28.7 z m 3.1937,-4.8125 0,-10.675 c 0,0 2.3188,-1.2688 5.1188,-1.2688 4.4187,0 6.7375,3.5875 6.7375,7.6125 0,3.9375 -2.45,7.6563 -6.125,7.6563 -3.6313,0 -5.7313,-3.325 -5.7313,-3.325 z" />
      <path
         id="path8408"
         style=""
         d="m 1204.7919,1298.6531 c 0,6.0812 4.2,10.5437 10.1937,10.5437 3.3688,0 6.0813,-1.8375 7.6125,-4.0687 0.35,-0.525 0.175,-0.9625 -0.2625,-1.4 l -0.2625,-0.2625 c -0.5687,-0.5688 -1.1375,-0.7438 -1.7062,-0.088 -1.1375,1.3125 -2.45,2.8875 -5.5125,2.8875 -3.7625,0 -6.7813,-3.3688 -6.7813,-7.6563 0,-4.2 3.0625,-7.6125 6.9125,-7.6125 2.0563,0 3.675,0.6125 5.075,2.1875 0.3938,0.4375 0.7875,0.875 1.4438,0.3063 l 0.7,-0.6563 c 0.4812,-0.3937 0.5687,-0.9625 0.175,-1.4437 -1.8813,-2.1438 -4.3313,-3.325 -7.35,-3.325 -5.8625,0 -10.2375,4.6375 -10.2375,10.5875 z" />
      <path
         id="path8410"
         style=""
         d="m 1226.4105,1298.6531 c 0,6.0812 4.2,10.5437 10.1938,10.5437 3.3687,0 6.0812,-1.8375 7.6125,-4.0687 0.35,-0.525 0.175,-0.9625 -0.2625,-1.4 l -0.2625,-0.2625 c -0.5688,-0.5688 -1.1375,-0.7438 -1.7063,-0.088 -1.1375,1.3125 -2.45,2.8875 -5.5125,2.8875 -3.7625,0 -6.7812,-3.3688 -6.7812,-7.6563 0,-4.2 3.0625,-7.6125 6.9125,-7.6125 2.0562,0 3.675,0.6125 5.075,2.1875 0.3937,0.4375 0.7875,0.875 1.4437,0.3063 l 0.7,-0.6563 c 0.4813,-0.3937 0.5688,-0.9625 0.175,-1.4437 -1.8812,-2.1438 -4.3312,-3.325 -7.35,-3.325 -5.8625,0 -10.2375,4.6375 -10.2375,10.5875 z" />
      <path
         id="path8412"
         style=""
         d="m 1252.9668,1283.6906 0,24.15 c 0,0.4812 0.3937,0.875 0.875,0.875 l 1.6187,0 c 0.4375,0 0.8313,-0.3938 0.8313,-0.875 l 0,-28.9188 c 0,-0.4375 -0.3938,-0.8312 -0.8313,-0.8312 l -0.7875,0 c -0.3062,0 -0.525,0.088 -0.7437,0.3062 l -5.9938,5.8188 c -0.2187,0.2187 -0.3937,0.6125 -0.088,0.9625 l 0.875,0.9625 c 0.3063,0.35 0.6563,0.3062 1.0063,0.044 l 3.1937,-2.4937 0.044,0 z" />
      <path
         id="path8414"
         style=""
         d="m 1263.3328,1306.2656 c 0,1.575 1.2688,2.9312 2.8438,2.9312 1.6187,0 2.8875,-1.3562 2.8875,-2.9312 0,-1.575 -1.2688,-2.8438 -2.8875,-2.8438 -1.575,0 -2.8438,1.2688 -2.8438,2.8438 z" />
      <path
         id="path8416"
         style=""
         d="m 1274.014,1306.2656 c 0,1.575 1.2687,2.9312 2.8437,2.9312 1.6188,0 2.8875,-1.3562 2.8875,-2.9312 0,-1.575 -1.2687,-2.8438 -2.8875,-2.8438 -1.575,0 -2.8437,1.2688 -2.8437,2.8438 z" />
      <path
         id="path8418"
         style=""
         d="m 1284.6951,1306.2656 c 0,1.575 1.2688,2.9312 2.8438,2.9312 1.6187,0 2.8875,-1.3562 2.8875,-2.9312 0,-1.575 -1.2688,-2.8438 -2.8875,-2.8438 -1.575,0 -2.8438,1.2688 -2.8438,2.8438 z" />
    </g>
  </g>
</svg>
