<?xml version="1.0" encoding="UTF-8" standalone="no"?>
<svg
   xmlns:dc="http://purl.org/dc/elements/1.1/"
   xmlns:cc="http://creativecommons.org/ns#"
   xmlns:rdf="http://www.w3.org/1999/02/22-rdf-syntax-ns#"
   xmlns:svg="http://www.w3.org/2000/svg"
   xmlns="http://www.w3.org/2000/svg"
   xmlns:sodipodi="http://sodipodi.sourceforge.net/DTD/sodipodi-0.dtd"
   xmlns:inkscape="http://www.inkscape.org/namespaces/inkscape"
   width="1893.4999"
   height="2325.3696"
   viewBox="0 0 1893.4999 2325.3698"
   id="svg2"
   version="1.1"
   inkscape:version="0.91 r13725"
   sodipodi:docname="etlas-overview.svg">
  <metadata
     id="metadata974">
    <rdf:RDF>
      <cc:Work
         rdf:about="">
        <dc:format>image/svg+xml</dc:format>
        <dc:type
           rdf:resource="http://purl.org/dc/dcmitype/StillImage" />
        <dc:title>contact-hero</dc:title>
      </cc:Work>
    </rdf:RDF>
  </metadata>
  <sodipodi:namedview
     pagecolor="#ffffff"
     bordercolor="#666666"
     borderopacity="1"
     objecttolerance="10"
     gridtolerance="10"
     guidetolerance="10"
     inkscape:pageopacity="0"
     inkscape:pageshadow="2"
     inkscape:window-width="1280"
     inkscape:window-height="755"
     id="namedview972"
     showgrid="false"
     inkscape:zoom="0.3"
     inkscape:cx="545.5936"
     inkscape:cy="951.72052"
     inkscape:window-x="0"
     inkscape:window-y="1"
     inkscape:window-maximized="1"
     inkscape:current-layer="svg2"
     fit-margin-top="0"
     fit-margin-left="0"
     fit-margin-right="0"
     fit-margin-bottom="0" />
  <defs
     id="defs4">
    <linearGradient
       id="783558c2-5088-44ab-8a03-29b84b614d0f"
       x1="2384.7109"
       y1="1641.2742"
       x2="1039.9078"
       y2="766.62933"
       gradientUnits="userSpaceOnUse"
       gradientTransform="matrix(1.3861638,0,0,2.4927054,-6.1672368e-5,-2.8662216e-5)">
      <stop
         offset="0"
         stop-color="#150773"
         id="stop7" />
      <stop
         offset="0.51"
         stop-color="#5333ed"
         id="stop9" />
      <stop
         offset="1"
         stop-color="#2cd4d9"
         id="stop11" />
    </linearGradient>
  </defs>
  <title
     id="title386">contact-hero</title>
  <rect
     width="1893.5"
     height="2325.3699"
     style="isolation:isolate;fill:url(#783558c2-5088-44ab-8a03-29b84b614d0f)"
     id="rect391"
     x="-6.1035164e-05"
     y="1.9791792e-13" />
  <g
     id="g9077"
     transform="translate(-7.603516e-5,-8.6667235)">
    <g
       transform="translate(-3.5000001e-5,-98.442093)"
       id="text8352"
       style="font-style:normal;font-variant:normal;font-weight:normal;font-stretch:normal;font-size:42.66279602px;line-height:125%;font-family:'Brandon Text';-inkscape-font-specification:'Brandon Text, Normal';text-align:start;letter-spacing:0px;word-spacing:0px;writing-mode:lr-tb;text-anchor:start;fill:#ffffff;fill-opacity:1;stroke:none;stroke-width:1px;stroke-linecap:butt;stroke-linejoin:miter;stroke-opacity:1">
      <path
         inkscape:connector-curvature="0"
         id="path8579"
         d="m 881.36528,462.13621 c 0,0.42663 0.38397,0.8106 0.81059,0.8106 l 1.70652,0 c 0.42662,0 0.81059,-0.38397 0.81059,-0.8106 l 0,-28.24277 c 0,-0.42662 -0.38397,-0.81059 -0.81059,-0.81059 l -1.70652,0 c -0.42662,0 -0.81059,0.38397 -0.81059,0.81059 l 0,28.24277 z" />
      <path
         inkscape:connector-curvature="0"
         id="path8581"
         d="m 891.763,462.00823 c 0,0.51195 0.42663,0.93858 0.93859,0.93858 l 1.27988,0 c 0.46929,0 0.93858,-0.42663 0.93858,-0.93858 l 0,-13.60944 c 0,0 2.34646,-2.73041 6.05812,-2.73041 2.90107,0 4.18095,1.74917 4.18095,5.5035 l 0,10.83635 c 0,0.51195 0.42663,0.93858 0.93858,0.93858 l 1.27989,0 c 0.46929,0 0.93858,-0.42663 0.93858,-0.93858 l 0,-10.40973 c 0,-5.07687 -1.40787,-8.78853 -7.12469,-8.78853 -4.09563,0 -6.61273,2.5171 -6.61273,2.5171 l -0.42663,-1.49319 c -0.0853,-0.42663 -0.3413,-0.59728 -0.76793,-0.59728 l -0.6826,0 c -0.51196,0 -0.93859,0.46929 -0.93859,0.93858 l 0,17.83305 z" />
      <path
         inkscape:connector-curvature="0"
         id="path8584"
         d="m 917.8753,461.79491 c 0,0 2.1758,1.62119 5.46084,1.62119 5.41818,0 9.30049,-4.56492 9.30049,-10.3244 0,-5.63149 -3.79699,-10.28173 -9.1725,-10.28173 -3.54101,0 -5.93013,2.00515 -5.93013,2.00515 l -0.29864,-0.93858 c -0.21331,-0.51196 -0.3413,-0.63994 -0.81059,-0.63994 l -0.72527,0 c -0.51195,0 -0.93858,0.46929 -0.93858,0.93858 l 0,27.98679 c 0,0.51196 0.42663,0.93858 0.93858,0.93858 l 1.23722,0 c 0.46929,0 0.93858,-0.42662 0.93858,-0.93858 l 0,-10.36706 z m 0,-2.94373 0,-10.79369 c 0,0 2.04782,-2.38911 5.20486,-2.38911 3.96764,0 6.35676,3.54101 6.35676,7.38066 0,4.30894 -2.77308,7.50865 -6.57007,7.50865 -2.73042,0 -4.99155,-1.70651 -4.99155,-1.70651 z" />
      <path
         inkscape:connector-curvature="0"
         id="path8586"
         d="m 937.79549,454.79821 c 0,5.20486 1.36521,8.61789 7.03937,8.61789 3.54101,0 5.37551,-1.79184 6.10078,-2.55977 l 0.38396,1.23722 c 0.12799,0.51196 0.3413,0.85326 0.89592,0.85326 l 0.6826,0 c 0.4693,0 0.89592,-0.42663 0.89592,-0.93858 l 0,-17.83305 c 0,-0.46929 -0.42662,-0.93858 -0.89592,-0.93858 l -1.32254,0 c -0.51196,0 -0.89592,0.46929 -0.89592,0.93858 l 0,13.5241 c -0.89592,1.02391 -2.64509,2.85841 -5.58883,2.85841 -2.8584,0 -4.13829,-1.79184 -4.13829,-5.71681 l 0,-10.6657 c 0,-0.46929 -0.42663,-0.93858 -0.93858,-0.93858 l -1.27988,0 c -0.55462,0 -0.93859,0.46929 -0.93859,0.93858 l 0,10.62303 z" />
      <path
         inkscape:connector-curvature="0"
         id="path8588"
         d="m 961.70332,445.96702 0,11.98824 c 0,3.07172 0.76793,5.46084 4.52226,5.46084 2.64509,0 4.69291,-0.98125 5.54616,-1.57852 0.51196,-0.34131 0.59728,-0.63995 0.34131,-1.27989 l -0.38397,-0.89592 c -0.21331,-0.46929 -0.46929,-0.85325 -1.23722,-0.38396 -0.81059,0.51195 -2.04781,1.27988 -3.88232,1.27988 -1.10923,0 -1.74917,-0.76793 -1.74917,-2.81574 l 0,-11.77493 5.80214,0 c 0.55462,0 0.98124,-0.42663 0.98124,-0.93859 l 0,-0.85325 c 0,-0.55462 -0.42662,-0.93858 -0.98124,-0.93858 l -5.80214,0 0,-5.54617 c 0,-0.51195 -0.38397,-0.98124 -0.89592,-0.93858 l -1.32255,0.0853 c -0.46929,0.0427 -0.93858,0.42662 -0.93858,0.93858 l 0,5.46084 -2.60243,0 c -0.59728,0 -0.98124,0.38396 -0.98124,0.93858 l 0,0.85325 c 0,0.51196 0.38396,0.93859 0.98124,0.93859 l 2.60243,0 z" />
      <path
         inkscape:connector-curvature="0"
         id="path8590"
         d="m 982.00882,463.4161 c 4.0103,0 6.69806,-2.51711 6.69806,-5.63149 0,-3.58368 -2.94374,-4.86356 -6.35676,-6.44208 -2.38912,-1.10924 -3.75432,-1.74918 -3.75432,-3.49835 0,-0.93858 0.72526,-2.1758 2.90107,-2.1758 1.8345,0 3.1997,0.63994 4.05296,1.15189 0.42663,0.25598 1.06657,0.21331 1.36521,-0.3413 l 0.42663,-0.81059 c 0.29864,-0.55462 0.21331,-0.98125 -0.21332,-1.32255 -0.93858,-0.68261 -3.07172,-1.53586 -5.63148,-1.53586 -4.56492,0 -6.10078,3.11438 -6.10078,5.1622 0,3.37036 2.98639,4.77823 5.58882,6.05811 2.85841,1.40788 4.39427,2.17581 4.39427,4.05297 0,1.53586 -1.36521,2.47444 -3.37036,2.47444 -2.51711,0 -4.22362,-1.23722 -4.90622,-1.74917 -0.55462,-0.38397 -0.89592,-0.21332 -1.1519,0.25597 l -0.59728,1.10924 c -0.17065,0.3413 -0.0853,0.63994 0.12799,0.85325 1.02391,0.93858 3.24237,2.38912 6.52741,2.38912 z" />
    </g>
    <path
       inkscape:connector-curvature="0"
       id="rect8434"
       d="m 730.79988,281.39482 408.47232,0 c 11.8477,0 21.3858,9.53804 21.3858,21.38574 l 0,103.73808 c 0,11.8477 -9.5381,21.38574 -21.3858,21.38574 l -408.47232,0 c -11.8477,0 -21.38574,-9.53804 -21.38574,-21.38574 l 0,-103.73808 c 0,-11.8477 9.53804,-21.38574 21.38574,-21.38574 z"
       style="opacity:1;fill:none;fill-opacity:1;fill-rule:nonzero;stroke:#5333ed;stroke-width:2.20075798;stroke-linecap:round;stroke-linejoin:round;stroke-miterlimit:4;stroke-dasharray:none;stroke-dashoffset:40;stroke-opacity:1" />
    <g
       transform="translate(-3.5000001e-5,-98.442093)"
       id="g8929">
      <path
         inkscape:connector-curvature="0"
         id="path8485"
         d="m 932.99337,539.55182 1.83673,131.45226"
         style="fill:none;fill-rule:evenodd;stroke:#ffffff;stroke-width:2.99036813;stroke-linecap:butt;stroke-linejoin:round;stroke-miterlimit:4;stroke-dasharray:none;stroke-opacity:1" />
      <path
         inkscape:connector-curvature="0"
         id="path8487"
         d="m 934.8301,670.35493 -15.91832,-10.54864 0,-0.81143"
         style="fill:none;fill-rule:evenodd;stroke:#ffffff;stroke-width:2.99036813;stroke-linecap:butt;stroke-linejoin:round;stroke-miterlimit:4;stroke-dasharray:none;stroke-opacity:1" />
      <path
         style="fill:none;fill-rule:evenodd;stroke:#ffffff;stroke-width:2.99036813;stroke-linecap:butt;stroke-linejoin:round;stroke-miterlimit:4;stroke-dasharray:none;stroke-opacity:1"
         d="m 935.24201,670.19264 15.91832,-10.54863 0,-0.81144"
         id="path8489"
         inkscape:connector-curvature="0" />
    </g>
    <path
       inkscape:connector-curvature="0"
       id="path8504"
       d="m 569.58073,561.12814 114.75936,64.13547"
       style="fill:none;fill-rule:evenodd;stroke:#ffffff;stroke-width:2.99036813;stroke-linecap:butt;stroke-linejoin:round;stroke-miterlimit:4;stroke-dasharray:none;stroke-opacity:1" />
    <path
       inkscape:connector-curvature="0"
       id="path8506"
       d="m 683.77791,624.93904 -17.09455,8.51134 -0.70272,-0.40571"
       style="fill:none;fill-rule:evenodd;stroke:#ffffff;stroke-width:2.99036813;stroke-linecap:butt;stroke-linejoin:round;stroke-miterlimit:4;stroke-dasharray:none;stroke-opacity:1" />
    <path
       style="fill:none;fill-rule:evenodd;stroke:#ffffff;stroke-width:2.99036813;stroke-linecap:butt;stroke-linejoin:round;stroke-miterlimit:4;stroke-dasharray:none;stroke-opacity:1"
       d="m 683.84332,624.50117 -1.17623,-19.05999 -0.70272,-0.40572"
       id="path8508"
       inkscape:connector-curvature="0" />
    <g
       transform="translate(-3.5000001e-5,-98.442093)"
       id="text8512"
       style="font-style:normal;font-variant:normal;font-weight:normal;font-stretch:normal;font-size:42.66279221px;line-height:125%;font-family:'Brandon Text';-inkscape-font-specification:'Brandon Text, Normal';text-align:start;letter-spacing:0px;word-spacing:0px;writing-mode:lr-tb;text-anchor:start;fill:#ffffff;fill-opacity:1;stroke:none;stroke-width:1px;stroke-linecap:butt;stroke-linejoin:miter;stroke-opacity:1">
      <path
         inkscape:connector-curvature="0"
         id="path8637"
         d="m 337.62114,562.56618 c 0,0.42662 0.3413,0.81059 0.81059,0.81059 l 16.80914,0 c 0.46929,0 0.8106,-0.38397 0.8106,-0.81059 l 0,-1.23722 c 0,-0.42663 -0.34131,-0.8106 -0.8106,-0.8106 l -14.33469,0 0,-10.87901 12.24422,0 c 0.42663,0 0.81059,-0.3413 0.81059,-0.81059 l 0,-1.23722 c 0,-0.42663 -0.38396,-0.8106 -0.81059,-0.8106 l -12.24422,0 0,-10.40972 14.33469,0 c 0.46929,0 0.8106,-0.38396 0.8106,-0.81059 l 0,-1.23722 c 0,-0.42663 -0.34131,-0.81059 -0.8106,-0.81059 l -16.80914,0 c -0.46929,0 -0.81059,0.38396 -0.81059,0.81059 l 0,28.24277 z" />
      <path
         inkscape:connector-curvature="0"
         id="path8639"
         d="m 362.21424,546.39698 0,11.98824 c 0,3.07172 0.76793,5.46084 4.52226,5.46084 2.64509,0 4.6929,-0.98124 5.54616,-1.57852 0.51195,-0.3413 0.59728,-0.63994 0.3413,-1.27989 L 372.24,560.09174 c -0.21332,-0.4693 -0.46929,-0.85326 -1.23722,-0.38397 -0.8106,0.51195 -2.04782,1.27988 -3.88232,1.27988 -1.10923,0 -1.74917,-0.76793 -1.74917,-2.81574 l 0,-11.77493 5.80214,0 c 0.55461,0 0.98124,-0.42663 0.98124,-0.93858 l 0,-0.85326 c 0,-0.55461 -0.42663,-0.93858 -0.98124,-0.93858 l -5.80214,0 0,-5.54616 c 0,-0.51196 -0.38397,-0.98125 -0.89592,-0.93858 l -1.32255,0.0853 c -0.46929,0.0427 -0.93858,0.42663 -0.93858,0.93858 l 0,5.46084 -2.60243,0 c -0.59728,0 -0.98124,0.38397 -0.98124,0.93858 l 0,0.85326 c 0,0.51195 0.38396,0.93858 0.98124,0.93858 l 2.60243,0 z" />
      <path
         inkscape:connector-curvature="0"
         id="path8641"
         d="m 377.22954,562.43819 c 0,0.51195 0.42663,0.93858 0.93858,0.93858 l 1.27989,0 c 0.46929,0 0.93858,-0.42663 0.93858,-0.93858 l 0,-27.98679 c 0,-0.46929 -0.46929,-0.93858 -0.93858,-0.93858 l -1.27989,0 c -0.51195,0 -0.93858,0.46929 -0.93858,0.93858 l 0,27.98679 z" />
      <path
         inkscape:connector-curvature="0"
         id="path8644"
         d="m 385.64611,557.40398 c 0,3.96764 2.6451,6.44208 6.10078,6.44208 3.02906,0 5.07687,-1.4932 6.10078,-2.5171 l 0.38397,1.32254 c 0.12798,0.42663 0.29864,0.72527 0.81059,0.72527 l 0.81059,0 c 0.51196,0 0.93858,-0.42663 0.93858,-0.93858 l 0,-10.92168 c 0,-5.80214 -1.06657,-8.27658 -6.10078,-8.27658 -3.24237,0 -5.80214,0.85326 -6.78338,1.27989 -0.46929,0.21331 -0.76793,0.46929 -0.59728,1.06657 l 0.42663,1.15189 c 0.17065,0.46929 0.42663,0.72527 0.93858,0.51195 0.89592,-0.29863 3.15705,-1.15189 5.8448,-1.15189 2.81575,0 3.28504,1.79184 3.24238,5.41817 0,0 -2.13314,-0.63994 -4.22362,-0.63994 -5.07687,0 -7.89262,2.77308 -7.89262,6.52741 z m 3.11439,0 c 0,-2.51711 2.04781,-3.83965 4.77823,-3.83965 1.96249,0 3.54101,0.42663 4.18095,0.76793 l 0,4.0103 c -0.85325,1.27988 -2.98639,2.64509 -5.41817,2.64509 -2.1758,0 -3.54101,-1.57852 -3.54101,-3.58367 z" />
      <path
         inkscape:connector-curvature="0"
         id="path8646"
         d="m 412.76698,563.84606 c 4.0103,0 6.69806,-2.5171 6.69806,-5.63149 0,-3.58367 -2.94373,-4.86356 -6.35676,-6.44208 -2.38911,-1.10923 -3.75432,-1.74917 -3.75432,-3.49835 0,-0.93858 0.72527,-2.1758 2.90107,-2.1758 1.8345,0 3.19971,0.63994 4.05296,1.15189 0.42663,0.25598 1.06657,0.21332 1.36521,-0.3413 l 0.42663,-0.81059 c 0.29864,-0.55462 0.21331,-0.98125 -0.21331,-1.32255 -0.93858,-0.6826 -3.07172,-1.53586 -5.63149,-1.53586 -4.56492,0 -6.10078,3.11439 -6.10078,5.1622 0,3.37036 2.98639,4.77823 5.58882,6.05812 2.85841,1.40787 4.39427,2.1758 4.39427,4.05296 0,1.53586 -1.36521,2.47444 -3.37036,2.47444 -2.5171,0 -4.22362,-1.23722 -4.90622,-1.74917 -0.55462,-0.38397 -0.89592,-0.21331 -1.1519,0.25598 l -0.59727,1.10923 c -0.17066,0.3413 -0.0853,0.63994 0.12798,0.85325 1.02391,0.93859 3.24238,2.38912 6.52741,2.38912 z" />
      <path
         inkscape:connector-curvature="0"
         id="path8648"
         d="m 434.28769,560.34771 c 0.55462,0.51196 3.96764,3.45569 9.00185,3.45569 4.99155,0 9.21517,-3.41303 9.21517,-7.84996 0,-4.94888 -3.71167,-7.12468 -9.47114,-9.47114 -3.58368,-1.49319 -5.75948,-2.81574 -5.75948,-5.8448 0,-1.79184 1.36521,-4.69291 5.88746,-4.69291 2.38912,0 3.88232,0.63995 5.67416,1.70652 0.6826,0.38396 1.15189,0.38396 1.49319,-0.21332 l 0.42663,-0.72527 c 0.46929,-0.81059 0,-1.32254 -0.25598,-1.45053 0,0 -3.11438,-2.1758 -7.29533,-2.1758 -6.78339,0 -9.08718,4.6929 -9.08718,7.59397 0,4.86356 2.81575,6.6554 7.50865,8.66055 4.90622,2.09048 7.46599,3.79699 7.46599,6.74072 0,2.68776 -2.26113,4.86356 -5.71681,4.86356 -3.79699,0 -7.03936,-2.85841 -7.338,-3.11438 -0.59728,-0.51196 -0.93858,-0.29864 -1.36521,0.25597 l -0.63994,0.8106 c -0.59728,0.76793 -0.0853,1.15189 0.25597,1.45053 z" />
      <path
         inkscape:connector-curvature="0"
         id="path8650"
         d="m 458.37218,546.39698 0,11.98824 c 0,3.07172 0.76793,5.46084 4.52225,5.46084 2.6451,0 4.69291,-0.98124 5.54617,-1.57852 0.51195,-0.3413 0.59727,-0.63994 0.3413,-1.27989 l -0.38397,-0.89591 c -0.21331,-0.4693 -0.46929,-0.85326 -1.23722,-0.38397 -0.81059,0.51195 -2.04781,1.27988 -3.88231,1.27988 -1.10923,0 -1.74918,-0.76793 -1.74918,-2.81574 l 0,-11.77493 5.80214,0 c 0.55462,0 0.98125,-0.42663 0.98125,-0.93858 l 0,-0.85326 c 0,-0.55461 -0.42663,-0.93858 -0.98125,-0.93858 l -5.80214,0 0,-5.54616 c 0,-0.51196 -0.38396,-0.98125 -0.89592,-0.93858 l -1.32254,0.0853 c -0.46929,0.0427 -0.93858,0.42663 -0.93858,0.93858 l 0,5.46084 -2.60243,0 c -0.59728,0 -0.98125,0.38397 -0.98125,0.93858 l 0,0.85326 c 0,0.51195 0.38397,0.93858 0.98125,0.93858 l 2.60243,0 z" />
      <path
         inkscape:connector-curvature="0"
         id="path8652"
         d="m 471.89428,553.479 c 0,5.63149 4.43693,10.36706 9.89777,10.36706 5.46084,0 9.89777,-4.73557 9.89777,-10.36706 0,-5.54616 -4.43693,-10.23907 -9.89777,-10.23907 -5.46084,0 -9.89777,4.69291 -9.89777,10.23907 z m 3.11438,0 c 0,-4.0103 2.90107,-7.38066 6.78339,-7.38066 3.88231,0 6.74072,3.37036 6.74072,7.38066 0,4.09563 -2.85841,7.50865 -6.74072,7.50865 -3.88232,0 -6.78339,-3.41302 -6.78339,-7.50865 z" />
      <path
         inkscape:connector-curvature="0"
         id="path8654"
         d="m 497.08865,562.43819 c 0,0.51195 0.42663,0.93858 0.93859,0.93858 l 1.27988,0 c 0.46929,0 0.93858,-0.42663 0.93858,-0.93858 l 0,-13.65209 c 0,0 1.53586,-2.51711 5.33285,-2.51711 0.93858,0 1.66385,0.3413 2.13314,0.55462 0.46929,0.21331 0.93858,0.17065 1.15189,-0.46929 l 0.55462,-1.53586 c 0.46929,-1.36521 -1.96249,-1.57853 -3.45569,-1.57853 -4.09562,0 -6.05811,2.51711 -6.05811,2.51711 l -0.3413,-1.40788 c -0.12799,-0.46929 -0.4693,-0.6826 -0.85326,-0.6826 l -0.6826,0 c -0.51196,0 -0.93859,0.46929 -0.93859,0.93858 l 0,17.83305 z" />
      <path
         inkscape:connector-curvature="0"
         id="path8656"
         d="m 511.60001,553.52167 c 0,5.63148 3.58368,10.32439 9.55647,10.32439 3.41302,0 6.01545,-1.32255 7.21001,-2.26113 0.72527,-0.55461 0.55462,-0.76793 0.17065,-1.36521 l -0.51195,-0.72526 c -0.51195,-0.76793 -0.81059,-0.59728 -1.4932,-0.12799 -1.10923,0.72527 -2.73042,1.62118 -5.33285,1.62118 -3.58367,0 -6.35675,-3.45568 -6.44208,-6.74072 l 14.3347,0 c 0.42663,0 0.85325,-0.3413 0.89592,-0.85325 0.0427,-0.34131 0.0853,-0.85326 0.0853,-1.19456 0,-5.1622 -3.75432,-8.95919 -8.91652,-8.95919 -5.97279,0 -9.55647,4.73557 -9.55647,10.28174 z m 3.19971,-1.79184 c 0.38397,-3.07172 3.02906,-5.63149 6.35676,-5.63149 3.37036,0 5.67415,2.73042 5.75948,5.63149 l -12.11624,0 z" />
    </g>
    <path
       inkscape:connector-curvature="0"
       id="rect8516"
       d="m 227.23607,376.98256 408.47233,0 c 11.8477,0 21.38574,9.53804 21.38574,21.38574 l 0,103.73808 c 0,11.8477 -9.53804,21.38573 -21.38574,21.38573 l -408.47233,0 c -11.8477,0 -21.38574,-9.53803 -21.38574,-21.38573 l 0,-103.73808 c 0,-11.8477 9.53804,-21.38574 21.38574,-21.38574 z"
       style="opacity:1;fill:none;fill-opacity:1;fill-rule:nonzero;stroke:#5333ed;stroke-width:2.20075798;stroke-linecap:round;stroke-linejoin:round;stroke-miterlimit:4;stroke-dasharray:none;stroke-dashoffset:40;stroke-opacity:1" />
    <path
       style="fill:none;fill-rule:evenodd;stroke:#ffffff;stroke-width:2.99036813;stroke-linecap:butt;stroke-linejoin:round;stroke-miterlimit:4;stroke-dasharray:none;stroke-opacity:1"
       d="M 558.8271,797.8487 673.58646,733.71323"
       id="path8523"
       inkscape:connector-curvature="0" />
    <path
       style="fill:none;fill-rule:evenodd;stroke:#ffffff;stroke-width:2.99036813;stroke-linecap:butt;stroke-linejoin:round;stroke-miterlimit:4;stroke-dasharray:none;stroke-opacity:1"
       d="m 673.02428,734.0378 -17.09455,-8.51134 -0.70272,0.40571"
       id="path8525"
       inkscape:connector-curvature="0" />
    <path
       inkscape:connector-curvature="0"
       id="path8527"
       d="m 673.08969,734.47567 -1.17623,19.05999 -0.70272,0.40572"
       style="fill:none;fill-rule:evenodd;stroke:#ffffff;stroke-width:2.99036813;stroke-linecap:butt;stroke-linejoin:round;stroke-miterlimit:4;stroke-dasharray:none;stroke-opacity:1" />
    <g
       transform="translate(-3.5000001e-5,-98.442093)"
       id="text8531"
       style="font-style:normal;font-variant:normal;font-weight:normal;font-stretch:normal;font-size:42.66279221px;line-height:125%;font-family:'Brandon Text';-inkscape-font-specification:'Brandon Text, Normal';text-align:start;letter-spacing:0px;word-spacing:0px;writing-mode:lr-tb;text-anchor:start;fill:#ffffff;fill-opacity:1;stroke:none;stroke-width:1px;stroke-linecap:butt;stroke-linejoin:miter;stroke-opacity:1">
      <path
         inkscape:connector-curvature="0"
         id="path8659"
         d="m 353.68807,985.73862 c 0,8.53255 6.86871,15.31598 15.40127,15.31598 3.79699,0 7.338,-1.57857 10.15374,-4.13833 0.29864,-0.29864 0.38397,-0.89592 0.0427,-1.1519 l -0.98125,-0.98124 c -0.3413,-0.34131 -0.6826,-0.38397 -1.10923,-0.0427 -2.26113,1.91983 -4.43693,3.19971 -8.1486,3.19971 -6.74072,0 -11.90291,-5.67415 -11.90291,-12.24422 0,-6.61273 5.16219,-12.28688 11.90291,-12.28688 3.11439,0 5.93013,1.27988 8.1486,3.19971 0.42663,0.42663 0.76793,0.46929 1.10923,0.0427 l 1.1519,-1.15189 c 0.3413,-0.34131 0.29864,-0.85326 -0.0427,-1.19456 -2.90107,-2.47445 -6.01545,-3.96764 -10.32439,-3.96764 -8.53256,0 -15.40127,6.86871 -15.40127,15.40127 z" />
      <path
         inkscape:connector-curvature="0"
         id="path8661"
         d="m 383.26472,990.73016 c 0,5.63149 4.43693,10.36704 9.89777,10.36704 5.46083,0 9.89776,-4.73555 9.89776,-10.36704 0,-5.54616 -4.43693,-10.23907 -9.89776,-10.23907 -5.46084,0 -9.89777,4.69291 -9.89777,10.23907 z m 3.11438,0 c 0,-4.0103 2.90107,-7.38066 6.78339,-7.38066 3.88231,0 6.74072,3.37036 6.74072,7.38066 0,4.09563 -2.85841,7.50865 -6.74072,7.50865 -3.88232,0 -6.78339,-3.41302 -6.78339,-7.50865 z" />
      <path
         inkscape:connector-curvature="0"
         id="path8663"
         d="m 408.24578,992.47934 c 0,5.20486 1.36521,8.61786 7.03937,8.61786 3.54101,0 5.37551,-1.79182 6.10077,-2.55975 l 0.38397,1.23722 c 0.12799,0.51193 0.3413,0.85323 0.89592,0.85323 l 0.6826,0 c 0.46929,0 0.89592,-0.4266 0.89592,-0.93855 l 0,-17.83305 c 0,-0.46929 -0.42663,-0.93858 -0.89592,-0.93858 l -1.32254,0 c -0.51196,0 -0.89592,0.46929 -0.89592,0.93858 l 0,13.52411 c -0.89592,1.0239 -2.64509,2.8584 -5.58883,2.8584 -2.8584,0 -4.13829,-1.79183 -4.13829,-5.71681 l 0,-10.6657 c 0,-0.46929 -0.42663,-0.93858 -0.93858,-0.93858 l -1.27988,0 c -0.55462,0 -0.93859,0.46929 -0.93859,0.93858 l 0,10.62304 z" />
      <path
         inkscape:connector-curvature="0"
         id="path8665"
         d="m 430.87373,999.68935 c 0,0.51195 0.42662,0.93855 0.93858,0.93855 l 1.27988,0 c 0.46929,0 0.93858,-0.4266 0.93858,-0.93855 l 0,-13.6521 c 0,0 1.53586,-2.5171 5.33285,-2.5171 0.93858,0 1.66385,0.3413 2.13314,0.55462 0.46929,0.21331 0.93858,0.17065 1.1519,-0.46929 l 0.55461,-1.53586 c 0.46929,-1.36521 -1.96249,-1.57853 -3.45568,-1.57853 -4.09563,0 -6.05812,2.51711 -6.05812,2.51711 l -0.3413,-1.40788 c -0.12799,-0.46929 -0.46929,-0.6826 -0.85326,-0.6826 l -0.6826,0 c -0.51196,0 -0.93858,0.46929 -0.93858,0.93858 l 0,17.83305 z" />
      <path
         inkscape:connector-curvature="0"
         id="path8667"
         d="m 452.7924,1001.0972 c 4.0103,0 6.69806,-2.51708 6.69806,-5.63147 0,-3.58367 -2.94373,-4.86356 -6.35676,-6.44208 -2.38911,-1.10923 -3.75432,-1.74917 -3.75432,-3.49835 0,-0.93858 0.72527,-2.1758 2.90107,-2.1758 1.8345,0 3.19971,0.63994 4.05296,1.15189 0.42663,0.25598 1.06657,0.21332 1.36521,-0.3413 l 0.42663,-0.81059 c 0.29864,-0.55462 0.21332,-0.98125 -0.21331,-1.32255 -0.93858,-0.6826 -3.07172,-1.53586 -5.63149,-1.53586 -4.56492,0 -6.10078,3.11439 -6.10078,5.1622 0,3.37036 2.9864,4.77823 5.58883,6.05812 2.8584,1.40787 4.39426,2.1758 4.39426,4.05296 0,1.53586 -1.36521,2.47444 -3.37036,2.47444 -2.5171,0 -4.22361,-1.23722 -4.90622,-1.74917 -0.55461,-0.38397 -0.89592,-0.21332 -1.15189,0.25598 l -0.59728,1.10923 c -0.17065,0.3413 -0.0853,0.63994 0.12799,0.85325 1.0239,0.93859 3.24237,2.3891 6.5274,2.3891 z" />
      <path
         inkscape:connector-curvature="0"
         id="path8669"
         d="m 466.19718,975.84085 c 1.32255,0 2.34646,-1.06657 2.34646,-2.30379 0,-1.36521 -1.02391,-2.38912 -2.34646,-2.38912 -1.27988,0 -2.30379,1.02391 -2.30379,2.38912 0,1.23722 1.02391,2.30379 2.30379,2.30379 z m -1.49319,23.8485 c 0,0.51195 0.42663,0.93855 0.93858,0.93855 l 1.27988,0 c 0.46929,0 0.93858,-0.4266 0.93858,-0.93855 l 0,-17.83305 c 0,-0.46929 -0.46929,-0.93858 -0.93858,-0.93858 l -1.27988,0 c -0.51195,0 -0.93858,0.46929 -0.93858,0.93858 l 0,17.83305 z" />
      <path
         inkscape:connector-curvature="0"
         id="path8672"
         d="m 473.29921,990.77282 c 0,5.63149 3.58367,10.32438 9.55646,10.32438 3.41303,0 6.01546,-1.32253 7.21002,-2.26111 0.72526,-0.55461 0.55461,-0.76793 0.17065,-1.36521 l -0.51196,-0.72526 c -0.51195,-0.76793 -0.81059,-0.59728 -1.49319,-0.12799 -1.10924,0.72526 -2.73042,1.62118 -5.33285,1.62118 -3.58368,0 -6.35676,-3.45568 -6.44208,-6.74072 l 14.33469,0 c 0.42663,0 0.85326,-0.3413 0.89592,-0.85325 0.0427,-0.34131 0.0853,-0.85326 0.0853,-1.19456 0,-5.1622 -3.75433,-8.95919 -8.91653,-8.95919 -5.97279,0 -9.55646,4.73557 -9.55646,10.28173 z m 3.19971,-1.79183 c 0.38396,-3.07172 3.02906,-5.63149 6.35675,-5.63149 3.37037,0 5.67416,2.73042 5.75948,5.63149 l -12.11623,0 z" />
      <path
         inkscape:connector-curvature="0"
         id="path8674"
         d="m 496.86774,999.68935 c 0,0.51195 0.42662,0.93855 0.93858,0.93855 l 1.27988,0 c 0.46929,0 0.93858,-0.4266 0.93858,-0.93855 l 0,-13.6521 c 0,0 1.53586,-2.5171 5.33285,-2.5171 0.93858,0 1.66385,0.3413 2.13314,0.55462 0.46929,0.21331 0.93858,0.17065 1.1519,-0.46929 l 0.55461,-1.53586 c 0.46929,-1.36521 -1.96248,-1.57853 -3.45568,-1.57853 -4.09563,0 -6.05812,2.51711 -6.05812,2.51711 l -0.3413,-1.40788 c -0.12799,-0.46929 -0.46929,-0.6826 -0.85326,-0.6826 l -0.6826,0 c -0.51196,0 -0.93858,0.46929 -0.93858,0.93858 l 0,17.83305 z" />
    </g>
    <path
       inkscape:connector-curvature="0"
       id="rect8535"
       d="m 227.23607,814.02043 408.47233,0 c 11.8477,0 21.38574,9.53804 21.38574,21.38574 l 0,103.73804 c 0,11.8477 -9.53804,21.3858 -21.38574,21.3858 l -408.47233,0 c -11.8477,0 -21.38574,-9.5381 -21.38574,-21.3858 l 0,-103.73804 c 0,-11.8477 9.53804,-21.38574 21.38574,-21.38574 z"
       style="opacity:1;fill:none;fill-opacity:1;fill-rule:nonzero;stroke:#5333ed;stroke-width:2.20075798;stroke-linecap:round;stroke-linejoin:round;stroke-miterlimit:4;stroke-dasharray:none;stroke-dashoffset:40;stroke-opacity:1" />
    <g
       transform="translate(-3.5000001e-5,-98.442093)"
       id="text8560"
       style="font-style:normal;font-variant:normal;font-weight:normal;font-stretch:normal;font-size:42.66279221px;line-height:125%;font-family:'Brandon Text';-inkscape-font-specification:'Brandon Text, Normal';text-align:start;letter-spacing:0px;word-spacing:0px;writing-mode:lr-tb;text-anchor:start;fill:#ffffff;fill-opacity:1;stroke:none;stroke-width:1px;stroke-linecap:butt;stroke-linejoin:miter;stroke-opacity:1">
      <path
         inkscape:connector-curvature="0"
         id="path8684"
         d="m 1350.1366,552.15504 c 0,0.42663 0.3413,0.8106 0.8106,0.8106 l 16.8092,0 c 0.4693,0 0.8106,-0.38397 0.8106,-0.8106 l 0,-1.23722 c 0,-0.42662 -0.3413,-0.81059 -0.8106,-0.81059 l -14.3347,0 0,-10.87901 12.2442,0 c 0.4266,0 0.8106,-0.3413 0.8106,-0.81059 l 0,-1.23723 c 0,-0.42662 -0.384,-0.81059 -0.8106,-0.81059 l -12.2442,0 0,-10.40972 14.3347,0 c 0.4693,0 0.8106,-0.38397 0.8106,-0.81059 l 0,-1.23722 c 0,-0.42663 -0.3413,-0.8106 -0.8106,-0.8106 l -16.8092,0 c -0.4693,0 -0.8106,0.38397 -0.8106,0.8106 l 0,28.24276 z" />
      <path
         inkscape:connector-curvature="0"
         id="path8686"
         d="m 1374.7297,535.98585 0,11.98824 c 0,3.07172 0.768,5.46084 4.5223,5.46084 2.6451,0 4.6929,-0.98125 5.5462,-1.57853 0.5119,-0.3413 0.5972,-0.63994 0.3413,-1.27988 l -0.384,-0.89592 c -0.2133,-0.46929 -0.4693,-0.85325 -1.2372,-0.38396 -0.8106,0.51195 -2.0478,1.27988 -3.8823,1.27988 -1.1093,0 -1.7492,-0.76793 -1.7492,-2.81574 l 0,-11.77493 5.8021,0 c 0.5546,0 0.9813,-0.42663 0.9813,-0.93859 l 0,-0.85325 c 0,-0.55462 -0.4267,-0.93858 -0.9813,-0.93858 l -5.8021,0 0,-5.54617 c 0,-0.51195 -0.384,-0.98124 -0.8959,-0.93858 l -1.3226,0.0853 c -0.4693,0.0427 -0.9386,0.42663 -0.9386,0.93858 l 0,5.46084 -2.6024,0 c -0.5973,0 -0.9812,0.38396 -0.9812,0.93858 l 0,0.85325 c 0,0.51196 0.3839,0.93859 0.9812,0.93859 l 2.6024,0 z" />
      <path
         inkscape:connector-curvature="0"
         id="path8688"
         d="m 1387.9959,546.99285 c 0,3.96764 2.6451,6.44208 6.1007,6.44208 3.0291,0 5.0769,-1.4932 6.1008,-2.51711 l 0.384,1.32255 c 0.128,0.42663 0.2986,0.72527 0.8106,0.72527 l 0.8106,0 c 0.5119,0 0.9386,-0.42663 0.9386,-0.93858 l 0,-10.92168 c 0,-5.80214 -1.0666,-8.27658 -6.1008,-8.27658 -3.2424,0 -5.8022,0.85326 -6.7834,1.27988 -0.4693,0.21332 -0.7679,0.46929 -0.5973,1.06657 l 0.4266,1.1519 c 0.1707,0.46929 0.4267,0.72527 0.9386,0.51195 0.8959,-0.29864 3.1571,-1.15189 5.8448,-1.15189 2.8158,0 3.2851,1.79183 3.2424,5.41817 0,0 -2.1331,-0.63994 -4.2236,-0.63994 -5.0769,0 -7.8926,2.77308 -7.8926,6.52741 z m 3.1144,0 c 0,-2.51711 2.0478,-3.83966 4.7782,-3.83966 1.9625,0 3.541,0.42663 4.1809,0.76794 l 0,4.0103 c -0.8532,1.27988 -2.9864,2.64509 -5.4181,2.64509 -2.1758,0 -3.541,-1.57852 -3.541,-3.58367 z" />
      <path
         inkscape:connector-curvature="0"
         id="path8690"
         d="m 1420.6302,552.15504 c 0,0.42663 0.384,0.8106 0.8106,0.8106 l 1.6639,0 c 0.4693,0 0.8106,-0.38397 0.8106,-0.8106 l 0,-12.92682 17.3211,0 0,12.92682 c 0,0.42663 0.3413,0.8106 0.8106,0.8106 l 1.6638,0 c 0.4266,0 0.8106,-0.38397 0.8106,-0.8106 l 0,-28.24276 c 0,-0.42663 -0.384,-0.8106 -0.8106,-0.8106 l -1.6638,0 c -0.4693,0 -0.8106,0.38397 -0.8106,0.8106 l 0,12.45753 -17.3211,0 0,-12.45753 c 0,-0.42663 -0.3413,-0.8106 -0.8106,-0.8106 l -1.6639,0 c -0.4266,0 -0.8106,0.38397 -0.8106,0.8106 l 0,28.24276 z" />
      <path
         inkscape:connector-curvature="0"
         id="path8692"
         d="m 1449.9069,546.99285 c 0,3.96764 2.6451,6.44208 6.1008,6.44208 3.0291,0 5.0769,-1.4932 6.1008,-2.51711 l 0.3839,1.32255 c 0.128,0.42663 0.2987,0.72527 0.8106,0.72527 l 0.8106,0 c 0.512,0 0.9386,-0.42663 0.9386,-0.93858 l 0,-10.92168 c 0,-5.80214 -1.0666,-8.27658 -6.1008,-8.27658 -3.2423,0 -5.8021,0.85326 -6.7834,1.27988 -0.4692,0.21332 -0.7679,0.46929 -0.5972,1.06657 l 0.4266,1.1519 c 0.1706,0.46929 0.4266,0.72527 0.9386,0.51195 0.8959,-0.29864 3.157,-1.15189 5.8448,-1.15189 2.8157,0 3.285,1.79183 3.2424,5.41817 0,0 -2.1332,-0.63994 -4.2237,-0.63994 -5.0768,0 -7.8926,2.77308 -7.8926,6.52741 z m 3.1144,0 c 0,-2.51711 2.0478,-3.83966 4.7782,-3.83966 1.9625,0 3.541,0.42663 4.181,0.76794 l 0,4.0103 c -0.8533,1.27988 -2.9864,2.64509 -5.4182,2.64509 -2.1758,0 -3.541,-1.57852 -3.541,-3.58367 z" />
      <path
         inkscape:connector-curvature="0"
         id="path8694"
         d="m 1470.2444,543.15319 c 0,5.93013 4.0956,10.28174 9.9404,10.28174 3.2851,0 5.9302,-1.79184 7.4234,-3.96764 0.3413,-0.51196 0.1706,-0.93858 -0.256,-1.36521 l -0.256,-0.25598 c -0.5546,-0.55461 -1.1092,-0.72527 -1.6638,-0.0853 -1.1093,1.27988 -2.3892,2.81574 -5.3755,2.81574 -3.669,0 -6.6128,-3.28503 -6.6128,-7.46599 0,-4.09563 2.9864,-7.42332 6.7407,-7.42332 2.0052,0 3.5837,0.59728 4.9489,2.13314 0.384,0.42662 0.768,0.85325 1.4079,0.29864 l 0.6826,-0.63995 c 0.4693,-0.38396 0.5546,-0.93858 0.1707,-1.40787 -1.8345,-2.09048 -4.2237,-3.24237 -7.1674,-3.24237 -5.7168,0 -9.9831,4.52226 -9.9831,10.32439 z" />
      <path
         inkscape:connector-curvature="0"
         id="path8696"
         d="m 1492.8557,552.02706 c 0,0.51195 0.4266,0.93858 0.9386,0.93858 l 1.2798,0 c 0.4693,0 0.9386,-0.42663 0.9386,-0.93858 l 0,-8.95919 9.0019,9.5138 c 0.2133,0.17065 0.5973,0.38397 0.9812,0.38397 l 2.4318,0 c 0.8533,0 0.8959,-0.89592 0.512,-1.23722 l -9.7698,-9.72712 9.0872,-7.55131 c 0.3413,-0.25598 0.3839,-1.19456 -0.4693,-1.19456 l -2.3892,0 c -0.3839,0 -0.7679,0.21331 -1.1945,0.59728 l -8.1913,6.86871 0,-16.68116 c 0,-0.46929 -0.4693,-0.93858 -0.9386,-0.93858 l -1.2798,0 c -0.512,0 -0.9386,0.46929 -0.9386,0.93858 l 0,27.9868 z" />
      <path
         inkscape:connector-curvature="0"
         id="path8698"
         d="m 1511.7346,546.99285 c 0,3.96764 2.6451,6.44208 6.1008,6.44208 3.0291,0 5.0769,-1.4932 6.1008,-2.51711 l 0.384,1.32255 c 0.1279,0.42663 0.2986,0.72527 0.8105,0.72527 l 0.8106,0 c 0.512,0 0.9386,-0.42663 0.9386,-0.93858 l 0,-10.92168 c 0,-5.80214 -1.0665,-8.27658 -6.1008,-8.27658 -3.2423,0 -5.8021,0.85326 -6.7833,1.27988 -0.4693,0.21332 -0.768,0.46929 -0.5973,1.06657 l 0.4266,1.1519 c 0.1707,0.46929 0.4266,0.72527 0.9386,0.51195 0.8959,-0.29864 3.157,-1.15189 5.8448,-1.15189 2.8157,0 3.285,1.79183 3.2424,5.41817 0,0 -2.1332,-0.63994 -4.2237,-0.63994 -5.0768,0 -7.8926,2.77308 -7.8926,6.52741 z m 3.1144,0 c 0,-2.51711 2.0478,-3.83966 4.7782,-3.83966 1.9625,0 3.5411,0.42663 4.181,0.76794 l 0,4.0103 c -0.8533,1.27988 -2.9864,2.64509 -5.4182,2.64509 -2.1758,0 -3.541,-1.57852 -3.541,-3.58367 z" />
      <path
         inkscape:connector-curvature="0"
         id="path8700"
         d="m 1535.3145,543.06787 c 0,-3.83965 2.4318,-7.338 6.3567,-7.338 3.1998,0 5.2049,2.38912 5.2049,2.38912 l 0,10.79368 c 0,0 -2.2611,1.62119 -4.9915,1.62119 -3.7544,0 -6.5701,-3.19971 -6.5701,-7.46599 z m 14.7187,-8.87386 c 0,-0.46929 -0.4693,-0.93858 -0.9813,-0.93858 l -0.5973,0 c -0.5119,0 -0.7252,0.29864 -0.9385,0.6826 l -0.2987,0.89592 c 0,0 -2.3464,-2.00515 -5.8875,-2.00515 -5.3755,0 -9.2151,4.65024 -9.2151,10.28173 0,5.75948 3.925,10.3244 9.3431,10.3244 3.2424,0 5.4609,-1.74918 5.4609,-1.74918 l 0,1.40788 c 0,4.60758 -2.3891,6.31409 -5.5035,6.31409 -2.1758,0 -3.8823,-1.19456 -4.9489,-2.09048 -0.4693,-0.42663 -0.9813,-0.42663 -1.2799,0.0427 l -0.8533,1.23723 c -0.2133,0.29864 -0.1279,0.85325 0.2134,1.15189 1.0239,0.93858 3.7543,2.55977 6.8687,2.55977 4.4796,0 8.6179,-2.47444 8.6179,-9.21516 l 0,-18.89962 z" />
      <path
         inkscape:connector-curvature="0"
         id="path8702"
         d="m 1555.446,543.11053 c 0,5.63149 3.5837,10.3244 9.5565,10.3244 3.413,0 6.0154,-1.32255 7.21,-2.26113 0.7253,-0.55462 0.5546,-0.76793 0.1706,-1.36521 l -0.5119,-0.72527 c -0.512,-0.76793 -0.8106,-0.59728 -1.4932,-0.12799 -1.1092,0.72527 -2.7304,1.62119 -5.3329,1.62119 -3.5836,0 -6.3567,-3.45569 -6.442,-6.74072 l 14.3347,0 c 0.4266,0 0.8532,-0.3413 0.8959,-0.85326 0.043,-0.3413 0.085,-0.85325 0.085,-1.19455 0,-5.1622 -3.7543,-8.95919 -8.9165,-8.95919 -5.9728,0 -9.5565,4.73557 -9.5565,10.28173 z m 3.1997,-1.79184 c 0.384,-3.07172 3.0291,-5.63148 6.3568,-5.63148 3.3703,0 5.6741,2.73042 5.7594,5.63148 l -12.1162,0 z" />
    </g>
    <path
       inkscape:connector-curvature="0"
       id="rect8564"
       d="m 1257.7916,371.00838 408.4724,0 c 11.8477,0 21.3857,9.53804 21.3857,21.38573 l 0,103.73809 c 0,11.84769 -9.538,21.38573 -21.3857,21.38573 l -408.4724,0 c -11.8477,0 -21.3857,-9.53804 -21.3857,-21.38573 l 0,-103.73809 c 0,-11.84769 9.538,-21.38573 21.3857,-21.38573 z"
       style="opacity:1;fill:none;fill-opacity:1;fill-rule:nonzero;stroke:#5333ed;stroke-width:2.20075798;stroke-linecap:round;stroke-linejoin:round;stroke-miterlimit:4;stroke-dasharray:none;stroke-dashoffset:40;stroke-opacity:1" />
    <path
       style="fill:none;fill-rule:evenodd;stroke:#ffffff;stroke-width:2.99036813;stroke-linecap:butt;stroke-linejoin:round;stroke-miterlimit:4;stroke-dasharray:none;stroke-opacity:1"
       d="m 1294.3096,552.16679 -114.7594,64.13547"
       id="path8568"
       inkscape:connector-curvature="0" />
    <path
       style="fill:none;fill-rule:evenodd;stroke:#ffffff;stroke-width:2.99036813;stroke-linecap:butt;stroke-linejoin:round;stroke-miterlimit:4;stroke-dasharray:none;stroke-opacity:1"
       d="m 1180.1124,615.97769 17.0945,8.51134 0.7028,-0.40571"
       id="path8570"
       inkscape:connector-curvature="0" />
    <path
       inkscape:connector-curvature="0"
       id="path8572"
       d="m 1180.047,615.53982 1.1762,-19.05999 0.7027,-0.40572"
       style="fill:none;fill-rule:evenodd;stroke:#ffffff;stroke-width:2.99036813;stroke-linecap:butt;stroke-linejoin:round;stroke-miterlimit:4;stroke-dasharray:none;stroke-opacity:1" />
    <g
       transform="translate(13.333298,276.89124)"
       id="text8493"
       style="font-style:normal;font-variant:normal;font-weight:normal;font-stretch:normal;font-size:42.66279221px;line-height:125%;font-family:'Brandon Text';-inkscape-font-specification:'Brandon Text, Normal';text-align:start;letter-spacing:0px;word-spacing:0px;writing-mode:lr-tb;text-anchor:start;fill:#ffffff;fill-opacity:1;stroke:none;stroke-width:1px;stroke-linecap:butt;stroke-linejoin:miter;stroke-opacity:1">
      <path
         inkscape:connector-curvature="0"
         id="path8596"
         d="m 743.93187,781.75777 c 0,0.42662 0.3413,0.81059 0.81059,0.81059 l 16.80914,0 c 0.46929,0 0.8106,-0.38397 0.8106,-0.81059 l 0,-1.23722 c 0,-0.42663 -0.34131,-0.8106 -0.8106,-0.8106 l -14.33469,0 0,-10.87901 12.24422,0 c 0.42663,0 0.81059,-0.3413 0.81059,-0.81059 l 0,-1.23722 c 0,-0.42663 -0.38396,-0.8106 -0.81059,-0.8106 l -12.24422,0 0,-10.40972 14.33469,0 c 0.46929,0 0.8106,-0.38396 0.8106,-0.81059 l 0,-1.23722 c 0,-0.42663 -0.34131,-0.8106 -0.8106,-0.8106 l -16.80914,0 c -0.46929,0 -0.81059,0.38397 -0.81059,0.8106 l 0,28.24277 z" />
      <path
         inkscape:connector-curvature="0"
         id="path8598"
         d="m 767.95835,781.62978 c 0,0.51195 0.42663,0.93858 0.93859,0.93858 l 1.27988,0 c 0.46929,0 0.93858,-0.42663 0.93858,-0.93858 l 0,-27.98679 c 0,-0.46929 -0.46929,-0.93859 -0.93858,-0.93859 l -1.27988,0 c -0.51196,0 -0.93859,0.4693 -0.93859,0.93859 l 0,27.98679 z" />
      <path
         inkscape:connector-curvature="0"
         id="path8600"
         d="m 776.37493,776.59557 c 0,3.96764 2.64509,6.44208 6.10077,6.44208 3.02906,0 5.07688,-1.4932 6.10078,-2.5171 l 0.38397,1.32254 c 0.12799,0.42663 0.29864,0.72527 0.81059,0.72527 l 0.81059,0 c 0.51196,0 0.93859,-0.42663 0.93859,-0.93858 l 0,-10.92168 c 0,-5.80214 -1.06657,-8.27658 -6.10078,-8.27658 -3.24238,0 -5.80214,0.85326 -6.78339,1.27989 -0.46929,0.21331 -0.76793,0.46929 -0.59728,1.06657 l 0.42663,1.15189 c 0.17065,0.46929 0.42663,0.72527 0.93858,0.51195 0.89592,-0.29864 3.15705,-1.15189 5.84481,-1.15189 2.81574,0 3.28503,1.79184 3.24237,5.41817 0,0 -2.13314,-0.63994 -4.22362,-0.63994 -5.07687,0 -7.89261,2.77308 -7.89261,6.52741 z m 3.11438,0 c 0,-2.51711 2.04781,-3.83965 4.77823,-3.83965 1.96249,0 3.54101,0.42663 4.18096,0.76793 l 0,4.0103 c -0.85326,1.27988 -2.9864,2.64509 -5.41818,2.64509 -2.1758,0 -3.54101,-1.57852 -3.54101,-3.58367 z" />
      <path
         inkscape:connector-curvature="0"
         id="path8602"
         d="m 797.99229,781.62978 c 0,0.51195 0.42663,0.93858 0.93859,0.93858 l 0.76793,0 c 0.46929,0 0.76793,-0.3413 0.85325,-0.81059 l 0.25598,-1.27989 c 0,0 2.21846,2.55977 6.22877,2.55977 5.03421,0 8.83119,-4.73557 8.83119,-10.36706 0,-5.75948 -3.41302,-10.23907 -9.30048,-10.23907 -3.28504,0 -5.46084,1.23722 -5.46084,1.23722 l 0,-10.02575 c 0,-0.46929 -0.46929,-0.93859 -0.93858,-0.93859 l -1.27989,0 c -0.51195,0 -0.89592,0.4693 -0.89592,0.93859 l 0,27.98679 z m 3.11439,-4.69291 0,-10.40972 c 0,0 2.26113,-1.23722 4.99154,-1.23722 4.30895,0 6.57007,3.49835 6.57007,7.42332 0,3.83966 -2.38911,7.46599 -5.97279,7.46599 -3.54101,0 -5.58882,-3.24237 -5.58882,-3.24237 z" />
      <path
         inkscape:connector-curvature="0"
         id="path8604"
         d="m 819.9603,772.67059 c 0,5.63149 4.43693,10.36706 9.89777,10.36706 5.46083,0 9.89776,-4.73557 9.89776,-10.36706 0,-5.54616 -4.43693,-10.23907 -9.89776,-10.23907 -5.46084,0 -9.89777,4.69291 -9.89777,10.23907 z m 3.11438,0 c 0,-4.0103 2.90107,-7.38066 6.78339,-7.38066 3.88231,0 6.74072,3.37036 6.74072,7.38066 0,4.09563 -2.85841,7.50865 -6.74072,7.50865 -3.88232,0 -6.78339,-3.41302 -6.78339,-7.50865 z" />
      <path
         inkscape:connector-curvature="0"
         id="path8606"
         d="m 845.15468,781.62978 c 0,0.51195 0.42663,0.93858 0.93858,0.93858 l 1.27988,0 c 0.46929,0 0.93859,-0.42663 0.93859,-0.93858 l 0,-13.6521 c 0,0 1.53586,-2.5171 5.33284,-2.5171 0.93859,0 1.66385,0.3413 2.13314,0.55462 0.46929,0.21331 0.93859,0.17065 1.1519,-0.46929 l 0.55462,-1.53587 c 0.46929,-1.3652 -1.96249,-1.57852 -3.45569,-1.57852 -4.09563,0 -6.05812,2.51711 -6.05812,2.51711 l -0.3413,-1.40788 c -0.12799,-0.46929 -0.46929,-0.6826 -0.85326,-0.6826 l -0.6826,0 c -0.51195,0 -0.93858,0.46929 -0.93858,0.93858 l 0,17.83305 z" />
      <path
         inkscape:connector-curvature="0"
         id="path8608"
         d="m 859.78402,776.59557 c 0,3.96764 2.64509,6.44208 6.10078,6.44208 3.02905,0 5.07687,-1.4932 6.10078,-2.5171 l 0.38396,1.32254 c 0.12799,0.42663 0.29864,0.72527 0.81059,0.72527 l 0.8106,0 c 0.51195,0 0.93858,-0.42663 0.93858,-0.93858 l 0,-10.92168 c 0,-5.80214 -1.06657,-8.27658 -6.10078,-8.27658 -3.24237,0 -5.80214,0.85326 -6.78338,1.27989 -0.4693,0.21331 -0.76794,0.46929 -0.59728,1.06657 l 0.42662,1.15189 c 0.17066,0.46929 0.42663,0.72527 0.93859,0.51195 0.89591,-0.29864 3.15704,-1.15189 5.8448,-1.15189 2.81574,0 3.28503,1.79184 3.24237,5.41817 0,0 -2.13314,-0.63994 -4.22362,-0.63994 -5.07687,0 -7.89261,2.77308 -7.89261,6.52741 z m 3.11438,0 c 0,-2.51711 2.04782,-3.83965 4.77823,-3.83965 1.96249,0 3.54102,0.42663 4.18096,0.76793 l 0,4.0103 c -0.85326,1.27988 -2.9864,2.64509 -5.41818,2.64509 -2.1758,0 -3.54101,-1.57852 -3.54101,-3.58367 z" />
      <path
         inkscape:connector-curvature="0"
         id="path8610"
         d="m 882.68127,765.58857 0,11.98824 c 0,3.07172 0.76793,5.46084 4.52225,5.46084 2.6451,0 4.69291,-0.98124 5.54617,-1.57852 0.51195,-0.34131 0.59727,-0.63995 0.3413,-1.27989 l -0.38397,-0.89592 c -0.21331,-0.46929 -0.46929,-0.85325 -1.23722,-0.38396 -0.81059,0.51195 -2.04781,1.27988 -3.88231,1.27988 -1.10924,0 -1.74918,-0.76793 -1.74918,-2.81574 l 0,-11.77493 5.80214,0 c 0.55462,0 0.98125,-0.42663 0.98125,-0.93858 l 0,-0.85326 c 0,-0.55462 -0.42663,-0.93858 -0.98125,-0.93858 l -5.80214,0 0,-5.54616 c 0,-0.51196 -0.38396,-0.98125 -0.89592,-0.93859 l -1.32254,0.0853 c -0.46929,0.0427 -0.93858,0.42663 -0.93858,0.93858 l 0,5.46084 -2.60243,0 c -0.59728,0 -0.98125,0.38396 -0.98125,0.93858 l 0,0.85326 c 0,0.51195 0.38397,0.93858 0.98125,0.93858 l 2.60243,0 z" />
      <path
         inkscape:connector-curvature="0"
         id="path8612"
         d="m 896.24604,772.71325 c 0,5.63149 3.58367,10.3244 9.55647,10.3244 3.41302,0 6.01545,-1.32255 7.21001,-2.26113 0.72526,-0.55461 0.55461,-0.76793 0.17065,-1.36521 l -0.51195,-0.72526 c -0.51196,-0.76793 -0.8106,-0.59728 -1.4932,-0.12799 -1.10924,0.72526 -2.73042,1.62118 -5.33285,1.62118 -3.58368,0 -6.35676,-3.45568 -6.44208,-6.74072 l 14.33469,0 c 0.42663,0 0.85326,-0.3413 0.89592,-0.85325 0.0427,-0.34131 0.0853,-0.85326 0.0853,-1.19456 0,-5.1622 -3.75433,-8.95919 -8.91652,-8.95919 -5.9728,0 -9.55647,4.73557 -9.55647,10.28173 z m 3.19971,-1.79183 c 0.38396,-3.07172 3.02906,-5.63149 6.35676,-5.63149 3.37036,0 5.67415,2.73042 5.75947,5.63149 l -12.11623,0 z" />
      <path
         inkscape:connector-curvature="0"
         id="path8614"
         d="m 918.57734,772.67059 c 0,5.63149 3.83965,10.36706 8.8312,10.36706 3.71166,0 6.22876,-2.55977 6.22876,-2.55977 l 0.25598,1.27989 c 0.17065,0.46929 0.42663,0.81059 0.85326,0.81059 l 0.76793,0 c 0.51195,0 0.98124,-0.42663 0.98124,-0.93858 l 0,-27.98679 c 0,-0.46929 -0.46929,-0.93859 -0.98124,-0.93859 l -1.19456,0 c -0.51195,0 -0.93858,0.4693 -0.93858,0.93859 l 0,10.02575 c 0,0 -2.21847,-1.23722 -5.46084,-1.23722 -5.93013,0 -9.34315,4.47959 -9.34315,10.23907 z m 3.19971,0.0427 c 0,-3.92497 2.34645,-7.42332 6.57007,-7.42332 2.73042,0 5.03421,1.10923 5.03421,1.10923 l 0,10.62304 c 0,0 -2.04782,3.15704 -5.58883,3.15704 -3.58367,0 -6.01545,-3.62633 -6.01545,-7.46599 z" />
      <path
         inkscape:connector-curvature="0"
         id="path8616"
         d="m 953.39485,781.62978 c 0,0.51195 0.42663,0.93858 0.93858,0.93858 l 0.76793,0 c 0.46929,0 0.76793,-0.3413 0.85326,-0.81059 l 0.25598,-1.27989 c 0,0 2.21846,2.55977 6.22876,2.55977 5.03421,0 8.8312,-4.73557 8.8312,-10.36706 0,-5.75948 -3.41302,-10.23907 -9.30049,-10.23907 -3.28503,0 -5.46083,1.23722 -5.46083,1.23722 l 0,-10.02575 c 0,-0.46929 -0.4693,-0.93859 -0.93859,-0.93859 l -1.27988,0 c -0.51195,0 -0.89592,0.4693 -0.89592,0.93859 l 0,27.98679 z m 3.11439,-4.69291 0,-10.40972 c 0,0 2.26112,-1.23722 4.99154,-1.23722 4.30894,0 6.57007,3.49835 6.57007,7.42332 0,3.83966 -2.38911,7.46599 -5.97279,7.46599 -3.54101,0 -5.58882,-3.24237 -5.58882,-3.24237 z" />
      <path
         inkscape:connector-curvature="0"
         id="path8618"
         d="m 976.42943,774.41977 c 0,5.20486 1.36521,8.61788 7.03936,8.61788 3.54101,0 5.37551,-1.79184 6.10078,-2.55977 l 0.38397,1.23722 c 0.12799,0.51196 0.3413,0.85326 0.89592,0.85326 l 0.6826,0 c 0.46929,0 0.89592,-0.42663 0.89592,-0.93858 l 0,-17.83305 c 0,-0.46929 -0.42663,-0.93858 -0.89592,-0.93858 l -1.32255,0 c -0.51195,0 -0.89591,0.46929 -0.89591,0.93858 l 0,13.52411 c -0.89592,1.0239 -2.6451,2.8584 -5.58883,2.8584 -2.85841,0 -4.13829,-1.79183 -4.13829,-5.71681 l 0,-10.6657 c 0,-0.46929 -0.42663,-0.93858 -0.93858,-0.93858 l -1.27989,0 c -0.55461,0 -0.93858,0.46929 -0.93858,0.93858 l 0,10.62304 z" />
      <path
         inkscape:connector-curvature="0"
         id="path8620"
         d="m 1000.5506,757.78128 c 1.3225,0 2.3464,-1.06657 2.3464,-2.30379 0,-1.36521 -1.0239,-2.38912 -2.3464,-2.38912 -1.27991,0 -2.30382,1.02391 -2.30382,2.38912 0,1.23722 1.02391,2.30379 2.30382,2.30379 z m -1.49323,23.8485 c 0,0.51195 0.42663,0.93858 0.93858,0.93858 l 1.27985,0 c 0.4693,0 0.9386,-0.42663 0.9386,-0.93858 l 0,-17.83305 c 0,-0.46929 -0.4693,-0.93858 -0.9386,-0.93858 l -1.27985,0 c -0.51195,0 -0.93858,0.46929 -0.93858,0.93858 l 0,17.83305 z" />
      <path
         inkscape:connector-curvature="0"
         id="path8622"
         d="m 1009.1031,781.62978 c 0,0.51195 0.4266,0.93858 0.9386,0.93858 l 1.2799,0 c 0.4693,0 0.9386,-0.42663 0.9386,-0.93858 l 0,-27.98679 c 0,-0.46929 -0.4693,-0.93859 -0.9386,-0.93859 l -1.2799,0 c -0.512,0 -0.9386,0.4693 -0.9386,0.93859 l 0,27.98679 z" />
      <path
         inkscape:connector-curvature="0"
         id="path8624"
         d="m 1017.8183,772.67059 c 0,5.63149 3.8397,10.36706 8.8312,10.36706 3.7117,0 6.2288,-2.55977 6.2288,-2.55977 l 0.256,1.27989 c 0.1706,0.46929 0.4266,0.81059 0.8532,0.81059 l 0.7679,0 c 0.512,0 0.9813,-0.42663 0.9813,-0.93858 l 0,-27.98679 c 0,-0.46929 -0.4693,-0.93859 -0.9813,-0.93859 l -1.1945,0 c -0.512,0 -0.9386,0.4693 -0.9386,0.93859 l 0,10.02575 c 0,0 -2.2185,-1.23722 -5.4608,-1.23722 -5.9302,0 -9.3432,4.47959 -9.3432,10.23907 z m 3.1997,0.0427 c 0,-3.92497 2.3465,-7.42332 6.5701,-7.42332 2.7304,0 5.0342,1.10923 5.0342,1.10923 l 0,10.62304 c 0,0 -2.0478,3.15704 -5.5888,3.15704 -3.5837,0 -6.0155,-3.62633 -6.0155,-7.46599 z" />
      <path
         inkscape:connector-curvature="0"
         id="path8626"
         d="m 1055.7502,781.41646 c 0,0 2.1758,1.62119 5.4609,1.62119 5.4181,0 9.3004,-4.56492 9.3004,-10.3244 0,-5.63148 -3.7969,-10.28173 -9.1725,-10.28173 -3.541,0 -5.9301,2.00515 -5.9301,2.00515 l -0.2986,-0.93858 c -0.2133,-0.51195 -0.3413,-0.63994 -0.8106,-0.63994 l -0.7253,0 c -0.5119,0 -0.9386,0.46929 -0.9386,0.93858 l 0,27.98679 c 0,0.51196 0.4267,0.93858 0.9386,0.93858 l 1.2372,0 c 0.4693,0 0.9386,-0.42662 0.9386,-0.93858 l 0,-10.36706 z m 0,-2.94373 0,-10.79369 c 0,0 2.0478,-2.38911 5.2049,-2.38911 3.9676,0 6.3567,3.54101 6.3567,7.38066 0,4.30894 -2.773,7.50865 -6.57,7.50865 -2.7305,0 -4.9916,-1.70651 -4.9916,-1.70651 z" />
      <path
         inkscape:connector-curvature="0"
         id="path8628"
         d="m 1076.097,781.62978 c 0,0.51195 0.4267,0.93858 0.9386,0.93858 l 1.2799,0 c 0.4693,0 0.9386,-0.42663 0.9386,-0.93858 l 0,-27.98679 c 0,-0.46929 -0.4693,-0.93859 -0.9386,-0.93859 l -1.2799,0 c -0.5119,0 -0.9386,0.4693 -0.9386,0.93859 l 0,27.98679 z" />
      <path
         inkscape:connector-curvature="0"
         id="path8630"
         d="m 1084.5136,776.59557 c 0,3.96764 2.6451,6.44208 6.1008,6.44208 3.029,0 5.0769,-1.4932 6.1008,-2.5171 l 0.3839,1.32254 c 0.128,0.42663 0.2987,0.72527 0.8106,0.72527 l 0.8106,0 c 0.512,0 0.9386,-0.42663 0.9386,-0.93858 l 0,-10.92168 c 0,-5.80214 -1.0666,-8.27658 -6.1008,-8.27658 -3.2424,0 -5.8021,0.85326 -6.7834,1.27989 -0.4693,0.21331 -0.7679,0.46929 -0.5972,1.06657 l 0.4266,1.15189 c 0.1706,0.46929 0.4266,0.72527 0.9386,0.51195 0.8959,-0.29864 3.157,-1.15189 5.8448,-1.15189 2.8157,0 3.285,1.79184 3.2423,5.41817 0,0 -2.1331,-0.63994 -4.2236,-0.63994 -5.0768,0 -7.8926,2.77308 -7.8926,6.52741 z m 3.1144,0 c 0,-2.51711 2.0478,-3.83965 4.7782,-3.83965 1.9625,0 3.541,0.42663 4.181,0.76793 l 0,4.0103 c -0.8533,1.27988 -2.9864,2.64509 -5.4182,2.64509 -2.1758,0 -3.541,-1.57852 -3.541,-3.58367 z" />
      <path
         inkscape:connector-curvature="0"
         id="path8632"
         d="m 1106.131,781.62978 c 0,0.51195 0.4266,0.93858 0.9386,0.93858 l 1.2798,0 c 0.4693,0 0.9386,-0.42663 0.9386,-0.93858 l 0,-13.60943 c 0,0 2.3465,-2.73042 6.0581,-2.73042 2.9011,0 4.181,1.74917 4.181,5.5035 l 0,10.83635 c 0,0.51195 0.4266,0.93858 0.9386,0.93858 l 1.2799,0 c 0.4693,0 0.9385,-0.42663 0.9385,-0.93858 l 0,-10.40972 c 0,-5.07688 -1.4078,-8.78854 -7.1246,-8.78854 -4.0957,0 -6.6128,2.51711 -6.6128,2.51711 l -0.4266,-1.4932 c -0.085,-0.42663 -0.3413,-0.59728 -0.7679,-0.59728 l -0.6826,0 c -0.512,0 -0.9386,0.46929 -0.9386,0.93858 l 0,17.83305 z" />
    </g>
    <path
       inkscape:connector-curvature="0"
       id="rect8497"
       d="m 744.13321,976.34971 408.47239,0 c 11.8477,0 21.3857,9.538 21.3857,21.3857 l 0,103.73799 c 0,11.8477 -9.538,21.3858 -21.3857,21.3858 l -408.47239,0 c -11.8477,0 -21.38574,-9.5381 -21.38574,-21.3858 l 0,-103.73799 c 0,-11.8477 9.53804,-21.3857 21.38574,-21.3857 z"
       style="opacity:1;fill:none;fill-opacity:1;fill-rule:nonzero;stroke:#5333ed;stroke-width:2.20075798;stroke-linecap:round;stroke-linejoin:round;stroke-miterlimit:4;stroke-dasharray:none;stroke-dashoffset:40;stroke-opacity:1" />
    <g
       transform="matrix(1.0055288,0,0,0.59834412,8.1636779,625.58247)"
       id="g8864">
      <path
         style="fill:none;fill-rule:evenodd;stroke:#ffffff;stroke-width:3.89065695;stroke-linecap:butt;stroke-linejoin:round;stroke-miterlimit:4;stroke-dasharray:none;stroke-opacity:1"
         d="m 933.00926,867.95953 1.82245,224.26197"
         id="path8583"
         inkscape:connector-curvature="0" />
      <path
         style="fill:none;fill-rule:evenodd;stroke:#ffffff;stroke-width:3.89065695;stroke-linecap:butt;stroke-linejoin:round;stroke-miterlimit:4;stroke-dasharray:none;stroke-opacity:1"
         d="m 934.83171,1091.114 -15.79451,-17.9963 0,-1.3844"
         id="path8585"
         inkscape:connector-curvature="0" />
      <path
         inkscape:connector-curvature="0"
         id="path8587"
         d="m 935.24042,1090.8372 15.79451,-17.9964 0,-1.3843"
         style="fill:none;fill-rule:evenodd;stroke:#ffffff;stroke-width:3.89065695;stroke-linecap:butt;stroke-linejoin:round;stroke-miterlimit:4;stroke-dasharray:none;stroke-opacity:1" />
    </g>
    <g
       transform="translate(13.333298,184.89124)"
       id="text8591"
       style="font-style:normal;font-variant:normal;font-weight:normal;font-stretch:normal;font-size:42.66279221px;line-height:125%;font-family:'Brandon Text';-inkscape-font-specification:'Brandon Text, Normal';text-align:start;letter-spacing:0px;word-spacing:0px;writing-mode:lr-tb;text-anchor:start;fill:#ffffff;fill-opacity:1;stroke:none;stroke-width:1px;stroke-linecap:butt;stroke-linejoin:miter;stroke-opacity:1">
      <path
         inkscape:connector-curvature="0"
         id="path8710"
         d="m 896.03228,1187.284 0,-10.4524 6.48474,0 c 3.49835,0 5.58883,2.0478 5.58883,5.1195 0,2.9864 -2.09048,5.3329 -5.58883,5.3329 l -6.48474,0 z m -0.0853,13.6094 0,-10.6657 7.338,0 c 3.24237,0 5.80214,2.2185 5.80214,5.2475 0,3.0718 -2.1758,5.4182 -5.63149,5.4182 l -7.50865,0 z m 11.64694,-12.3722 c 1.96249,-1.1945 4.13829,-3.3277 4.13829,-6.7834 0,-4.4796 -3.45568,-7.8499 -8.66054,-7.8499 l -9.42848,0 c -0.46929,0 -0.81059,0.3839 -0.81059,0.8106 l 0,28.2427 c 0,0.4267 0.3413,0.8106 0.81059,0.8106 l 10.02576,0 c 5.29018,0 9.00184,-3.4557 9.00184,-8.2339 0,-3.8823 -2.81574,-5.9728 -5.07687,-6.9114 l 0,-0.085 z" />
      <path
         inkscape:connector-curvature="0"
         id="path8712"
         d="m 917.93229,1195.6032 c 0,5.2049 1.36521,8.6179 7.03936,8.6179 3.54101,0 5.37551,-1.7918 6.10078,-2.5597 l 0.38396,1.2372 c 0.12799,0.5119 0.3413,0.8532 0.89592,0.8532 l 0.68261,0 c 0.46929,0 0.89591,-0.4266 0.89591,-0.9386 l 0,-17.833 c 0,-0.4693 -0.42662,-0.9386 -0.89591,-0.9386 l -1.32255,0 c -0.51195,0 -0.89592,0.4693 -0.89592,0.9386 l 0,13.5241 c -0.89592,1.0239 -2.64509,2.8584 -5.58883,2.8584 -2.8584,0 -4.13829,-1.7918 -4.13829,-5.7168 l 0,-10.6657 c 0,-0.4693 -0.42662,-0.9386 -0.93858,-0.9386 l -1.27988,0 c -0.55462,0 -0.93858,0.4693 -0.93858,0.9386 l 0,10.623 z" />
      <path
         inkscape:connector-curvature="0"
         id="path8714"
         d="m 942.05343,1178.9647 c 1.32255,0 2.34646,-1.0665 2.34646,-2.3037 0,-1.3653 -1.02391,-2.3892 -2.34646,-2.3892 -1.27988,0 -2.30379,1.0239 -2.30379,2.3892 0,1.2372 1.02391,2.3037 2.30379,2.3037 z m -1.4932,23.8485 c 0,0.512 0.42663,0.9386 0.93859,0.9386 l 1.27988,0 c 0.46929,0 0.93858,-0.4266 0.93858,-0.9386 l 0,-17.833 c 0,-0.4693 -0.46929,-0.9386 -0.93858,-0.9386 l -1.27988,0 c -0.51196,0 -0.93859,0.4693 -0.93859,0.9386 l 0,17.833 z" />
      <path
         inkscape:connector-curvature="0"
         id="path8716"
         d="m 950.60599,1202.8132 c 0,0.512 0.42663,0.9386 0.93858,0.9386 l 1.27988,0 c 0.46929,0 0.93858,-0.4266 0.93858,-0.9386 l 0,-27.9867 c 0,-0.4693 -0.46929,-0.9386 -0.93858,-0.9386 l -1.27988,0 c -0.51195,0 -0.93858,0.4693 -0.93858,0.9386 l 0,27.9867 z" />
      <path
         inkscape:connector-curvature="0"
         id="path8718"
         d="m 959.3212,1193.8541 c 0,5.6315 3.83965,10.367 8.8312,10.367 3.71166,0 6.22876,-2.5597 6.22876,-2.5597 l 0.25598,1.2798 c 0.17065,0.4693 0.42663,0.8106 0.85326,0.8106 l 0.76793,0 c 0.51195,0 0.98124,-0.4266 0.98124,-0.9386 l 0,-27.9867 c 0,-0.4693 -0.46929,-0.9386 -0.98124,-0.9386 l -1.19456,0 c -0.51196,0 -0.93858,0.4693 -0.93858,0.9386 l 0,10.0257 c 0,0 -2.21847,-1.2372 -5.46084,-1.2372 -5.93013,0 -9.34315,4.4796 -9.34315,10.2391 z m 3.19971,0.043 c 0,-3.925 2.34645,-7.4233 6.57007,-7.4233 2.73042,0 5.03421,1.1092 5.03421,1.1092 l 0,10.6231 c 0,0 -2.04782,3.157 -5.58883,3.157 -3.58367,0 -6.01545,-3.6263 -6.01545,-7.466 z" />
    </g>
    <path
       inkscape:connector-curvature="0"
       id="rect8595"
       d="m 744.13321,1300.691 408.47239,0 c 11.8477,0 21.3857,9.538 21.3857,21.3857 l 0,103.7381 c 0,11.8477 -9.538,21.3858 -21.3857,21.3858 l -408.47239,0 c -11.8477,0 -21.38574,-9.5381 -21.38574,-21.3858 l 0,-103.7381 c 0,-11.8477 9.53804,-21.3857 21.38574,-21.3857 z"
       style="opacity:1;fill:none;fill-opacity:1;fill-rule:nonzero;stroke:#5333ed;stroke-width:2.20075798;stroke-linecap:round;stroke-linejoin:round;stroke-miterlimit:4;stroke-dasharray:none;stroke-dashoffset:40;stroke-opacity:1" />
    <g
       transform="matrix(1.0043822,0,0,0.76918563,9.2358224,468.43044)"
       id="g8869">
      <path
         inkscape:connector-curvature="0"
         id="path8615"
         d="m 933.00104,1277.2538 1.82983,173.4401"
         style="fill:none;fill-rule:evenodd;stroke:#ffffff;stroke-width:3.4284606;stroke-linecap:butt;stroke-linejoin:round;stroke-miterlimit:4;stroke-dasharray:none;stroke-opacity:1" />
      <path
         inkscape:connector-curvature="0"
         id="path8617"
         d="m 934.83087,1449.8375 -15.85858,-13.9181 0,-1.0706"
         style="fill:none;fill-rule:evenodd;stroke:#ffffff;stroke-width:3.4284606;stroke-linecap:butt;stroke-linejoin:round;stroke-miterlimit:4;stroke-dasharray:none;stroke-opacity:1" />
      <path
         style="fill:none;fill-rule:evenodd;stroke:#ffffff;stroke-width:3.4284606;stroke-linecap:butt;stroke-linejoin:round;stroke-miterlimit:4;stroke-dasharray:none;stroke-opacity:1"
         d="m 935.24124,1449.6233 15.85859,-13.918 0,-1.0706"
         id="path8619"
         inkscape:connector-curvature="0" />
    </g>
    <g
       id="g8722">
      <g
         style="font-style:normal;font-variant:normal;font-weight:normal;font-stretch:normal;font-size:42.66279221px;line-height:125%;font-family:'Brandon Text';-inkscape-font-specification:'Brandon Text, Normal';text-align:start;letter-spacing:0px;word-spacing:0px;writing-mode:lr-tb;text-anchor:start;fill:#ffffff;fill-opacity:1;stroke:none;stroke-width:1px;stroke-linecap:butt;stroke-linejoin:miter;stroke-opacity:1"
         id="text8623"
         transform="translate(13.333298,140.89124)">
        <path
           d="m 816.73589,1559.7536 c 0,0.4266 0.3413,0.8106 0.81059,0.8106 l 16.80914,0 c 0.46929,0 0.81059,-0.384 0.81059,-0.8106 l 0,-1.2372 c 0,-0.4266 -0.3413,-0.8106 -0.81059,-0.8106 l -14.3347,0 0,-10.879 12.24422,0 c 0.42663,0 0.8106,-0.3413 0.8106,-0.8106 l 0,-1.2372 c 0,-0.4267 -0.38397,-0.8106 -0.8106,-0.8106 l -12.24422,0 0,-10.4097 14.3347,0 c 0.46929,0 0.81059,-0.384 0.81059,-0.8106 l 0,-1.2373 c 0,-0.4266 -0.3413,-0.8105 -0.81059,-0.8105 l -16.80914,0 c -0.46929,0 -0.81059,0.3839 -0.81059,0.8105 l 0,28.2428 z"
           id="path8728"
           inkscape:connector-curvature="0" />
        <path
           d="m 841.32899,1543.5844 0,11.9883 c 0,3.0717 0.76793,5.4608 4.52225,5.4608 2.6451,0 4.69291,-0.9812 5.54617,-1.5785 0.51195,-0.3413 0.59727,-0.64 0.3413,-1.2799 l -0.38397,-0.8959 c -0.21331,-0.4693 -0.46929,-0.8533 -1.23722,-0.384 -0.81059,0.512 -2.04781,1.2799 -3.88231,1.2799 -1.10923,0 -1.74918,-0.7679 -1.74918,-2.8158 l 0,-11.7749 5.80214,0 c 0.55462,0 0.98125,-0.4266 0.98125,-0.9386 l 0,-0.8532 c 0,-0.5546 -0.42663,-0.9386 -0.98125,-0.9386 l -5.80214,0 0,-5.5462 c 0,-0.5119 -0.38396,-0.9812 -0.89592,-0.9385 l -1.32254,0.085 c -0.46929,0.043 -0.93858,0.4266 -0.93858,0.9386 l 0,5.4608 -2.60243,0 c -0.59728,0 -0.98125,0.384 -0.98125,0.9386 l 0,0.8532 c 0,0.512 0.38397,0.9386 0.98125,0.9386 l 2.60243,0 z"
           id="path8730"
           inkscape:connector-curvature="0" />
        <path
           d="m 854.59511,1554.5914 c 0,3.9677 2.6451,6.4421 6.10078,6.4421 3.02906,0 5.07687,-1.4932 6.10078,-2.5171 l 0.38397,1.3225 c 0.12799,0.4267 0.29864,0.7253 0.81059,0.7253 l 0.81059,0 c 0.51196,0 0.93858,-0.4266 0.93858,-0.9386 l 0,-10.9216 c 0,-5.8022 -1.06657,-8.2766 -6.10077,-8.2766 -3.24238,0 -5.80214,0.8532 -6.78339,1.2799 -0.46929,0.2133 -0.76793,0.4692 -0.59728,1.0665 l 0.42663,1.1519 c 0.17065,0.4693 0.42663,0.7253 0.93858,0.512 0.89592,-0.2987 3.15705,-1.1519 5.8448,-1.1519 2.81575,0 3.28504,1.7918 3.24238,5.4182 0,0 -2.13314,-0.64 -4.22362,-0.64 -5.07687,0 -7.89262,2.7731 -7.89262,6.5274 z m 3.11439,0 c 0,-2.5171 2.04781,-3.8396 4.77823,-3.8396 1.96249,0 3.54101,0.4266 4.18095,0.7679 l 0,4.0103 c -0.85325,1.2799 -2.98639,2.6451 -5.41817,2.6451 -2.1758,0 -3.54101,-1.5785 -3.54101,-3.5837 z"
           id="path8732"
           inkscape:connector-curvature="0" />
        <path
           d="m 885.35232,1545.6749 c 0,8.5326 6.86871,15.3159 15.40127,15.3159 3.79699,0 7.338,-1.5785 10.15375,-4.1383 0.29863,-0.2986 0.38396,-0.8959 0.0427,-1.1518 l -0.98125,-0.9813 c -0.3413,-0.3413 -0.6826,-0.384 -1.10923,-0.043 -2.26113,1.9199 -4.43693,3.1998 -8.14859,3.1998 -6.74072,0 -11.90292,-5.6742 -11.90292,-12.2443 0,-6.6127 5.1622,-12.2869 11.90292,-12.2869 3.11438,0 5.93013,1.2799 8.14859,3.1998 0.42663,0.4266 0.76793,0.4692 1.10923,0.043 l 1.1519,-1.1519 c 0.3413,-0.3413 0.29864,-0.8532 -0.0427,-1.1945 -2.90107,-2.4745 -6.01546,-3.9677 -10.3244,-3.9677 -8.53256,0 -15.40127,6.8687 -15.40127,15.4013 z"
           id="path8734"
           inkscape:connector-curvature="0" />
        <path
           d="m 914.92897,1550.6664 c 0,5.6315 4.43693,10.3671 9.89777,10.3671 5.46084,0 9.89777,-4.7356 9.89777,-10.3671 0,-5.5461 -4.43693,-10.239 -9.89777,-10.239 -5.46084,0 -9.89777,4.6929 -9.89777,10.239 z m 3.11438,0 c 0,-4.0103 2.90107,-7.3806 6.78339,-7.3806 3.88231,0 6.74072,3.3703 6.74072,7.3806 0,4.0957 -2.85841,7.5087 -6.74072,7.5087 -3.88232,0 -6.78339,-3.413 -6.78339,-7.5087 z"
           id="path8736"
           inkscape:connector-curvature="0" />
        <path
           d="m 940.12335,1559.6256 c 0,0.512 0.42663,0.9386 0.93858,0.9386 l 1.27989,0 c 0.46929,0 0.93858,-0.4266 0.93858,-0.9386 l 0,-13.6094 c 0,0 1.79184,-2.7304 5.29018,-2.7304 3.19971,0 4.43694,2.1758 4.43694,5.9301 l 0,10.4097 c 0,0.512 0.46929,0.9386 0.93858,0.9386 l 1.27988,0 c 0.51195,0 0.93858,-0.4266 0.93858,-0.9386 l 0,-10.4097 c 0,-1.0239 -0.0853,-2.3891 -0.25597,-3.2424 0.72526,-0.5972 2.5171,-2.6877 5.71681,-2.6877 2.98639,0 4.18095,2.2611 4.18095,5.9301 l 0,10.4097 c 0,0.512 0.42663,0.9386 0.93858,0.9386 l 1.27989,0 c 0.51195,0 0.93858,-0.4266 0.93858,-0.9386 l 0,-10.4097 c 0,-5.0769 -1.36521,-8.7885 -7.08202,-8.7885 -3.96764,0 -6.78339,2.9437 -7.03936,3.1144 -1.27989,-2.0479 -2.85841,-3.1144 -5.80214,-3.1144 -4.05297,0 -6.10078,2.5171 -6.10078,2.5171 l -0.42663,-1.4932 c -0.0853,-0.4266 -0.3413,-0.5973 -0.76793,-0.5973 l -0.68261,0 c -0.51195,0 -0.93858,0.4693 -0.93858,0.9386 l 0,17.833 z"
           id="path8738"
           inkscape:connector-curvature="0" />
        <path
           d="m 978.48453,1559.4123 c 0,0 2.1758,1.6212 5.46084,1.6212 5.41817,0 9.30049,-4.5649 9.30049,-10.3244 0,-5.6315 -3.79699,-10.2817 -9.1725,-10.2817 -3.54101,0 -5.93013,2.0051 -5.93013,2.0051 l -0.29864,-0.9386 c -0.21331,-0.5119 -0.3413,-0.6399 -0.81059,-0.6399 l -0.72527,0 c -0.51195,0 -0.93858,0.4693 -0.93858,0.9386 l 0,27.9868 c 0,0.5119 0.42663,0.9386 0.93858,0.9386 l 1.23722,0 c 0.46929,0 0.93858,-0.4267 0.93858,-0.9386 l 0,-10.3671 z m 0,-2.9437 0,-10.7937 c 0,0 2.04782,-2.3891 5.20486,-2.3891 3.96764,0 6.35676,3.541 6.35676,7.3806 0,4.309 -2.77308,7.5087 -6.57007,7.5087 -2.73042,0 -4.99155,-1.7065 -4.99155,-1.7065 z"
           id="path8740"
           inkscape:connector-curvature="0" />
        <path
           d="m 1000.1112,1535.7771 c 1.3226,0 2.3465,-1.0665 2.3465,-2.3038 0,-1.3652 -1.0239,-2.3891 -2.3465,-2.3891 -1.27984,0 -2.30375,1.0239 -2.30375,2.3891 0,1.2373 1.02391,2.3038 2.30375,2.3038 z m -1.49316,23.8485 c 0,0.512 0.42663,0.9386 0.93858,0.9386 l 1.27988,0 c 0.4693,0 0.9386,-0.4266 0.9386,-0.9386 l 0,-17.833 c 0,-0.4693 -0.4693,-0.9386 -0.9386,-0.9386 l -1.27988,0 c -0.51195,0 -0.93858,0.4693 -0.93858,0.9386 l 0,17.833 z"
           id="path8742"
           inkscape:connector-curvature="0" />
        <path
           d="m 1008.6638,1559.6256 c 0,0.512 0.4266,0.9386 0.9386,0.9386 l 1.2799,0 c 0.4693,0 0.9385,-0.4266 0.9385,-0.9386 l 0,-27.9868 c 0,-0.4693 -0.4692,-0.9385 -0.9385,-0.9385 l -1.2799,0 c -0.512,0 -0.9386,0.4692 -0.9386,0.9385 l 0,27.9868 z"
           id="path8744"
           inkscape:connector-curvature="0" />
        <path
           d="m 1017.379,1550.7091 c 0,5.6315 3.5837,10.3244 9.5565,10.3244 3.413,0 6.0154,-1.3225 7.21,-2.2611 0.7253,-0.5546 0.5546,-0.768 0.1706,-1.3652 l -0.5119,-0.7253 c -0.512,-0.7679 -0.8106,-0.5973 -1.4932,-0.128 -1.1093,0.7253 -2.7304,1.6212 -5.3329,1.6212 -3.5836,0 -6.3567,-3.4557 -6.442,-6.7407 l 14.3347,0 c 0.4266,0 0.8532,-0.3413 0.8959,-0.8533 0.043,-0.3413 0.085,-0.8532 0.085,-1.1945 0,-5.1622 -3.7543,-8.9592 -8.9165,-8.9592 -5.9728,0 -9.5565,4.7355 -9.5565,10.2817 z m 3.1997,-1.7918 c 0.384,-3.0718 3.0291,-5.6315 6.3568,-5.6315 3.3703,0 5.6741,2.7304 5.7594,5.6315 l -12.1162,0 z"
           id="path8746"
           inkscape:connector-curvature="0" />
        <path
           d="m 1040.9475,1559.6256 c 0,0.512 0.4267,0.9386 0.9386,0.9386 l 1.2799,0 c 0.4693,0 0.9386,-0.4266 0.9386,-0.9386 l 0,-13.6521 c 0,0 1.5358,-2.5171 5.3328,-2.5171 0.9386,0 1.6639,0.3413 2.1332,0.5546 0.4693,0.2134 0.9385,0.1707 1.1519,-0.4692 l 0.5546,-1.5359 c 0.4693,-1.3652 -1.9625,-1.5785 -3.4557,-1.5785 -4.0956,0 -6.0581,2.5171 -6.0581,2.5171 l -0.3413,-1.4079 c -0.128,-0.4693 -0.4693,-0.6826 -0.8533,-0.6826 l -0.6826,0 c -0.5119,0 -0.9386,0.4693 -0.9386,0.9386 l 0,17.833 z"
           id="path8748"
           inkscape:connector-curvature="0" />
      </g>
      <path
         style="opacity:1;fill:none;fill-opacity:1;fill-rule:nonzero;stroke:#5333ed;stroke-width:2.20075798;stroke-linecap:round;stroke-linejoin:round;stroke-miterlimit:4;stroke-dasharray:none;stroke-dashoffset:40;stroke-opacity:1"
         d="m 744.13321,1618.1323 408.47239,0 c 11.8477,0 21.3857,9.538 21.3857,21.3857 l 0,103.7381 c 0,11.8477 -9.538,21.3857 -21.3857,21.3857 l -408.47239,0 c -11.8477,0 -21.38574,-9.538 -21.38574,-21.3857 l 0,-103.7381 c 0,-11.8477 9.53804,-21.3857 21.38574,-21.3857 z"
         id="rect8627"
         inkscape:connector-curvature="0" />
    </g>
    <path
       inkscape:connector-curvature="0"
       id="rect8655"
       d="m 739.83899,607.99264 408.47241,0 c 11.8477,0 21.3857,9.5381 21.3857,21.3858 l 0,103.7381 c 0,11.8477 -9.538,21.3857 -21.3857,21.3857 l -408.47241,0 c -11.8477,0 -21.3857,-9.538 -21.3857,-21.3857 l 0,-103.7381 c 0,-11.8477 9.538,-21.3858 21.3857,-21.3858 z"
       style="opacity:1;fill:none;fill-opacity:1;fill-rule:nonzero;stroke:#5333ed;stroke-width:2.20075798;stroke-linecap:round;stroke-linejoin:round;stroke-miterlimit:4;stroke-dasharray:none;stroke-dashoffset:40;stroke-opacity:1" />
    <g
       transform="translate(-3.5000001e-5,-98.442093)"
       id="text8874"
       style="font-style:normal;font-variant:normal;font-weight:normal;font-stretch:normal;font-size:38.56073761px;line-height:125%;font-family:'Brandon Text';-inkscape-font-specification:'Brandon Text, Normal';text-align:start;letter-spacing:0px;word-spacing:0px;writing-mode:lr-tb;text-anchor:start;fill:#ffffff;fill-opacity:1;stroke:none;stroke-width:1px;stroke-linecap:butt;stroke-linejoin:miter;stroke-opacity:1">
      <path
         inkscape:connector-curvature="0"
         id="path8943"
         d="m 749.14617,787.86439 c 0,0.38561 0.30848,0.73266 0.69409,0.73266 l 8.63761,0 c 7.44222,0 13.53481,-6.05404 13.53481,-13.53482 0,-7.40366 -6.09259,-13.4577 -13.53481,-13.4577 l -8.63761,0 c -0.38561,0 -0.69409,0.34705 -0.69409,0.73265 l 0,25.52721 z m 2.93061,-1.92803 0,-21.7097 6.05404,0 c 6.32396,0 10.75844,4.51161 10.75844,10.83557 0,6.36252 -4.43448,10.87413 -10.75844,10.87413 l -6.05404,0 z" />
      <path
         inkscape:connector-curvature="0"
         id="path8945"
         d="m 775.65185,779.68952 c 0,5.09001 3.2391,9.33169 8.63761,9.33169 3.08486,0 5.43706,-1.19538 6.51676,-2.04372 0.65554,-0.50128 0.50129,-0.69409 0.15425,-1.23394 l -0.46273,-0.65553 c -0.46273,-0.69409 -0.73266,-0.53985 -1.34963,-0.11568 -1.00258,0.65553 -2.46789,1.4653 -4.82009,1.4653 -3.2391,0 -5.74555,-3.12342 -5.82267,-6.09259 l 12.95641,0 c 0.3856,0 0.77121,-0.30849 0.80977,-0.77122 0.0386,-0.30848 0.0771,-0.77121 0.0771,-1.0797 0,-4.66585 -3.39334,-8.09775 -8.05919,-8.09775 -5.39851,0 -8.63761,4.28024 -8.63761,9.29314 z m 2.89206,-1.61956 c 0.34704,-2.77637 2.73781,-5.09001 5.74555,-5.09001 3.0463,0 5.12858,2.46788 5.2057,5.09001 l -10.95125,0 z" />
      <path
         inkscape:connector-curvature="0"
         id="path8947"
         d="m 799.76918,787.55591 c 0,0 1.9666,1.4653 4.93578,1.4653 4.89721,0 8.40624,-4.12599 8.40624,-9.33169 0,-5.09002 -3.43191,-9.29314 -8.29056,-9.29314 -3.20054,0 -5.35994,1.81235 -5.35994,1.81235 l -0.26993,-0.84833 c -0.1928,-0.46273 -0.30849,-0.57841 -0.73265,-0.57841 l -0.65554,0 c -0.46272,0 -0.84833,0.42416 -0.84833,0.84833 l 0,25.29585 c 0,0.46272 0.38561,0.84833 0.84833,0.84833 l 1.11827,0 c 0.42416,0 0.84833,-0.38561 0.84833,-0.84833 l 0,-9.37026 z m 0,-2.66069 0,-9.75587 c 0,0 1.85092,-2.1594 4.70441,-2.1594 3.58615,0 5.74555,3.20054 5.74555,6.671 0,3.89464 -2.50645,6.78669 -5.93835,6.78669 -2.46789,0 -4.51161,-1.54242 -4.51161,-1.54242 z" />
      <path
         inkscape:connector-curvature="0"
         id="path8949"
         d="m 816.84857,779.68952 c 0,5.09001 3.23911,9.33169 8.63761,9.33169 3.08486,0 5.43706,-1.19538 6.51676,-2.04372 0.65554,-0.50128 0.50129,-0.69409 0.15425,-1.23394 l -0.46273,-0.65553 c -0.46273,-0.69409 -0.73266,-0.53985 -1.34963,-0.11568 -1.00258,0.65553 -2.46788,1.4653 -4.82009,1.4653 -3.2391,0 -5.74555,-3.12342 -5.82267,-6.09259 l 12.95641,0 c 0.3856,0 0.77121,-0.30849 0.80977,-0.77122 0.0386,-0.30848 0.0771,-0.77121 0.0771,-1.0797 0,-4.66585 -3.39334,-8.09775 -8.05919,-8.09775 -5.3985,0 -8.63761,4.28024 -8.63761,9.29314 z m 2.89206,-1.61956 c 0.34705,-2.77637 2.73781,-5.09001 5.74555,-5.09001 3.0463,0 5.12858,2.46788 5.2057,5.09001 l -10.95125,0 z" />
      <path
         inkscape:connector-curvature="0"
         id="path8951"
         d="m 838.15097,787.74871 c 0,0.46273 0.38561,0.84834 0.84834,0.84834 l 1.15682,0 c 0.42417,0 0.84834,-0.38561 0.84834,-0.84834 l 0,-12.30088 c 0,0 2.12084,-2.46788 5.47562,-2.46788 2.62213,0 3.77895,1.58099 3.77895,4.97433 l 0,9.79443 c 0,0.46273 0.38561,0.84834 0.84834,0.84834 l 1.15682,0 c 0.42417,0 0.84834,-0.38561 0.84834,-0.84834 l 0,-9.40882 c 0,-4.58873 -1.27251,-7.94351 -6.43965,-7.94351 -3.70183,0 -5.97691,2.27508 -5.97691,2.27508 l -0.38561,-1.34962 c -0.0771,-0.38561 -0.30848,-0.53985 -0.69409,-0.53985 l -0.61697,0 c -0.46273,0 -0.84834,0.42416 -0.84834,0.84833 l 0,16.11839 z" />
      <path
         inkscape:connector-curvature="0"
         id="path8953"
         d="m 857.81936,779.65095 c 0,5.09002 3.47047,9.37026 7.98207,9.37026 3.35479,0 5.62987,-2.31364 5.62987,-2.31364 l 0.23137,1.15682 c 0.15424,0.42417 0.3856,0.73266 0.77121,0.73266 l 0.69409,0 c 0.46273,0 0.8869,-0.38561 0.8869,-0.84834 l 0,-25.29584 c 0,-0.42417 -0.42417,-0.84834 -0.8869,-0.84834 l -1.0797,0 c -0.46272,0 -0.84833,0.42417 -0.84833,0.84834 l 0,9.06177 c 0,0 -2.00516,-1.11826 -4.93578,-1.11826 -5.35994,0 -8.4448,4.04888 -8.4448,9.25457 z m 2.89206,0.0386 c 0,-3.54759 2.12084,-6.70957 5.93835,-6.70957 2.46789,0 4.55017,1.00258 4.55017,1.00258 l 0,9.60162 c 0,0 -1.85092,2.85349 -5.05146,2.85349 -3.2391,0 -5.43706,-3.27766 -5.43706,-6.74812 z" />
      <path
         inkscape:connector-curvature="0"
         id="path8955"
         d="m 878.90727,779.68952 c 0,5.09001 3.2391,9.33169 8.6376,9.33169 3.08486,0 5.43707,-1.19538 6.51677,-2.04372 0.65553,-0.50128 0.50129,-0.69409 0.15424,-1.23394 l -0.46273,-0.65553 c -0.46273,-0.69409 -0.73265,-0.53985 -1.34962,-0.11568 -1.00258,0.65553 -2.46789,1.4653 -4.8201,1.4653 -3.2391,0 -5.74555,-3.12342 -5.82267,-6.09259 l 12.95641,0 c 0.38561,0 0.77122,-0.30849 0.80978,-0.77122 0.0386,-0.30848 0.0771,-0.77121 0.0771,-1.0797 0,-4.66585 -3.39335,-8.09775 -8.0592,-8.09775 -5.3985,0 -8.6376,4.28024 -8.6376,9.29314 z m 2.89205,-1.61956 c 0.34705,-2.77637 2.73782,-5.09001 5.74555,-5.09001 3.0463,0 5.12858,2.46788 5.2057,5.09001 l -10.95125,0 z" />
      <path
         inkscape:connector-curvature="0"
         id="path8957"
         d="m 900.20966,787.74871 c 0,0.46273 0.3856,0.84834 0.84833,0.84834 l 1.15683,0 c 0.42416,0 0.84833,-0.38561 0.84833,-0.84834 l 0,-12.30088 c 0,0 2.12084,-2.46788 5.47563,-2.46788 2.62213,0 3.77895,1.58099 3.77895,4.97433 l 0,9.79443 c 0,0.46273 0.38561,0.84834 0.84833,0.84834 l 1.15683,0 c 0.42417,0 0.84833,-0.38561 0.84833,-0.84834 l 0,-9.40882 c 0,-4.58873 -1.2725,-7.94351 -6.43964,-7.94351 -3.70183,0 -5.97691,2.27508 -5.97691,2.27508 l -0.38561,-1.34962 c -0.0771,-0.38561 -0.30849,-0.53985 -0.69409,-0.53985 l -0.61698,0 c -0.46273,0 -0.84833,0.42416 -0.84833,0.84833 l 0,16.11839 z" />
      <path
         inkscape:connector-curvature="0"
         id="path8959"
         d="m 919.83949,779.72808 c 0,5.35994 3.70183,9.29313 8.98465,9.29313 2.96918,0 5.35994,-1.61955 6.70957,-3.58614 0.30848,-0.46273 0.15424,-0.84834 -0.23137,-1.23395 l -0.23136,-0.23136 c -0.50129,-0.50129 -1.00258,-0.65554 -1.50387,-0.0771 -1.00258,1.15682 -2.1594,2.545 -4.85865,2.545 -3.31623,0 -5.97692,-2.96917 -5.97692,-6.74812 0,-3.70184 2.69925,-6.70957 6.0926,-6.70957 1.81235,0 3.2391,0.53985 4.47304,1.92803 0.34705,0.38561 0.6941,0.77122 1.27251,0.26993 l 0.61697,-0.57841 c 0.42417,-0.34705 0.50129,-0.84834 0.15424,-1.27251 -1.65811,-1.88947 -3.81751,-2.93061 -6.4782,-2.93061 -5.16714,0 -9.02321,4.08744 -9.02321,9.3317 z" />
      <path
         inkscape:connector-curvature="0"
         id="path8961"
         d="m 944.90396,788.55849 -3.4319,8.13631 c -0.26993,0.61697 0.0386,1.0797 0.73265,1.0797 l 1.38819,0 c 0.30848,0 0.65553,-0.26992 0.77121,-0.53985 l 11.14406,-25.45009 c 0.26992,-0.57841 0,-1.00257 -0.6941,-1.00257 l -1.42675,0 c -0.34704,0 -0.65553,0.1928 -0.77121,0.50128 l -6.01548,14.1518 -0.0771,0 -5.05145,-14.1518 c -0.11569,-0.30848 -0.42417,-0.50128 -0.77122,-0.50128 l -1.61955,0 c -0.69409,0 -0.92546,0.3856 -0.69409,0.96401 l 6.51676,16.81249 z" />
      <path
         inkscape:connector-curvature="0"
         id="path8963"
         d="m 968.61098,787.86439 c 0,0.38561 0.30849,0.73266 0.73265,0.73266 l 1.50387,0 c 0.38561,0 0.73266,-0.34705 0.73266,-0.73266 l 0,-9.83299 7.3651,0 5.01289,9.98723 c 0.19281,0.38561 0.38561,0.57842 0.84834,0.57842 l 1.85092,0 c 0.65553,0 0.92545,-0.61698 0.65553,-1.11827 l -5.28282,-9.79442 c 3.35478,-1.34963 5.70699,-4.31881 5.70699,-7.86639 0,-4.58873 -3.77896,-8.21344 -8.40624,-8.21344 l -9.98724,0 c -0.42416,0 -0.73265,0.34705 -0.73265,0.73265 l 0,25.52721 z m 3.0463,-12.37799 0,-11.06694 7.48078,0 c 2.96918,0 5.55275,2.50645 5.55275,5.43707 0,3.16198 -2.58357,5.62987 -5.55275,5.62987 l -7.48078,0 z" />
      <path
         inkscape:connector-curvature="0"
         id="path8965"
         d="m 990.89909,779.68952 c 0,5.09001 3.2391,9.33169 8.6376,9.33169 3.08491,0 5.43711,-1.19538 6.51681,-2.04372 0.6555,-0.50128 0.5012,-0.69409 0.1542,-1.23394 l -0.4627,-0.65553 c -0.4628,-0.69409 -0.7327,-0.53985 -1.3497,-0.11568 -1.0025,0.65553 -2.4678,1.4653 -4.82004,1.4653 -3.23911,0 -5.74555,-3.12342 -5.82268,-6.09259 l 12.95642,0 c 0.3856,0 0.7712,-0.30849 0.8098,-0.77122 0.038,-0.30848 0.077,-0.77121 0.077,-1.0797 0,-4.66585 -3.3934,-8.09775 -8.05921,-8.09775 -5.3985,0 -8.6376,4.28024 -8.6376,9.29314 z m 2.89205,-1.61956 c 0.34705,-2.77637 2.73782,-5.09001 5.74555,-5.09001 3.04631,0 5.12861,2.46788 5.20571,5.09001 l -10.95126,0 z" />
      <path
         inkscape:connector-curvature="0"
         id="path8967"
         d="m 1017.1758,789.02121 c 3.6247,0 6.0541,-2.27508 6.0541,-5.09001 0,-3.23911 -2.6607,-4.39593 -5.7456,-5.82267 -2.1594,-1.00258 -3.3933,-1.58099 -3.3933,-3.16199 0,-0.84833 0.6555,-1.96659 2.6221,-1.96659 1.6581,0 2.8921,0.57841 3.6633,1.04114 0.3856,0.23136 0.964,0.1928 1.2339,-0.30849 l 0.3856,-0.73265 c 0.2699,-0.50129 0.1928,-0.8869 -0.1928,-1.19539 -0.8483,-0.61697 -2.7764,-1.38818 -5.09,-1.38818 -4.126,0 -5.5142,2.81493 -5.5142,4.66585 0,3.0463 2.6993,4.3188 5.0515,5.47562 2.5835,1.27251 3.9717,1.9666 3.9717,3.66327 0,1.38819 -1.2339,2.23652 -3.0463,2.23652 -2.2751,0 -3.8175,-1.11826 -4.4345,-1.58099 -0.5012,-0.34704 -0.8097,-0.1928 -1.0411,0.23137 l -0.5398,1.00258 c -0.1543,0.30848 -0.077,0.57841 0.1156,0.77121 0.9255,0.84834 2.9307,2.1594 5.8998,2.1594 z" />
      <path
         inkscape:connector-curvature="0"
         id="path8969"
         d="m 1026.7853,779.65095 c 0,5.09002 4.0103,9.37026 8.9461,9.37026 4.9357,0 8.9461,-4.28024 8.9461,-9.37026 0,-5.01289 -4.0104,-9.25457 -8.9461,-9.25457 -4.9358,0 -8.9461,4.24168 -8.9461,9.25457 z m 2.8149,0 c 0,-3.6247 2.6221,-6.671 6.1312,-6.671 3.509,0 6.0926,3.0463 6.0926,6.671 0,3.70184 -2.5836,6.78669 -6.0926,6.78669 -3.5091,0 -6.1312,-3.08485 -6.1312,-6.78669 z" />
      <path
         inkscape:connector-curvature="0"
         id="path8971"
         d="m 1049.75,787.74871 c 0,0.46273 0.3856,0.84834 0.8483,0.84834 l 1.1569,0 c 0.4241,0 0.8483,-0.38561 0.8483,-0.84834 l 0,-25.29584 c 0,-0.42417 -0.4242,-0.84834 -0.8483,-0.84834 l -1.1569,0 c -0.4627,0 -0.8483,0.42417 -0.8483,0.84834 l 0,25.29584 z" />
      <path
         inkscape:connector-curvature="0"
         id="path8973"
         d="m 1058.5527,781.23195 c 0,4.70441 1.2339,7.78926 6.3625,7.78926 3.2006,0 4.8587,-1.61955 5.5142,-2.31364 l 0.3471,1.11826 c 0.1156,0.46273 0.3084,0.77122 0.8097,0.77122 l 0.617,0 c 0.4242,0 0.8098,-0.38561 0.8098,-0.84834 l 0,-16.11839 c 0,-0.42417 -0.3856,-0.84833 -0.8098,-0.84833 l -1.1954,0 c -0.4627,0 -0.8098,0.42416 -0.8098,0.84833 l 0,12.22376 c -0.8097,0.92545 -2.3907,2.58356 -5.0514,2.58356 -2.5836,0 -3.7404,-1.61955 -3.7404,-5.16713 l 0,-9.64019 c 0,-0.42417 -0.3856,-0.84833 -0.8483,-0.84833 l -1.1569,0 c -0.5013,0 -0.8483,0.42416 -0.8483,0.84833 l 0,9.60163 z" />
      <path
         inkscape:connector-curvature="0"
         id="path8975"
         d="m 1080.1618,773.24987 0,10.83557 c 0,2.77637 0.6941,4.93577 4.0874,4.93577 2.3908,0 4.2417,-0.88689 5.0129,-1.42674 0.4627,-0.30849 0.5399,-0.57841 0.3085,-1.15683 l -0.347,-0.80977 c -0.1928,-0.42417 -0.4242,-0.77122 -1.1183,-0.34705 -0.7327,0.46273 -1.8509,1.15682 -3.509,1.15682 -1.0026,0 -1.581,-0.69409 -1.581,-2.545 l 0,-10.64277 5.2442,0 c 0.5013,0 0.8869,-0.38561 0.8869,-0.84833 l 0,-0.77122 c 0,-0.50129 -0.3856,-0.84833 -0.8869,-0.84833 l -5.2442,0 0,-5.0129 c 0,-0.46273 -0.3471,-0.8869 -0.8098,-0.84834 l -1.1954,0.0771 c -0.4241,0.0386 -0.8483,0.38561 -0.8483,0.84834 l 0,4.93578 -2.3522,0 c -0.5399,0 -0.8869,0.34704 -0.8869,0.84833 l 0,0.77122 c 0,0.46272 0.347,0.84833 0.8869,0.84833 l 2.3522,0 z" />
      <path
         inkscape:connector-curvature="0"
         id="path8977"
         d="m 1094.8902,766.19326 c 1.1954,0 2.1208,-0.96402 2.1208,-2.08228 0,-1.23395 -0.9254,-2.1594 -2.1208,-2.1594 -1.1569,0 -2.0823,0.92545 -2.0823,2.1594 0,1.11826 0.9254,2.08228 2.0823,2.08228 z m -1.3497,21.55545 c 0,0.46273 0.3857,0.84834 0.8484,0.84834 l 1.1568,0 c 0.4242,0 0.8483,-0.38561 0.8483,-0.84834 l 0,-16.11839 c 0,-0.42417 -0.4241,-0.84833 -0.8483,-0.84833 l -1.1568,0 c -0.4627,0 -0.8484,0.42416 -0.8484,0.84833 l 0,16.11839 z" />
      <path
         inkscape:connector-curvature="0"
         id="path8979"
         d="m 1101.2708,779.65095 c 0,5.09002 4.0103,9.37026 8.9461,9.37026 4.9357,0 8.9461,-4.28024 8.9461,-9.37026 0,-5.01289 -4.0104,-9.25457 -8.9461,-9.25457 -4.9358,0 -8.9461,4.24168 -8.9461,9.25457 z m 2.8149,0 c 0,-3.6247 2.6221,-6.671 6.1312,-6.671 3.509,0 6.0926,3.0463 6.0926,6.671 0,3.70184 -2.5836,6.78669 -6.0926,6.78669 -3.5091,0 -6.1312,-3.08485 -6.1312,-6.78669 z" />
      <path
         inkscape:connector-curvature="0"
         id="path8981"
         d="m 1124.0427,787.74871 c 0,0.46273 0.3856,0.84834 0.8483,0.84834 l 1.1568,0 c 0.4242,0 0.8484,-0.38561 0.8484,-0.84834 l 0,-12.30088 c 0,0 2.1208,-2.46788 5.4756,-2.46788 2.6221,0 3.779,1.58099 3.779,4.97433 l 0,9.79443 c 0,0.46273 0.3856,0.84834 0.8483,0.84834 l 1.1568,0 c 0.4242,0 0.8483,-0.38561 0.8483,-0.84834 l 0,-9.40882 c 0,-4.58873 -1.2725,-7.94351 -6.4396,-7.94351 -3.7018,0 -5.9769,2.27508 -5.9769,2.27508 l -0.3856,-1.34962 c -0.077,-0.38561 -0.3085,-0.53985 -0.6941,-0.53985 l -0.617,0 c -0.4627,0 -0.8483,0.42416 -0.8483,0.84833 l 0,16.11839 z" />
    </g>
    <g
       transform="matrix(0.99271738,0,0,1.4061378,10.142811,5.614627)"
       id="g8934">
      <path
         style="fill:none;fill-rule:evenodd;stroke:#ffffff;stroke-width:2.99036813;stroke-linecap:butt;stroke-linejoin:round;stroke-miterlimit:4;stroke-dasharray:none;stroke-opacity:1"
         d="m 932.99337,539.55182 1.83673,131.45226"
         id="path8936"
         inkscape:connector-curvature="0" />
      <path
         style="fill:none;fill-rule:evenodd;stroke:#ffffff;stroke-width:2.99036813;stroke-linecap:butt;stroke-linejoin:round;stroke-miterlimit:4;stroke-dasharray:none;stroke-opacity:1"
         d="m 934.8301,670.35493 -15.91832,-10.54864 0,-0.81143"
         id="path8938"
         inkscape:connector-curvature="0" />
      <path
         inkscape:connector-curvature="0"
         id="path8940"
         d="m 935.24201,670.19264 15.91832,-10.54863 0,-0.81144"
         style="fill:none;fill-rule:evenodd;stroke:#ffffff;stroke-width:2.99036813;stroke-linecap:butt;stroke-linejoin:round;stroke-miterlimit:4;stroke-dasharray:none;stroke-opacity:1" />
    </g>
    <g
       id="g8790">
      <g
         style="font-style:normal;font-variant:normal;font-weight:normal;font-stretch:normal;font-size:47.80174255px;line-height:125%;font-family:'Brandon Text';-inkscape-font-specification:'Brandon Text, Normal';text-align:start;letter-spacing:0px;word-spacing:0px;writing-mode:lr-tb;text-anchor:start;fill:#ffffff;fill-opacity:1;stroke:none;stroke-width:1px;stroke-linecap:butt;stroke-linejoin:miter;stroke-opacity:1"
         id="text8786">
        <path
           d="m 858.57511,1982.6522 c 0,9.5603 7.60047,17.1608 17.16082,17.1608 9.56035,0 17.20863,-7.6005 17.20863,-17.1608 0,-9.5604 -7.64828,-17.2565 -17.20863,-17.2565 -9.56035,0 -17.16082,7.6961 -17.16082,17.2565 z m 3.34612,0 c 0,-7.6005 6.21423,-13.9104 13.8147,-13.9104 7.60048,0 13.86251,6.3099 13.86251,13.9104 0,7.6004 -6.26203,13.8147 -13.86251,13.8147 -7.60047,0 -13.8147,-6.2143 -13.8147,-13.8147 z"
           style=""
           id="path9503" />
        <path
           d="m 898.60459,1990.2048 c 0,5.8318 1.52965,9.656 7.88728,9.656 3.96755,0 6.02302,-2.0077 6.83565,-2.8681 l 0.43022,1.3862 c 0.1434,0.5736 0.38241,0.9561 1.00384,0.9561 l 0.76482,0 c 0.52582,0 1.00384,-0.4781 1.00384,-1.0517 l 0,-19.9811 c 0,-0.5258 -0.47802,-1.0516 -1.00384,-1.0516 l -1.48185,0 c -0.57362,0 -1.00384,0.5258 -1.00384,1.0516 l 0,15.1531 c -1.00383,1.1473 -2.96371,3.2028 -6.26203,3.2028 -3.20271,0 -4.63676,-2.0077 -4.63676,-6.4055 l 0,-11.9504 c 0,-0.5258 -0.47802,-1.0516 -1.05164,-1.0516 l -1.43406,0 c -0.62142,0 -1.05163,0.5258 -1.05163,1.0516 l 0,11.9026 z"
           style=""
           id="path9505" />
        <path
           d="m 925.39223,1980.3099 0,13.4323 c 0,3.4417 0.86043,6.1186 5.06699,6.1186 2.96371,0 5.25819,-1.0995 6.21422,-1.7687 0.57363,-0.3824 0.66923,-0.717 0.38242,-1.434 l -0.43022,-1.0039 c -0.23901,-0.5258 -0.52582,-0.956 -1.38625,-0.4302 -0.90823,0.5736 -2.29448,1.4341 -4.34996,1.4341 -1.24284,0 -1.95987,-0.8605 -1.95987,-3.155 l 0,-13.1932 6.50104,0 c 0.62142,0 1.09944,-0.4781 1.09944,-1.0517 l 0,-0.956 c 0,-0.6214 -0.47802,-1.0516 -1.09944,-1.0516 l -6.50104,0 0,-6.2143 c 0,-0.5736 -0.43021,-1.0994 -1.00383,-1.0516 l -1.48186,0.096 c -0.52582,0.048 -1.05164,0.478 -1.05164,1.0516 l 0,6.1187 -2.9159,0 c -0.66923,0 -1.09944,0.4302 -1.09944,1.0516 l 0,0.956 c 0,0.5736 0.43021,1.0517 1.09944,1.0517 l 2.9159,0 z"
           style=""
           id="path9507" />
        <path
           d="m 945.46673,1998.0443 c 0,0 2.43789,1.8165 6.11862,1.8165 6.07082,0 10.42078,-5.1148 10.42078,-11.568 0,-6.3099 -4.25435,-11.5203 -10.27737,-11.5203 -3.96755,0 -6.64445,2.2467 -6.64445,2.2467 l -0.33461,-1.0516 c -0.23901,-0.5736 -0.38241,-0.717 -0.90823,-0.717 l -0.81263,0 c -0.57362,0 -1.05164,0.5258 -1.05164,1.0516 l 0,31.3579 c 0,0.5737 0.47802,1.0517 1.05164,1.0517 l 1.38625,0 c 0.52582,0 1.05164,-0.478 1.05164,-1.0517 l 0,-11.6158 z m 0,-3.2983 0,-12.0938 c 0,0 2.29448,-2.6769 5.83181,-2.6769 4.44556,0 7.12246,3.9675 7.12246,8.2697 0,4.8279 -3.10711,8.4131 -7.36147,8.4131 -3.05931,0 -5.5928,-1.9121 -5.5928,-1.9121 z"
           style=""
           id="path9509" />
        <path
           d="m 967.7864,1990.2048 c 0,5.8318 1.52966,9.656 7.88729,9.656 3.96754,0 6.02302,-2.0077 6.83565,-2.8681 l 0.43021,1.3862 c 0.14341,0.5736 0.38242,0.9561 1.00384,0.9561 l 0.76483,0 c 0.52582,0 1.00384,-0.4781 1.00384,-1.0517 l 0,-19.9811 c 0,-0.5258 -0.47802,-1.0516 -1.00384,-1.0516 l -1.48185,0 c -0.57363,0 -1.00384,0.5258 -1.00384,1.0516 l 0,15.1531 c -1.00384,1.1473 -2.96371,3.2028 -6.26203,3.2028 -3.20272,0 -4.63677,-2.0077 -4.63677,-6.4055 l 0,-11.9504 c 0,-0.5258 -0.47802,-1.0516 -1.05164,-1.0516 l -1.43405,0 c -0.62142,0 -1.05164,0.5258 -1.05164,1.0516 l 0,11.9026 z"
           style=""
           id="path9511" />
        <path
           d="m 994.57406,1980.3099 0,13.4323 c 0,3.4417 0.86043,6.1186 5.06698,6.1186 2.96366,0 5.25816,-1.0995 6.21426,-1.7687 0.5736,-0.3824 0.6692,-0.717 0.3824,-1.434 l -0.4302,-1.0039 c -0.239,-0.5258 -0.5259,-0.956 -1.3863,-0.4302 -0.9082,0.5736 -2.2945,1.4341 -4.3499,1.4341 -1.24289,0 -1.95991,-0.8605 -1.95991,-3.155 l 0,-13.1932 6.50101,0 c 0.6214,0 1.0995,-0.4781 1.0995,-1.0517 l 0,-0.956 c 0,-0.6214 -0.4781,-1.0516 -1.0995,-1.0516 l -6.50101,0 0,-6.2143 c 0,-0.5736 -0.43022,-1.0994 -1.00384,-1.0516 l -1.48185,0.096 c -0.52582,0.048 -1.05164,0.478 -1.05164,1.0516 l 0,6.1187 -2.91591,0 c -0.66922,0 -1.09944,0.4302 -1.09944,1.0516 l 0,0.956 c 0,0.5736 0.43022,1.0517 1.09944,1.0517 l 2.91591,0 z"
           style=""
           id="path9513" />
        <path
           d="m 1017.3254,1999.8608 c 4.4934,0 7.5049,-2.8203 7.5049,-6.3098 0,-4.0154 -3.2983,-5.4494 -7.1224,-7.2181 -2.6769,-1.2429 -4.2066,-1.9599 -4.2066,-3.9198 0,-1.0516 0.8126,-2.4378 3.2505,-2.4378 2.0555,0 3.5852,0.717 4.5412,1.2906 0.478,0.2868 1.195,0.239 1.5296,-0.3824 l 0.4781,-0.9082 c 0.3346,-0.6215 0.239,-1.0995 -0.239,-1.4819 -1.0517,-0.7648 -3.4418,-1.7209 -6.3099,-1.7209 -5.1148,0 -6.8356,3.4896 -6.8356,5.784 0,3.7764 3.3461,5.3538 6.262,6.7879 3.2027,1.5775 4.9236,2.4379 4.9236,4.5412 0,1.7208 -1.5297,2.7725 -3.7764,2.7725 -2.8203,0 -4.7323,-1.3863 -5.4972,-1.9599 -0.6214,-0.4302 -1.0038,-0.239 -1.2906,0.2868 l -0.6692,1.2428 c -0.1912,0.3825 -0.096,0.7171 0.1434,0.9561 1.1472,1.0516 3.6329,2.6769 7.3136,2.6769 z"
           style=""
           id="path9515" />
      </g>
      <path
         inkscape:connector-curvature="0"
         id="path8763"
         d="m 737.46654,1914.799 408.47236,0 c 11.8477,0 21.3857,9.538 21.3857,21.3857 l 0,103.7381 c 0,11.8477 -9.538,21.3857 -21.3857,21.3857 l -408.47236,0 c -11.8477,0 -21.38574,-9.538 -21.38574,-21.3857 l 0,-103.7381 c 0,-11.8477 9.53804,-21.3857 21.38574,-21.3857 z"
         style="opacity:1;fill:none;fill-opacity:1;fill-rule:nonzero;stroke:#5333ed;stroke-width:2.20075798;stroke-linecap:round;stroke-linejoin:round;stroke-miterlimit:4;stroke-dasharray:none;stroke-dashoffset:40;stroke-opacity:1" />
    </g>
    <g
       id="g8765"
       transform="matrix(1.0043822,0,0,0.76918563,12.569156,785.09711)">
      <path
         style="fill:none;fill-rule:evenodd;stroke:#ffffff;stroke-width:3.4284606;stroke-linecap:butt;stroke-linejoin:round;stroke-miterlimit:4;stroke-dasharray:none;stroke-opacity:1"
         d="m 933.00104,1277.2538 1.82983,173.4401"
         id="path8767"
         inkscape:connector-curvature="0" />
      <path
         style="fill:none;fill-rule:evenodd;stroke:#ffffff;stroke-width:3.4284606;stroke-linecap:butt;stroke-linejoin:round;stroke-miterlimit:4;stroke-dasharray:none;stroke-opacity:1"
         d="m 934.83087,1449.8375 -15.85858,-13.9181 0,-1.0706"
         id="path8769"
         inkscape:connector-curvature="0" />
      <path
         inkscape:connector-curvature="0"
         id="path8771"
         d="m 935.24124,1449.6233 15.85859,-13.918 0,-1.0706"
         style="fill:none;fill-rule:evenodd;stroke:#ffffff;stroke-width:3.4284606;stroke-linecap:butt;stroke-linejoin:round;stroke-miterlimit:4;stroke-dasharray:none;stroke-opacity:1" />
    </g>
  </g>
</svg>
