<?xml version="1.0" encoding="UTF-8" standalone="no"?>
<svg
   xmlns:dc="http://purl.org/dc/elements/1.1/"
   xmlns:cc="http://creativecommons.org/ns#"
   xmlns:rdf="http://www.w3.org/1999/02/22-rdf-syntax-ns#"
   xmlns:svg="http://www.w3.org/2000/svg"
   xmlns="http://www.w3.org/2000/svg"
   xmlns:sodipodi="http://sodipodi.sourceforge.net/DTD/sodipodi-0.dtd"
   xmlns:inkscape="http://www.inkscape.org/namespaces/inkscape"
   id="Layer_1"
   viewBox="0 0 176.58036 109.67511"
   width="856.18872"
   height="531.57843"
   version="1.1"
   inkscape:version="0.91 r13725"
   sodipodi:docname="gradle-logo.svg">
  <metadata
     id="metadata27">
    <rdf:RDF>
      <cc:Work
         rdf:about="">
        <dc:format>image/svg+xml</dc:format>
        <dc:type
           rdf:resource="http://purl.org/dc/dcmitype/StillImage" />
        <dc:title />
      </cc:Work>
    </rdf:RDF>
  </metadata>
  <defs
     id="defs25" />
  <sodipodi:namedview
     pagecolor="#ffffff"
     bordercolor="#666666"
     borderopacity="1"
     objecttolerance="10"
     gridtolerance="10"
     guidetolerance="10"
     inkscape:pageopacity="0"
     inkscape:pageshadow="2"
     inkscape:window-width="1280"
     inkscape:window-height="755"
     id="namedview23"
     showgrid="false"
     fit-margin-top="0"
     fit-margin-left="0"
     fit-margin-right="0"
     fit-margin-bottom="0"
     inkscape:zoom="0.6"
     inkscape:cx="106.21631"
     inkscape:cy="262.69908"
     inkscape:window-x="0"
     inkscape:window-y="1"
     inkscape:window-maximized="1"
     inkscape:current-layer="Layer_1" />
  <style
     id="style3">.st0{fill:#02303a}.st1{fill:#22da27}.st2{fill:#fff}</style>
  <path
     inkscape:connector-curvature="0"
     class="st0"
     d="m 173.43548,44.875112 c 4,-9.2 3.9,-18.3 1.5,-25.5 -3,-8.8 -15.3,-20.4000003 -19.2,-15.8000003 -0.5,0.6 -7.6,-0.2 -8.7,1.3 -1.7,2.2 -0.7,2.9 0.1,3.7 2.5,2.2000003 8.8,4.6000003 11.7,12.1000003 1.2,3.2 4,10.6 -0.9,15.1 -5.5,5 -11.7,6.2 -37.1,-17.4 C 93.835477,-6.7248883 57.635477,3.4751117 45.635477,7.4751117 c -12,4.0000003 -17.5,8.0000003 -12.8,17.2000003 6.4,12.6 4.3,8.7 10.6,19.1 9.9,16.5 31.7,-7.6 31.7,-7.6 -16.2,24.4 -30.1,18.5 -35.4,10 -4.8,-7.7 -8.5,-16.5 -8.5,-16.5 -41.0000001,14.8 -29.9000001,79.999998 -29.9000001,79.999998 l 20.4000001,0 c 5.2,-23.999998 23.8,-23.099998 26.9,0 l 15.5,0 c 13.7,-46.899998 43.100003,0 43.100003,0 l 17.4,0 c 0,-24.999998 -2.6,-34.399998 10.2,-36.199998 21.8,-2.9 32,-13.1 38.6,-28.6 z"
     id="path5"
     style="fill:#ffffff;fill-opacity:1;stroke:none;stroke-opacity:1" />
  <path
     class="st0"
     d="m 176.53548,27.975112 c -7.7917,-0.870167 -11.14714,3.964849 -17,6.8 -0.3,0.2 -0.6,0.3 -0.9,0.4 l -0.6,0.6 c -5.5,5 -12.2,6.2 -37.1,-17.4 C 94.235477,-6.9248883 57.735477,3.4751117 45.735477,7.4751117 c -12,4.0000003 -17.5,8.0000003 -12.8,17.2000003 6.4,12.6 4.3,8.7 10.6,19.1 9.9,16.5 31.7,-7.6 31.7,-7.6 -16.2,24.4 -30.1,18.5 -35.4,10 -4.8,-7.7 -8.5,-16.5 -8.5,-16.5 -41.0000001,14.8 -29.9000001,79.999998 -29.9000001,79.999998 l 20.4000001,0 c 5.2,-23.999998 23.8,-23.099998 26.9,0 l 15.5,0 c 13.7,-46.899998 43.100003,0 43.100003,0 l 17.4,0 c 0,-24.999998 -2.6,-34.399998 10.2,-36.199998 21.9,-3 32,-13.2 38.6,-28.6 2.4,-5.8 3.3,-11.6 3,-16.9 z"
     id="path13"
     style="fill:none;stroke:none;stroke-opacity:1"
     inkscape:connector-curvature="0"
     sodipodi:nodetypes="cccccscccccccccccccc" />
  <path
     style="fill:#2cd4d9;fill-opacity:1;stroke:none;stroke-width:0.41263938;stroke-miterlimit:4;stroke-dasharray:none;stroke-opacity:1"
     inkscape:connector-curvature="0"
     id="path17"
     d="m 102.63548,34.475112 c 0,0 9.4,3.1 22,7.3 -0.7,3.4 -7,9.9 -15.1,7.1 -10.800003,-3.5 -6.9,-14.4 -6.9,-14.4 z"
     class="st2" />
  <ellipse
     style="fill:#02303a"
     id="ellipse19"
     ry="5.5"
     rx="5.6999998"
     cy="53.016792"
     cx="108.34098"
     class="st0"
     transform="matrix(0.99440083,-0.105674,0.105674,0.99440083,0,0)" />
  <path
     inkscape:connector-curvature="0"
     class="st0"
     d="m 147.13548,8.6751117 c 0.7,0.6 1.6,1.2 2.5,1.8000003 4.2,-3.5000003 9.7,-3.4000003 14.4,-5.3000003 -4.1,-3.8 -10.7,-6.7 -12.7,-4.29999998 -0.5,0.59999998 -3.1,2.59999998 -4.2,4.09999998 -1.8,2.2 -0.9,2.9 0,3.7 z"
     id="path21"
     style="fill:#ffffff;fill-opacity:1;stroke:none;stroke-opacity:1" />
</svg>
