<?xml version="1.0" encoding="UTF-8" standalone="no"?>
<svg
   xmlns:dc="http://purl.org/dc/elements/1.1/"
   xmlns:cc="http://creativecommons.org/ns#"
   xmlns:rdf="http://www.w3.org/1999/02/22-rdf-syntax-ns#"
   xmlns:svg="http://www.w3.org/2000/svg"
   xmlns="http://www.w3.org/2000/svg"
   xmlns:sodipodi="http://sodipodi.sourceforge.net/DTD/sodipodi-0.dtd"
   xmlns:inkscape="http://www.inkscape.org/namespaces/inkscape"
   width="128"
   height="128"
   viewBox="0 0 128 128"
   id="svg2"
   version="1.1"
   inkscape:version="0.91 r13725"
   sodipodi:docname="loop.svg">
  <metadata
     id="metadata43">
    <rdf:RDF>
      <cc:Work
         rdf:about="">
        <dc:format>image/svg+xml</dc:format>
        <dc:type
           rdf:resource="http://purl.org/dc/dcmitype/StillImage" />
      </cc:Work>
    </rdf:RDF>
  </metadata>
  <defs
     id="defs41" />
  <sodipodi:namedview
     pagecolor="#ffffff"
     bordercolor="#666666"
     borderopacity="1"
     objecttolerance="10"
     gridtolerance="10"
     guidetolerance="10"
     inkscape:pageopacity="0"
     inkscape:pageshadow="2"
     inkscape:window-width="1280"
     inkscape:window-height="751"
     id="namedview39"
     showgrid="false"
     inkscape:zoom="1.84375"
     inkscape:cx="-56.311626"
     inkscape:cy="64"
     inkscape:window-x="0"
     inkscape:window-y="1"
     inkscape:window-maximized="1"
     inkscape:current-layer="svg2" />
  <title
     id="title4">features-nextgen</title>
  <g
     transform="matrix(0.21904834,0,0,0.21904834,19.08473,21.084732)"
     id="g8105">
    <path
       d="m 210,21 c 104.216,0 189,84.784 189,189 0,104.216 -84.784,189 -189,189 C 105.784,399 21,314.216 21,210 21,105.784 105.784,21 210,21 M 210,0 C 94.031,0 0,94.024 0,210 0,325.976 94.031,420 210,420 325.969,420 420,325.976 420,210 420,94.024 325.969,0 210,0 l 0,0 z"
       id="path5-0"
       inkscape:connector-curvature="0"
       style="fill:#2cd4d9" />
    <path
       d="m 332.962,298.886 c -0.455,-5.775 -5.523,-10.08 -11.291,-9.632 l -14.882,1.19 c 42.448,-51.142 38.031,-127.316 -11.361,-172.928 -51.037,-47.138 -130.914,-43.96 -178.059,7.091 -47.131,51.037 -43.953,130.914 7.091,178.052 21.252,19.621 48.853,31.409 77.707,33.187 5.789,0.357 10.766,-4.046 11.123,-9.835 0.364,-5.782 -4.039,-10.78 -9.835,-11.123 -24.031,-1.477 -47.033,-11.298 -64.743,-27.657 -42.546,-39.284 -45.185,-105.84 -5.901,-148.379 39.277,-42.539 105.833,-45.192 148.372,-5.901 40.691,37.576 44.772,100.065 10.675,142.653 l -0.007,-13.874 c 0,-5.789 -4.704,-10.5 -10.493,-10.493 -5.81,0 -10.507,4.711 -10.5,10.5 l 0,41.272 c -0.007,2.926 1.232,5.719 3.374,7.707 2.149,1.988 5.04,2.989 7.959,2.758 l 41.132,-3.276 c 5.789,-0.469 10.108,-5.53 9.639,-11.312 z"
       id="path7"
       inkscape:connector-curvature="0"
       style="fill:#5333ed;fill-opacity:1" />
  </g>
</svg>
