<?xml version="1.0" encoding="UTF-8" standalone="no"?>
<svg
   xmlns:dc="http://purl.org/dc/elements/1.1/"
   xmlns:cc="http://creativecommons.org/ns#"
   xmlns:rdf="http://www.w3.org/1999/02/22-rdf-syntax-ns#"
   xmlns:svg="http://www.w3.org/2000/svg"
   xmlns="http://www.w3.org/2000/svg"
   xmlns:sodipodi="http://sodipodi.sourceforge.net/DTD/sodipodi-0.dtd"
   xmlns:inkscape="http://www.inkscape.org/namespaces/inkscape"
   width="128"
   height="128"
   viewBox="0 0 128 128"
   id="svg2"
   version="1.1"
   inkscape:version="0.91 r13725"
   sodipodi:docname="translator.svg">
  <metadata
     id="metadata43">
    <rdf:RDF>
      <cc:Work
         rdf:about="">
        <dc:format>image/svg+xml</dc:format>
        <dc:type
           rdf:resource="http://purl.org/dc/dcmitype/StillImage" />
      </cc:Work>
    </rdf:RDF>
  </metadata>
  <defs
     id="defs41" />
  <sodipodi:namedview
     pagecolor="#ffffff"
     bordercolor="#666666"
     borderopacity="1"
     objecttolerance="10"
     gridtolerance="10"
     guidetolerance="10"
     inkscape:pageopacity="0"
     inkscape:pageshadow="2"
     inkscape:window-width="1280"
     inkscape:window-height="751"
     id="namedview39"
     showgrid="false"
     inkscape:zoom="1.84375"
     inkscape:cx="-73.743681"
     inkscape:cy="64"
     inkscape:window-x="0"
     inkscape:window-y="1"
     inkscape:window-maximized="1"
     inkscape:current-layer="svg2" />
  <title
     id="title4">features-nextgen</title>
  <g
     transform="matrix(0.2614519,0,0,0.2614519,5.0000231,8.7960144)"
     id="g8117">
    <path
       d="m 70.244,257.194 c 0.94,0.39 1.913,0.574 2.871,0.574 2.941,0 5.733,-1.742 6.931,-4.628 l 9.938,-23.958 37.443,0 10.237,24.025 c 1.623,3.811 6.028,5.584 9.84,3.96 3.811,-1.624 5.583,-6.029 3.959,-9.84 L 139.312,218.81 c -0.014,-0.033 -0.027,-0.065 -0.042,-0.098 l -24.009,-56.347 c -1.179,-2.767 -3.895,-4.56 -6.899,-4.56 -0.012,0 -0.024,0 -0.036,0 -3.019,0.015 -5.734,1.838 -6.892,4.626 l -23.355,56.304 c -0.009,0.022 -0.018,0.044 -0.027,0.065 L 66.19,247.392 c -1.586,3.826 0.229,8.214 4.054,9.802 z m 38.21,-72.539 12.581,29.526 -24.829,0 12.248,-29.526 z"
       id="path5"
       inkscape:connector-curvature="0"
       style="fill:#5333ed;fill-opacity:1" />
    <path
       d="m 108.801,97.157 c -4.143,0.021 -7.482,3.397 -7.461,7.539 0.021,4.129 3.375,7.461 7.499,7.461 0.014,0 0.027,0 0.04,0 25.812,-0.126 49.872,9.746 67.672,27.821 17.362,17.632 26.643,41.023 26.131,65.864 -0.642,31.111 -14.961,58.957 -39.285,76.397 -0.265,0.19 -0.514,0.394 -0.747,0.612 l -1.063,0.729 c -0.266,0.183 -0.53,0.366 -0.874,0.596 l -70.624,48.281 0,-28.678 c 0,-3.395 -2.28,-6.366 -5.559,-7.245 C 43.592,285.566 15,248.335 15,205.997 c 0,-32.964 16.875,-62.908 45.14,-80.101 3.539,-2.152 4.663,-6.766 2.511,-10.305 -2.153,-3.54 -6.767,-4.664 -10.306,-2.51 C 19.568,133.017 0,167.752 0,205.997 0,253.172 30.594,294.88 75.088,309.375 l 0,37.294 c 0,2.782 1.54,5.335 4,6.633 1.099,0.58 2.301,0.867 3.499,0.867 1.484,0 2.963,-0.44 4.233,-1.309 l 82.281,-56.25 c 0.336,-0.224 0.668,-0.453 1.001,-0.682 l 2.04,-1.396 c 0.382,-0.261 0.733,-0.554 1.054,-0.871 27.559,-20.262 43.751,-52.079 44.481,-87.509 0.597,-28.92 -10.214,-56.159 -30.439,-76.698 C 166.576,108.47 138.732,97.038 108.801,97.157 Z"
       id="path7-3"
       inkscape:connector-curvature="0"
       style="fill:#2cd4d9" />
    <path
       d="m 342.485,97.157 c -60.015,0 -108.84,48.825 -108.84,108.84 0,34.492 16.604,67.163 44.483,87.664 0.32,0.318 0.673,0.611 1.056,0.872 l 2.001,1.37 c 0.344,0.237 0.686,0.473 0.963,0.657 l 82.356,56.302 c 1.271,0.869 2.749,1.309 4.233,1.309 1.198,0 2.4,-0.287 3.499,-0.867 2.46,-1.298 4,-3.851 4,-6.633 l 0,-42.89 c 0,-4.142 -3.357,-7.5 -7.5,-7.5 -4.143,0 -7.5,3.358 -7.5,7.5 l 0,28.678 -70.694,-48.329 c -0.282,-0.188 -0.56,-0.38 -0.838,-0.572 l -1.03,-0.706 c -0.233,-0.217 -0.482,-0.421 -0.746,-0.611 -24.598,-17.637 -39.283,-46.139 -39.283,-76.243 0,-51.744 42.097,-93.84 93.84,-93.84 51.743,0 93.84,42.096 93.84,93.84 0,26.178 -10.537,50.458 -29.67,68.366 -3.024,2.831 -3.182,7.577 -0.351,10.601 2.829,3.023 7.576,3.182 10.601,0.351 21.874,-20.473 34.42,-49.383 34.42,-79.317 0,-60.017 -48.825,-108.842 -108.84,-108.842 z"
       id="path9-8"
       inkscape:connector-curvature="0"
       style="fill:#2cd4d9" />
    <path
       d="m 291.663,239.163 c -4.143,0 -7.5,3.358 -7.5,7.5 0,4.142 3.357,7.5 7.5,7.5 l 63.717,0 c 4.143,0 7.5,-3.358 7.5,-7.5 0,-4.142 -3.357,-7.5 -7.5,-7.5 l -24.358,0 0,-6.798 24.358,0 c 4.143,0 7.5,-3.358 7.5,-7.5 0,-4.142 -3.357,-7.5 -7.5,-7.5 l -24.358,0 0,-15.182 12.517,0 2.417,4.834 c 1.313,2.628 3.963,4.147 6.714,4.147 1.127,0 2.271,-0.255 3.349,-0.793 3.704,-1.852 5.206,-6.357 3.354,-10.062 l -10,-20 c -1.851,-3.705 -6.355,-5.207 -10.063,-3.354 -3.704,1.852 -5.206,6.357 -3.354,10.062 l 0.083,0.166 -29.334,0 11.313,-18.535 39.04,0 c 4.143,0 7.5,-3.358 7.5,-7.5 0,-4.142 -3.357,-7.5 -7.5,-7.5 l -62.878,0 c -4.143,0 -7.5,3.358 -7.5,7.5 0,4.142 3.357,7.5 7.5,7.5 l 6.266,0 -13.506,22.128 c -1.413,2.315 -1.467,5.212 -0.139,7.578 1.327,2.365 3.828,3.83 6.54,3.83 l 22.682,0 0,15.182 -24.358,0 c -4.143,0 -7.5,3.358 -7.5,7.5 0,4.142 3.357,7.5 7.5,7.5 l 24.358,0 0,6.798 -24.36,0 z"
       id="path11"
       inkscape:connector-curvature="0"
       style="fill:#5333ed;fill-opacity:1" />
    <path
       d="m 374.663,238.234 c 4.143,0 7.5,-3.358 7.5,-7.5 l 0,-60.364 c 0,-4.142 -3.357,-7.5 -7.5,-7.5 -4.143,0 -7.5,3.358 -7.5,7.5 l 0,60.364 c 0,4.142 3.358,7.5 7.5,7.5 z"
       id="path13"
       inkscape:connector-curvature="0"
       style="fill:#5333ed;fill-opacity:1" />
    <path
       d="m 367.663,275.163 0.862,0 c 20.202,0 36.638,-16.436 36.638,-36.638 l 0,-76.862 c 0,-4.142 -3.357,-7.5 -7.5,-7.5 -4.143,0 -7.5,3.358 -7.5,7.5 l 0,76.862 c 0,11.931 -9.707,21.638 -21.638,21.638 l -0.862,0 c -4.143,0 -7.5,3.358 -7.5,7.5 0,4.142 3.358,7.5 7.5,7.5 z"
       id="path15"
       inkscape:connector-curvature="0"
       style="fill:#5333ed;fill-opacity:1" />
  </g>
</svg>
