<?xml version="1.0" encoding="UTF-8" standalone="no"?>
<svg
   xmlns:dc="http://purl.org/dc/elements/1.1/"
   xmlns:cc="http://creativecommons.org/ns#"
   xmlns:rdf="http://www.w3.org/1999/02/22-rdf-syntax-ns#"
   xmlns:svg="http://www.w3.org/2000/svg"
   xmlns="http://www.w3.org/2000/svg"
   xmlns:sodipodi="http://sodipodi.sourceforge.net/DTD/sodipodi-0.dtd"
   xmlns:inkscape="http://www.inkscape.org/namespaces/inkscape"
   width="128"
   height="128"
   viewBox="0 0 128 128"
   id="svg2"
   version="1.1"
   inkscape:version="0.91 r13725"
   sodipodi:docname="tuts.svg">
  <metadata
     id="metadata43">
    <rdf:RDF>
      <cc:Work
         rdf:about="">
        <dc:format>image/svg+xml</dc:format>
        <dc:type
           rdf:resource="http://purl.org/dc/dcmitype/StillImage" />
      </cc:Work>
    </rdf:RDF>
  </metadata>
  <defs
     id="defs41" />
  <sodipodi:namedview
     pagecolor="#ffffff"
     bordercolor="#666666"
     borderopacity="1"
     objecttolerance="10"
     gridtolerance="10"
     guidetolerance="10"
     inkscape:pageopacity="0"
     inkscape:pageshadow="2"
     inkscape:window-width="1280"
     inkscape:window-height="751"
     id="namedview39"
     showgrid="false"
     inkscape:zoom="1.84375"
     inkscape:cx="-110.64407"
     inkscape:cy="64"
     inkscape:window-x="-18"
     inkscape:window-y="5"
     inkscape:window-maximized="0"
     inkscape:current-layer="svg2" />
  <title
     id="title4">features-nextgen</title>
  <g
     style="fill:#2cd4d9;fill-opacity:1"
     id="g3"
     transform="matrix(0.1796875,0,0,0.1796875,20.711862,15.28814)">
    <g
       style="fill:#2cd4d9;fill-opacity:1"
       id="g5">
      <path
         style="fill:#2cd4d9;fill-opacity:1"
         d="m 418.472,17.102 -214.313,0 0,-0.534 C 204.159,7.432 196.727,0 187.591,0 l -34.205,0 c -9.136,0 -16.568,7.432 -16.568,16.568 l 0,0.534 -43.29,0 c -13.851,0 -25.119,11.268 -25.119,25.119 l 0,444.66 c 0,13.851 11.268,25.119 25.119,25.119 l 324.944,0 c 13.851,0 25.119,-11.268 25.119,-25.119 l 0,-444.66 c 0,-13.85 -11.268,-25.119 -25.119,-25.119 z m -265.62,-0.534 c 0,-0.295 0.239,-0.534 0.534,-0.534 l 34.205,0 c 0.295,0 0.534,0.239 0.534,0.534 l 0,79.083 -13.19,-8.794 c -1.347,-0.898 -2.897,-1.347 -4.447,-1.347 -1.55,0 -3.1,0.449 -4.447,1.347 l -13.19,8.794 0,-79.083 z m -50.238,479.399 -9.086,0 c -5.01,0 -9.086,-4.076 -9.086,-9.086 l 0,-444.66 c 0,-5.01 4.076,-9.086 9.086,-9.086 l 9.086,0 0,462.832 z m 324.944,-9.086 -10e-4,0 c 0,5.01 -4.076,9.086 -9.086,9.086 l -299.824,0 0,-462.831 18.171,0 0,77.495 c 0,2.957 1.627,5.674 4.234,7.069 2.607,1.395 5.77,1.243 8.229,-0.399 l 21.207,-14.138 21.207,14.138 c 1.341,0.895 2.892,1.347 4.448,1.347 1.297,0 2.597,-0.314 3.783,-0.948 2.606,-1.395 4.234,-4.112 4.234,-7.069 l 0,-77.495 214.313,0 c 5.01,0 9.086,4.076 9.086,9.086 l 0,444.659 z"
         id="path7"
         inkscape:connector-curvature="0" />
    </g>
  </g>
  <g
     style="font-style:normal;font-variant:normal;font-weight:normal;font-stretch:normal;font-size:18.40172386px;line-height:125%;font-family:'Brandon Text';-inkscape-font-specification:'Brandon Text, Normal';text-align:start;letter-spacing:0px;word-spacing:0px;writing-mode:lr-tb;text-anchor:start;fill:#5333ed;fill-opacity:1;stroke:none;stroke-width:1px;stroke-linecap:butt;stroke-linejoin:miter;stroke-opacity:1"
     id="text8088">
    <path
       d="m 55.763654,64.761555 0,5.170885 c 0,1.324924 0.331231,2.355421 1.950583,2.355421 1.140907,0 2.02419,-0.42324 2.392224,-0.680864 0.220821,-0.147214 0.257624,-0.276026 0.147214,-0.552052 l -0.165616,-0.386436 c -0.09201,-0.202419 -0.202419,-0.368035 -0.53365,-0.165616 -0.349632,0.220821 -0.883282,0.552052 -1.674557,0.552052 -0.478444,0 -0.75447,-0.331231 -0.75447,-1.214514 l 0,-5.078876 2.502634,0 c 0.239223,0 0.42324,-0.184017 0.42324,-0.404837 l 0,-0.368035 c 0,-0.239222 -0.184017,-0.404838 -0.42324,-0.404838 l -2.502634,0 0,-2.392224 c 0,-0.220821 -0.165616,-0.42324 -0.386436,-0.404838 l -0.570454,0.0368 c -0.202419,0.0184 -0.404838,0.184017 -0.404838,0.404838 l 0,2.35542 -1.122505,0 c -0.257624,0 -0.42324,0.165616 -0.42324,0.404838 l 0,0.368035 c 0,0.22082 0.165616,0.404837 0.42324,0.404837 l 1.122505,0 z"
       style=""
       id="path8093" />
    <path
       d="m 62.056181,68.570712 c 0,2.245011 0.588855,3.717149 3.036285,3.717149 1.527343,0 2.318617,-0.772873 2.631446,-1.104104 l 0.165616,0.53365 c 0.05521,0.220821 0.147213,0.368035 0.386436,0.368035 l 0.294427,0 c 0.202419,0 0.386437,-0.184018 0.386437,-0.404838 l 0,-7.691921 c 0,-0.202419 -0.184018,-0.404838 -0.386437,-0.404838 l -0.570453,0 c -0.220821,0 -0.386436,0.202419 -0.386436,0.404838 l 0,5.833347 c -0.386436,0.441641 -1.140907,1.232915 -2.410626,1.232915 -1.232916,0 -1.784967,-0.772872 -1.784967,-2.465831 l 0,-4.600431 c 0,-0.202419 -0.184017,-0.404838 -0.404838,-0.404838 l -0.552052,0 c -0.239222,0 -0.404838,0.202419 -0.404838,0.404838 l 0,4.582029 z"
       style=""
       id="path8095" />
    <path
       d="m 72.368333,64.761555 0,5.170885 c 0,1.324924 0.331231,2.355421 1.950583,2.355421 1.140907,0 2.02419,-0.42324 2.392224,-0.680864 0.220821,-0.147214 0.257624,-0.276026 0.147214,-0.552052 l -0.165616,-0.386436 c -0.09201,-0.202419 -0.202419,-0.368035 -0.53365,-0.165616 -0.349632,0.220821 -0.883282,0.552052 -1.674556,0.552052 -0.478445,0 -0.754471,-0.331231 -0.754471,-1.214514 l 0,-5.078876 2.502634,0 c 0.239223,0 0.42324,-0.184017 0.42324,-0.404837 l 0,-0.368035 c 0,-0.239222 -0.184017,-0.404838 -0.42324,-0.404838 l -2.502634,0 0,-2.392224 c 0,-0.220821 -0.165616,-0.42324 -0.386436,-0.404838 l -0.570454,0.0368 c -0.202419,0.0184 -0.404838,0.184017 -0.404838,0.404838 l 0,2.35542 -1.122505,0 c -0.257624,0 -0.42324,0.165616 -0.42324,0.404838 l 0,0.368035 c 0,0.22082 0.165616,0.404837 0.42324,0.404837 l 1.122505,0 z"
       style=""
       id="path8097" />
    <path
       d="m 81.126692,72.287861 c 1.729762,0 2.889071,-1.085702 2.889071,-2.429028 0,-1.545745 -1.269719,-2.097797 -2.741857,-2.77866 -1.030497,-0.478445 -1.619352,-0.754471 -1.619352,-1.508942 0,-0.404838 0.31283,-0.938488 1.251318,-0.938488 0.791274,0 1.380129,0.276026 1.748163,0.496847 0.184018,0.11041 0.460043,0.09201 0.588855,-0.147214 l 0.184018,-0.349633 c 0.128812,-0.239222 0.09201,-0.423239 -0.09201,-0.570453 -0.404838,-0.294428 -1.324924,-0.662462 -2.429027,-0.662462 -1.968985,0 -2.631447,1.343326 -2.631447,2.226609 0,1.453736 1.288121,2.060993 2.410626,2.613044 1.232915,0.607257 1.895377,0.938488 1.895377,1.748164 0,0.662462 -0.588855,1.0673 -1.453736,1.0673 -1.085701,0 -1.82177,-0.53365 -2.116198,-0.754471 -0.239222,-0.165615 -0.386436,-0.09201 -0.496847,0.110411 l -0.257624,0.478445 c -0.07361,0.147213 -0.0368,0.276025 0.05521,0.368034 0.441642,0.404838 1.398532,1.030497 2.815464,1.030497 z"
       style=""
       id="path8099" />
  </g>
</svg>
