<?xml version="1.0" encoding="UTF-8" standalone="no"?>
<svg
   xmlns:dc="http://purl.org/dc/elements/1.1/"
   xmlns:cc="http://creativecommons.org/ns#"
   xmlns:rdf="http://www.w3.org/1999/02/22-rdf-syntax-ns#"
   xmlns:svg="http://www.w3.org/2000/svg"
   xmlns="http://www.w3.org/2000/svg"
   xmlns:sodipodi="http://sodipodi.sourceforge.net/DTD/sodipodi-0.dtd"
   xmlns:inkscape="http://www.inkscape.org/namespaces/inkscape"
   width="128"
   height="128"
   viewBox="0 0 128 128"
   id="svg2"
   version="1.1"
   inkscape:version="0.91 r13725"
   sodipodi:docname="binary.svg">
  <metadata
     id="metadata27">
    <rdf:RDF>
      <cc:Work
         rdf:about="">
        <dc:format>image/svg+xml</dc:format>
        <dc:type
           rdf:resource="http://purl.org/dc/dcmitype/StillImage" />
      </cc:Work>
    </rdf:RDF>
  </metadata>
  <defs
     id="defs25" />
  <sodipodi:namedview
     pagecolor="#ffffff"
     bordercolor="#666666"
     borderopacity="1"
     objecttolerance="10"
     gridtolerance="10"
     guidetolerance="10"
     inkscape:pageopacity="0"
     inkscape:pageshadow="2"
     inkscape:window-width="1280"
     inkscape:window-height="755"
     id="namedview23"
     showgrid="false"
     inkscape:zoom="1.84375"
     inkscape:cx="-94.372881"
     inkscape:cy="64"
     inkscape:window-x="0"
     inkscape:window-y="1"
     inkscape:window-maximized="1"
     inkscape:current-layer="svg2" />
  <title
     id="title4">features-migration</title>
  <path
     inkscape:connector-curvature="0"
     id="path5"
     d="m 32.457939,77.776709 c 0,1.480983 1.200662,2.681645 2.681645,2.681645 1.480983,0 2.681645,-1.200662 2.681645,-2.681645 l 0,-20.962244 c 0,-1.084815 -0.653249,-2.062364 -1.655469,-2.477482 -1.001505,-0.414762 -2.155328,-0.18557 -2.922278,0.58138 l -6.794932,6.794932 c -1.047272,1.047272 -1.047272,2.74529 0,3.792204 1.047272,1.047272 2.74529,1.047272 3.792204,0 l 2.217185,-2.217184 0,14.488394 z"
     style="fill:#5333ed;fill-opacity:1" />
  <path
     inkscape:connector-curvature="0"
     id="path7"
     d="m 48.295736,31.334543 2.217185,-2.217184 0,14.488394 c 0,1.480983 1.200662,2.681645 2.681645,2.681645 1.480983,0 2.681645,-1.200662 2.681645,-2.681645 l 0,-20.962244 c 0,-1.084815 -0.653248,-2.062364 -1.655469,-2.477482 -1.001505,-0.414762 -2.155327,-0.18557 -2.922278,0.58138 l -6.794932,6.794932 c -1.047272,1.047272 -1.047272,2.74529 0,3.792204 1.047272,1.047272 2.74529,1.047272 3.792204,0 z"
     style="fill:#5333ed;fill-opacity:1" />
  <path
     inkscape:connector-curvature="0"
     id="path9"
     d="m 78.879366,54.336983 c -1.001505,-0.414762 -2.155328,-0.18557 -2.922279,0.58138 l -6.794932,6.794932 c -1.047271,1.047272 -1.047271,2.74529 0,3.792204 1.047272,1.047272 2.74529,1.047272 3.792205,0 l 2.217184,-2.217184 0,14.488394 c 0,1.480983 1.200662,2.681645 2.681645,2.681645 1.480984,0 2.681646,-1.200662 2.681646,-2.681645 l 0,-20.962244 c 0,-1.084457 -0.653249,-2.062364 -1.655469,-2.477482 z"
     style="fill:#5333ed;fill-opacity:1" />
  <path
     inkscape:connector-curvature="0"
     id="path11"
     d="m 67.223862,87.340886 c -1.001505,-0.414761 -2.155328,-0.18557 -2.922278,0.581381 l -6.794932,6.794932 c -1.047272,1.047272 -1.047272,2.74529 0,3.792204 1.047272,1.047272 2.74529,1.047272 3.792204,0 l 2.217184,-2.217184 0,7.936601 c 0,1.48098 1.200662,2.68164 2.681646,2.68164 1.480983,0 2.681645,-1.20066 2.681645,-2.68164 l 0,-14.410451 c 0,-1.084815 -0.653249,-2.062364 -1.655469,-2.477483 z"
     style="fill:#5333ed;fill-opacity:1" />
  <path
     inkscape:connector-curvature="0"
     id="path13"
     d="m 62.678294,71.242075 0,-7.892619 c 0,-5.081896 -4.134382,-9.216279 -9.216278,-9.216279 l -0.131937,0 c -5.081897,0 -9.216279,4.134383 -9.216279,9.216279 l 0,7.892619 c 0,5.081897 4.134382,9.216279 9.216279,9.216279 l 0.131937,0 c 5.081896,0 9.216278,-4.134382 9.216278,-9.216279 z m -5.36329,0 c 0,2.124578 -1.72841,3.852988 -3.852988,3.852988 l -0.131937,0 c -2.124579,0 -3.852989,-1.72841 -3.852989,-3.852988 l 0,-7.892619 c 0,-2.124578 1.72841,-3.852988 3.852989,-3.852988 l 0.131937,0 c 2.124578,0 3.852988,1.72841 3.852988,3.852988 l 0,7.892619 z"
     style="fill:#2cd4d9;fill-opacity:1" />
  <path
     inkscape:connector-curvature="0"
     id="path15"
     d="m 96.37442,54.13282 -0.131937,0 c -5.081896,0 -9.216279,4.134382 -9.216279,9.216279 l 0,7.892619 c 0,5.081896 4.134383,9.216278 9.216279,9.216278 l 0.131937,0 c 5.0819,0 9.21628,-4.134382 9.21628,-9.216278 l 0,-7.892619 c 0,-5.081539 -4.13438,-9.216279 -9.21628,-9.216279 z m 3.85299,17.109255 c 0,2.124578 -1.728411,3.852988 -3.85299,3.852988 l -0.131937,0 c -2.124578,0 -3.852988,-1.72841 -3.852988,-3.852988 l 0,-7.892619 c 0,-2.124578 1.72841,-3.852988 3.852988,-3.852988 l 0.131937,0 c 2.124579,0 3.85299,1.72841 3.85299,3.852988 l 0,7.892619 z"
     style="fill:#2cd4d9;fill-opacity:1" />
  <path
     inkscape:connector-curvature="0"
     id="path17"
     d="m 71.516998,19.961864 -0.131937,0 c -5.081897,0 -9.216279,4.134382 -9.216279,9.216279 l 0,7.892619 c 0,5.081896 4.134382,9.216279 9.216279,9.216279 l 0.131937,0 c 1.480983,0 2.681645,-1.200662 2.681645,-2.681646 0,-1.480983 -1.200662,-2.681645 -2.681645,-2.681645 l -0.131937,0 c -2.124579,0 -3.852988,-1.72841 -3.852988,-3.852988 l 0,-7.892619 c 0,-2.124578 1.728409,-3.852988 3.852988,-3.852988 l 0.131937,0 c 2.124578,0 3.852988,1.72841 3.852988,3.852988 0,1.480983 1.200662,2.681645 2.681645,2.681645 1.480984,0 2.681646,-1.200662 2.681646,-2.681645 3.57e-4,-5.081897 -4.134025,-9.216279 -9.216279,-9.216279 z"
     style="fill:#2cd4d9;fill-opacity:1" />
  <path
     inkscape:connector-curvature="0"
     id="path19-1"
     d="m 96.37442,19.961864 -0.131937,0 c -5.081896,0 -9.216279,4.134382 -9.216279,9.216279 l 0,7.892619 c 0,5.081896 4.134383,9.216279 9.216279,9.216279 l 0.131937,0 c 5.0819,0 9.21628,-4.134383 9.21628,-9.216279 l 0,-7.892619 c 0,-5.081897 -4.13438,-9.216279 -9.21628,-9.216279 z m 3.85299,17.109255 c 0,2.124578 -1.728411,3.852988 -3.85299,3.852988 l -0.131937,0 c -2.124578,0 -3.852988,-1.72841 -3.852988,-3.852988 l 0,-7.892976 c 0,-2.124578 1.72841,-3.852988 3.852988,-3.852988 l 0.131937,0 c 2.124579,0 3.85299,1.72841 3.85299,3.852988 l 0,7.892976 z"
     style="fill:#2cd4d9;fill-opacity:1" />
  <path
     inkscape:connector-curvature="0"
     id="path21"
     d="m 40.931223,87.136724 -0.131937,0 c -5.081897,0 -9.216279,4.134382 -9.216279,9.216279 l 0,7.892617 c 0,5.0819 4.134382,9.21628 9.216279,9.21628 l 0.131937,0 c 5.081897,0 9.216279,-4.13438 9.216279,-9.21628 l 0,-7.892617 c 3.57e-4,-5.08154 -4.134025,-9.216279 -9.216279,-9.216279 z m 3.853346,17.109256 c 0,2.12458 -1.72841,3.85299 -3.852989,3.85299 l -0.131937,0 c -2.124578,0 -3.852988,-1.72841 -3.852988,-3.85299 l 0,-7.892977 c 0,-2.124579 1.72841,-3.852988 3.852988,-3.852988 l 0.131937,0 c 2.124579,0 3.852989,1.728409 3.852989,3.852988 l 0,7.892977 z"
     style="fill:#2cd4d9;fill-opacity:1" />
</svg>
