<?xml version="1.0" encoding="UTF-8" standalone="no"?>
<svg xmlns="http://www.w3.org/2000/svg" height="8px" version="1.1" viewBox="0 0 32 32"><path fill="#fff" d="M9.599,30.43L6.57,27.4C6.092,26.923,6,26.335,6,26c0-0.479,0.194-1.029,0.576-1.412L15.165,16L6.576,7.412  C6.194,7.029,6,6.479,6,6c0-0.335,0.092-0.923,0.57-1.4l3.03-3.03C10.077,1.092,10.665,1,11,1c0.479,0,1.029,0.194,1.412,0.576  l13.006,13.008C25.778,14.945,26,15.448,26,16c0,0.556-0.235,1.066-0.584,1.416L12.412,30.424C12.029,30.806,11.479,31,11,31  C10.665,31,10.077,30.908,9.599,30.43z"/></svg>