<?xml version="1.0" encoding="UTF-8" standalone="no"?>
<svg
   xmlns:dc="http://purl.org/dc/elements/1.1/"
   xmlns:cc="http://creativecommons.org/ns#"
   xmlns:rdf="http://www.w3.org/1999/02/22-rdf-syntax-ns#"
   xmlns:svg="http://www.w3.org/2000/svg"
   xmlns="http://www.w3.org/2000/svg"
   xmlns:sodipodi="http://sodipodi.sourceforge.net/DTD/sodipodi-0.dtd"
   xmlns:inkscape="http://www.inkscape.org/namespaces/inkscape"
   width="128"
   height="128"
   viewBox="0 0 128 128"
   id="svg2"
   version="1.1"
   inkscape:version="0.91 r13725"
   sodipodi:docname="cheatsheet.svg">
  <metadata
     id="metadata43">
    <rdf:RDF>
      <cc:Work
         rdf:about="">
        <dc:format>image/svg+xml</dc:format>
        <dc:type
           rdf:resource="http://purl.org/dc/dcmitype/StillImage" />
      </cc:Work>
    </rdf:RDF>
  </metadata>
  <defs
     id="defs41" />
  <sodipodi:namedview
     pagecolor="#ffffff"
     bordercolor="#666666"
     borderopacity="1"
     objecttolerance="10"
     gridtolerance="10"
     guidetolerance="10"
     inkscape:pageopacity="0"
     inkscape:pageshadow="2"
     inkscape:window-width="1280"
     inkscape:window-height="751"
     id="namedview39"
     showgrid="false"
     inkscape:zoom="1.84375"
     inkscape:cx="-48.323521"
     inkscape:cy="64"
     inkscape:window-x="0"
     inkscape:window-y="1"
     inkscape:window-maximized="1"
     inkscape:current-layer="svg2" />
  <title
     id="title4">features-nextgen</title>
  <g
     transform="matrix(0.19629265,0,0,0.19629265,17.306477,17.916962)"
     id="g8110">
    <path
       style="fill:#2cd4d9"
       inkscape:connector-curvature="0"
       id="path7-4"
       d="m 346.41,240.403 c -7.652,8.471 -15.538,16.56 -23.612,24.364 1.117,32.407 1.976,62.886 2.153,88.732 -15.087,-4.763 -30.677,-6.774 -46.778,-5.697 -1.26,0.081 -2.377,0.37 -3.428,0.731 -7.409,0.045 -14.574,5.829 -11.264,14.726 6.663,17.88 9.709,40.086 -0.533,57.188 -12.39,20.688 -34.497,20.129 -55.51,22.779 -12.854,1.615 -26.515,0.757 -39.474,1.128 -10.077,0.284 -137.763,3.392 -137.763,3.895 C 29.899,327.246 25.9,151.353 24.278,30.372 c 97.248,0.422 194.463,3.761 291.709,1.681 -0.025,7.914 0.015,16.28 0.116,24.979 7.963,-8.569 15.961,-17.078 24.024,-25.474 0.01,-2.456 0,-4.913 0.021,-7.368 0.01,-1.331 -0.203,-2.506 -0.503,-3.613 C 340.234,14.061 336.4,7.181 328.052,7.399 222.73,10.173 117.429,6.05 12.096,5.882 3.334,5.867 -0.505,13.567 0.577,20.321 c -0.353,1.176 -0.591,2.44 -0.576,3.88 1.592,125.685 5.908,306.275 6.048,431.985 0,2.813 0.8,5.109 2.079,6.917 0.774,5.331 4.604,10.044 11.527,9.871 45.526,-1.127 91.071,-1.863 136.564,-4.093 40.542,-1.985 91.071,0.676 129.823,-12.558 13.721,-4.688 26,-11.613 36.521,-21.643 19.235,-18.337 25.801,-42.949 27.456,-68.888 1.595,-24.912 -1.34,-51.039 -1.924,-73.991 -0.43,-17.142 -1.03,-34.275 -1.685,-51.398 z m -62.164,190.83 c 9.765,-16.635 12.207,-37.063 7.124,-59.193 11.761,0.457 23.358,2.727 34.343,7.383 0.045,0.143 0.075,0.29 0.126,0.422 -3.559,26.227 -20.155,42.32 -41.593,51.388 z" />
    <path
       style="fill:#5333ed;fill-opacity:1"
       inkscape:connector-curvature="0"
       id="path9-4"
       d="m 419.426,13.936 c -0.589,-0.675 -1.244,-1.262 -1.777,-1.622 -3.539,-3.399 -8.272,-4.123 -11.802,-1.719 -7.165,4.908 -14.756,10.247 -22.099,16.227 l -0.33,-0.442 c -0.503,-0.66 -1.087,-1.272 -1.438,-1.513 -1.087,-1.361 -2.382,-2.366 -3.747,-3.062 -3.058,-1.567 -6.516,-1.435 -9.101,0.764 -6.545,5.576 -16.691,14.482 -29.035,25.428 -7.262,6.437 -15.265,13.561 -23.816,21.193 -12.41,11.077 -25.887,23.15 -39.664,35.495 -7.124,6.385 -14.31,12.827 -21.469,19.25 -47.005,42.145 -95.601,85.724 -114.509,101.824 -0.472,0.403 -0.904,0.873 -1.295,1.419 -1.607,1.023 -2.775,2.567 -3.311,4.382 -0.807,0.952 -1.394,2.107 -1.742,3.438 -5.751,22.041 -12.923,51.29 -17.321,82.083 -0.848,5.921 3.011,10.664 6.853,12.512 0.708,0.381 1.399,0.666 2.1,0.863 28.949,8.298 59.133,13.452 89.71,15.325 l 0.586,0.021 c 1.653,0 3.1,-0.452 4.301,-1.351 0.581,-0.32 1.127,-0.7 1.622,-1.147 12.921,-11.751 40.565,-36.176 72.582,-64.46 1.849,-1.635 3.758,-3.321 5.637,-4.981 7.221,-6.383 14.599,-12.903 22.069,-19.51 7.881,-6.972 15.808,-13.984 23.703,-20.977 8.12,-7.196 16.153,-14.325 24.004,-21.305 34.576,-30.75 65.125,-58.216 79.084,-71.706 2.59,-0.317 4.957,-1.975 6.317,-4.497 1.828,-3.385 1.519,-7.556 -0.838,-11.148 l -0.812,-1.222 c 6.713,-7.198 13.914,-13.639 20.743,-19.642 0.539,-0.477 1.021,-1.033 1.453,-1.693 2.823,-2.818 4.194,-8.071 0.665,-13.312 C 458.841,62.248 439.55,37.041 419.426,13.936 Z m 37.943,77.967 c -4.753,4.248 -10.019,9.115 -15.066,14.398 -15.498,-22.516 -31.885,-44.427 -46.153,-63.208 4.352,-3.558 9.222,-7.219 15.046,-11.327 16.203,19.033 31.726,39.244 46.173,60.137 z m -185.128,44.163 c 0.249,-0.224 0.498,-0.447 0.746,-0.67 15.219,-13.634 30.133,-26.99 43.879,-39.276 8.349,-7.467 16.275,-14.543 23.547,-21.022 11.796,-10.504 21.851,-19.426 29.406,-26.053 1.844,-1.615 3.596,-3.146 5.119,-4.471 2.438,3.199 4.864,6.401 7.287,9.61 -1.311,1.166 -2.94,2.615 -4.748,4.218 -8.236,7.31 -21.287,18.885 -36.744,32.588 -7.368,6.525 -15.27,13.518 -23.436,20.751 -12.953,11.466 -26.558,23.498 -39.78,35.178 -34.673,30.633 -66.585,58.722 -76.31,66.979 -2.864,2.435 -3.717,6.23 -2.277,10.151 1.432,3.895 5.273,7.835 9.854,7.835 1.836,0 3.583,-0.66 5.056,-1.915 11.555,-9.811 54.11,-47.332 95.537,-83.972 2.935,-2.592 5.85,-5.172 8.765,-7.746 8.013,-7.089 15.873,-14.051 23.389,-20.706 12.938,-11.461 24.785,-21.959 34.332,-30.43 8.15,-7.229 14.646,-12.994 18.682,-16.582 2.534,3.38 5.063,6.759 7.577,10.148 -4.962,4.545 -13.716,12.294 -28.519,25.101 -8.409,7.269 -18.753,16.161 -31.504,27.045 -7.048,6.021 -14.868,12.688 -23.449,19.977 -10.268,8.732 -21.688,18.418 -34.378,29.15 -23.476,19.87 -51.24,43.29 -84.186,71.003 l -2.803,2.356 c -2.874,2.417 -3.737,6.2 -2.308,10.11 1.425,3.91 5.276,7.865 9.885,7.865 1.825,0 3.567,-0.654 5.04,-1.889 l 2.382,-2.006 c 32.06,-26.969 59.224,-49.886 82.314,-69.421 8.938,-7.561 17.271,-14.617 25.009,-21.19 8.506,-7.218 16.311,-13.848 23.476,-19.951 4.266,-3.636 8.317,-7.094 12.142,-10.359 34.078,-29.107 51.028,-43.96 58.985,-51.211 1.315,1.817 2.636,3.643 3.946,5.474 -11.807,10.479 -29.564,26.192 -49.368,43.633 -8.171,7.2 -16.696,14.693 -25.294,22.239 -7.845,6.88 -15.736,13.79 -23.495,20.571 -9.72,8.485 -19.186,16.732 -28.036,24.397 -23.704,20.53 -42.855,36.812 -49.561,41.778 -2.976,2.204 -3.999,5.8 -2.742,9.618 1.325,4.012 5.388,8.287 10.298,8.287 1.717,0 3.372,-0.559 4.799,-1.614 6.556,-4.855 24.806,-20.343 47.372,-39.87 6.022,-5.215 12.354,-10.712 18.865,-16.379 7.698,-6.713 15.635,-13.64 23.587,-20.602 18.428,-16.135 36.892,-32.39 52.526,-46.184 13.817,-12.19 25.415,-22.465 32.819,-29.031 1.528,2.239 3.052,4.481 4.57,6.733 -7.525,7.206 -19.688,18.339 -34.611,31.791 -15.874,14.31 -34.892,31.263 -54.802,48.926 -7.79,6.909 -15.691,13.914 -23.618,20.929 -8.836,7.82 -17.656,15.615 -26.313,23.263 -5.089,4.504 -10.146,8.973 -15.077,13.329 -27.71,24.486 -51.838,45.809 -64.287,57.021 -22.244,-25.842 -41.957,-53.766 -58.65,-83.073 19.609,-16.905 68.05,-60.286 115.105,-102.431 z m -77.386,188.322 c -9,-1.01 -18.342,-2.412 -27.855,-4.179 -0.152,-0.305 -0.323,-0.614 -0.51,-0.924 -6.812,-11.05 -14.757,-22.567 -24.278,-35.171 1.793,-8.408 3.758,-16.955 5.964,-25.918 14.055,23.369 29.721,45.585 46.679,66.192 z m -52.311,-9.481 c -1.965,-0.482 -3.931,-0.975 -5.898,-1.482 0.312,-1.869 0.63,-3.732 0.962,-5.586 1.697,2.387 3.334,4.732 4.936,7.068 z m 73.682,28.295 -0.005,-0.061 c 0,0 0,0 0.005,0 l 0,0.061 z" />
  </g>
</svg>
