<?xml version="1.0" encoding="UTF-8" standalone="no"?>
<svg
   xmlns:dc="http://purl.org/dc/elements/1.1/"
   xmlns:cc="http://creativecommons.org/ns#"
   xmlns:rdf="http://www.w3.org/1999/02/22-rdf-syntax-ns#"
   xmlns:svg="http://www.w3.org/2000/svg"
   xmlns="http://www.w3.org/2000/svg"
   xmlns:sodipodi="http://sodipodi.sourceforge.net/DTD/sodipodi-0.dtd"
   xmlns:inkscape="http://www.inkscape.org/namespaces/inkscape"
   width="128"
   height="128"
   viewBox="0 0 128 128"
   id="svg2"
   version="1.1"
   inkscape:version="0.91 r13725"
   sodipodi:docname="control-flow.svg">
  <metadata
     id="metadata43">
    <rdf:RDF>
      <cc:Work
         rdf:about="">
        <dc:format>image/svg+xml</dc:format>
        <dc:type
           rdf:resource="http://purl.org/dc/dcmitype/StillImage" />
      </cc:Work>
    </rdf:RDF>
  </metadata>
  <defs
     id="defs41" />
  <sodipodi:namedview
     pagecolor="#ffffff"
     bordercolor="#666666"
     borderopacity="1"
     objecttolerance="10"
     gridtolerance="10"
     guidetolerance="10"
     inkscape:pageopacity="0"
     inkscape:pageshadow="2"
     inkscape:window-width="1280"
     inkscape:window-height="755"
     id="namedview39"
     showgrid="false"
     inkscape:zoom="1.84375"
     inkscape:cx="-28.571163"
     inkscape:cy="64"
     inkscape:window-x="0"
     inkscape:window-y="1"
     inkscape:window-maximized="1"
     inkscape:current-layer="svg2" />
  <title
     id="title4">features-nextgen</title>
  <g
     id="g8141"
     transform="matrix(0.1796875,0,0,0.1796875,18.542374,23.423726)">
    <path
       style="fill:#2cd4d9;fill-opacity:1"
       d="m 224,96 32,0 0,-32 -32,0 0,-64 -224,0 0,160 224,0 0,-64 z m -32,32 -160,0 0,-96 160,0 0,96 z"
       id="path9"
       inkscape:connector-curvature="0" />
    <path
       style="fill:#2cd4d9;fill-opacity:1"
       d="m 288,416 -32,0 0,32 32,0 0,64 224,0 0,-160 -224,0 0,64 z m 32,-32 160,0 0,96 -160,0 0,-96 z"
       id="path11"
       inkscape:connector-curvature="0" />
    <path
       style="fill:#5333ed;fill-opacity:1"
       d="m 480,168 c 0,39.764 -32.235,72 -72,72 l -8,0 0,32 8,0 C 465.438,272 512,225.438 512,168 512,110.562 465.438,64 408,64 l -56,0 0,32 56,0 c 39.746,0.044 71.956,32.254 72,72 z"
       id="path13-4"
       inkscape:connector-curvature="0" />
    <rect
       style="fill:#5333ed;fill-opacity:1"
       x="288"
       y="64"
       width="32"
       height="32"
       id="rect15" />
    <path
       style="fill:#2cd4d9;fill-opacity:1"
       d="m 326.624,272 41.376,0 0,-32 -41.376,0 L 256,169.376 185.376,240 144,240 l 0,32 41.376,0 L 256,342.624 326.624,272 Z M 256,214.624 297.376,256 256,297.376 214.624,256 256,214.624 Z"
       id="path17"
       inkscape:connector-curvature="0" />
    <path
       style="fill:#5333ed;fill-opacity:1"
       d="m 32,344 c 0,-39.765 32.235,-72 72,-72 l 8,0 0,-32 -8,0 C 46.562,240 0,286.562 0,344 0,401.438 46.562,448 104,448 l 56,0 0,-32 -56,0 C 64.254,415.956 32.044,383.746 32,344 Z"
       id="path19"
       inkscape:connector-curvature="0" />
    <rect
       style="fill:#5333ed;fill-opacity:1"
       x="192"
       y="416"
       width="32"
       height="32"
       id="rect21" />
  </g>
</svg>
