<?xml version="1.0" encoding="UTF-8" standalone="no"?>
<!-- Created with Inkscape (http://www.inkscape.org/) -->

<svg
   xmlns:dc="http://purl.org/dc/elements/1.1/"
   xmlns:cc="http://creativecommons.org/ns#"
   xmlns:rdf="http://www.w3.org/1999/02/22-rdf-syntax-ns#"
   xmlns:svg="http://www.w3.org/2000/svg"
   xmlns="http://www.w3.org/2000/svg"
   xmlns:sodipodi="http://sodipodi.sourceforge.net/DTD/sodipodi-0.dtd"
   xmlns:inkscape="http://www.inkscape.org/namespaces/inkscape"
   width="193.18111mm"
   height="102.30556mm"
   viewBox="0 0 684.49998 362.5"
   id="svg2"
   version="1.1"
   inkscape:version="0.91 r13725"
   sodipodi:docname="eta-editor1.svg">
  <defs
     id="defs4" />
  <sodipodi:namedview
     id="base"
     pagecolor="#ffffff"
     bordercolor="#666666"
     borderopacity="1.0"
     inkscape:pageopacity="0.0"
     inkscape:pageshadow="2"
     inkscape:zoom="1"
     inkscape:cx="209.45219"
     inkscape:cy="175.11555"
     inkscape:document-units="px"
     inkscape:current-layer="layer1"
     showgrid="false"
     fit-margin-top="0"
     fit-margin-left="0"
     fit-margin-right="0"
     fit-margin-bottom="0"
     inkscape:window-width="1280"
     inkscape:window-height="751"
     inkscape:window-x="0"
     inkscape:window-y="1"
     inkscape:window-maximized="1" />
  <metadata
     id="metadata7">
    <rdf:RDF>
      <cc:Work
         rdf:about="">
        <dc:format>image/svg+xml</dc:format>
        <dc:type
           rdf:resource="http://purl.org/dc/dcmitype/StillImage" />
        <dc:title></dc:title>
      </cc:Work>
    </rdf:RDF>
  </metadata>
  <g
     inkscape:label="Layer 1"
     inkscape:groupmode="layer"
     id="layer1"
     transform="translate(-40,-518.43365)">
    <g
       style="font-style:normal;font-variant:normal;font-weight:normal;font-stretch:normal;font-size:10px;line-height:125%;font-family:'Brandon Text';-inkscape-font-specification:'Brandon Text, Normal';text-align:start;letter-spacing:0px;word-spacing:0px;writing-mode:lr-tb;text-anchor:start;fill:#95a4b0;fill-opacity:1;stroke:none;stroke-width:1px;stroke-linecap:butt;stroke-linejoin:miter;stroke-opacity:1"
       id="text8175" />
    <g
       id="g8709">
      <path
         id="rect8187"
         d="m 40,518.43365 684.5,0 0,362.5 -684.5,0 z"
         style="opacity:1;fill:#31384d;fill-opacity:1;fill-rule:nonzero;stroke:none;stroke-width:6;stroke-linecap:round;stroke-miterlimit:4;stroke-dasharray:none;stroke-dashoffset:0;stroke-opacity:1"
         inkscape:connector-curvature="0" />
      <g
         transform="matrix(1.5,0,0,1.5,-42.292637,-269.72011)"
         id="g8681">
        <g
           id="text8673"
           style="font-style:normal;font-variant:normal;font-weight:500;font-stretch:normal;font-size:22.5px;line-height:125%;font-family:Roboto;-inkscape-font-specification:'Roboto, Medium';text-align:start;letter-spacing:0px;word-spacing:0px;writing-mode:lr-tb;text-anchor:start;fill:#36b2ba;fill-opacity:1;stroke:none;stroke-width:1px;stroke-linecap:butt;stroke-linejoin:miter;stroke-opacity:1">
          <path
             id="path8688"
             d="m 92.40625,555.47418 0,-2.62573 9.49219,4.08691 0,2.12037 -9.49219,4.08691 0,-2.62573 6.646729,-2.48291 0.197753,-0.022 0.01099,-0.0659 -0.20874,-0.0439 -6.646729,-2.42798 z"
             inkscape:connector-curvature="0" />
          <path
             id="path8690"
             d="m 112.84082,566.03204 -10.07446,0 0,-2.09839 10.07446,0 0,2.09839 z"
             inkscape:connector-curvature="0" />
        </g>
        <g
           id="text8677"
           style="font-style:normal;font-variant:normal;font-weight:normal;font-stretch:normal;font-size:22.5px;line-height:125%;font-family:'Brandon Text';-inkscape-font-specification:'Brandon Text, Normal';text-align:start;letter-spacing:0px;word-spacing:0px;writing-mode:lr-tb;text-anchor:start;fill:#ffffff;fill-opacity:1;stroke:none;stroke-width:1px;stroke-linecap:butt;stroke-linejoin:miter;stroke-opacity:1">
          <path
             id="path8693"
             d="m 132.1025,561.99397 c 0,2.97 1.89,5.445 5.04,5.445 1.8,0 3.1725,-0.6975 3.8025,-1.1925 0.3825,-0.2925 0.2925,-0.405 0.09,-0.72 l -0.27,-0.3825 c -0.27,-0.405 -0.4275,-0.315 -0.7875,-0.0675 -0.585,0.3825 -1.44,0.855 -2.8125,0.855 -1.89,0 -3.3525,-1.8225 -3.3975,-3.555 l 7.56,0 c 0.225,0 0.45,-0.18 0.4725,-0.45 0.0225,-0.18 0.045,-0.45 0.045,-0.63 0,-2.7225 -1.98,-4.725 -4.7025,-4.725 -3.15,0 -5.04,2.4975 -5.04,5.4225 z m 1.6875,-0.945 c 0.2025,-1.62 1.5975,-2.97 3.3525,-2.97 1.7775,0 2.9925,1.44 3.0375,2.97 l -6.39,0 z"
             inkscape:connector-curvature="0" />
          <path
             id="path8695"
             d="m 145.20734,558.23647 0,6.3225 c 0,1.62 0.405,2.88 2.385,2.88 1.395,0 2.475,-0.5175 2.925,-0.8325 0.27,-0.18 0.315,-0.3375 0.18,-0.675 l -0.2025,-0.4725 c -0.1125,-0.2475 -0.2475,-0.45 -0.6525,-0.2025 -0.4275,0.27 -1.08,0.675 -2.0475,0.675 -0.585,0 -0.9225,-0.405 -0.9225,-1.485 l 0,-6.21 3.06,0 c 0.2925,0 0.5175,-0.225 0.5175,-0.495 l 0,-0.45 c 0,-0.2925 -0.225,-0.495 -0.5175,-0.495 l -3.06,0 0,-2.925 c 0,-0.27 -0.2025,-0.5175 -0.4725,-0.495 l -0.6975,0.045 c -0.2475,0.0225 -0.495,0.225 -0.495,0.495 l 0,2.88 -1.3725,0 c -0.315,0 -0.5175,0.2025 -0.5175,0.495 l 0,0.45 c 0,0.27 0.2025,0.495 0.5175,0.495 l 1.3725,0 z"
             inkscape:connector-curvature="0" />
          <path
             id="path8697"
             d="m 153.12629,566.69647 c 0,0.27 0.225,0.495 0.495,0.495 l 0.675,0 c 0.2475,0 0.495,-0.225 0.495,-0.495 l 0,-14.76 c 0,-0.2475 -0.2475,-0.495 -0.495,-0.495 l -0.675,0 c -0.27,0 -0.495,0.2475 -0.495,0.495 l 0,14.76 z"
             inkscape:connector-curvature="0" />
          <path
             id="path8699"
             d="m 157.56512,564.04147 c 0,2.0925 1.395,3.3975 3.2175,3.3975 1.5975,0 2.6775,-0.7875 3.2175,-1.3275 l 0.2025,0.6975 c 0.0675,0.225 0.1575,0.3825 0.4275,0.3825 l 0.4275,0 c 0.27,0 0.495,-0.225 0.495,-0.495 l 0,-5.76 c 0,-3.06 -0.5625,-4.365 -3.2175,-4.365 -1.71,0 -3.06,0.45 -3.5775,0.675 -0.2475,0.1125 -0.405,0.2475 -0.315,0.5625 l 0.225,0.6075 c 0.09,0.2475 0.225,0.3825 0.495,0.27 0.4725,-0.1575 1.665,-0.6075 3.0825,-0.6075 1.485,0 1.7325,0.945 1.71,2.8575 0,0 -1.125,-0.3375 -2.2275,-0.3375 -2.6775,0 -4.1625,1.4625 -4.1625,3.4425 z m 1.6425,0 c 0,-1.3275 1.08,-2.025 2.52,-2.025 1.035,0 1.8675,0.225 2.205,0.405 l 0,2.115 c -0.45,0.675 -1.575,1.395 -2.8575,1.395 -1.1475,0 -1.8675,-0.8325 -1.8675,-1.89 z"
             inkscape:connector-curvature="0" />
          <path
             id="path8701"
             d="m 171.86844,567.43897 c 2.115,0 3.5325,-1.3275 3.5325,-2.97 0,-1.89 -1.5525,-2.565 -3.3525,-3.3975 -1.26,-0.585 -1.98,-0.9225 -1.98,-1.845 0,-0.495 0.3825,-1.1475 1.53,-1.1475 0.9675,0 1.6875,0.3375 2.1375,0.6075 0.225,0.135 0.5625,0.1125 0.72,-0.18 l 0.225,-0.4275 c 0.1575,-0.2925 0.1125,-0.5175 -0.1125,-0.6975 -0.495,-0.36 -1.62,-0.81 -2.97,-0.81 -2.4075,0 -3.2175,1.6425 -3.2175,2.7225 0,1.7775 1.575,2.52 2.9475,3.195 1.5075,0.7425 2.3175,1.1475 2.3175,2.1375 0,0.81 -0.72,1.305 -1.7775,1.305 -1.3275,0 -2.2275,-0.6525 -2.5875,-0.9225 -0.2925,-0.2025 -0.4725,-0.1125 -0.6075,0.135 l -0.315,0.585 c -0.09,0.18 -0.045,0.3375 0.0675,0.45 0.54,0.495 1.71,1.26 3.4425,1.26 z"
             inkscape:connector-curvature="0" />
          <path
             id="path8703"
             d="m 183.55578,566.69647 c 0,0.27 0.225,0.495 0.495,0.495 l 0.675,0 c 0.2475,0 0.495,-0.225 0.495,-0.495 l 0,-7.2 c 0,0 0.81,-1.3275 2.8125,-1.3275 0.495,0 0.8775,0.18 1.125,0.2925 0.2475,0.1125 0.495,0.09 0.6075,-0.2475 l 0.2925,-0.81 c 0.2475,-0.72 -1.035,-0.8325 -1.8225,-0.8325 -2.16,0 -3.195,1.3275 -3.195,1.3275 l -0.18,-0.7425 c -0.0675,-0.2475 -0.2475,-0.36 -0.45,-0.36 l -0.36,0 c -0.27,0 -0.495,0.2475 -0.495,0.495 l 0,9.405 z"
             inkscape:connector-curvature="0" />
          <path
             id="path8705"
             d="m 192.10051,562.89397 c 0,2.745 0.72,4.545 3.7125,4.545 1.8675,0 2.835,-0.945 3.2175,-1.35 l 0.2025,0.6525 c 0.0675,0.27 0.18,0.45 0.4725,0.45 l 0.36,0 c 0.2475,0 0.4725,-0.225 0.4725,-0.495 l 0,-9.405 c 0,-0.2475 -0.225,-0.495 -0.4725,-0.495 l -0.6975,0 c -0.27,0 -0.4725,0.2475 -0.4725,0.495 l 0,7.1325 c -0.4725,0.54 -1.395,1.5075 -2.9475,1.5075 -1.5075,0 -2.1825,-0.945 -2.1825,-3.015 l 0,-5.625 c 0,-0.2475 -0.225,-0.495 -0.495,-0.495 l -0.675,0 c -0.2925,0 -0.495,0.2475 -0.495,0.495 l 0,5.6025 z"
             inkscape:connector-curvature="0" />
          <path
             id="path8707"
             d="m 204.0343,566.69647 c 0,0.27 0.225,0.495 0.495,0.495 l 0.675,0 c 0.2475,0 0.495,-0.225 0.495,-0.495 l 0,-7.1775 c 0,0 1.2375,-1.44 3.195,-1.44 1.53,0 2.205,0.9225 2.205,2.9025 l 0,5.715 c 0,0.27 0.225,0.495 0.495,0.495 l 0.675,0 c 0.2475,0 0.495,-0.225 0.495,-0.495 l 0,-5.49 c 0,-2.6775 -0.7425,-4.635 -3.7575,-4.635 -2.16,0 -3.4875,1.3275 -3.4875,1.3275 l -0.225,-0.7875 c -0.045,-0.225 -0.18,-0.315 -0.405,-0.315 l -0.36,0 c -0.27,0 -0.495,0.2475 -0.495,0.495 l 0,9.405 z"
             inkscape:connector-curvature="0" />
        </g>
      </g>
    </g>
  </g>
</svg>
