<?xml version="1.0" encoding="UTF-8" standalone="no"?>
<!-- Created with Inkscape (http://www.inkscape.org/) -->

<svg
   xmlns:dc="http://purl.org/dc/elements/1.1/"
   xmlns:cc="http://creativecommons.org/ns#"
   xmlns:rdf="http://www.w3.org/1999/02/22-rdf-syntax-ns#"
   xmlns:svg="http://www.w3.org/2000/svg"
   xmlns="http://www.w3.org/2000/svg"
   xmlns:sodipodi="http://sodipodi.sourceforge.net/DTD/sodipodi-0.dtd"
   xmlns:inkscape="http://www.inkscape.org/namespaces/inkscape"
   width="734.31201mm"
   height="156.86485mm"
   viewBox="0 0 2601.8928 555.82034"
   id="svg2"
   version="1.1"
   inkscape:version="0.91 r13725"
   sodipodi:docname="eta-logo-docs.svg">
  <defs
     id="defs4">
    <linearGradient
       id="783558c2-5088-44ab-8a03-29b84b614d0f"
       x1="2384.7109"
       y1="1641.2742"
       x2="1039.9078"
       y2="766.62933"
       gradientUnits="userSpaceOnUse"
       gradientTransform="scale(1.1134699,0.44526033)">
      <stop
         offset="0"
         stop-color="#150773"
         id="stop7" />
      <stop
         offset="0.51"
         stop-color="#5333ed"
         id="stop9" />
      <stop
         offset="1"
         stop-color="#2cd4d9"
         id="stop11" />
    </linearGradient>
  </defs>
  <sodipodi:namedview
     id="base"
     pagecolor="#ffffff"
     bordercolor="#666666"
     borderopacity="1.0"
     inkscape:pageopacity="0.0"
     inkscape:pageshadow="2"
     inkscape:zoom="0.2"
     inkscape:cx="1122.1428"
     inkscape:cy="-42.292903"
     inkscape:document-units="px"
     inkscape:current-layer="layer1"
     showgrid="false"
     fit-margin-top="0"
     fit-margin-left="0"
     fit-margin-right="0"
     fit-margin-bottom="0"
     inkscape:window-width="1280"
     inkscape:window-height="751"
     inkscape:window-x="0"
     inkscape:window-y="1"
     inkscape:window-maximized="1" />
  <metadata
     id="metadata7">
    <rdf:RDF>
      <cc:Work
         rdf:about="">
        <dc:format>image/svg+xml</dc:format>
        <dc:type
           rdf:resource="http://purl.org/dc/dcmitype/StillImage" />
        <dc:title />
      </cc:Work>
    </rdf:RDF>
  </metadata>
  <g
     inkscape:label="Layer 1"
     inkscape:groupmode="layer"
     id="layer1"
     transform="translate(1802.8611,65.750946)">
    <g
       id="g8091">
      <g
         style="font-style:normal;font-variant:normal;font-weight:100;font-stretch:normal;font-size:720px;line-height:125%;font-family:Bauhaus;-inkscape-font-specification:'Bauhaus, Thin';text-align:start;letter-spacing:0px;word-spacing:0px;writing-mode:lr-tb;text-anchor:start;fill:#ffffff;fill-opacity:1;stroke:none;stroke-width:1px;stroke-linecap:butt;stroke-linejoin:miter;stroke-opacity:1"
         id="text8130">
        <path
           d="m -1717.9011,320.14938 169.92,-96.48 q -1.44,-0.72 -2.88,-1.44 -1.44,-1.44 -2.88,-3.6 -1.44,-1.44 -3.6,-3.6 -1.44,-2.16 -3.6,-4.32 -2.16,-1.44 -5.04,-2.88 -2.16,-2.16 -4.32,-4.32 -2.88,-1.44 -5.76,-2.88 -2.88,-2.16 -6.48,-3.6 -7.2,-3.6 -17.28,-5.04 -9.36,-1.44 -21.6,-1.44 -28.08,0 -49.68,10.08 -20.88,10.08 -35.28,29.52 -14.4,19.44 -21.6,41.04 -7.2,21.6 -7.2,44.64 0,0.72 0,1.44 0,0 0,0 0,0 0,0 0,0 0,0 0,0.72 0,0.72 0,0 0,0 0,20.88 7.2,40.32 7.92,18.72 22.32,36 14.4,17.28 35.28,25.92 21.6,8.64 48.96,8.64 29.52,0 48.96,-6.48 20.16,-7.2 30.24,-20.88 10.08,-14.4 18,-33.84 8.64,-19.44 15.12,-43.92 0,0 0,0 0,0 0,-0.72 0,0 0,0 0,0 0,0 0,0 0,0 0,0 0.72,-0.72 0,0 0,0 0,-0.72 0,-0.72 l 62.64,3.6 q 0,1.44 0,2.88 0,0.72 0.72,1.44 0,1.44 0,2.16 0,0.72 0,2.16 0,0.72 0,2.16 0,0.72 0.72,1.44 0,1.44 0,2.16 0,0.72 0,1.44 0,5.76 -0.72,12.24 -0.72,5.76 -2.16,12.24 -0.72,2.88 -2.16,6.48 -0.72,3.6 -1.44,6.48 -1.44,3.6 -2.88,7.2 -0.72,2.88 -2.16,6.48 -8.64,18 -23.04,35.28 -14.4,17.28 -35.28,32.4 -20.16,15.12 -47.52,22.32 -26.64,7.92 -59.76,7.92 -38.16,0 -70.56,-11.52 -32.4,-12.24 -58.32,-36.72 -26.64,-25.2 -39.6,-56.16 -12.96,-31.68 -12.96,-69.84 0,-40.32 10.8,-71.28 10.8,-30.96 32.4,-53.28 21.6,-22.32 45.36,-36.72 23.76,-14.4 49.68,-20.88 2.88,-0.72 5.04,-0.72 2.88,-0.72 5.76,-1.44 2.88,0 5.04,0 2.88,-0.72 5.76,-1.44 5.76,-0.72 10.8,-0.72 5.76,-0.72 10.8,-0.72 29.52,0 54.72,8.64 25.92,7.92 47.52,24.48 20.88,16.56 37.44,36.72 17.28,20.16 30.24,43.2 l -238.32,128.88 -28.08,-50.4 0,0 0,0 z"
           style=""
           id="path8075" />
        <path
           d="m -1372.5936,365.50938 0,-317.520003 67.68,0 0,84.960003 131.04,0 0,61.92 -131.04,0 0,175.68 q 0,10.08 1.44,18 1.44,7.92 4.32,15.12 2.88,7.2 12.24,10.8 10.08,2.88 27.36,2.88 l 79.92,-1.44 0,62.64 -84.96,0 q -0.72,0 -1.44,0 -0.72,0 -1.44,0 -0.72,0 -1.44,0 0,0 -0.72,0.72 -0.72,0 -1.44,0 -0.72,0 -1.44,0 -0.72,0 -1.44,0 0,0 -0.72,0 -24.48,0 -42.48,-7.2 -18,-7.2 -29.52,-22.32 -11.52,-15.12 -18,-32.4 -5.76,-17.28 -7.2,-36 -0.72,-1.44 -0.72,-2.88 0,-2.16 0,-4.32 0,-1.44 0,-2.88 0,-2.16 0,-4.32 l 0,-1.44 0,0 z"
           style=""
           id="path8077" />
        <path
           d="m -867.13111,478.54938 0,-198.72 q 0,-15.84 -6.48,-30.96 -5.76,-15.84 -18,-29.52 -12.24,-14.4 -34.56,-21.6 -22.32,-7.2 -54,-7.2 -5.04,0 -10.8,0.72 -5.04,0.72 -11.51999,2.16 -6.48,0.72 -12.96,2.88 -6.48,2.16 -12.96,5.76 -11.52,5.04 -22.32,14.4 -10.8,8.64 -20.88,20.88 -9.36,11.52 -15.12,28.8 -5.76,16.56 -7.2,38.16 0,28.8 7.92,50.4 7.92,20.88 23.76,35.28 16.56,13.68 33.84,22.32 18,7.92 37.43999,10.08 0.72,0 1.44,0 1.44,0 2.16,0 1.44,0.72 2.16,0.72 1.44,0 2.16,0 1.44,0 2.16,0 0.72,0 2.16,0 0.72,0 1.44,0 1.44,0 2.16,0 8.64,0 15.84,-0.72 7.92,-1.44 15.12,-4.32 3.6,-1.44 6.48,-2.88 3.6,-1.44 7.2,-2.88 2.88,-2.16 6.48,-4.32 3.6,-2.16 6.48,-5.04 3.6,-2.16 6.48,-5.04 3.6,-3.6 7.2,-6.48 3.6,-3.6 7.2,-6.48 3.6,-3.6 7.2,-7.2 l 0,78.48 q -0.72,1.44 -1.44,2.16 0,0 0,0 0,0 0,0 0,0 0,0 0,0.72 0,0.72 0,0 0,0 -8.64,5.76 -18,10.8 -9.36,4.32 -19.44,7.92 -10.08,2.88 -24.48,4.32 -14.4,2.16 -33.12,2.16 -0.72,0 -1.44,0 0,0 -0.72,0 -0.72,0 -1.44,0 -0.72,0 -0.72,0 -0.72,0 -1.44,0 -0.72,0 -1.44,0 -0.72,0 -1.44,0 0,0 -0.72,0 -33.11999,0 -61.91999,-11.52 -28.08,-12.24 -51.84,-36.72 -23.76,-25.2 -36,-57.6 -11.52,-33.12 -11.52,-74.16 0,-36 11.52,-66.96 11.52,-30.96 34.56,-56.88 23.04,-25.92 56.88,-38.88 33.84,-12.96 78.47999,-12.96 42.48,0 75.6,11.52 33.12,11.52 55.44,34.56 23.04,23.04 33.84,48.96 11.52,25.2 11.52,52.56 l 0,202.32 -68.4,0 0,0 0,0 z"
           style=""
           id="path8079" />
      </g>
      <g
         style="font-style:normal;font-variant:normal;font-weight:300;font-stretch:normal;font-size:720px;line-height:125%;font-family:Roboto;-inkscape-font-specification:'Roboto, Light';text-align:start;letter-spacing:0px;word-spacing:0px;writing-mode:lr-tb;text-anchor:start;fill:#ffffff;fill-opacity:1;stroke:none;stroke-width:1px;stroke-linecap:butt;stroke-linejoin:miter;stroke-opacity:1"
         id="text8077">
        <path
           d="m -658.54626,295.6553 q 0,-91.05468 38.32031,-145.54687 38.67187,-54.843751 107.57812,-54.843751 39.02344,0 68.20313,16.523441 29.53125,16.52343 48.86719,46.75781 l 0,-224.296876 42.1875,0 0,548.437496 -34.45313,0 -5.97656,-55.19531 q -19.33594,30.23438 -49.21875,46.40625 -29.88281,16.17188 -70.3125,16.17188 -68.20313,0 -106.875,-50.625 -38.32031,-50.97657 -38.32031,-136.40625 l 0,-7.38282 z m 42.1875,7.38282 q 0,68.90625 27.42187,109.6875 27.77344,40.78125 83.32031,40.78125 40.78125,0 67.85157,-17.92969 27.07031,-18.28125 42.1875,-50.27344 l 0,-180.35156 q -14.41407,-32.34375 -40.78125,-52.73438 -26.36719,-20.39062 -68.55469,-20.39062 -55.54688,0 -83.67188,45.70312 -27.77343,45.35157 -27.77343,118.125 l 0,7.38282 z"
           style=""
           id="path8082" />
        <path
           d="m -264.79626,286.86624 q 0,-84.02344 46.05468,-137.8125 46.05469,-53.789061 121.99219,-53.789061 76.289063,0 122.34375,53.789061 46.054688,53.78906 46.054688,137.8125 l 0,11.60156 q 0,84.375 -46.054688,138.16407 -45.703125,53.4375 -121.640625,53.4375 -76.640625,0 -122.695315,-53.4375 -46.05468,-53.78907 -46.05468,-138.16407 l 0,-11.60156 z m 42.1875,11.60156 q 0,66.09375 33.39843,111.09375 33.39844,45 93.164065,45 58.710938,0 92.1093754,-45 33.7499996,-45 33.7499996,-111.09375 l 0,-11.60156 q 0,-65.03906 -33.7499996,-110.39062 -33.7500004,-45.35157 -92.8125004,-45.35157 -59.0625,0 -92.46094,45.35157 -33.39843,45.35156 -33.39843,110.39062 l 0,11.60156 z"
           style=""
           id="path8084" />
        <path
           d="m 298.75842,454.56155 q 40.42969,0 71.36719,-23.90625 31.28906,-23.90625 31.28906,-66.44531 l 37.61719,0 0.70313,2.10938 q 1.40625,52.73437 -41.48438,88.24218 -42.89062,35.50782 -99.49219,35.50782 -75.9375,0 -118.47656,-53.4375 -42.1875,-53.4375 -42.1875,-136.75782 l 0,-14.76562 q 0,-82.96875 42.1875,-136.40625 42.1875,-53.437501 118.125,-53.437501 61.17188,0 101.95313,36.914061 40.78125,36.91406 39.375,97.03125 l -0.70313,2.10938 -37.61719,0 q 0,-45.70313 -29.88281,-72.77344 -29.88281,-27.42188 -73.125,-27.42188 -59.76562,0 -88.94531,43.94532 -29.17969,43.94531 -29.17969,110.03906 l 0,14.76562 q 0,67.14844 29.17969,111.09375 29.17969,43.59375 89.29687,43.59375 z"
           style=""
           id="path8086" />
        <path
           d="m 757.19592,385.30374 q 0,-26.71875 -22.14843,-46.40625 -21.79688,-20.03906 -79.10157,-32.69531 -67.5,-14.0625 -100.54687,-38.32031 -32.69531,-24.60938 -32.69531,-68.55469 0,-43.59375 36.5625,-73.82813 36.91406,-30.234371 97.38281,-30.234371 63.63281,0 101.60156,32.343751 37.96875,31.99219 36.21094,79.10156 l -0.70313,2.10938 -39.02343,0 q 0,-31.28907 -27.07032,-54.49219 -26.71875,-23.20313 -71.01562,-23.20313 -45.70313,0 -68.90625,20.03907 -23.20313,20.03906 -23.20313,46.75781 0,26.01562 19.6875,43.24219 20.03907,16.875 79.45313,29.88281 66.79687,14.76562 100.89844,41.13281 34.45312,26.36719 34.45312,71.01563 0,47.46093 -38.67187,77.34375 -38.32032,29.53125 -101.60157,29.53125 -69.25781,0 -108.98437,-33.04688 -39.375,-33.04687 -37.26563,-78.75 l 0.70313,-2.10937 38.67187,0 q 2.46094,41.13281 33.39844,59.76562 31.28906,18.63281 73.47656,18.63281 45.70313,0 72.07032,-20.39062 26.36718,-20.39063 26.36718,-48.86719 z"
           style=""
           id="path8088" />
      </g>
    </g>
  </g>
</svg>
