<?xml version="1.0" encoding="UTF-8" standalone="no"?>
<!-- Created with Inkscape (http://www.inkscape.org/) -->

<svg
   xmlns:dc="http://purl.org/dc/elements/1.1/"
   xmlns:cc="http://creativecommons.org/ns#"
   xmlns:rdf="http://www.w3.org/1999/02/22-rdf-syntax-ns#"
   xmlns:svg="http://www.w3.org/2000/svg"
   xmlns="http://www.w3.org/2000/svg"
   xmlns:sodipodi="http://sodipodi.sourceforge.net/DTD/sodipodi-0.dtd"
   xmlns:inkscape="http://www.inkscape.org/namespaces/inkscape"
   width="1294.0601mm"
   height="169.74898mm"
   viewBox="0 0 4585.2519 601.47275"
   id="svg2"
   version="1.1"
   inkscape:version="0.91 r13725"
   sodipodi:docname="eta-logo-contribute.svg">
  <defs
     id="defs4">
    <linearGradient
       id="783558c2-5088-44ab-8a03-29b84b614d0f"
       x1="2384.7109"
       y1="1641.2742"
       x2="1039.9078"
       y2="766.62933"
       gradientUnits="userSpaceOnUse"
       gradientTransform="scale(1.1134699,0.44526033)">
      <stop
         offset="0"
         stop-color="#150773"
         id="stop7" />
      <stop
         offset="0.51"
         stop-color="#5333ed"
         id="stop9" />
      <stop
         offset="1"
         stop-color="#2cd4d9"
         id="stop11" />
    </linearGradient>
  </defs>
  <sodipodi:namedview
     id="base"
     pagecolor="#ffffff"
     bordercolor="#666666"
     borderopacity="1.0"
     inkscape:pageopacity="0.0"
     inkscape:pageshadow="2"
     inkscape:zoom="0.2"
     inkscape:cx="1214.892"
     inkscape:cy="-9.7116015"
     inkscape:document-units="px"
     inkscape:current-layer="layer1"
     showgrid="false"
     fit-margin-top="0"
     fit-margin-left="0"
     fit-margin-right="0"
     fit-margin-bottom="0"
     inkscape:window-width="1280"
     inkscape:window-height="751"
     inkscape:window-x="0"
     inkscape:window-y="1"
     inkscape:window-maximized="1" />
  <metadata
     id="metadata7">
    <rdf:RDF>
      <cc:Work
         rdf:about="">
        <dc:format>image/svg+xml</dc:format>
        <dc:type
           rdf:resource="http://purl.org/dc/dcmitype/StillImage" />
        <dc:title></dc:title>
      </cc:Work>
    </rdf:RDF>
  </metadata>
  <g
     inkscape:label="Layer 1"
     inkscape:groupmode="layer"
     id="layer1"
     transform="translate(1802.8611,78.822029)">
    <flowRoot
       xml:space="preserve"
       id="flowRoot8088"
       style="font-style:normal;font-variant:normal;font-weight:500;font-stretch:normal;font-size:22.5px;line-height:125%;font-family:Roboto;-inkscape-font-specification:'Roboto, Medium';text-align:start;letter-spacing:0px;word-spacing:0px;writing-mode:lr-tb;text-anchor:start;fill:#000000;fill-opacity:1;stroke:none;stroke-width:1px;stroke-linecap:butt;stroke-linejoin:miter;stroke-opacity:1"
       transform="translate(-1802.8611,-65.750946)"><flowRegion
         id="flowRegion8090"><rect
           id="rect8092"
           width="3010"
           height="1220"
           x="-130"
           y="-304.17966" /></flowRegion><flowPara
         id="flowPara8094" /></flowRoot>    <g
       id="g12611">
      <g
         style="font-style:normal;font-variant:normal;font-weight:100;font-stretch:normal;font-size:720px;line-height:125%;font-family:Bauhaus;-inkscape-font-specification:'Bauhaus, Thin';text-align:start;letter-spacing:0px;word-spacing:0px;writing-mode:lr-tb;text-anchor:start;fill:#ffffff;fill-opacity:1;stroke:none;stroke-width:1px;stroke-linecap:butt;stroke-linejoin:miter;stroke-opacity:1"
         id="text8130">
        <path
           d="m -1717.9011,320.14938 169.92,-96.48 q -1.44,-0.72 -2.88,-1.44 -1.44,-1.44 -2.88,-3.6 -1.44,-1.44 -3.6,-3.6 -1.44,-2.16 -3.6,-4.32 -2.16,-1.44 -5.04,-2.88 -2.16,-2.16 -4.32,-4.32 -2.88,-1.44 -5.76,-2.88 -2.88,-2.16 -6.48,-3.6 -7.2,-3.6 -17.28,-5.04 -9.36,-1.44 -21.6,-1.44 -28.08,0 -49.68,10.08 -20.88,10.08 -35.28,29.52 -14.4,19.44 -21.6,41.04 -7.2,21.6 -7.2,44.64 0,0.72 0,1.44 0,0 0,0 0,0 0,0 0,0 0,0 0,0.72 0,0.72 0,0 0,0 0,20.88 7.2,40.32 7.92,18.72 22.32,36 14.4,17.28 35.28,25.92 21.6,8.64 48.96,8.64 29.52,0 48.96,-6.48 20.16,-7.2 30.24,-20.88 10.08,-14.4 18,-33.84 8.64,-19.44 15.12,-43.92 0,0 0,0 0,0 0,-0.72 0,0 0,0 0,0 0,0 0,0 0,0 0,0 0.72,-0.72 0,0 0,0 0,-0.72 0,-0.72 l 62.64,3.6 q 0,1.44 0,2.88 0,0.72 0.72,1.44 0,1.44 0,2.16 0,0.72 0,2.16 0,0.72 0,2.16 0,0.72 0.72,1.44 0,1.44 0,2.16 0,0.72 0,1.44 0,5.76 -0.72,12.24 -0.72,5.76 -2.16,12.24 -0.72,2.88 -2.16,6.48 -0.72,3.6 -1.44,6.48 -1.44,3.6 -2.88,7.2 -0.72,2.88 -2.16,6.48 -8.64,18 -23.04,35.28 -14.4,17.28 -35.28,32.4 -20.16,15.12 -47.52,22.32 -26.64,7.92 -59.76,7.92 -38.16,0 -70.56,-11.52 -32.4,-12.24 -58.32,-36.72 -26.64,-25.2 -39.6,-56.16 -12.96,-31.68 -12.96,-69.84 0,-40.32 10.8,-71.28 10.8,-30.96 32.4,-53.28 21.6,-22.32 45.36,-36.72 23.76,-14.4 49.68,-20.88 2.88,-0.72 5.04,-0.72 2.88,-0.72 5.76,-1.44 2.88,0 5.04,0 2.88,-0.72 5.76,-1.44 5.76,-0.72 10.8,-0.72 5.76,-0.72 10.8,-0.72 29.52,0 54.72,8.64 25.92,7.92 47.52,24.48 20.88,16.56 37.44,36.72 17.28,20.16 30.24,43.2 l -238.32,128.88 -28.08,-50.4 0,0 0,0 z"
           id="path8075"
           inkscape:connector-curvature="0" />
        <path
           d="m -1372.5936,365.50938 0,-317.520003 67.68,0 0,84.960003 131.04,0 0,61.92 -131.04,0 0,175.68 q 0,10.08 1.44,18 1.44,7.92 4.32,15.12 2.88,7.2 12.24,10.8 10.08,2.88 27.36,2.88 l 79.92,-1.44 0,62.64 -84.96,0 q -0.72,0 -1.44,0 -0.72,0 -1.44,0 -0.72,0 -1.44,0 0,0 -0.72,0.72 -0.72,0 -1.44,0 -0.72,0 -1.44,0 -0.72,0 -1.44,0 0,0 -0.72,0 -24.48,0 -42.48,-7.2 -18,-7.2 -29.52,-22.32 -11.52,-15.12 -18,-32.4 -5.76,-17.28 -7.2,-36 -0.72,-1.44 -0.72,-2.88 0,-2.16 0,-4.32 0,-1.44 0,-2.88 0,-2.16 0,-4.32 l 0,-1.44 0,0 z"
           id="path8077"
           inkscape:connector-curvature="0" />
        <path
           d="m -867.13111,478.54938 0,-198.72 q 0,-15.84 -6.48,-30.96 -5.76,-15.84 -18,-29.52 -12.24,-14.4 -34.56,-21.6 -22.32,-7.2 -54,-7.2 -5.04,0 -10.8,0.72 -5.04,0.72 -11.51999,2.16 -6.48,0.72 -12.96,2.88 -6.48,2.16 -12.96,5.76 -11.52,5.04 -22.32,14.4 -10.8,8.64 -20.88,20.88 -9.36,11.52 -15.12,28.8 -5.76,16.56 -7.2,38.16 0,28.8 7.92,50.4 7.92,20.88 23.76,35.28 16.56,13.68 33.84,22.32 18,7.92 37.43999,10.08 0.72,0 1.44,0 1.44,0 2.16,0 1.44,0.72 2.16,0.72 1.44,0 2.16,0 1.44,0 2.16,0 0.72,0 2.16,0 0.72,0 1.44,0 1.44,0 2.16,0 8.64,0 15.84,-0.72 7.92,-1.44 15.12,-4.32 3.6,-1.44 6.48,-2.88 3.6,-1.44 7.2,-2.88 2.88,-2.16 6.48,-4.32 3.6,-2.16 6.48,-5.04 3.6,-2.16 6.48,-5.04 3.6,-3.6 7.2,-6.48 3.6,-3.6 7.2,-6.48 3.6,-3.6 7.2,-7.2 l 0,78.48 q -0.72,1.44 -1.44,2.16 0,0 0,0 0,0 0,0 0,0 0,0 0,0.72 0,0.72 0,0 0,0 -8.64,5.76 -18,10.8 -9.36,4.32 -19.44,7.92 -10.08,2.88 -24.48,4.32 -14.4,2.16 -33.12,2.16 -0.72,0 -1.44,0 0,0 -0.72,0 -0.72,0 -1.44,0 -0.72,0 -0.72,0 -0.72,0 -1.44,0 -0.72,0 -1.44,0 -0.72,0 -1.44,0 0,0 -0.72,0 -33.11999,0 -61.91999,-11.52 -28.08,-12.24 -51.84,-36.72 -23.76,-25.2 -36,-57.6 -11.52,-33.12 -11.52,-74.16 0,-36 11.52,-66.96 11.52,-30.96 34.56,-56.88 23.04,-25.92 56.88,-38.88 33.84,-12.96 78.47999,-12.96 42.48,0 75.6,11.52 33.12,11.52 55.44,34.56 23.04,23.04 33.84,48.96 11.52,25.2 11.52,52.56 l 0,202.32 -68.4,0 0,0 0,0 z"
           id="path8079"
           inkscape:connector-curvature="0" />
      </g>
      <g
         id="text8098"
         style="font-style:normal;font-variant:normal;font-weight:300;font-stretch:normal;font-size:779.13739014px;line-height:125%;font-family:Roboto;-inkscape-font-specification:'Roboto, Light';text-align:start;letter-spacing:0px;word-spacing:0px;writing-mode:lr-tb;text-anchor:start;fill:#ffffff;fill-opacity:1;stroke:none;stroke-width:1px;stroke-linecap:butt;stroke-linejoin:miter;stroke-opacity:1">
        <path
           id="path12591"
           d="m -454.3769,484.22644 q 43.75039,0 77.22895,-25.86979 33.859,-25.8698 33.859,-71.90282 l 40.70689,0 0.76087,2.28263 q 1.52176,57.06573 -44.8917,95.48998 -46.41346,38.42426 -107.66401,38.42426 -82.17464,0 -128.20766,-57.8266 -45.65259,-57.82661 -45.65259,-147.99045 l 0,-15.97841 q 0,-89.78341 45.65259,-147.61001 45.65258,-57.826604 127.82722,-57.826604 66.19625,0 110.32708,39.946004 44.13083,39.94601 42.60907,105.00094 l -0.76087,2.28263 -40.70689,0 q 0,-49.45696 -32.33724,-78.7507 -32.33725,-29.67418 -79.13115,-29.67418 -64.67449,0 -96.25085,47.55477 -31.57637,47.55477 -31.57637,119.07715 l 0,15.97841 q 0,72.66369 31.57637,120.21846 31.57636,47.17433 96.63129,47.17433 z"
           inkscape:connector-curvature="0" />
        <path
           id="path12593"
           d="m -230.2988,302.75743 q 0,-90.92472 49.83741,-149.13176 49.8374,-58.207044 132.012043,-58.207044 82.555085,0 132.392486,58.207044 49.837401,58.20704 49.837401,149.13176 l 0,12.55446 q 0,91.30517 -49.837401,149.51221 -49.456963,57.8266 -131.63161,57.8266 -82.935519,0 -132.772919,-57.8266 -49.83741,-58.20704 -49.83741,-149.51221 l 0,-12.55446 z m 45.65259,12.55446 q 0,71.52238 36.14162,120.21847 36.14163,48.69608 100.816119,48.69608 63.533176,0 99.674803,-48.69608 36.522065,-48.69609 36.522065,-120.21847 l 0,-12.55446 q 0,-70.38106 -36.522065,-119.45758 -36.522065,-49.07653 -100.435679,-49.07653 -63.913613,0 -100.055243,49.07653 -36.14162,49.07652 -36.14162,119.45758 l 0,12.55446 z"
           inkscape:connector-curvature="0" />
        <path
           id="path12595"
           d="m 269.21656,103.02739 4.18482,71.52238 q 20.16323,-37.66338 53.64179,-58.20704 33.47856,-20.924104 79.51158,-20.924104 66.95711,0 101.95743,41.087324 35.00031,40.70688 35.00031,127.44679 l 0,250.70876 -45.65258,0 0,-250.32832 q 0,-70.7615 -26.63067,-100.05524 -26.25024,-29.29374 -74.94633,-29.29374 -48.69608,0 -78.7507,23.9676 -29.67418,23.96761 -42.98951,64.29405 l 0,291.41565 -45.65258,0 0,-411.63411 40.32644,0 z"
           inkscape:connector-curvature="0" />
        <path
           id="path12597"
           d="m 733.73152,-2.3539859 0,105.3813759 90.54428,0 0,37.28294 -90.54428,0 0,268.20892 q 0,40.32644 14.45665,57.44616 14.83709,16.73928 39.18513,16.73928 8.36964,0 15.97841,-0.76087 7.9892,-1.14132 18.64147,-3.42395 l 6.84788,33.859 q -9.13051,4.56526 -22.82629,7.22833 -13.31533,3.0435 -26.63067,3.0435 -43.36995,0 -67.718,-27.39155 -23.9676,-27.39155 -23.9676,-86.7399 l 0,-268.20892 -71.14194,0 0,-37.28294 71.14194,0 0,-105.3813759 46.03302,0 z"
           inkscape:connector-curvature="0" />
        <path
           id="path12599"
           d="m 1101.6153,142.21252 -32.3373,-2.28263 q -42.9895,0 -70.76147,24.34805 -27.39155,23.9676 -39.18514,66.19624 l 0,284.18732 -45.65258,0 0,-411.63411 39.94601,0 5.70657,68.47887 0,4.56526 q 17.8806,-38.04382 47.93521,-59.34836 30.0546,-21.304534 71.5224,-21.304534 8.3696,0 15.9784,1.521753 7.6087,1.141314 12.5544,2.663067 l -5.7065,42.609074 z"
           inkscape:connector-curvature="0" />
        <path
           id="path12601"
           d="m 1230.9643,514.6615 -45.2722,0 0,-411.63411 45.2722,0 0,411.63411 z m 0,-529.569946 -45.2722,0 0,-63.913614 45.2722,0 0,63.913614 z"
           inkscape:connector-curvature="0" />
        <path
           id="path12603"
           d="m 1688.251,320.25759 q 0,92.44648 -41.8482,147.61001 -41.8482,54.7831 -115.2728,54.7831 -44.8917,0 -77.9898,-17.88059 -32.7177,-18.26104 -53.2614,-51.7396 l -7.6087,61.63099 -35.7612,0 0,-593.48356 45.6526,0 0,245.00219 q 20.5436,-33.859 52.5004,-52.12003 31.9568,-18.641474 75.7072,-18.641474 74.1855,0 116.0337,59.348354 41.8482,58.96792 41.8482,157.50141 l 0,7.9892 z m -46.033,-7.9892 q 0,-78.75071 -30.4351,-127.82723 -30.435,-49.45696 -90.1638,-49.45696 -47.1744,0 -76.0877,23.20673 -28.9133,22.82629 -43.3699,59.34835 l 0,188.3169 q 15.2175,35.76119 44.8917,56.68529 30.0546,20.54366 75.3267,20.54366 59.7288,0 89.7834,-44.13083 30.0547,-44.13083 30.0547,-118.69671 l 0,-7.9892 z"
           inkscape:connector-curvature="0" />
        <path
           id="path12605"
           d="m 2058.0369,447.70438 q -19.7828,36.14163 -53.2614,55.54397 -33.0981,19.40235 -78.7507,19.40235 -65.0549,0 -101.9574,-44.13083 -36.9025,-44.13083 -36.9025,-136.95774 l 0,-238.53474 45.6526,0 0,239.29561 q 0,75.32676 25.4893,108.04445 25.8698,32.71768 73.0441,32.71768 51.3592,0 81.7943,-22.82629 30.8154,-23.20673 43.3699,-63.15274 l 0,-294.07871 45.6526,0 0,411.63411 -40.3265,0 -3.8043,-66.95712 z"
           inkscape:connector-curvature="0" />
        <path
           id="path12607"
           d="m 2293.528,-2.3539859 0,105.3813759 90.5443,0 0,37.28294 -90.5443,0 0,268.20892 q 0,40.32644 14.4567,57.44616 14.8371,16.73928 39.1851,16.73928 8.3697,0 15.9784,-0.76087 7.9892,-1.14132 18.6415,-3.42395 l 6.8479,33.859 q -9.1305,4.56526 -22.8263,7.22833 -13.3154,3.0435 -26.6307,3.0435 -43.3699,0 -67.718,-27.39155 -23.9676,-27.39155 -23.9676,-86.7399 l 0,-268.20892 -71.1419,0 0,-37.28294 71.1419,0 0,-105.3813759 46.033,0 z"
           inkscape:connector-curvature="0" />
        <path
           id="path12609"
           d="m 2629.8355,522.6507 q -79.892,0 -129.7294,-56.30485 -49.8374,-56.68529 -49.8374,-145.32738 l 0,-20.9241 q 0,-89.02254 50.2179,-146.84914 50.5982,-57.826604 125.1641,-57.826604 74.9463,0 115.6532,48.315644 41.0873,47.93522 41.0873,129.34899 l 0,35.38075 -286.4699,0 0,12.55446 q 0,70.38106 35.3807,116.79452 35.7612,46.41345 98.5335,46.41345 37.6634,0 69.2398,-12.17402 31.5764,-12.55446 52.5005,-33.47856 l 19.4023,31.19593 q -21.685,22.82629 -57.0657,38.04382 -35.0003,14.83709 -84.0769,14.83709 z m -4.1848,-388.42738 q -52.5005,0 -86.3595,37.66338 -33.8589,37.66338 -39.5655,95.48998 l 1.1413,2.28263 235.8717,0 0,-9.51095 q 0,-54.7831 -28.9133,-90.16385 -28.5329,-35.76119 -82.1747,-35.76119 z"
           inkscape:connector-curvature="0" />
      </g>
    </g>
  </g>
</svg>
