<?xml version="1.0" encoding="UTF-8" standalone="no"?>
<svg
   xmlns:dc="http://purl.org/dc/elements/1.1/"
   xmlns:cc="http://creativecommons.org/ns#"
   xmlns:rdf="http://www.w3.org/1999/02/22-rdf-syntax-ns#"
   xmlns:svg="http://www.w3.org/2000/svg"
   xmlns="http://www.w3.org/2000/svg"
   xmlns:sodipodi="http://sodipodi.sourceforge.net/DTD/sodipodi-0.dtd"
   xmlns:inkscape="http://www.inkscape.org/namespaces/inkscape"
   width="128"
   height="128"
   viewBox="0 0 128 128"
   id="svg2"
   version="1.1"
   inkscape:version="0.91 r13725"
   sodipodi:docname="tuts.svg">
  <metadata
     id="metadata43">
    <rdf:RDF>
      <cc:Work
         rdf:about="">
        <dc:format>image/svg+xml</dc:format>
        <dc:type
           rdf:resource="http://purl.org/dc/dcmitype/StillImage" />
      </cc:Work>
    </rdf:RDF>
  </metadata>
  <defs
     id="defs41" />
  <sodipodi:namedview
     pagecolor="#ffffff"
     bordercolor="#666666"
     borderopacity="1"
     objecttolerance="10"
     gridtolerance="10"
     guidetolerance="10"
     inkscape:pageopacity="0"
     inkscape:pageshadow="2"
     inkscape:window-width="1280"
     inkscape:window-height="751"
     id="namedview39"
     showgrid="false"
     inkscape:zoom="1.84375"
     inkscape:cx="-110.64407"
     inkscape:cy="64"
     inkscape:window-x="-18"
     inkscape:window-y="5"
     inkscape:window-maximized="0"
     inkscape:current-layer="svg2" />
  <title
     id="title4">features-nextgen</title>
  <g
     style="fill:#2cd4d9;fill-opacity:1"
     id="g3"
     transform="matrix(0.1796875,0,0,0.1796875,20.711862,15.28814)">
    <g
       style="fill:#2cd4d9;fill-opacity:1"
       id="g5">
      <path
         style="fill:#2cd4d9;fill-opacity:1"
         d="m 418.472,17.102 -214.313,0 0,-0.534 C 204.159,7.432 196.727,0 187.591,0 l -34.205,0 c -9.136,0 -16.568,7.432 -16.568,16.568 l 0,0.534 -43.29,0 c -13.851,0 -25.119,11.268 -25.119,25.119 l 0,444.66 c 0,13.851 11.268,25.119 25.119,25.119 l 324.944,0 c 13.851,0 25.119,-11.268 25.119,-25.119 l 0,-444.66 c 0,-13.85 -11.268,-25.119 -25.119,-25.119 z m -265.62,-0.534 c 0,-0.295 0.239,-0.534 0.534,-0.534 l 34.205,0 c 0.295,0 0.534,0.239 0.534,0.534 l 0,79.083 -13.19,-8.794 c -1.347,-0.898 -2.897,-1.347 -4.447,-1.347 -1.55,0 -3.1,0.449 -4.447,1.347 l -13.19,8.794 0,-79.083 z m -50.238,479.399 -9.086,0 c -5.01,0 -9.086,-4.076 -9.086,-9.086 l 0,-444.66 c 0,-5.01 4.076,-9.086 9.086,-9.086 l 9.086,0 0,462.832 z m 324.944,-9.086 -10e-4,0 c 0,5.01 -4.076,9.086 -9.086,9.086 l -299.824,0 0,-462.831 18.171,0 0,77.495 c 0,2.957 1.627,5.674 4.234,7.069 2.607,1.395 5.77,1.243 8.229,-0.399 l 21.207,-14.138 21.207,14.138 c 1.341,0.895 2.892,1.347 4.448,1.347 1.297,0 2.597,-0.314 3.783,-0.948 2.606,-1.395 4.234,-4.112 4.234,-7.069 l 0,-77.495 214.313,0 c 5.01,0 9.086,4.076 9.086,9.086 l 0,444.659 z"
         id="path7"
         inkscape:connector-curvature="0" />
    </g>
  </g>
  <text
     xml:space="preserve"
     style="font-style:normal;font-variant:normal;font-weight:normal;font-stretch:normal;font-size:18.40172386px;line-height:125%;font-family:'Brandon Text';-inkscape-font-specification:'Brandon Text, Normal';text-align:start;letter-spacing:0px;word-spacing:0px;writing-mode:lr-tb;text-anchor:start;fill:#5333ed;fill-opacity:1;stroke:none;stroke-width:1px;stroke-linecap:butt;stroke-linejoin:miter;stroke-opacity:1"
     x="53.776268"
     y="72.085442"
     id="text8088"
     sodipodi:linespacing="125%"><tspan
       sodipodi:role="line"
       id="tspan8090"
       x="53.776268"
       y="72.085442">tuts</tspan></text>
</svg>
