<?xml version="1.0" encoding="UTF-8" standalone="no"?>
<!-- Created with Inkscape (http://www.inkscape.org/) -->

<svg
   xmlns:dc="http://purl.org/dc/elements/1.1/"
   xmlns:cc="http://creativecommons.org/ns#"
   xmlns:rdf="http://www.w3.org/1999/02/22-rdf-syntax-ns#"
   xmlns:svg="http://www.w3.org/2000/svg"
   xmlns="http://www.w3.org/2000/svg"
   xmlns:sodipodi="http://sodipodi.sourceforge.net/DTD/sodipodi-0.dtd"
   xmlns:inkscape="http://www.inkscape.org/namespaces/inkscape"
   width="177.57764mm"
   height="194.03403mm"
   viewBox="0 0 629.21209 687.52214"
   id="svg8090"
   version="1.1"
   inkscape:version="0.91 r13725"
   sodipodi:docname="etlaswhite.svg"
   inkscape:export-filename="/Users/jyothsnasrinivas/Eta/logo/etlas.png"
   inkscape:export-xdpi="90"
   inkscape:export-ydpi="90">
  <defs
     id="defs8092" />
  <sodipodi:namedview
     id="base"
     pagecolor="#ffffff"
     bordercolor="#666666"
     borderopacity="1.0"
     inkscape:pageopacity="0.0"
     inkscape:pageshadow="2"
     inkscape:zoom="0.3"
     inkscape:cx="-283.66284"
     inkscape:cy="479.07354"
     inkscape:document-units="px"
     inkscape:current-layer="layer1"
     showgrid="false"
     inkscape:window-width="1280"
     inkscape:window-height="751"
     inkscape:window-x="0"
     inkscape:window-y="0"
     inkscape:window-maximized="0"
     fit-margin-top="0"
     fit-margin-left="0"
     fit-margin-right="0"
     fit-margin-bottom="0" />
  <metadata
     id="metadata8095">
    <rdf:RDF>
      <cc:Work
         rdf:about="">
        <dc:format>image/svg+xml</dc:format>
        <dc:type
           rdf:resource="http://purl.org/dc/dcmitype/StillImage" />
        <dc:title></dc:title>
      </cc:Work>
    </rdf:RDF>
  </metadata>
  <g
     inkscape:label="Layer 1"
     inkscape:groupmode="layer"
     id="layer1"
     transform="translate(-30.388026,-276.93298)">
    <g
       transform="matrix(3.4116292,0,0,3.4116292,-1694.424,-1080.6012)"
       id="g8136">
      <path
         style="fill:#fefefe;fill-opacity:1;fill-rule:evenodd;stroke:none;stroke-width:1px;stroke-linecap:butt;stroke-linejoin:miter;stroke-opacity:1"
         d="m 534,428.3622 c -7.398,22.72397 -9.36675,39.38944 0.5,60 17.42794,29.61548 38.57163,31.42331 68,27 11.48312,-2.36273 24.82571,-9.07493 36.5,-8 26.89777,2.47665 46.1999,21.99225 51,45 -18.08399,29.53756 -53.8446,48.41752 -86,47 -72.26674,-3.18577 -113.9933,-73.62661 -93,-134 6.11213,-14.4682 13.10059,-25.02971 23,-37 z"
         id="path8138"
         inkscape:connector-curvature="0"
         sodipodi:nodetypes="cccscscc" />
      <path
         style="fill:#fefefe;fill-opacity:1;fill-rule:evenodd;stroke:none;stroke-width:1px;stroke-linecap:butt;stroke-linejoin:miter;stroke-opacity:1"
         d="m 601.5,458.8622 c 0,0 14.18526,4.8054 21.18533,6.9252 2.63307,0.88224 6.20435,4.95609 8.81467,6.0748 10.15596,-4.26022 4.39496,-4.24836 -3,-10 14.39758,4.47643 14.94285,3.05745 15,-11 -5.29085,-0.25165 -8.29085,-3.00165 -9.96813,-5.68873 C 631.85458,442.48638 631.5,439.8622 631.5,439.8622 l -28,-23 4,13 c -9.99517,-0.0795 -16.68374,-4.14885 -25,-9 3.85597,8.23398 6.01711,11.69681 5.75869,14.49473 -0.25843,2.79791 -2.93642,4.93092 -8.75869,10.50527 -8.31761,7.96343 -11.09473,19.02852 -12,27 -0.71859,6.32765 0.028,12.9447 2,19 2.26615,6.95846 11,19.5 11,19.5 -27.70317,-1.17492 -45.88092,-26.84658 -47,-50 -0.89243,-18.4641 4.94233,-37.85474 19,-47.5 30.49444,-20.92286 59.38408,-19.0702 90,-7 20.82987,8.21209 46,37 46,37 0,0 -11.9079,28.0981 -29,38 -7.40508,4.26202 -15.50381,8.09734 -24,9 -9.04731,0.96122 -18.64327,-0.40239 -27,-4 -16.0127,-7.96163 -7,-28 -7,-28 z"
         id="path8140"
         inkscape:connector-curvature="0"
         sodipodi:nodetypes="cccccccccccssscsssccscc" />
      <path
         style="fill:#fefefe;fill-opacity:1;fill-rule:evenodd;stroke:none;stroke-width:0.55503565px;stroke-linecap:butt;stroke-linejoin:miter;stroke-opacity:1"
         d="m 624.39664,444.48629 c 0.61745,-0.56609 -0.27752,-2.49766 -0.27752,-2.49766 l -1.6651,-1.11007 c 0,0 -1.91653,-0.14476 -2.22014,0.55504 -0.37908,0.87371 1.38758,2.49766 1.38758,2.49766 0,0 2.07981,1.19255 2.77518,0.55503 z"
         id="path8142"
         inkscape:connector-curvature="0"
         sodipodi:nodetypes="sccscs" />
    </g>
  </g>
</svg>
