<?xml version="1.0" encoding="UTF-8" standalone="no"?>
<svg
   xmlns:dc="http://purl.org/dc/elements/1.1/"
   xmlns:cc="http://creativecommons.org/ns#"
   xmlns:rdf="http://www.w3.org/1999/02/22-rdf-syntax-ns#"
   xmlns:svg="http://www.w3.org/2000/svg"
   xmlns="http://www.w3.org/2000/svg"
   xmlns:sodipodi="http://sodipodi.sourceforge.net/DTD/sodipodi-0.dtd"
   xmlns:inkscape="http://www.inkscape.org/namespaces/inkscape"
   width="128"
   height="128"
   viewBox="0 0 128 128"
   id="svg2"
   version="1.1"
   inkscape:version="0.91 r13725"
   sodipodi:docname="tuts.svg">
  <metadata
     id="metadata43">
    <rdf:RDF>
      <cc:Work
         rdf:about="">
        <dc:format>image/svg+xml</dc:format>
        <dc:type
           rdf:resource="http://purl.org/dc/dcmitype/StillImage" />
      </cc:Work>
    </rdf:RDF>
  </metadata>
  <defs
     id="defs41" />
  <sodipodi:namedview
     pagecolor="#ffffff"
     bordercolor="#666666"
     borderopacity="1"
     objecttolerance="10"
     gridtolerance="10"
     guidetolerance="10"
     inkscape:pageopacity="0"
     inkscape:pageshadow="2"
     inkscape:window-width="1280"
     inkscape:window-height="751"
     id="namedview39"
     showgrid="false"
     inkscape:zoom="1.84375"
     inkscape:cx="-46.820101"
     inkscape:cy="64"
     inkscape:window-x="0"
     inkscape:window-y="1"
     inkscape:window-maximized="1"
     inkscape:current-layer="svg2" />
  <title
     id="title4">features-nextgen</title>
  <path
     d="m 102.87933,41.011919 -56.94754,0 c -5.276843,0 -9.590758,-4.294657 -9.590758,-9.590758 0,-5.276843 4.294657,-9.590758 9.590758,-9.590758 l 56.96679,0 c 1.42514,0 2.56139,-1.155513 2.56139,-2.561388 0,-1.425132 -1.15551,-2.561387 -2.56139,-2.561387 l -56.96679,0 c -8.10785,0 -14.713533,6.605683 -14.713533,14.713533 l 0,64.073199 c 0,8.10785 6.605683,14.71353 14.713533,14.71353 l 56.96679,0 c 1.42514,0 2.56139,-1.15551 2.56139,-2.56138 l 0,-64.073203 c -0.0193,-1.405875 -1.15551,-2.561388 -2.58064,-2.561388 z m -2.56139,64.073201 -54.38615,0 c -5.276843,0 -9.590758,-4.29466 -9.590758,-9.59076 l 0,-52.903239 c 2.580646,2.214733 5.931634,3.562831 9.590758,3.562831 l 54.38615,0 0,58.931168 0,0 z"
     id="path7"
     inkscape:connector-curvature="0"
     style="fill:#2cd4d9;fill-opacity:1" />
  <path
     d="m 46.74065,29.090876 c -1.425133,0 -2.561388,1.155513 -2.561388,2.561388 0,1.405874 1.155513,2.561387 2.561388,2.561387 l 48.10786,0 c 1.425133,0 2.561387,-1.155513 2.561387,-2.561387 0,-1.405875 -1.155513,-2.561388 -2.561387,-2.561388 l -48.10786,0 z"
     id="path9"
     inkscape:connector-curvature="0"
     style="fill:#5333ed;fill-opacity:1" />
  <g
     style="font-style:normal;font-variant:normal;font-weight:500;font-stretch:normal;font-size:48.14637756px;line-height:125%;font-family:Bryant-Medium;-inkscape-font-specification:'Bryant-Medium, Medium';text-align:start;letter-spacing:0px;word-spacing:0px;writing-mode:lr-tb;text-anchor:start;fill:#5333ed;fill-opacity:1;stroke:none;stroke-width:1px;stroke-linecap:butt;stroke-linejoin:miter;stroke-opacity:1"
     id="text8114">
    <path
       d="m 82.723457,86.406448 c 0,-1.348099 -1.05922,-2.407319 -2.407319,-2.407319 l -16.032743,0 0,-9.147812 8.570055,0 c 1.348098,0 2.407319,-1.05922 2.407319,-2.407319 0,-1.348098 -1.059221,-2.407319 -2.407319,-2.407319 l -8.570055,0 0,-8.473762 15.310548,0 c 1.348098,0 2.455465,-1.107367 2.455465,-2.455465 0,-1.348099 -1.107367,-2.359173 -2.455465,-2.359173 l -17.862306,0 c -1.444392,0 -2.599905,1.107367 -2.599905,2.551758 l 0,26.913825 c 0,1.444391 1.155513,2.599904 2.599905,2.599904 0,0 4.91093,0 18.584501,0 1.348099,0 2.407319,-1.05922 2.407319,-2.407318 z"
       style=""
       id="path8075" />
  </g>
</svg>
