<?xml version="1.0" encoding="UTF-8" standalone="no"?>
<!-- Created with Inkscape (http://www.inkscape.org/) -->

<svg
   xmlns:dc="http://purl.org/dc/elements/1.1/"
   xmlns:cc="http://creativecommons.org/ns#"
   xmlns:rdf="http://www.w3.org/1999/02/22-rdf-syntax-ns#"
   xmlns:svg="http://www.w3.org/2000/svg"
   xmlns="http://www.w3.org/2000/svg"
   xmlns:sodipodi="http://sodipodi.sourceforge.net/DTD/sodipodi-0.dtd"
   xmlns:inkscape="http://www.inkscape.org/namespaces/inkscape"
   width="104.30371mm"
   height="43.89439mm"
   viewBox="0 0 369.58008 155.5313"
   id="svg2"
   version="1.1"
   inkscape:version="0.91 r13725"
   inkscape:export-filename="/Users/jyothsnasrinivas/Eta/logo/etairc.png"
   inkscape:export-xdpi="90"
   inkscape:export-ydpi="90"
   sodipodi:docname="irc.svg">
  <defs
     id="defs4" />
  <sodipodi:namedview
     id="base"
     pagecolor="#ffffff"
     bordercolor="#666666"
     borderopacity="1.0"
     inkscape:pageopacity="0.0"
     inkscape:pageshadow="2"
     inkscape:zoom="0.6"
     inkscape:cx="-360.25616"
     inkscape:cy="31.937452"
     inkscape:document-units="px"
     inkscape:current-layer="layer1"
     showgrid="false"
     inkscape:window-width="1280"
     inkscape:window-height="751"
     inkscape:window-x="0"
     inkscape:window-y="1"
     inkscape:window-maximized="1"
     fit-margin-top="0"
     fit-margin-left="0"
     fit-margin-right="0"
     fit-margin-bottom="0" />
  <metadata
     id="metadata7">
    <rdf:RDF>
      <cc:Work
         rdf:about="">
        <dc:format>image/svg+xml</dc:format>
        <dc:type
           rdf:resource="http://purl.org/dc/dcmitype/StillImage" />
        <dc:title></dc:title>
      </cc:Work>
    </rdf:RDF>
  </metadata>
  <g
     inkscape:label="Layer 1"
     inkscape:groupmode="layer"
     id="layer1"
     transform="translate(242.6042,-336.12265)">
    <g
       style="font-style:normal;font-variant:normal;font-weight:500;font-stretch:normal;font-size:312.5px;line-height:125%;font-family:Bryant-Medium;-inkscape-font-specification:'Bryant-Medium, Medium';text-align:start;letter-spacing:0px;word-spacing:0px;writing-mode:lr-tb;text-anchor:start;fill:#2cd4d9;fill-opacity:1;stroke:none;stroke-width:1px;stroke-linecap:butt;stroke-linejoin:miter;stroke-opacity:1"
       id="text8070"
       transform="matrix(0.725264,0,0,0.725264,-15.88363,113.71004)">
      <path
         d="m -156.97919,381.42468 c 0,-5.625 -4.0625,-10 -9.6875,-10 l -21.25,0 6.875,-53.125 c 0.625,-5.9375 -3.4375,-10.9375 -9.375,-11.5625 -5.9375,-0.625 -11.25,2.8125 -11.875,8.75 l -6.875,55.9375 -41.875,0 6.5625,-53.125 c 0.625,-5.9375 -3.125,-10.9375 -9.0625,-11.5625 -5.9375,-0.625 -10.9375,3.125 -11.5625,9.0625 l -7.1875,55.625 -24.375,0 c -5.625,0 -10,4.375 -10,10 0,5.625 4.375,10 10,10 l 21.875,0 -4.375,35.3125 -23.75,0 c -5.625,0 -9.6875,4.375 -9.6875,10 0,5.625 4.0625,10 9.6875,10 l 20.9375,0 -7.8125,61.25 c -0.625,5.9375 3.4375,11.25 9.375,11.875 5.9375,0.625 11.25,-3.4375 11.875,-9.375 l 8.125,-63.75 41.5625,0 -7.8125,61.25 c -0.625,5.9375 3.4375,11.25 9.375,11.875 5.9375,0.625 11.25,-3.4375 11.875,-9.375 l 7.8125,-63.75 24.375,0 c 5.625,0 10,-4.375 10,-10 0,-5.625 -4.375,-10 -10,-10 l -21.5625,0 4.375,-35.3125 23.75,0 c 5.625,0 9.6875,-4.375 9.6875,-10 z m -55,10 -4.0625,35.3125 -41.875,0 4.375,-35.3125 41.5625,0 z"
         style="fill:#2cd4d9;fill-opacity:1"
         id="path8068"
         inkscape:connector-curvature="0" />
      <path
         d="m -86.940125,328.29968 c 0,-9.375 -7.8125,-17.1875 -17.187495,-17.1875 -9.375,0 -16.875,7.8125 -16.875,17.1875 0,9.375 7.5,16.875 16.875,16.875 9.374995,0 17.187495,-7.5 17.187495,-16.875 z m -1.875,176.25 0,-110 c 0,-8.4375 -6.875,-15.3125 -15.312495,-15.3125 -8.4375,0 -15,6.875 -15,15.3125 l 0,110 c 0,8.4375 6.5625,15.3125 15,15.3125 8.437495,0 15.312495,-6.875 15.312495,-15.3125 z"
         style="fill:#2cd4d9;fill-opacity:1"
         id="path8070"
         inkscape:connector-curvature="0" />
      <path
         d="m 55.413391,391.42468 c 0,-7.5 -5.9375,-13.4375 -13.4375,-13.4375 -21.5625,0 -35.6249999,6.5625 -48.1249999,23.125 l 0,-6.5625 c 0,-8.4375 -7.1875001,-15.3125 -15.6250001,-15.3125 -8.4375,0 -15,6.875 -15,15.3125 l 0,110 c 0,8.4375 6.875,15.3125 15.3125,15.3125 8.4375,0 15.3125001,-6.875 15.3125001,-15.3125 l 0,-59.0625 c 0,-26.875 23.4374999,-40.3125 48.1249999,-40.3125 7.5,0 13.4375,-6.25 13.4375,-13.75 z"
         style="fill:#2cd4d9;fill-opacity:1"
         id="path8072"
         inkscape:connector-curvature="0" />
      <path
         d="m 196.97589,488.92468 c 0,-2.8125 -0.9375,-5.625 -3.125,-7.8125 -2.5,-2.8125 -6.25,-4.0625 -9.6875,-4.0625 -2.8125,0 -5.625,0.9375 -8.125,3.125 -9.375,8.4375 -20,14.375 -35,14.375 -25,0 -41.562499,-20.625 -41.562499,-45 0,-24.375 16.562499,-45 41.562499,-45 10.3125,0 20.3125,2.8125 29.6875,9.6875 2.5,1.875 5.625,2.8125 8.4375,2.8125 3.75,0 7.5,-1.875 10,-5 1.875,-2.5 2.8125,-5.3125 2.8125,-7.8125 0,-4.0625 -1.875,-8.125 -4.6875,-10.625 -14.375,-11.875 -28.75,-15.625 -46.25,-15.625 -39.6875,0 -71.562499,31.875 -71.562499,71.5625 0,39.6875 31.874999,71.5625 71.562499,71.5625 20,0 40.9375,-10 51.875,-22.1875 2.8125,-3.125 4.0625,-6.5625 4.0625,-10 z"
         style="fill:#2cd4d9;fill-opacity:1"
         id="path8074"
         inkscape:connector-curvature="0" />
    </g>
  </g>
</svg>
