<?xml version="1.0" encoding="UTF-8" standalone="no"?>
<svg
   xmlns:dc="http://purl.org/dc/elements/1.1/"
   xmlns:cc="http://creativecommons.org/ns#"
   xmlns:rdf="http://www.w3.org/1999/02/22-rdf-syntax-ns#"
   xmlns:svg="http://www.w3.org/2000/svg"
   xmlns="http://www.w3.org/2000/svg"
   xmlns:sodipodi="http://sodipodi.sourceforge.net/DTD/sodipodi-0.dtd"
   xmlns:inkscape="http://www.inkscape.org/namespaces/inkscape"
   width="128"
   height="128"
   viewBox="0 0 128 128"
   id="svg2"
   version="1.1"
   inkscape:version="0.91 r13725"
   sodipodi:docname="proposal.svg">
  <metadata
     id="metadata43">
    <rdf:RDF>
      <cc:Work
         rdf:about="">
        <dc:format>image/svg+xml</dc:format>
        <dc:type
           rdf:resource="http://purl.org/dc/dcmitype/StillImage" />
      </cc:Work>
    </rdf:RDF>
  </metadata>
  <defs
     id="defs41" />
  <sodipodi:namedview
     pagecolor="#ffffff"
     bordercolor="#666666"
     borderopacity="1"
     objecttolerance="10"
     gridtolerance="10"
     guidetolerance="10"
     inkscape:pageopacity="0"
     inkscape:pageshadow="2"
     inkscape:window-width="1280"
     inkscape:window-height="751"
     id="namedview39"
     showgrid="false"
     inkscape:zoom="1.84375"
     inkscape:cx="-117.61404"
     inkscape:cy="64"
     inkscape:window-x="0"
     inkscape:window-y="1"
     inkscape:window-maximized="1"
     inkscape:current-layer="svg2" />
  <title
     id="title4">features-nextgen</title>
  <path
     d="m 54.564231,83.046343 3.121812,-5.036523 c 0.749234,-1.207101 0.374617,-2.768007 -0.832484,-3.517241 -1.186288,-0.749235 -2.768006,-0.374618 -3.517241,0.832483 l -3.121812,5.036523 C 44.55362,89.498088 36.478533,94.742732 28.028829,94.742732 l -11.40502,0 c -1.415222,0 -2.539074,1.144665 -2.539074,2.559886 0,1.415222 1.144664,2.559886 2.539074,2.559886 l 11.425832,0 c 10.260355,-0.04162 19.91716,-6.160376 26.51459,-16.816161 z"
     id="path7-0"
     inkscape:connector-curvature="0"
     style="fill:#5333ed;fill-opacity:1" />
  <path
     d="M 115.31469,34.013083 102.95232,21.629895 c -0.99898,-0.998979 -2.60151,-0.998979 -3.600493,0 -0.99898,0.99898 -0.99898,2.60151 0,3.60049 l 8.033463,8.033463 c -0.0208,0 -0.0208,0 -0.0416,0 l -11.800454,0 c -10.239543,0 -19.91716,6.118752 -26.51459,16.774537 l -1.914711,3.101 c -0.749235,1.2071 -0.374618,2.768006 0.832483,3.517241 0.416242,0.249745 0.874107,0.374617 1.331973,0.374617 0.853295,0 1.685779,-0.437053 2.164456,-1.2071 l 1.914712,-3.101 C 79.018425,43.58664 87.093512,38.362808 95.543216,38.362808 l 11.779634,0 c 0.0208,0 0.0208,0 0.0416,0 l -8.033465,8.033463 c -0.99898,0.998979 -0.99898,2.60151 0,3.600489 0.49949,0.49949 1.144665,0.749235 1.810655,0.749235 0.66598,0 1.31116,-0.249745 1.81065,-0.749235 L 115.3355,37.613573 c 0.97817,-0.99898 0.97817,-2.622322 -0.0208,-3.60049 z m -5.43195,1.831463 c 0,-0.02081 0,-0.02081 0,-0.04162 0,-0.02081 0,-0.02081 0,-0.04162 l 0.0416,0.04162 -0.0416,0.04162 z"
     id="path9-3"
     inkscape:connector-curvature="0"
     style="fill:#5333ed;fill-opacity:1" />
  <path
     d="m 99.331015,111.45483 c 0.49949,0.49949 1.144665,0.74924 1.810655,0.74924 0.66598,0 1.31116,-0.24975 1.81065,-0.74924 L 115.3355,99.071645 c 0.99898,-0.99898 0.99898,-2.60151 0,-3.60049 L 102.95232,83.10878 c -0.99898,-0.99898 -2.60151,-0.99898 -3.600493,0 -0.99898,0.99898 -0.99898,2.60151 0,3.60049 l 8.033463,8.033462 c -0.0208,0 -0.0208,0 -0.0416,0 l -11.425836,0 c -8.428893,0 -16.524792,-5.244644 -22.185678,-14.381147 L 54.95966,50.038385 C 48.362231,39.361788 38.684614,33.263848 28.44507,33.263848 l -11.821261,0 c -1.415222,0 -2.539074,1.144665 -2.539074,2.559886 0,1.415221 1.144664,2.559886 2.539074,2.559886 l 11.800449,0 c 8.428893,0 16.524792,5.244644 22.185677,14.360335 l 18.772497,30.323201 c 6.597429,10.676597 16.275046,16.795348 26.514589,16.795348 l 11.425829,0 c 0.0208,0 0.0208,0 0.0416,0 l -8.033465,8.033466 c -0.978168,0.95735 -0.978168,2.55988 0,3.55886 z m 10.551725,-14.214648 0.0416,0.04162 -0.0416,0.04162 c 0,-0.02081 0,-0.02081 0,-0.04162 0,-0.02081 0,-0.02081 0,-0.04162 z"
     id="path11"
     inkscape:connector-curvature="0"
     style="fill:#2cd4d9" />
</svg>
