<?xml version="1.0" encoding="UTF-8" standalone="no"?>
<svg
   xmlns:dc="http://purl.org/dc/elements/1.1/"
   xmlns:cc="http://creativecommons.org/ns#"
   xmlns:rdf="http://www.w3.org/1999/02/22-rdf-syntax-ns#"
   xmlns:svg="http://www.w3.org/2000/svg"
   xmlns="http://www.w3.org/2000/svg"
   xmlns:sodipodi="http://sodipodi.sourceforge.net/DTD/sodipodi-0.dtd"
   xmlns:inkscape="http://www.inkscape.org/namespaces/inkscape"
   width="128"
   height="128"
   viewBox="0 0 128 128"
   id="svg2"
   version="1.1"
   inkscape:version="0.91 r13725"
   sodipodi:docname="recentfeatures.svg">
  <metadata
     id="metadata43">
    <rdf:RDF>
      <cc:Work
         rdf:about="">
        <dc:format>image/svg+xml</dc:format>
        <dc:type
           rdf:resource="http://purl.org/dc/dcmitype/StillImage" />
      </cc:Work>
    </rdf:RDF>
  </metadata>
  <defs
     id="defs41" />
  <sodipodi:namedview
     pagecolor="#ffffff"
     bordercolor="#666666"
     borderopacity="1"
     objecttolerance="10"
     gridtolerance="10"
     guidetolerance="10"
     inkscape:pageopacity="0"
     inkscape:pageshadow="2"
     inkscape:window-width="1280"
     inkscape:window-height="751"
     id="namedview39"
     showgrid="false"
     inkscape:zoom="1.84375"
     inkscape:cx="-33.898305"
     inkscape:cy="64"
     inkscape:window-x="-18"
     inkscape:window-y="5"
     inkscape:window-maximized="0"
     inkscape:current-layer="svg2" />
  <title
     id="title4">features-nextgen</title>
  <g
     transform="matrix(0.21875198,0,0,0.21875198,7.28764,7.6597899)"
     id="g8161">
    <path
       style="fill:#5333ed;fill-opacity:1"
       d="m 181.333,277.333 c -5.896,0 -10.667,4.771 -10.667,10.667 l 0,21.333 c 0,5.896 4.771,10.667 10.667,10.667 5.896,0 10.667,-4.771 10.667,-10.667 L 192,288 c 0,-5.896 -4.771,-10.667 -10.667,-10.667 z"
       id="path9"
       inkscape:connector-curvature="0" />
    <path
       style="fill:#5333ed;fill-opacity:1"
       d="m 224,277.333 c -5.896,0 -10.667,4.771 -10.667,10.667 l 0,21.333 c 0,5.896 4.771,10.667 10.667,10.667 5.896,0 10.667,-4.771 10.667,-10.667 l 0,-21.333 c 0,-5.896 -4.771,-10.667 -10.667,-10.667 z"
       id="path11"
       inkscape:connector-curvature="0" />
    <path
       style="fill:#5333ed;fill-opacity:1"
       d="M 266.667,277.333 C 260.771,277.333 256,282.104 256,288 l 0,21.333 c 0,5.896 4.771,10.667 10.667,10.667 5.896,0 10.667,-4.771 10.667,-10.667 l 0,-21.333 c -10e-4,-5.896 -4.771,-10.667 -10.667,-10.667 z"
       id="path13-9"
       inkscape:connector-curvature="0" />
    <circle
       style="fill:#5333ed;fill-opacity:1"
       cx="448"
       cy="298.66699"
       r="21.333"
       id="circle15" />
    <circle
       style="fill:#5333ed;fill-opacity:1"
       cx="384"
       cy="298.66699"
       r="21.333"
       id="circle17" />
    <path
       style="fill:#5333ed;fill-opacity:1"
       d="m 181.333,384 c -5.896,0 -10.667,4.771 -10.667,10.667 l 0,21.333 c 0,5.896 4.771,10.667 10.667,10.667 5.896,0 10.667,-4.771 10.667,-10.667 l 0,-21.333 C 192,388.771 187.229,384 181.333,384 Z"
       id="path19"
       inkscape:connector-curvature="0" />
    <path
       style="fill:#5333ed;fill-opacity:1"
       d="m 224,384 c -5.896,0 -10.667,4.771 -10.667,10.667 l 0,21.333 c 0,5.896 4.771,10.667 10.667,10.667 5.896,0 10.667,-4.771 10.667,-10.667 l 0,-21.333 C 234.667,388.771 229.896,384 224,384 Z"
       id="path21"
       inkscape:connector-curvature="0" />
    <path
       style="fill:#5333ed;fill-opacity:1"
       d="M 266.667,384 C 260.771,384 256,388.771 256,394.667 L 256,416 c 0,5.896 4.771,10.667 10.667,10.667 5.896,0 10.667,-4.771 10.667,-10.667 l 0,-21.333 C 277.333,388.771 272.563,384 266.667,384 Z"
       id="path23"
       inkscape:connector-curvature="0" />
    <circle
       style="fill:#5333ed;fill-opacity:1"
       cx="448"
       cy="405.33301"
       r="21.333"
       id="circle25" />
    <circle
       style="fill:#5333ed;fill-opacity:1"
       cx="384"
       cy="405.33301"
       r="21.333"
       id="circle27" />
    <path
       style="fill:#2cd4d9;fill-opacity:1"
       d="m 512,234.667 c 0,-35.292 -23.917,-64 -53.333,-64 -12.917,0 -30.958,5.594 -47,14.573 3.354,-40.938 9.708,-79.635 14.458,-104.885 1.729,-9.198 -0.729,-18.625 -6.75,-25.875 -6.208,-7.51 -15.458,-11.813 -25.354,-11.813 l -92.521,0 c -7.792,0 -14.958,4.229 -18.667,11.052 -3.75,6.844 -3.438,15.188 0.813,21.792 9.854,15.302 15.021,32.625 15.021,41.823 0,17.646 -19.146,32 -42.667,32 -23.521,0 -42.667,-14.354 -42.667,-32 0,-9.198 5.167,-26.521 15.042,-41.844 4.229,-6.583 4.542,-14.927 0.792,-21.771 C 225.459,46.896 218.292,42.667 210.5,42.667 l -92.521,0 c -9.896,0 -19.146,4.302 -25.354,11.813 -6.021,7.25 -8.479,16.677 -6.75,25.875 4.75,25.25 11.104,63.948 14.521,104.917 -16.104,-9.01 -34.146,-14.604 -47.063,-14.604 -29.417,0 -53.333,28.708 -53.333,64 0,35.292 23.917,64 53.333,64 12.917,0 30.958,-5.594 47,-14.583 -3.354,40.948 -9.708,79.646 -14.458,104.896 -1.729,9.198 0.729,18.625 6.75,25.875 6.229,7.51 15.458,11.813 25.354,11.813 l 10.021,0 c 0,23.531 19.146,42.667 42.667,42.667 l 298.667,0 c 23.521,0 42.667,-19.135 42.667,-42.667 l 0,-42.669 c 0,-12.805 -5.786,-24.174 -14.746,-32 8.96,-7.826 14.746,-19.195 14.746,-32 l 0,-42.667 c 0,-6.689 -1.684,-12.94 -4.439,-18.579 2.711,-7.857 4.438,-15.893 4.438,-24.087 z m -21.333,192 c 0,11.76 -9.563,21.333 -21.333,21.333 l -298.667,0 c -11.771,0 -21.333,-9.573 -21.333,-21.333 l 0,-42.667 c 0,-11.76 9.563,-21.333 21.333,-21.333 l 298.667,0 c 11.771,0 21.333,9.573 21.333,21.333 l 0,42.667 z m 0,-106.667 c 0,11.76 -9.563,21.333 -21.333,21.333 l -298.667,0 c -11.771,0 -21.333,-9.573 -21.333,-21.333 l 0,-42.667 c 0,-11.76 9.563,-21.333 21.333,-21.333 l 298.667,0 c 11.771,0 21.333,9.573 21.333,21.333 l 0,42.667 z m -0.585,-79.716 c -6.169,-3.471 -13.181,-5.617 -20.749,-5.617 l -298.666,0 C 147.146,234.667 128,253.802 128,277.334 L 128,320 c 0,12.805 5.786,24.174 14.746,32 -8.96,7.826 -14.746,19.195 -14.746,32 l 0,21.333 -10.021,0 c -3.521,0 -6.792,-1.5 -8.938,-4.104 -1.146,-1.375 -2.958,-4.292 -2.208,-8.313 4.854,-25.75 11.354,-65.229 14.75,-107.083 0.667,-7.885 -3.063,-15.438 -9.708,-19.719 -6.625,-4.281 -15.042,-4.49 -21.896,-0.677 -14.687,8.219 -28.979,11.896 -36.646,11.896 -17.646,0 -32,-19.135 -32,-42.667 0,-23.532 14.355,-42.666 32,-42.666 7.667,0 21.958,3.677 36.646,11.885 6.833,3.833 15.208,3.604 21.896,-0.667 6.646,-4.281 10.375,-11.844 9.708,-19.708 -3.417,-41.865 -9.896,-81.344 -14.75,-107.094 -0.75,-4.021 1.063,-6.938 2.208,-8.313 2.146,-2.615 5.417,-4.104 8.938,-4.104 l 92.458,-0.052 C 199.417,81.052 192,102.51 192,117.333 c 0,29.406 28.708,53.333 64,53.333 35.292,0 64,-23.927 64,-53.333 C 320,102.51 312.583,81.052 301.5,64 l 92.521,0 c 3.521,0 6.792,1.49 8.938,4.104 1.146,1.375 2.958,4.292 2.208,8.313 -4.854,25.75 -11.333,65.229 -14.75,107.073 -0.667,7.885 3.063,15.448 9.708,19.729 6.646,4.26 15.021,4.542 21.896,0.677 C 436.708,195.677 451,192 458.667,192 c 17.646,0 32,19.135 32,42.667 0,1.885 -0.378,3.744 -0.585,5.617 z"
       id="path29"
       inkscape:connector-curvature="0" />
  </g>
</svg>
