<?xml version="1.0" encoding="UTF-8" standalone="no"?>
<svg
   xmlns:dc="http://purl.org/dc/elements/1.1/"
   xmlns:cc="http://creativecommons.org/ns#"
   xmlns:rdf="http://www.w3.org/1999/02/22-rdf-syntax-ns#"
   xmlns:svg="http://www.w3.org/2000/svg"
   xmlns="http://www.w3.org/2000/svg"
   xmlns:sodipodi="http://sodipodi.sourceforge.net/DTD/sodipodi-0.dtd"
   xmlns:inkscape="http://www.inkscape.org/namespaces/inkscape"
   width="128"
   height="128"
   viewBox="0 0 128 128"
   id="svg2"
   version="1.1"
   inkscape:version="0.91 r13725"
   sodipodi:docname="vertx.svg">
  <metadata
     id="metadata43">
    <rdf:RDF>
      <cc:Work
         rdf:about="">
        <dc:format>image/svg+xml</dc:format>
        <dc:type
           rdf:resource="http://purl.org/dc/dcmitype/StillImage" />
      </cc:Work>
    </rdf:RDF>
  </metadata>
  <defs
     id="defs41" />
  <sodipodi:namedview
     pagecolor="#ffffff"
     bordercolor="#666666"
     borderopacity="1"
     objecttolerance="10"
     gridtolerance="10"
     guidetolerance="10"
     inkscape:pageopacity="0"
     inkscape:pageshadow="2"
     inkscape:window-width="1280"
     inkscape:window-height="751"
     id="namedview39"
     showgrid="false"
     inkscape:zoom="1.84375"
     inkscape:cx="-94.790091"
     inkscape:cy="64"
     inkscape:window-x="0"
     inkscape:window-y="1"
     inkscape:window-maximized="1"
     inkscape:current-layer="svg2" />
  <title
     id="title4">features-nextgen</title>
  <g
     style="font-style:normal;font-variant:normal;font-weight:normal;font-stretch:normal;font-size:35px;line-height:125%;font-family:'Brandon Text';-inkscape-font-specification:'Brandon Text, Normal';text-align:start;letter-spacing:0px;word-spacing:0px;writing-mode:lr-tb;text-anchor:start;fill:#2cd4d9;fill-opacity:1;stroke:none;stroke-width:1px;stroke-linecap:butt;stroke-linejoin:miter;stroke-opacity:1"
     id="text8075">
    <path
       d="m 21.662459,80.236187 c 0.105,0.21 0.35,0.385 0.595,0.385 l 0.35,0 c 0.28,0 0.49,-0.175 0.595,-0.385 l 10.64,-23.555 c 0.21,-0.455 -0.07,-0.91 -0.595,-0.91 l -1.4,0 c -0.28,0 -0.525,0.21 -0.595,0.385 l -8.715,19.6 -0.14,0 -8.715,-19.6 c -0.07,-0.175 -0.28,-0.385 -0.595,-0.385 l -1.4,0 c -0.525,0 -0.805,0.455 -0.595,0.91 l 10.57,23.555 z"
       style=""
       id="path8068" />
    <path
       d="m 37.381287,79.606187 c 0,0.35 0.28,0.665 0.665,0.665 l 13.79,0 c 0.385,0 0.665,-0.315 0.665,-0.665 l 0,-1.015 c 0,-0.35 -0.28,-0.665 -0.665,-0.665 l -11.76,0 0,-8.925 10.045,0 c 0.35,0 0.665,-0.28 0.665,-0.665 l 0,-1.015 c 0,-0.35 -0.315,-0.665 -0.665,-0.665 l -10.045,0 0,-8.54 11.76,0 c 0.385,0 0.665,-0.315 0.665,-0.665 l 0,-1.015 c 0,-0.35 -0.28,-0.665 -0.665,-0.665 l -13.79,0 c -0.385,0 -0.665,0.315 -0.665,0.665 l 0,23.17 z"
       style=""
       id="path8070" />
    <path
       d="m 57.547303,79.606187 c 0,0.35 0.28,0.665 0.665,0.665 l 1.365,0 c 0.35,0 0.665,-0.315 0.665,-0.665 l 0,-8.925 6.685,0 4.55,9.065 c 0.175,0.35 0.35,0.525 0.77,0.525 l 1.68,0 c 0.595,0 0.84,-0.56 0.595,-1.015 l -4.795,-8.89 c 3.045,-1.225 5.18,-3.92 5.18,-7.14 0,-4.165 -3.43,-7.455 -7.63,-7.455 l -9.065,0 c -0.385,0 -0.665,0.315 -0.665,0.665 l 0,23.17 z m 2.765,-11.235 0,-10.045 6.79,0 c 2.695,0 5.04,2.275 5.04,4.935 0,2.87 -2.345,5.11 -5.04,5.11 l -6.79,0 z"
       style=""
       id="path8072" />
    <path
       d="m 84.342537,79.606187 c 0,0.35 0.315,0.665 0.665,0.665 l 1.33,0 c 0.35,0 0.665,-0.315 0.665,-0.665 l 0,-21.49 6.09,0 c 0.385,0 0.665,-0.315 0.665,-0.665 l 0,-1.015 c 0,-0.35 -0.28,-0.665 -0.665,-0.665 l -14.84,0 c -0.385,0 -0.665,0.315 -0.665,0.665 l 0,1.015 c 0,0.35 0.28,0.665 0.665,0.665 l 6.09,0 0,21.49 z"
       style=""
       id="path8074" />
    <path
       d="m 94.907068,78.311187 c 0,1.26 1.015,2.345 2.275,2.345 1.295,0 2.31,-1.085 2.31,-2.345 0,-1.26 -1.015,-2.275 -2.31,-2.275 -1.26,0 -2.275,1.015 -2.275,2.275 z"
       style=""
       id="path8076" />
    <path
       d="m 102.71699,79.291187 c -0.28,0.455 0,0.98 0.63,0.98 l 1.61,0 c 0.28,0 0.49,-0.14 0.595,-0.315 l 5.915,-9.905 0.035,0 5.985,9.905 c 0.07,0.14 0.315,0.315 0.595,0.315 l 1.61,0 c 0.595,0 0.875,-0.49 0.595,-0.98 l -7.07,-11.585 6.825,-10.955 c 0.28,-0.455 0,-0.98 -0.595,-0.98 l -1.89,0 c -0.28,0 -0.49,0.14 -0.595,0.315 l -5.46,9.275 -0.035,0 -5.39,-9.275 c -0.105,-0.175 -0.35,-0.315 -0.595,-0.315 l -1.89,0 c -0.595,0 -0.875,0.525 -0.595,0.98 l 6.825,10.955 -7.105,11.585 z"
       style=""
       id="path8078" />
  </g>
</svg>
