<?xml version="1.0" encoding="UTF-8" standalone="no"?>
<svg
   xmlns:dc="http://purl.org/dc/elements/1.1/"
   xmlns:cc="http://creativecommons.org/ns#"
   xmlns:rdf="http://www.w3.org/1999/02/22-rdf-syntax-ns#"
   xmlns:svg="http://www.w3.org/2000/svg"
   xmlns="http://www.w3.org/2000/svg"
   xmlns:sodipodi="http://sodipodi.sourceforge.net/DTD/sodipodi-0.dtd"
   xmlns:inkscape="http://www.inkscape.org/namespaces/inkscape"
   width="128"
   height="128"
   viewBox="0 0 128 128"
   id="svg2"
   version="1.1"
   inkscape:version="0.91 r13725"
   sodipodi:docname="web-server.svg">
  <metadata
     id="metadata33">
    <rdf:RDF>
      <cc:Work
         rdf:about="">
        <dc:format>image/svg+xml</dc:format>
        <dc:type
           rdf:resource="http://purl.org/dc/dcmitype/StillImage" />
      </cc:Work>
    </rdf:RDF>
  </metadata>
  <defs
     id="defs31" />
  <sodipodi:namedview
     pagecolor="#ffffff"
     bordercolor="#666666"
     borderopacity="1"
     objecttolerance="10"
     gridtolerance="10"
     guidetolerance="10"
     inkscape:pageopacity="0"
     inkscape:pageshadow="2"
     inkscape:window-width="1280"
     inkscape:window-height="751"
     id="namedview29"
     showgrid="false"
     inkscape:zoom="1.84375"
     inkscape:cx="-17.627119"
     inkscape:cy="64"
     inkscape:window-x="0"
     inkscape:window-y="1"
     inkscape:window-maximized="1"
     inkscape:current-layer="svg2" />
  <title
     id="title4">affiliate-badge</title>
  <g
     id="text8108"
     style="font-style:normal;font-variant:normal;font-weight:500;font-stretch:normal;font-size:22.5px;line-height:125%;font-family:Bryant-Medium;-inkscape-font-specification:'Bryant-Medium, Medium';text-align:start;letter-spacing:0px;word-spacing:0px;writing-mode:lr-tb;text-anchor:start;fill:#5333ed;fill-opacity:1;stroke:none;stroke-width:1px;stroke-linecap:butt;stroke-linejoin:miter;stroke-opacity:1">
    <path
       inkscape:connector-curvature="0"
       id="path8124"
       d="m 74.32606,76.587837 c 0,-0.63 -0.495,-1.125 -1.125,-1.125 l -7.4925,0 0,-4.275 4.005,0 c 0.63,0 1.125,-0.495 1.125,-1.125 0,-0.63 -0.495,-1.125 -1.125,-1.125 l -4.005,0 0,-3.96 7.155,0 c 0.63,0 1.1475,-0.5175 1.1475,-1.1475 0,-0.63 -0.5175,-1.1025 -1.1475,-1.1025 l -8.3475,0 c -0.675,0 -1.215,0.5175 -1.215,1.1925 l 0,12.5775 c 0,0.675 0.54,1.215 1.215,1.215 0,0 2.295,0 8.685,0 0.63,0 1.125,-0.495 1.125,-1.125 z" />
  </g>
  <path
     inkscape:connector-curvature="0"
     id="path7"
     style="fill:none;stroke:#2cd4d9;stroke-width:3px;stroke-linecap:round;stroke-linejoin:round"
     d="m 36.56,32.91 62.6,0 a 9.7,9.7 0 0 1 9.7,9.7 l 0,51.83 -82,0 0,-51.83 a 9.7,9.7 0 0 1 9.7,-9.7 z" />
  <path
     inkscape:connector-curvature="0"
     id="line9"
     d="m 26.860001,49.66 81.999999,0"
     style="fill:none;stroke:#2cd4d9;stroke-width:3px;stroke-linecap:round;stroke-linejoin:round" />
  <g
     id="g21">
    <path
       inkscape:connector-curvature="0"
       id="circle23"
       d="m 37.579999,41.52 a 2.4400001,2.4400001 0 0 1 -2.44,2.440001 2.4400001,2.4400001 0 0 1 -2.44,-2.440001 2.4400001,2.4400001 0 0 1 2.44,-2.44 2.4400001,2.4400001 0 0 1 2.44,2.44 z"
       style="fill:#2cd4d9" />
    <path
       inkscape:connector-curvature="0"
       id="circle25"
       d="m 44.050001,41.52 a 2.4400001,2.4400001 0 0 1 -2.44,2.440001 2.4400001,2.4400001 0 0 1 -2.44,-2.440001 2.4400001,2.4400001 0 0 1 2.44,-2.44 2.4400001,2.4400001 0 0 1 2.44,2.44 z"
       style="fill:#2cd4d9" />
    <path
       inkscape:connector-curvature="0"
       id="circle27"
       d="m 50.520002,41.52 a 2.4400001,2.4400001 0 0 1 -2.44,2.440001 2.4400001,2.4400001 0 0 1 -2.44,-2.440001 2.4400001,2.4400001 0 0 1 2.44,-2.44 2.4400001,2.4400001 0 0 1 2.44,2.44 z"
       style="fill:#2cd4d9" />
  </g>
</svg>
